<?xml version="1.0" encoding="utf-8"?>
<!-- Generator: Adobe Illustrator 19.0.0, SVG Export Plug-In . SVG Version: 6.00 Build 0)  -->
<svg version="1.1" id="Layer_3" xmlns="http://www.w3.org/2000/svg" xmlns:xlink="http://www.w3.org/1999/xlink" x="0px" y="0px"
	 viewBox="-202 203 107 107" style="enable-background:new -202 203 107 107;" xml:space="preserve">
<style type="text/css">
	.st0{fill:#231F20;}
	.st1{fill:#593A35;}
	.st2{fill:#603F38;}
	.st3{fill:#FFF0DE;}
	.st4{fill:#6D493F;}
	.st5{fill:#FFFFFF;}
	.st6{fill:#231306;}
</style>
<g>
	<polyline class="st0" points="-149.4,268.1 -127.6,264.2 -121.1,236.7 -121.1,222.6 -125.3,215.8 -135.2,207.7 -148.3,204 
		-161.4,207.7 -171.4,215.8 -175.6,222.6 -175.6,236.7 -169,264.2 -147.3,268.1 	"/>
	<polyline class="st1" points="-148.6,331.3 -147.9,331.1 -120,330.3 -114.3,327.1 -113.3,323.3 -111.2,318.2 -108.6,308.6 
		-106.8,298.1 -105.6,283 -107.2,276.2 -114.9,265 -121,258.3 -127.6,253 -134.5,250 -141.9,247.3 -148.5,246.1 -155.1,247.3 
		-162.5,250 -169.4,253 -176,258.3 -182.1,265 -189.8,276.2 -191.4,283 -190.2,298.1 -188.4,308.6 -185.8,318.2 -183.7,323.3 
		-182.7,327.1 -177,330.3 -149.1,331.1 -148.4,331.3 	"/>
	<polyline class="st2" points="-146.6,299.8 -142.4,300.4 -143.3,302.1 -144.8,303.2 -146.7,304.2 -148.1,304.2 -150,303.2 
		-151.5,302.1 -152.4,300.4 -148.2,299.8 	"/>
	<polygon class="st3" points="-147.1,301.5 -146.6,307.5 -145.1,307.8 -143.8,307.8 -144,300.7 	"/>
	<polygon class="st3" points="-151.5,300.9 -150.9,307.8 -148.6,308 -148.2,300.3 	"/>
	<polyline class="st4" points="-147.1,252.2 -141.4,253.4 -136.3,256 -129.9,262.9 -127.5,268.8 -126.2,272.2 -122.9,273.9 
		-120,276.4 -118.6,279.8 -118.5,287.8 -121.3,294.3 -131.4,300.5 -137.1,301.3 -139.8,301 -142,300.6 -144.3,301.8 -146.7,302.4 
		-148.1,302.4 -150.6,301.8 -152.8,300.6 -155,301 -157.8,301.3 -163.4,300.5 -173.5,294.3 -176.3,287.8 -176.2,279.8 -174.8,276.4 
		-171.9,273.9 -168.6,272.2 -167.3,268.8 -165,262.9 -158.5,256 -153.4,253.4 -147.7,252.2 	"/>
	<polygon class="st0" points="-156,276.5 -156.2,274.2 -157.4,271.7 -160.2,271.3 -162,273.2 -161.7,276.3 -158.2,278.1 
		-156.5,279.9 	"/>
	<ellipse class="st5" cx="-160.2" cy="273.5" rx="0.7" ry="1"/>
	<polygon class="st6" points="-136.3,256 -133.8,256.2 -132.5,257.4 -131,259.5 -131,262.4 -131.2,263 -133.9,261.7 -135.4,260.3 	
		"/>
	<polyline class="st0" points="-147.3,296 -143.5,294.3 -141.9,291.1 -142.9,288.9 -147.4,287.7 -147.4,287.7 -151.9,288.9 
		-152.9,291.1 -151.3,294.3 -147.5,296 	"/>
	<polygon class="st0" points="-138.8,276.5 -138.6,274.2 -137.5,271.7 -134.6,271.3 -132.8,273.2 -133.1,276.3 -136.6,278.1 
		-138.3,279.9 	"/>
	<ellipse class="st5" cx="-134.6" cy="273.5" rx="0.7" ry="1"/>
	<polygon class="st6" points="-158.5,256 -161,256.2 -162.3,257.4 -163.8,259.5 -163.8,262.4 -163.6,263 -160.9,261.7 -159.5,260.3 
			"/>
	<polygon class="st0" points="-163.4,315.8 -161.8,316.7 -160,317.6 -157.5,318 -157.6,316.3 -158.7,314.6 -161.3,312.2 
		-157.6,314.3 -155.9,315 -152.9,317.2 -152.7,315.3 -156.2,311.5 -157.2,310.4 -153.7,312.7 -152.6,314.2 -150.4,316.9 
		-149.4,316.9 -149.8,314.3 -152.4,310.7 -153,309.4 -157,306.6 -160.6,305.2 -163.8,304.7 -167,305.9 -169.9,308.7 -169.7,311.2 
		-166.7,314.8 	"/>
	<polygon class="st0" points="-133.1,315.9 -134.6,316.8 -136.4,317.7 -139,318.1 -138.9,316.4 -137.8,314.7 -135.2,312.3 
		-138.8,314.4 -140.5,315.1 -143.5,317.3 -143.7,315.4 -140.2,311.7 -139.2,310.5 -142.8,312.9 -143.8,314.3 -146,317 -147.1,317 
		-146.7,314.4 -144,310.8 -143.4,309.5 -139.5,306.8 -135.9,305.3 -132.7,304.8 -129.4,306 -126.6,308.8 -126.7,311.3 -129.7,315 	
		"/>
</g>
</svg>
