<?xml version="1.0" encoding="utf-8"?>
<!-- Generator: Adobe Illustrator 19.0.0, SVG Export Plug-In . SVG Version: 6.00 Build 0)  -->
<svg version="1.1" id="Layer_1" xmlns="http://www.w3.org/2000/svg" xmlns:xlink="http://www.w3.org/1999/xlink" x="0px" y="0px"
	 viewBox="0 0 1920 1080" enable-background="new 0 0 1920 1080" xml:space="preserve">
<g id="bottom_x5F_cave">
	<rect id="XMLID_303_" x="96" y="77.5" fill="#C3AE9B" width="1728" height="850.6"/>
	<path id="XMLID_302_" fill="#634631" d="M626.4,53.8c8.678,1.446,12.868,11.504,16.819,19.462
		c-4.762-0.519-9.523-1.145-14.319-1.762c-16.9-2.2-30.2-5.9-46.2-12.3c-19.2-7.7-38.7-21.6-59.3-24C460.7,28,401.3,63.6,371,117.7
		c-16.4,29.2-26.7,62.4-41,92.7c-14.4,30.5-34.7,58-51.6,87c-15.3,26.3-89.4,116.7-68.9,145.8c12.7,18.1,59.9,22.8,78.3,7.6
		c17.6-14.6,20.8-51.2,48.7-55.6c17-2.7,37-35.6,51.2-47.3c11.7-9.6,28.5,0,45.2-12.2c17.4-2.4,34.6-11.1,37.3-18.4
		c7.6-20.6-0.5-28.4,18.4-43.2c27.5-21.5,61.4,0.8,90.7-10.9c17.7-7.1,37.3-24.4,51.4-37.5c9.2-8.5,19.3-22.3,31.2-26.8
		c6.3-2.4,12.4-0.2,18.8-3.3c7.6-3.6,12.1-12.7,19.9-16.3c11-5,26.8-1.2,38.3,0.9c9.782,1.867,10.791,5.071,16.87-0.076
		c8.094,5.278,10.737,7.712,12.63,21.276c20.8,2,41.7-2.2,62.3-5.1c16-2.2,17.3,0.3,31.9,4c9.3,2.3,23.9-1.8,30,7.2
		c3.559,5.295,1.019,14.884,4.471,22.751c-12.896,9.007-26.747,16.703-40.471,22.749c-60.6,26.6-126.4,35.9-192.3,32.7
		c-45.2-2.2-111.8,6.3-139.9,45.9c-21.9,30.8-40.1,67.4-56,101.5c-5.765,12.353-3.852,22.446-0.113,33.639
		c-11.048,18.158-27.48,35.88-38.887,47.161c-14.9,14.8-29.1,21.8-48.7,27.6c-15.3,4.6-25.1,2.6-40.1,4.5
		c-2.52,0.322-5.122,0.872-7.771,1.582c-13.914-32.902-63.915-56.815-94.229-65.982l3.1,7.6c0,13.6-1.9,19,10.8,25.2
		c14,6.8,32.2,1.9,45.9,11.1c12.194,8.173,13.583,20.167,20.034,27.074c-6.76,2.725-13.422,5.76-19.434,8.126
		c-15.5,6.2-22.9,12.5-35.3,22.7c-9.3,7.7-21,11.6-29.7,20.7c-11.9,12.4-13.7,33.4-21.6,49.1c-6.9,13.8-14.3,26.7-18.3,40.9
		c21.8,15.2,36.7-65.6,47.8-79.1c9.4-11.4,30.8-15.9,44.4-19.3c16.3-4.1,29.7-10.8,45.4-15c14.3-3.8,29.3,0,43.8-1.5
		c12.71-1.279,28.55-10.417,42.108-18.528c-5.721,10.225-8.021,24.008-11.708,33.528c-5.5,14.1-10.8,26.6-18.5,38.9
		c-5,7.9-6.6,14.1-9.6,22.5c-6.1,17.4-7,19,3.4,33.1c14.3,19.4,37.3,42,43.1,65.9c3,12.2,2.9,28.3,3.3,40.8
		c0.5,14.8-1.2,21.7,16.3,19c1.3-25.6,7.4-51.7-3.1-75.6c-9.3-21.1-36.4-47-34.2-71.2c2.3-25.2,28.3-43.6,37.1-67.8
		c6-16.5,15.9-32.4,21.8-49.1c2.494-7.094,3.176-15.232,3.969-23.036c4.938-4.021,9.518-8.319,13.46-12.929
		c2.821,9.662,6.163,19.097,11.37,28.065c7.9,13.7,17.4,28.1,27.7,39.9c24.1,27.7,61.3,35.6,92.7,52.5
		c26.3,14.2,38.4,44.1,47.8,71.6c5.5,16.1,6.2,34.2,6.2,51.5c0,28.1,0,56.2,0,84.2c0,15.7,2.5,33.2-2.8,48.1
		c12.8,5.5,32.1-6.5,35.8-18.1c2.5-7.8-1.5-18.9-2.6-26.6c-3.1-21.2-1.9-42.9-1.9-64.3c0-28.7,5.1-57.3,3-86.1
		c-1.9-25.7-14.8-50.2-21.7-75c-9.9-35.4-22.1-51.9-52.9-70.3c-27.4-16.3-56.1-29.5-84-45.5c-3.3-39.8-18-97.6,12.1-130.7
		c24.9-27.3,65.7-38,100.5-41.6c38.3-4,68.5-1.2,106.1-2.9c31.5-1.4,63,7,94.5,3.1c28.5-3.6,54.6-20.1,80.8-31.5
		c19.411-8.403,35.253-17.882,50.438-29.76c22.219-0.9,50.796-17.099,66.163-24.54c18.9-9.2,35.9-24.9,58.7-17.5
		c13.8,4.5,25.2,19.1,34.6,29.2c1.9,2.1,2.8,5.9,4.8,8c2.9,2.9,8.3,1.6,10.1,3.5c11.4,12.6,17.1,37.4,21,53.5
		c6.212,25.527,6.117,20.343,32.44,17.73c-6.632,12.379-11.97,25.223-15.14,38.57c-3.119,13.015-4.352,26.324-5.175,39.697
		c-1.97,2.815-3.881,5.204-5.726,6.803c-19.8,17.1-43.6,25.6-61.9,42.1c-12.3,11.1-31.1,25.5-47.4,26.2c-19.8,0.8-32.9-2.1-52.3,2.3
		c-33.1,7.6-62.7,34.6-92.7,52.9c-24.1,14.8-50.6,23.8-75.7,37.3c-9.1,4.9-14.6,17.1-9.8,41.2
		c2.945,14.799-0.285,28.298,0.159,42.371C836.636,690.294,831.374,711.994,816.6,734c-11.3,16.8-30.4,28.2-41.4,46.4
		c-7.3,12-35.2,40.3-19.9,48.1c8.8-13.1,27.3-26.9,38.4-40.1c13.2-15.7,30.9-29.7,43.8-45.3
		c9.499-11.508,12.334-26.181,18.391-39.534c5.334,16.677,10.872,33.047,14.81,50.134c6.4,27.6-2.5,55.3-9.8,81.9
		c-3,10.9-10.8,26.7-7.7,38.4c3.1,12,8.7,11.6,20.9,13.4l-0.2-4.8c11.7-17.5,11.1-45.9,15.5-66.5c4-18.6,12.5-39.2,11.2-58.6
		c-2.171-31.984-10.962-72.75-13.863-108.331c0.318-1.806,0.429-3.539,0.263-5.169l-0.69-0.722c-0.313-4.958-0.498-9.8-0.51-14.478
		c0-36,58.2-47.4,94.5-72.5c14.4-10,43.8-17.8,63.4-18c9.6-0.1,44.6-1.8,54.8-1.8c34.686-0.215,61.616-22.052,85.466-45.747
		c-6.503,17.268-16.147,32.58-15.366,52.647c1.3,33,3.8,75.8,37.4,88.9c31.4,12.2,63.6,14.8,97.4,17.5c16.4,1.3,21.9,5.9,42.6,13.4
		c16.1,5.8,56.5,56.9,72,63c50.9,20.1,33.6,65.6,50.9,75.7c5.3,3.1,4.3-26.8,12.9-27.9c0.6-11-2.4-38.4-8.4-46.6
		c-9.2-12.7-33.5-20.8-46.5-29.7c-2.221-1.509-4.377-3.123-6.479-4.815c6.936-0.789,13.923-1.983,21.079-1.285
		c15.4,1.4,21.5-8.3,36.7-5.6c25.3,4.5,59.8,50.3,78.7,18.8c-8.1-11.2-32.4-9.8-44.9-17.4c-10.7-6.5-17.8-17-29.9-19.8
		c-27.625-6.368-51.304,8.222-77.196,10.266c-4.063-4.633-7.858-9.533-11.404-14.566c-10.4-14.6-16.8-28.6-34.6-34.6
		c-12.6-4.2-27.1-4.7-40.1-8.8c-15.6-4.9-26-13.5-43.1-16.5c-17.9-3.1-33.3-4.2-48.7-13.5c-40.6-24.7-13.2-48.7-2.9-83.1
		c4.1-13.5,7.6-30.3,10.2-44.3c1.8-9.9-0.7-24.7,4.7-33.1c5.4-8.5,20.7-12.9,29.7-21.4c8.8-8.3,14.6-17.6,22.8-26.2
		c4.249-4.471,8.821-8.541,13.568-12.397c1.644,7.897,3.269,15.783,7.532,21.797c4.9,6.9,16.5,12.7,24.5,16.1
		c14.6,6.3,33.8,7.6,49.5,10.3c2.3,0.4,17.3,4.5,19,4.3c15.2-2.1,17.2-14.7,32.8-8.7c20,7.7,29.9,35.4,34.9,53.1
		c6.8,23.9,21,34.7,18.5,60.8c-1.3,13.4-13.4,41.9-6.7,54.7c3.3,6.3,16.5,10.3,23.5,13.1c13.5,5.3,34.1,6.8,45.8,15.6
		c10.6,8,8.8,16.8,10.2,29.4c1,8.9,3.2,17.5,6.1,26c5.5,15.9,11.8,47.8,22.7,60c10.2,11.4,43.3,17.8,58.8,20c16,2.2,48,7.2,60.2-5.3
		c5.9-6.1,7.8-18.8,11.5-26.3c8.5-17.2,20.2-32.2,29.1-49.2c10.5-20.2,15.8-42.2,24.8-62.9c16.8-38.4,36.4-72.8,46.2-114
		c9.7-41.1,10-85.8,10.4-128c0.8-93-69.9-168.9-137.2-223.7c-50.2-40.9-102-83.5-158.7-113.9
		c-15.507-8.313-31.371-15.814-47.516-22.6H621.193L626.4,53.8z"/>
</g>
<g id="hare">
	<polygon id="XMLID_475_" fill="#AA8B6A" points="1024.978,877.773 824.013,857.569 824.901,841.449 827.77,825.37 834.201,796.222 
		837.117,761.229 841.013,718.459 845.691,696.685 851.927,682.688 864.399,663.249 874.533,648.473 885.754,635.971 
		890.583,623.095 895.411,591.709 905.069,565.152 913.117,549.861 921.969,538.594 921.164,519.28 921.164,500.771 
		919.555,479.042 913.117,437.194 930.821,451.679 979.912,416.27 994.397,423.513 1018.541,428.341 1031.418,428.341 
		1055.56,423.513 1070.046,416.27 1119.137,451.679 1136.842,437.194 1130.404,479.042 1128.794,500.771 1128.794,519.28 
		1127.989,538.594 1136.842,549.861 1144.89,565.152 1154.547,591.709 1159.376,623.095 1164.204,635.971 1175.425,648.473 
		1185.559,663.249 1198.03,682.688 1204.268,696.685 1208.944,718.459 1212.842,761.229 1215.756,796.222 1222.185,825.37 
		1225.056,841.449 1225.943,857.569 	"/>
	<polygon id="XMLID_474_" fill="#A28961" points="995.204,687.479 1006.471,700.356 1016.932,705.989 1023.371,706.794 
		1031.418,705.184 1042.684,701.966 1053.146,689.089 1024.979,673.799 	"/>
	<polygon id="XMLID_473_" fill="#826C4A" points="1232.305,220.266 1230.388,237.23 1228.114,269.503 1214.247,318.215 
		1200.05,355.667 1186.138,375.399 1177.003,393.38 1166.972,408.166 1152.634,413.418 1143.95,419.309 1108.978,489.575 
		1067.102,461.82 1074.061,397.207 1120.155,294.409 1193.36,237.512 1213.708,217.592 	"/>
	<polyline id="XMLID_472_" fill="#A08153" points="1056.887,441.212 1062.468,413.649 1059.679,373.475 1090.154,314.612 
		1113.152,275.293 1137.499,254.449 1187.068,215.154 1199.703,206.732 1216.689,209.453 1227.218,211.559 1231.594,223.508 
		1219.552,224.667 1206.965,234.697 1174.527,254.168 1154.155,273.283 1139.626,299.472 1131.272,343.999 1130.584,375.421 
		1113.146,412.161 1086.906,459.033 	"/>
	<polygon id="XMLID_471_" fill="#826C4A" points="828.115,213.031 828.629,230.095 828.237,262.445 838.046,312.134 
		849.112,350.628 861.352,371.438 868.974,390.11 877.755,405.673 891.612,412.087 899.781,418.673 928.849,491.581 
		972.867,467.368 971.251,402.401 933.779,296.156 865.507,233.424 846.868,211.898 	"/>
	<polyline id="XMLID_470_" fill="#A08153" points="984.746,447.669 981.453,419.742 987.54,379.934 962.015,318.762 
		942.331,277.681 919.783,254.904 873.619,211.66 861.72,202.227 844.567,203.541 833.901,204.773 828.555,216.32 840.462,218.467 
		852.18,229.5 882.905,251.574 901.634,272.302 913.957,299.6 918.616,344.663 916.715,376.034 931.068,414.086 953.36,462.959 	"/>
	<g id="XMLID_498_">
		<polyline id="XMLID_469_" fill="#A28961" points="1025.275,685.339 1010.301,689.409 988.52,695.873 968.257,696.028 
			955.911,690.593 932.114,671.725 911.255,648.33 898.737,637.206 897.154,622.451 898.068,599.879 903.601,579.445 
			914.291,556.35 920.698,549.781 931.021,537.172 927.235,505.974 928.859,484.292 938.921,466.795 965.255,441.407 
			988.636,435.124 1025.275,435.596 1061.915,435.124 1085.295,441.407 1111.63,466.795 1121.692,484.292 1123.315,505.974 
			1119.529,537.172 1129.852,549.781 1136.258,556.35 1146.949,579.445 1152.481,599.879 1153.396,622.451 1151.813,637.206 
			1139.295,648.33 1118.436,671.725 1094.64,690.593 1082.292,696.028 1062.03,695.873 1040.25,689.409 1025.275,685.339 		"/>
	</g>
	<polygon id="XMLID_468_" fill="#231F20" points="926.884,501.885 938.61,505.633 949.342,525.462 951.545,541.906 935.991,543.399 
		927.642,538.413 924.46,523.479 923.938,513.703 	"/>
	<g id="XMLID_426_">
		<polygon id="XMLID_467_" fill="#D9BE91" points="1025.438,583.404 1010.235,588.986 994.673,597.766 990.217,608.604 
			973.512,605.919 950.662,614.691 940.787,623.302 936.682,638.227 932.038,657.952 936.919,664.977 946.41,681.429 
			959.287,689.354 968.257,696.028 983.632,696.135 995.366,692.594 1024.526,685.339 1026.024,685.339 1055.184,692.594 
			1066.919,696.135 1082.292,696.028 1091.264,689.354 1104.14,681.429 1113.631,664.977 1118.512,657.952 1113.868,638.227 
			1109.762,623.302 1099.888,614.691 1077.038,605.919 1060.334,608.604 1055.877,597.766 1040.314,588.986 1025.112,583.404 		"/>
	</g>
	<polygon id="XMLID_466_" fill="#231F20" points="994.453,635.803 1022.78,657.608 1024.526,685.339 1029.854,688.366 
		1032.467,657.885 1051.056,643.776 1058.71,633.298 1052.583,630.181 1029.274,650.238 998.632,634.651 	"/>
	<polygon id="XMLID_465_" fill="#231F20" points="1122.671,501.885 1110.943,505.633 1100.212,525.462 1098.009,541.906 
		1113.562,543.399 1121.911,538.413 1125.095,523.479 1125.615,513.703 	"/>
	<ellipse id="XMLID_461_" fill="#FFFFFF" cx="1118.34" cy="522.067" rx="4.024" ry="4.785"/>
	<ellipse id="XMLID_460_" fill="#FFFFFF" cx="929.219" cy="519.475" rx="2.414" ry="3.001"/>
</g>
<g id="top_x5F_cave">
	<path id="XMLID_276_" fill="#7D6363" d="M2.4,753.164L0,753.509V1080h1920V0H0v233.9v63.4v283.4l2.4-0.192V753.164z M262.7,559.7
		l28.9-120.9l-12.151-63H362.6l65.6-110.4l12.413-70.9H575.1l91.351-93.275L782.7,136.7l44.6-18.4l155,43.4l83.653-82.471
		L1145.2,126.2l209.314,16.473L1352.8,175l105.088,74.762L1452.6,286.9l70.9,81.4l63.767-12.633L1614.5,437.2l-32.9,94.6l59.5,124.4
		l29.964,8.316L1633.1,684.7l-94.5,6.7l-85.5,61.5l-65.5,34.5l-234.2,7.8l-67.3,9.4l-116.7-22.5l-81.3,5.3l-90,22.7l-58.6-16.5
		L599,822.5l-196.9-35.1l-108.1-9L232.6,720l-13.015,1.875L225.7,681L209,591.3l-26.298-25.205L262.7,559.7z"/>
	<path id="XMLID_275_" fill="#8C8080" d="M1545.1,183.5c-11.4-5-11.1-2.9-18.3,7.3c-9.4,13.4-31.4,44.2-34.2,61.3l-3,15
		c13.8-1,21.7,35.8,30.3,46.2c6.8-8.9,7.2-27.7,10.5-39c3.4-11.7,6.1-23.6,9.4-35.3c3.2-11.4,16-33.9,14.3-45.4
		C1552.8,184.7,1553,187,1545.1,183.5z"/>
	<path id="XMLID_274_" fill="#8C8080" d="M1692.8,501.1c7.4-3,13.9-7.3,21.6-9.1c-2.4-17.5-43.7-24.2-58.3-28.3l-15,1.4
		c-9.2,19.8-19.6,39.4-27.2,59.9c12.6,1.7,25.9-7.5,37.3-11.6C1664.7,508.6,1679.6,506.4,1692.8,501.1z"/>
	<path id="XMLID_273_" fill="#8C8080" d="M249.3,320.6c-18.7-8-33.3-18.3-48.7-31.4c-8-6.7-14.9-16.3-26.1-15.7
		c10,16.6,15.5,33.3,31.8,45.1c18.3,13.2,40,22.9,59.3,34.5l24-1.6c12.6-1.7,27-3.1,38.9-5.6c-11.5-11.4-19.7-10.8-34.8-12.3
		C278.9,332.1,263,326.4,249.3,320.6z"/>
	<path id="XMLID_272_" fill="#8C8080" d="M1920,69.853c-37.097,14.519-73.021,33.307-109.1,48.947c-22,9.5-62.6,23.5-75.3,41.7
		c13.7,1.5,27.8-3.4,40.6-6.7c26.4-6.7,52-15.1,78.3-22c21.632-5.727,43.505-10.686,65.5-15.257V69.853z"/>
	<path id="XMLID_271_" fill="#8C8080" d="M1920,633.134c-11.756,6.415-24.131,12.126-35.8,18.166c-24.5,12.6-49.7,24.6-74.9,35.5
		c-28.4,12.3-64.4,30.5-96.1,31.5c-21,0.7-33.4-19.3-50.8,2.5c-9.5,11.9-17.6,19.7-29.7,29.1c-5.6,4.3-12.2,8.3-14,15
		c23.2,6.4,48.5-8.9,71.8-11.7c15.7-1.9,47.7-7.6,61.5,0.3c5.5,3.1,4,9,11.4,11.7c16.6,6.1,47.4-0.6,63.9-4.4
		c29.752-6.803,61.404-15.168,92.7-19.001V633.134z"/>
	<path id="XMLID_270_" fill="#8C8080" d="M96.7,529.5c-12.7-4.5-25.3-9.8-37.8-15c-0.1,0-0.1,0-0.2,0
		c-18.932-4.912-39.139-16.275-58.7-19.293v222.228c9.404,0.652,18.799,1.829,26.9,1.165c-2.1-18-17-33.7-19.4-53.6
		c-4.2-34.6,2.1-60.3,16.7-84.3c7.8-12.7,16.5-30,28.5-36.7c15-8.3,44,11,59.2,4.5c3.8-1.6,7-3.6,8.9-6c-7.4-3.1-14.7-6.5-21.5-11.1
		C98.4,530.8,97.5,530.2,96.7,529.5z"/>
	<path id="XMLID_269_" fill="#8C8080" d="M235.3,13.2c33.5,18.9,67.5,35.6,100.1,56c23.9,14.9,59.9,18.4,80.1,36.6
		C395.6,70,374.4,35.4,350.3,2.2c-0.524-0.725-1.049-1.46-1.575-2.2H213.68C220.917,4.665,228.117,9.166,235.3,13.2z"/>
	<path id="XMLID_268_" fill="#8C8080" d="M1400.516,0c-3.244,21.5-11.979,42.787-12.916,64.6c13.4-5,27.4-26.3,38.7-36
		c10.563-9.024,19.656-18.49,28.447-28.6H1400.516z"/>
</g>
</svg>
