<?xml version="1.0" encoding="utf-8"?>
<!-- Generator: Adobe Illustrator 19.0.0, SVG Export Plug-In . SVG Version: 6.00 Build 0)  -->
<svg version="1.1" id="Layer_1" xmlns="http://www.w3.org/2000/svg" xmlns:xlink="http://www.w3.org/1999/xlink" x="0px" y="0px"
	 viewBox="0 0 1920 1080" enable-background="new 0 0 1920 1080" xml:space="preserve">
<g id="bottom_x5F_cave">
	<rect id="XMLID_303_" x="96" y="77.5" fill="#C3AE9B" width="1728" height="850.6"/>
	<path id="XMLID_302_" fill="#634631" d="M626.4,53.8c8.678,1.446,12.868,11.504,16.819,19.462
		c-4.762-0.519-9.523-1.145-14.319-1.762c-16.9-2.2-30.2-5.9-46.2-12.3c-19.2-7.7-38.7-21.6-59.3-24C460.7,28,401.3,63.6,371,117.7
		c-16.4,29.2-26.7,62.4-41,92.7c-14.4,30.5-34.7,58-51.6,87c-15.3,26.3-89.4,116.7-68.9,145.8c12.7,18.1,59.9,22.8,78.3,7.6
		c17.6-14.6,20.8-51.2,48.7-55.6c17-2.7,37-35.6,51.2-47.3c11.7-9.6,28.5,0,45.2-12.2c17.4-2.4,34.6-11.1,37.3-18.4
		c7.6-20.6-0.5-28.4,18.4-43.2c27.5-21.5,61.4,0.8,90.7-10.9c17.7-7.1,37.3-24.4,51.4-37.5c9.2-8.5,19.3-22.3,31.2-26.8
		c6.3-2.4,12.4-0.2,18.8-3.3c7.6-3.6,12.1-12.7,19.9-16.3c11-5,26.8-1.2,38.3,0.9c9.782,1.867,10.791,5.071,16.87-0.076
		c8.094,5.278,10.737,7.712,12.63,21.276c20.8,2,41.7-2.2,62.3-5.1c16-2.2,17.3,0.3,31.9,4c9.3,2.3,23.9-1.8,30,7.2
		c3.559,5.295,1.019,14.884,4.471,22.751c-12.896,9.007-26.747,16.703-40.471,22.749c-60.6,26.6-126.4,35.9-192.3,32.7
		c-45.2-2.2-111.8,6.3-139.9,45.9c-21.9,30.8-40.1,67.4-56,101.5c-5.765,12.353-3.852,22.446-0.113,33.639
		c-11.048,18.158-27.48,35.88-38.887,47.161c-14.9,14.8-29.1,21.8-48.7,27.6c-15.3,4.6-25.1,2.6-40.1,4.5
		c-2.52,0.322-5.122,0.872-7.771,1.582c-13.914-32.902-63.915-56.815-94.229-65.982l3.1,7.6c0,13.6-1.9,19,10.8,25.2
		c14,6.8,32.2,1.9,45.9,11.1c12.194,8.173,13.583,20.167,20.034,27.074c-6.76,2.725-13.422,5.76-19.434,8.126
		c-15.5,6.2-22.9,12.5-35.3,22.7c-9.3,7.7-21,11.6-29.7,20.7c-11.9,12.4-13.7,33.4-21.6,49.1c-6.9,13.8-14.3,26.7-18.3,40.9
		c21.8,15.2,36.7-65.6,47.8-79.1c9.4-11.4,30.8-15.9,44.4-19.3c16.3-4.1,29.7-10.8,45.4-15c14.3-3.8,29.3,0,43.8-1.5
		c12.71-1.279,28.55-10.417,42.108-18.528c-5.721,10.225-8.021,24.008-11.708,33.528c-5.5,14.1-10.8,26.6-18.5,38.9
		c-5,7.9-6.6,14.1-9.6,22.5c-6.1,17.4-7,19,3.4,33.1c14.3,19.4,37.3,42,43.1,65.9c3,12.2,2.9,28.3,3.3,40.8
		c0.5,14.8-1.2,21.7,16.3,19c1.3-25.6,7.4-51.7-3.1-75.6c-9.3-21.1-36.4-47-34.2-71.2c2.3-25.2,28.3-43.6,37.1-67.8
		c6-16.5,15.9-32.4,21.8-49.1c2.494-7.094,3.176-15.232,3.969-23.036c4.938-4.021,9.518-8.319,13.46-12.929
		c2.821,9.662,6.163,19.097,11.37,28.065c7.9,13.7,17.4,28.1,27.7,39.9c24.1,27.7,61.3,35.6,92.7,52.5
		c26.3,14.2,38.4,44.1,47.8,71.6c5.5,16.1,6.2,34.2,6.2,51.5c0,28.1,0,56.2,0,84.2c0,15.7,2.5,33.2-2.8,48.1
		c12.8,5.5,32.1-6.5,35.8-18.1c2.5-7.8-1.5-18.9-2.6-26.6c-3.1-21.2-1.9-42.9-1.9-64.3c0-28.7,5.1-57.3,3-86.1
		c-1.9-25.7-14.8-50.2-21.7-75c-9.9-35.4-22.1-51.9-52.9-70.3c-27.4-16.3-56.1-29.5-84-45.5c-3.3-39.8-18-97.6,12.1-130.7
		c24.9-27.3,65.7-38,100.5-41.6c38.3-4,68.5-1.2,106.1-2.9c31.5-1.4,63,7,94.5,3.1c28.5-3.6,54.6-20.1,80.8-31.5
		c19.411-8.403,35.253-17.882,50.438-29.76c22.219-0.9,50.796-17.099,66.163-24.54c18.9-9.2,35.9-24.9,58.7-17.5
		c13.8,4.5,25.2,19.1,34.6,29.2c1.9,2.1,2.8,5.9,4.8,8c2.9,2.9,8.3,1.6,10.1,3.5c11.4,12.6,17.1,37.4,21,53.5
		c6.212,25.527,6.117,20.343,32.44,17.73c-6.632,12.379-11.97,25.223-15.14,38.57c-3.119,13.015-4.352,26.324-5.175,39.697
		c-1.97,2.815-3.881,5.204-5.726,6.803c-19.8,17.1-43.6,25.6-61.9,42.1c-12.3,11.1-31.1,25.5-47.4,26.2c-19.8,0.8-32.9-2.1-52.3,2.3
		c-33.1,7.6-62.7,34.6-92.7,52.9c-24.1,14.8-50.6,23.8-75.7,37.3c-9.1,4.9-14.6,17.1-9.8,41.2
		c2.945,14.799-0.285,28.298,0.159,42.371C836.636,690.294,831.374,711.994,816.6,734c-11.3,16.8-30.4,28.2-41.4,46.4
		c-7.3,12-35.2,40.3-19.9,48.1c8.8-13.1,27.3-26.9,38.4-40.1c13.2-15.7,30.9-29.7,43.8-45.3
		c9.499-11.508,12.334-26.181,18.391-39.534c5.334,16.677,10.872,33.047,14.81,50.134c6.4,27.6-2.5,55.3-9.8,81.9
		c-3,10.9-10.8,26.7-7.7,38.4c3.1,12,8.7,11.6,20.9,13.4l-0.2-4.8c11.7-17.5,11.1-45.9,15.5-66.5c4-18.6,12.5-39.2,11.2-58.6
		c-2.171-31.984-10.962-72.75-13.863-108.331c0.318-1.806,0.429-3.539,0.263-5.169l-0.69-0.722c-0.313-4.958-0.498-9.8-0.51-14.478
		c0-36,58.2-47.4,94.5-72.5c14.4-10,43.8-17.8,63.4-18c9.6-0.1,44.6-1.8,54.8-1.8c34.686-0.215,61.616-22.052,85.466-45.747
		c-6.503,17.268-16.147,32.58-15.366,52.647c1.3,33,3.8,75.8,37.4,88.9c31.4,12.2,63.6,14.8,97.4,17.5c16.4,1.3,21.9,5.9,42.6,13.4
		c16.1,5.8,56.5,56.9,72,63c50.9,20.1,33.6,65.6,50.9,75.7c5.3,3.1,4.3-26.8,12.9-27.9c0.6-11-2.4-38.4-8.4-46.6
		c-9.2-12.7-33.5-20.8-46.5-29.7c-2.221-1.509-4.377-3.123-6.479-4.815c6.936-0.789,13.923-1.983,21.079-1.285
		c15.4,1.4,21.5-8.3,36.7-5.6c25.3,4.5,59.8,50.3,78.7,18.8c-8.1-11.2-32.4-9.8-44.9-17.4c-10.7-6.5-17.8-17-29.9-19.8
		c-27.625-6.368-51.304,8.222-77.196,10.266c-4.063-4.633-7.858-9.533-11.404-14.566c-10.4-14.6-16.8-28.6-34.6-34.6
		c-12.6-4.2-27.1-4.7-40.1-8.8c-15.6-4.9-26-13.5-43.1-16.5c-17.9-3.1-33.3-4.2-48.7-13.5c-40.6-24.7-13.2-48.7-2.9-83.1
		c4.1-13.5,7.6-30.3,10.2-44.3c1.8-9.9-0.7-24.7,4.7-33.1c5.4-8.5,20.7-12.9,29.7-21.4c8.8-8.3,14.6-17.6,22.8-26.2
		c4.249-4.471,8.821-8.541,13.568-12.397c1.644,7.897,3.269,15.783,7.532,21.797c4.9,6.9,16.5,12.7,24.5,16.1
		c14.6,6.3,33.8,7.6,49.5,10.3c2.3,0.4,17.3,4.5,19,4.3c15.2-2.1,17.2-14.7,32.8-8.7c20,7.7,29.9,35.4,34.9,53.1
		c6.8,23.9,21,34.7,18.5,60.8c-1.3,13.4-13.4,41.9-6.7,54.7c3.3,6.3,16.5,10.3,23.5,13.1c13.5,5.3,34.1,6.8,45.8,15.6
		c10.6,8,8.8,16.8,10.2,29.4c1,8.9,3.2,17.5,6.1,26c5.5,15.9,11.8,47.8,22.7,60c10.2,11.4,43.3,17.8,58.8,20c16,2.2,48,7.2,60.2-5.3
		c5.9-6.1,7.8-18.8,11.5-26.3c8.5-17.2,20.2-32.2,29.1-49.2c10.5-20.2,15.8-42.2,24.8-62.9c16.8-38.4,36.4-72.8,46.2-114
		c9.7-41.1,10-85.8,10.4-128c0.8-93-69.9-168.9-137.2-223.7c-50.2-40.9-102-83.5-158.7-113.9
		c-15.507-8.313-31.371-15.814-47.516-22.6H621.193L626.4,53.8z"/>
</g>
<g id="hare">
	<polygon id="XMLID_475_" fill="#AA8B6A" points="649.997,877.773 449.031,857.569 449.92,841.449 452.789,825.37 459.22,796.222 
		462.135,761.229 466.032,718.459 470.71,696.685 476.945,682.688 489.418,663.249 499.551,648.473 510.773,635.971 
		515.602,623.095 520.43,591.709 530.087,565.152 538.135,549.861 546.987,538.594 546.183,519.28 546.183,500.771 544.573,479.042 
		538.135,437.194 555.84,451.679 604.931,416.27 619.416,423.513 643.56,428.341 656.437,428.341 680.579,423.513 695.065,416.27 
		744.155,451.679 761.86,437.194 755.423,479.042 753.813,500.771 753.813,519.28 753.008,538.594 761.86,549.861 769.908,565.152 
		779.565,591.709 784.395,623.095 789.223,635.971 800.443,648.473 810.578,663.249 823.049,682.688 829.287,696.685 
		833.963,718.459 837.86,761.229 840.774,796.222 847.204,825.37 850.074,841.449 850.962,857.569 	"/>
	<polygon id="XMLID_474_" fill="#A28961" points="620.223,687.479 631.489,700.356 641.95,705.989 648.39,706.794 656.437,705.184 
		667.703,701.966 678.165,689.089 649.998,673.799 	"/>
	<polygon id="XMLID_473_" fill="#826C4A" points="857.323,220.266 855.406,237.23 853.133,269.503 839.266,318.215 825.068,355.667 
		811.156,375.399 802.022,393.38 791.99,408.166 777.652,413.418 768.969,419.309 733.997,489.575 692.121,461.82 699.08,397.207 
		745.174,294.409 818.379,237.512 838.727,217.592 	"/>
	<polyline id="XMLID_472_" fill="#A08153" points="681.905,441.212 687.486,413.649 684.697,373.475 715.173,314.612 
		738.171,275.293 762.518,254.449 812.087,215.154 824.722,206.732 841.708,209.453 852.236,211.559 856.612,223.508 
		844.57,224.667 831.983,234.697 799.546,254.168 779.174,273.283 764.645,299.472 756.291,343.999 755.603,375.421 
		738.165,412.161 711.925,459.033 	"/>
	<polygon id="XMLID_471_" fill="#826C4A" points="453.134,213.031 453.648,230.095 453.255,262.445 463.065,312.134 474.13,350.628 
		486.371,371.438 493.993,390.11 502.774,405.673 516.631,412.087 524.8,418.673 553.867,491.581 597.886,467.368 596.27,402.401 
		558.797,296.156 490.525,233.424 471.887,211.898 	"/>
	<polyline id="XMLID_470_" fill="#A08153" points="609.765,447.669 606.472,419.742 612.559,379.934 587.033,318.762 
		567.35,277.681 544.802,254.904 498.637,211.66 486.739,202.227 469.586,203.541 458.92,204.773 453.574,216.32 465.481,218.467 
		477.199,229.5 507.924,251.574 526.653,272.302 538.976,299.6 543.635,344.663 541.733,376.034 556.087,414.086 578.379,462.959 	
		"/>
	<g id="XMLID_498_">
		<polyline id="XMLID_469_" fill="#A28961" points="650.294,685.339 635.319,689.409 613.539,695.873 593.276,696.028 
			580.929,690.593 557.133,671.725 536.274,648.33 523.756,637.206 522.172,622.451 523.087,599.879 528.62,579.445 539.31,556.35 
			545.717,549.781 556.04,537.172 552.253,505.974 553.878,484.292 563.94,466.795 590.274,441.407 613.654,435.124 
			650.294,435.596 686.934,435.124 710.314,441.407 736.649,466.795 746.711,484.292 748.334,505.974 744.548,537.172 
			754.871,549.781 761.276,556.35 771.968,579.445 777.5,599.879 778.415,622.451 776.832,637.206 764.314,648.33 743.455,671.725 
			719.658,690.593 707.311,696.028 687.049,695.873 665.269,689.409 650.294,685.339 		"/>
	</g>
	<polygon id="XMLID_468_" fill="#231F20" points="551.902,501.885 563.629,505.633 574.36,525.462 576.564,541.906 561.009,543.399 
		552.661,538.413 549.479,523.479 548.957,513.703 	"/>
	<g id="XMLID_426_">
		<polygon id="XMLID_467_" fill="#D9BE91" points="650.457,583.404 635.254,588.986 619.691,597.766 615.235,608.604 
			598.531,605.919 575.681,614.691 565.806,623.302 561.701,638.227 557.057,657.952 561.938,664.977 571.429,681.429 
			584.306,689.354 593.276,696.028 608.65,696.135 620.385,692.594 649.545,685.339 651.043,685.339 680.203,692.594 
			691.938,696.135 707.311,696.028 716.282,689.354 729.158,681.429 738.649,664.977 743.53,657.952 738.887,638.227 
			734.78,623.302 724.906,614.691 702.057,605.919 685.353,608.604 680.896,597.766 665.333,588.986 650.131,583.404 		"/>
	</g>
	<polygon id="XMLID_466_" fill="#231F20" points="619.472,635.803 647.799,657.608 649.545,685.339 654.873,688.366 
		657.485,657.885 676.074,643.776 683.729,633.298 677.602,630.181 654.293,650.238 623.65,634.651 	"/>
	<polygon id="XMLID_465_" fill="#231F20" points="747.69,501.885 735.962,505.633 725.231,525.462 723.027,541.906 738.581,543.399 
		746.93,538.413 750.113,523.479 750.634,513.703 	"/>
	<ellipse id="XMLID_461_" fill="#FFFFFF" cx="743.359" cy="522.067" rx="4.024" ry="4.785"/>
	<ellipse id="XMLID_460_" fill="#FFFFFF" cx="554.238" cy="519.475" rx="2.414" ry="3.001"/>
</g>
<g id="mouse">
	<path fill="#A7A9AC" d="M1204.6,553.3c0,0-17-1.7-22.6-16.6c-4.7-12.5-25.3-74.2-73.9-36c-42.2,33.1-8,91-5,98.9s16,17.1,16,17.1
		L1204.6,553.3z"/>
	<path fill="#A7A9AC" d="M1247,604.7c0,0,2-4.9,4.2-18s-2.2-15.6-3.8-28c-1.6-12.4,11.5-38.6,30.1-40.8s44.8,3.3,51.4,16.4
		c6.6,13.1,4.4,56.9,0,66.7s-22.1,27.8-35,31.3s-38.3,0-38.3,0L1247,604.7z"/>
	<path fill="#BCBEC0" d="M1056,827.6c0,0-9.9-152.9,10.8-171.6c20.7-18.7,69.9-113.5,132-104.7c62.2,8.9,101.5,86.9,108.4,112.6
		c6.9,25.6,48.3,163.7,48.3,163.7H1056z"/>
	<polygon fill="#939598" points="1056,828.6 1063.9,772.3 1095.6,736.3 1109.2,767.3 1131,748.6 1127.1,720 1147.5,697.3 
		1164.9,689.2 1196.3,700.3 1203.8,715.1 1211.2,736.3 1228.5,748.6 1233.3,769.3 1261,784.1 1275.3,774.6 1294.5,796.9 
		1302.4,828.6 	"/>
	<path fill="#A7A9AC" d="M1129.7,605.8v10.8l-10.6,20.8l8,18.2l27.5-15.8l10.3-27.6l17.2-10.7l11.9,16l17.2-6c0,0,5.7,10.8,7.6,11.9
		c1.8,1.1-0.6,23.1-0.6,23.1v20.8l24.5,17.6l32.7,10.4l13.2-15v-24.8l-8.8-28.1l2-4.1l-30.1-64.4l-11.8-3.4l-44.7-5.6l-28.7,0.4
		l-39.3,32.3v19.1"/>
	<path fill="#A7A9AC" d="M1218.1,557.4c0,0,13.8,3.9,21.7,0c7.9-3.9,20.4-21.1,20.4-21.1l13.8,1.8l-14,52.4l-41.9-21.7V557.4z"/>
	<path fill="#E6E7E8" d="M1151.6,588c0,0,10.7-23.7,14.8-35.7c9.9-28.8-12.8-86.5-52.2-50c-39.4,36.5-17.7,72.9-14.8,80.8
		c3,7.9,23.6,29.6,23.6,29.6L1151.6,588z"/>
	<path fill="#E6E7E8" d="M1251.3,602.3c0,0,1.8-4.4,3.8-16.2s-2-14.1-3.4-25.3c-1.5-11.2,10.3-34.8,27.1-36.8
		c16.8-2,40.4,3,46.3,14.8s3.9,51.2,0,60.1c-3.9,8.9-19.9,25-31.5,28.2s-34.5,0-34.5,0L1251.3,602.3z"/>
	<polygon fill="#ECABBF" points="1150.1,719.1 1158,715.1 1164.9,719.1 1176.7,715.1 1179.7,724 1168.7,736.3 1160.5,733.8 
		1153.1,733.8 	"/>
	<path d="M1128.4,651.9l11.8-3l3.8-2.6l6.1-10.2l-1.3-11.5c0,0-5.9-1-10.8,1s-9.7,8-10.5,10.8s-0.2,8,0,8.9
		C1127.6,646.1,1128.4,651.9,1128.4,651.9z"/>
	<path d="M1228.5,640.6l-7.2,5.7l-1.5,7.4l-1,8.4l12.6,8l9.5,1.6l3.3-1.8v-2.6c0,0,4.1-8,1.5-14.5c-2.6-6.4-7.8-8.9-9.7-9.5
		C1234.1,642.7,1228.5,640.6,1228.5,640.6z"/>
	<path fill="#FFFFFF" d="M1134.5,635.7c0,0-0.4-2.3,2.2-3.7s10.8-0.9,10.8-0.9l-2.8,4.5c0,0-6-0.3-6.1,1.7s2.9,2.6,2.9,2.6l-9.3,2.5
		c0,0-1.8-1.4-1-3.7C1132,636.4,1134.5,635.7,1134.5,635.7z"/>
	<path fill="#FFFFFF" d="M1224,650.2l5.4-4.1c0,0,9.9,3.2,11.5,5.9s2.2,3.6,1.2,4.1s-6.5,1.4-7.1,0s-1.7-3.3-1.7-3.3s-2.1,0-3.4-0.1
		C1228.7,652.7,1224,650.2,1224,650.2z"/>
	<polygon fill="#E6E7E8" points="1139.3,715.1 1150.1,733.3 1162.4,739.8 1176.7,739.8 1200.9,722.5 1211.2,725.7 1206.8,739.8 
		1182.1,748.6 1133.9,736.3 1129.7,725.7 1129.7,711.7 	"/>
	<path fill="#414042" d="M1192,702.7c0,0,1.8-1.6,5.1-4.4c3.3-2.8,7.9-6.7,13.6-11.3c2.9-2.3,6-4.7,9.3-7.3s6.8-5.2,10.5-7.9
		s7.6-5.4,11.5-8.1c2-1.4,4-2.7,6.1-4c2-1.3,4.1-2.6,6.2-3.9c2.1-1.2,4.2-2.5,6.4-3.6c2.1-1.1,4.3-2.3,6.5-3.2
		c4.4-2,8.8-3.7,13.1-5.2c8.7-3,17-4.9,24.2-6.4c7.2-1.4,13.3-2.2,17.5-2.7s6.7-0.6,6.7-0.6s-2.4,0.2-6.7,0.8
		c-4.2,0.6-10.2,1.6-17.4,3.1c-7.2,1.5-15.4,3.7-24,6.6c-4.3,1.5-8.7,3.2-13,5.2c-2.2,1-4.3,2.1-6.5,3.2c-2.1,1.2-4.2,2.4-6.3,3.6
		c-2.1,1.3-4.2,2.5-6.2,3.8s-4.1,2.6-6.1,4c-4,2.7-7.8,5.4-11.6,8.1c-3.7,2.7-7.3,5.3-10.6,7.8c-3.3,2.5-6.5,4.9-9.4,7.2
		c-5.8,4.5-10.5,8.3-13.9,11C1193.9,701.2,1192,702.7,1192,702.7z"/>
	<path fill="#414042" d="M1196,708.9c0,0,2.7-1.4,7.6-3.8c2.4-1.2,5.4-2.6,8.7-4.2c3.4-1.6,7.2-3.4,11.4-5.3c4.2-1.9,8.8-4,13.6-6.1
		c2.4-1,4.9-2.1,7.5-3.2c2.6-1.1,5.2-2.1,7.8-3.2c2.7-1.1,5.4-2.1,8.2-3.2c2.8-1,5.6-2.1,8.4-3.2c2.9-1,5.7-2,8.6-3
		c2.9-0.9,5.8-1.9,8.8-2.8c3-0.8,5.9-1.8,8.9-2.5c1.5-0.4,3-0.7,4.5-1.1c1.5-0.4,3-0.6,4.5-0.9c6-1.1,11.9-1.9,17.6-2.5
		c11.5-1.1,22.3-1.2,31.5-0.9s16.9,0.9,22.2,1.5c5.3,0.6,8.4,1,8.4,1s-3-0.4-8.4-0.9s-13-0.9-22.2-1.1c-9.2-0.2-20,0.1-31.4,1.2
		c-5.7,0.6-11.6,1.4-17.5,2.5c-1.5,0.3-3,0.6-4.4,0.9c-1.5,0.3-3,0.7-4.4,1.1c-3,0.7-5.9,1.7-8.8,2.5c-2.9,0.9-5.8,1.9-8.8,2.8
		c-2.9,1-5.8,2-8.6,3c-2.8,1.1-5.6,2.1-8.4,3.1c-2.8,1.1-5.5,2.1-8.2,3.2c-2.7,1.1-5.3,2.1-7.9,3.2c-2.6,1.1-5.1,2.1-7.5,3.1
		c-4.9,2.1-9.4,4-13.6,5.9c-8.4,3.7-15.4,6.9-20.3,9.2C1198.8,707.6,1196,708.9,1196,708.9z"/>
	<path fill="#414042" d="M1199.3,714.1c0,0,2.5-0.8,7-2.2c2.2-0.7,4.9-1.5,8-2.4s6.6-1.9,10.5-2.9c3.8-1,8-2.1,12.4-3.2
		c2.2-0.5,4.5-1.1,6.8-1.7c2.3-0.5,4.7-1.1,7.1-1.6s4.9-1,7.4-1.6c2.5-0.5,5.1-1,7.6-1.5c2.6-0.5,5.2-0.9,7.8-1.4
		c2.6-0.4,5.2-0.8,7.9-1.2c2.6-0.3,5.3-0.7,7.9-0.9s5.3-0.3,7.9-0.4c5.2-0.1,10.4,0.1,15.4,0.4c9.9,0.7,19.1,2.2,26.9,3.7
		s14.2,3.2,18.7,4.5s7,2.1,7,2.1s-2.5-0.8-7-1.9c-4.5-1.2-11-2.6-18.8-4.1c-7.8-1.4-17-2.8-26.9-3.4c-4.9-0.3-10.1-0.5-15.3-0.3
		c-2.6,0.1-5.2,0.2-7.8,0.4c-2.6,0.2-5.2,0.6-7.9,0.9c-2.6,0.3-5.2,0.7-7.8,1.1c-2.6,0.4-5.2,0.9-7.8,1.3c-2.6,0.5-5.1,1-7.6,1.5
		s-5,1-7.4,1.5s-4.8,1.1-7.1,1.6c-2.3,0.5-4.6,1.1-6.8,1.6c-4.4,1.1-8.6,2.1-12.5,3.1c-7.7,2-14.1,3.7-18.6,4.9
		C1201.8,713.4,1199.3,714.1,1199.3,714.1z"/>
	<path fill="#414042" d="M1156.7,698.1c0,0-0.4-0.5-1.2-1.5c-0.8-1-2-2.3-3.5-4.2c-1.5-1.8-3.2-4-5.2-6.6s-4.2-5.5-6.7-8.6
		s-5.3-6.4-8.4-9.7c-3.2-3.3-6.6-6.7-10.3-10c-1.8-1.7-3.7-3.4-5.7-5.1c-1.9-1.7-3.9-3.4-5.9-5.1c-2-1.7-4-3.4-6.1-5
		c-2-1.7-4.1-3.4-6.2-5c-2.1-1.7-4.2-3.3-6.2-5c-2.1-1.6-4.2-3.2-6.4-4.7c-4.3-3-8.7-5.6-13.1-8c-8.8-4.8-17.3-8.6-24.7-11.5
		c-7.4-2.9-13.7-5.1-18.2-6.5c-4.4-1.4-7-2.1-7-2.1s2.6,0.6,7.1,1.9c4.5,1.3,10.9,3.3,18.3,6.1c7.5,2.9,16.1,6.5,24.9,11.3
		c4.4,2.4,8.9,5,13.2,8c2.2,1.5,4.3,3,6.4,4.7c2.1,1.6,4.2,3.3,6.3,5c2.1,1.7,4.1,3.4,6.2,5c2.1,1.7,4.1,3.4,6.1,5.1
		c2,1.7,4,3.4,5.9,5.1c1.9,1.7,3.8,3.4,5.7,5.1c3.7,3.4,7.1,6.8,10.2,10.2s5.9,6.7,8.3,9.9c2.5,3.2,4.6,6.1,6.5,8.7
		c1.9,2.6,3.6,4.9,5.1,6.7c1.4,1.9,2.6,3.3,3.4,4.2C1156.3,697.6,1156.7,698.1,1156.7,698.1z"/>
	<path fill="#414042" d="M1156.3,707.6c0,0-2.6-1.9-7.2-5.1c-4.6-3.2-11.3-7.8-19.3-13.2c-4-2.7-8.4-5.6-13-8.6
		c-2.3-1.5-4.7-3-7.2-4.6c-2.5-1.5-5-3.1-7.5-4.7c-2.6-1.6-5.2-3.2-7.9-4.8c-2.7-1.6-5.4-3.2-8.1-4.8c-2.8-1.5-5.6-3.1-8.4-4.7
		c-2.8-1.5-5.7-3-8.5-4.5c-2.9-1.4-5.8-2.9-8.7-4.2c-1.5-0.7-2.9-1.3-4.4-1.9c-1.5-0.6-2.9-1.2-4.4-1.8c-5.9-2.3-11.9-4.2-17.7-5.8
		c-11.6-3.2-22.7-5.4-32.3-6.9c-9.5-1.5-17.6-2.4-23.2-2.9c-5.6-0.5-8.8-0.6-8.8-0.6s3.2,0.1,8.9,0.4c5.6,0.4,13.7,1.1,23.3,2.5
		s20.7,3.4,32.4,6.6c5.8,1.6,11.8,3.5,17.8,5.7c1.5,0.6,3,1.1,4.5,1.8c1.5,0.6,3,1.2,4.4,1.9c2.9,1.3,5.8,2.8,8.7,4.2
		c2.9,1.5,5.7,3,8.6,4.5c2.8,1.6,5.6,3.1,8.4,4.7c2.7,1.6,5.5,3.2,8.1,4.8c2.7,1.6,5.3,3.2,7.9,4.8s5.1,3.2,7.5,4.8s4.8,3.1,7.1,4.7
		c4.6,3.1,9,6,13,8.7s7.6,5.3,10.8,7.6c3.2,2.3,6,4.3,8.3,6C1153.7,705.6,1156.3,707.6,1156.3,707.6z"/>
	<path fill="#414042" d="M1150.3,707.9c0,0-2.7-0.9-7.4-2.5c-4.7-1.5-11.5-3.7-19.6-6.1c-4.1-1.2-8.5-2.5-13.2-3.9
		c-2.3-0.7-4.8-1.3-7.2-2c-2.5-0.7-5-1.3-7.6-2s-5.2-1.3-7.8-2c-2.7-0.6-5.3-1.3-8.1-1.9c-2.7-0.6-5.5-1.2-8.2-1.8
		c-2.8-0.5-5.5-1.1-8.3-1.6c-2.8-0.4-5.6-1-8.4-1.3c-1.4-0.2-2.8-0.3-4.2-0.5c-1.4-0.2-2.8-0.2-4.2-0.4c-5.5-0.4-11-0.5-16.3-0.3
		c-10.6,0.3-20.5,1.2-28.9,2.4s-15.4,2.5-20.2,3.5c-4.9,1-7.6,1.7-7.6,1.7s2.7-0.8,7.6-1.9c4.8-1.1,11.8-2.6,20.2-3.9
		c8.4-1.3,18.3-2.4,28.9-2.7c5.3-0.2,10.8-0.1,16.4,0.3c2.8,0.2,5.6,0.4,8.4,0.8c2.8,0.3,5.6,0.9,8.4,1.3c2.8,0.5,5.6,1.1,8.4,1.6
		c2.8,0.6,5.5,1.2,8.2,1.8c2.7,0.7,5.4,1.3,8.1,1.9c2.6,0.7,5.3,1.4,7.8,2c2.6,0.7,5.1,1.4,7.6,2.1c2.5,0.7,4.9,1.4,7.2,2.1
		c4.7,1.4,9.1,2.7,13.1,4c4.1,1.3,7.8,2.5,11,3.6c3.3,1.1,6.1,2.1,8.5,2.9C1147.6,707,1150.3,707.9,1150.3,707.9z"/>
	<path fill="#414042" d="M1195.3,717.7c0,0,2.3-0.2,6.4-0.6c4.1-0.3,9.9-0.8,16.8-1.2c3.5-0.2,7.3-0.4,11.3-0.5
		c2-0.1,4.1-0.1,6.2-0.2c2.1,0,4.2-0.1,6.4-0.1c2.2,0,4.4,0,6.6,0s4.5,0.1,6.8,0.1c2.3,0.1,4.6,0.2,6.9,0.3s4.6,0.3,7,0.4
		c2.3,0.2,4.6,0.4,7,0.7c2.3,0.3,4.6,0.7,6.9,1.1c4.5,0.9,8.9,2,13.1,3.2c8.4,2.4,16,5.4,22.4,8.2s11.6,5.4,15.2,7.3
		c3.6,1.9,5.6,3.1,5.6,3.1s-2-1.1-5.7-2.9c-3.6-1.8-8.9-4.3-15.3-6.9c-6.4-2.7-14.1-5.5-22.4-7.9c-4.2-1.2-8.5-2.3-13-3.1
		c-2.3-0.4-4.5-0.8-6.8-1.1s-4.6-0.5-6.9-0.7s-4.6-0.3-6.9-0.5c-2.3-0.1-4.6-0.2-6.9-0.3c-2.3,0-4.6-0.1-6.8-0.1c-2.2,0-4.5,0-6.6,0
		c-2.2,0-4.3,0-6.4,0s-4.1,0.1-6.1,0.1c-4,0.1-7.8,0.2-11.3,0.3c-7,0.3-12.8,0.6-16.8,0.8C1197.6,717.6,1195.3,717.7,1195.3,717.7z"
		/>
	<path fill="#414042" d="M1150.7,714.1c0,0-2.4-0.4-6.6-1s-10.1-1.4-17.3-2.3c-3.6-0.4-7.5-0.9-11.6-1.3c-4.1-0.4-8.5-0.8-13-1.2
		c-2.3-0.2-4.5-0.3-6.9-0.5c-2.3-0.1-4.7-0.3-7-0.4c-2.4-0.1-4.8-0.2-7.1-0.2c-2.4,0-4.8-0.1-7.2,0c-4.8,0-9.6,0.3-14.3,0.9
		c-4.7,0.6-9.3,1.4-13.7,2.3c-8.8,1.9-16.9,4.3-23.7,6.6s-12.5,4.5-16.4,6.1s-6.1,2.6-6.1,2.6s2.2-1.1,6-2.8c3.9-1.7,9.4-4,16.3-6.4
		c6.8-2.4,14.9-4.9,23.7-6.9c4.4-1,9-1.8,13.8-2.4c4.7-0.6,9.6-0.9,14.4-0.9c2.4-0.1,4.8,0,7.2,0c2.4,0.1,4.8,0.2,7.2,0.3
		c2.4,0.1,4.7,0.3,7,0.4c2.3,0.2,4.6,0.4,6.9,0.5c2.3,0.2,4.5,0.4,6.6,0.6c2.2,0.2,4.3,0.5,6.3,0.7c4.1,0.5,8,1,11.6,1.5
		s6.9,1,9.8,1.4c2.9,0.5,5.4,0.9,7.5,1.2C1148.3,713.7,1150.7,714.1,1150.7,714.1z"/>
</g>
<g id="top_x5F_cave">
	<path id="XMLID_276_" fill="#7D6363" d="M2.4,753.164L0,753.509V1080h1920V0H0v233.9v63.4v283.4l2.4-0.192V753.164z M262.7,559.7
		l28.9-120.9l-12.151-63H362.6l65.6-110.4l12.413-70.9H575.1l91.351-93.275L782.7,136.7l44.6-18.4l155,43.4l83.653-82.471
		L1145.2,126.2l209.314,16.473L1352.8,175l105.088,74.762L1452.6,286.9l70.9,81.4l63.767-12.633L1614.5,437.2l-32.9,94.6l59.5,124.4
		l29.964,8.316L1633.1,684.7l-94.5,6.7l-85.5,61.5l-65.5,34.5l-234.2,7.8l-67.3,9.4l-116.7-22.5l-81.3,5.3l-90,22.7l-58.6-16.5
		L599,822.5l-196.9-35.1l-108.1-9L232.6,720l-13.015,1.875L225.7,681L209,591.3l-26.298-25.205L262.7,559.7z"/>
	<path id="XMLID_275_" fill="#8C8080" d="M1545.1,183.5c-11.4-5-11.1-2.9-18.3,7.3c-9.4,13.4-31.4,44.2-34.2,61.3l-3,15
		c13.8-1,21.7,35.8,30.3,46.2c6.8-8.9,7.2-27.7,10.5-39c3.4-11.7,6.1-23.6,9.4-35.3c3.2-11.4,16-33.9,14.3-45.4
		C1552.8,184.7,1553,187,1545.1,183.5z"/>
	<path id="XMLID_274_" fill="#8C8080" d="M1692.8,501.1c7.4-3,13.9-7.3,21.6-9.1c-2.4-17.5-43.7-24.2-58.3-28.3l-15,1.4
		c-9.2,19.8-19.6,39.4-27.2,59.9c12.6,1.7,25.9-7.5,37.3-11.6C1664.7,508.6,1679.6,506.4,1692.8,501.1z"/>
	<path id="XMLID_273_" fill="#8C8080" d="M249.3,320.6c-18.7-8-33.3-18.3-48.7-31.4c-8-6.7-14.9-16.3-26.1-15.7
		c10,16.6,15.5,33.3,31.8,45.1c18.3,13.2,40,22.9,59.3,34.5l24-1.6c12.6-1.7,27-3.1,38.9-5.6c-11.5-11.4-19.7-10.8-34.8-12.3
		C278.9,332.1,263,326.4,249.3,320.6z"/>
	<path id="XMLID_272_" fill="#8C8080" d="M1920,69.853c-37.097,14.519-73.021,33.307-109.1,48.947c-22,9.5-62.6,23.5-75.3,41.7
		c13.7,1.5,27.8-3.4,40.6-6.7c26.4-6.7,52-15.1,78.3-22c21.632-5.727,43.505-10.686,65.5-15.257V69.853z"/>
	<path id="XMLID_271_" fill="#8C8080" d="M1920,633.134c-11.756,6.415-24.131,12.126-35.8,18.166c-24.5,12.6-49.7,24.6-74.9,35.5
		c-28.4,12.3-64.4,30.5-96.1,31.5c-21,0.7-33.4-19.3-50.8,2.5c-9.5,11.9-17.6,19.7-29.7,29.1c-5.6,4.3-12.2,8.3-14,15
		c23.2,6.4,48.5-8.9,71.8-11.7c15.7-1.9,47.7-7.6,61.5,0.3c5.5,3.1,4,9,11.4,11.7c16.6,6.1,47.4-0.6,63.9-4.4
		c29.752-6.803,61.404-15.168,92.7-19.001V633.134z"/>
	<path id="XMLID_270_" fill="#8C8080" d="M96.7,529.5c-12.7-4.5-25.3-9.8-37.8-15c-0.1,0-0.1,0-0.2,0
		c-18.932-4.912-39.139-16.275-58.7-19.293v222.228c9.404,0.652,18.799,1.829,26.9,1.165c-2.1-18-17-33.7-19.4-53.6
		c-4.2-34.6,2.1-60.3,16.7-84.3c7.8-12.7,16.5-30,28.5-36.7c15-8.3,44,11,59.2,4.5c3.8-1.6,7-3.6,8.9-6c-7.4-3.1-14.7-6.5-21.5-11.1
		C98.4,530.8,97.5,530.2,96.7,529.5z"/>
	<path id="XMLID_269_" fill="#8C8080" d="M235.3,13.2c33.5,18.9,67.5,35.6,100.1,56c23.9,14.9,59.9,18.4,80.1,36.6
		C395.6,70,374.4,35.4,350.3,2.2c-0.524-0.725-1.049-1.46-1.575-2.2H213.68C220.917,4.665,228.117,9.166,235.3,13.2z"/>
	<path id="XMLID_268_" fill="#8C8080" d="M1400.516,0c-3.244,21.5-11.979,42.787-12.916,64.6c13.4-5,27.4-26.3,38.7-36
		c10.563-9.024,19.656-18.49,28.447-28.6C1454.747,0,1400.516,0,1400.516,0z"/>
</g>
</svg>
