<?xml version="1.0" encoding="utf-8"?>
<!-- Generator: Adobe Illustrator 19.0.0, SVG Export Plug-In . SVG Version: 6.00 Build 0)  -->
<svg version="1.1" id="Layer_3" xmlns="http://www.w3.org/2000/svg" xmlns:xlink="http://www.w3.org/1999/xlink" x="0px" y="0px"
	 viewBox="-202 203 107 107" style="enable-background:new -202 203 107 107;" xml:space="preserve">
<style type="text/css">
	.st0{fill:#A07630;}
	.st1{fill:#C1B49A;}
	.st2{fill:none;stroke:#C1B49A;stroke-width:4;stroke-miterlimit:10;}
	.st3{fill:#231F20;}
	.st4{fill:#FFFFFF;}
	.st5{fill:#C1B49A;stroke:#C1B49A;stroke-miterlimit:10;}
	.st6{fill:#CB9798;stroke:#C1B49A;stroke-miterlimit:10;}
	.st7{fill:url(#SVGID_1_);}
	.st8{fill:#C1A799;}
	.st9{fill:#D7CAB6;}
</style>
<g>
	<polygon class="st0" points="-198.6,333.6 -198.6,322.1 -189.2,295.3 -193.2,288.8 -194.2,269 -183,253.3 -173.1,249.6 
		-174.4,247.1 -174.8,243.4 -173.1,236.6 -178.7,221.5 -177.5,214.7 -173.1,214.7 -157.1,222.4 -156.2,224.2 -136.6,223.3 
		-130.2,218.4 -122.9,215 -120.3,215.5 -116.6,219.9 -122.5,236.3 -119.4,241.5 -119.4,244.3 -120.6,247.4 -112.6,249.3 
		-100.9,263.2 -99,274.1 -99,286.9 -111.1,297.7 -106.4,305.4 -100.3,318.5 -103.5,335.7 	"/>
	<polygon class="st1" points="-185.1,256.2 -169.8,259.8 -159.3,266.2 -155.5,274.1 -151.1,277.1 -143.8,277.1 -136.4,269 
		-136.4,266.2 -126.2,259.1 -112,255.1 -106.8,256.1 -100.9,263.2 -98.2,275.2 -99,286.9 -111.1,297.7 -126.2,293.1 -131.1,303 
		-116.5,314.1 -115.2,326.5 -110.8,335.5 -194.6,333.6 -190.6,316.6 -177.5,297.4 -189.2,295.3 -193.2,288.8 -194.2,269 	"/>
	<g>
		<path class="st1" d="M-172.8,250.3c-0.7-1-1.3-2.1-1.8-3.2c-0.5-1.1-0.9-2.3-1.1-3.7c0-0.4-0.1-0.6,0-1c0-0.4,0-0.7,0.1-1
			c0.1-0.7,0.2-1.3,0.4-1.9c0.2-0.6,0.4-1.2,0.6-1.8c0.1-0.3,0.2-0.6,0.3-0.9c0.1-0.3,0.2-0.6,0.4-0.9l0.1,1.6
			c-0.3-0.4-0.6-0.7-0.9-1.1c-0.3-0.4-0.5-0.8-0.8-1.2c-0.5-0.8-0.9-1.6-1.3-2.5c-0.2-0.4-0.4-0.9-0.5-1.4c-0.2-0.5-0.3-1-0.4-1.5
			c-0.1-0.6-0.1-0.9-0.2-1.3c-0.1-0.4-0.2-0.8-0.3-1.2c-0.4-1.6-0.8-3.3-1.2-5.1c-0.2-0.9-0.4-1.8-0.5-2.8c-0.1-0.5-0.1-1-0.1-1.6
			c0-0.6,0-1.2,0.6-2.3l0.1-0.2l0.2-0.2c0.5-0.5,1.2-1,1.9-1.3c0.7-0.3,1.5-0.4,2.2-0.5c1.4-0.1,2.7,0.3,3.8,0.8
			c1.1,0.5,2.1,1.1,3.1,1.8c0.9,0.7,1.8,1.5,2.6,2.3c0.4,0.4,0.8,0.9,1.1,1.4c0.1,0.1,0.2,0.2,0.3,0.4l0.2,0.4
			c0.2,0.3,0.3,0.6,0.3,0.9c0.3,1.2,0.5,2.3,0.5,3.4c0,2.2-0.2,4.3-0.7,6.4c-0.3-2.1-0.6-4.2-1.1-6.2c-0.3-1-0.6-1.9-1-2.7
			c-0.1-0.2-0.2-0.4-0.3-0.5l-0.2-0.3c0,0-0.1-0.1-0.2-0.2c-0.3-0.3-0.6-0.7-1-1c-1.4-1.2-3.1-2.3-4.8-2.9c-0.8-0.3-1.7-0.4-2.4-0.4
			c-0.7,0.1-1.1,0.3-1.6,0.7l0.3-0.3c0.1-0.2,0.1-0.2,0.1-0.1c0,0.1,0,0.2,0,0.3c0,0.3,0,0.7,0.1,1c0.1,0.8,0.3,1.6,0.5,2.4
			c0.4,1.7,0.8,3.4,1.2,5.1c0.1,0.4,0.2,0.9,0.2,1.4c0.1,0.5,0.1,1.1,0.2,1.3c0.1,0.7,0.2,1.4,0.5,2.1c0.2,0.7,0.5,1.5,0.9,2.2
			c0.2,0.4,0.3,0.7,0.5,1.1l0.6,1.1l0.5,0.9l-0.4,0.6c-0.1,0.2-0.3,0.5-0.4,0.7l-0.4,0.7c-0.3,0.5-0.5,1-0.8,1.5
			c-0.2,0.5-0.4,1-0.6,1.6c-0.1,0.3-0.2,0.5-0.2,0.8c-0.1,0.2-0.1,0.6-0.1,0.8c-0.1,1.1,0.1,2.2,0.3,3.4
			C-173.5,248-173.1,249.2-172.8,250.3z"/>
	</g>
	<g>
		<path class="st1" d="M-131.1,226.4c-0.1-0.8-0.2-1.7-0.2-2.5c0-0.9,0.1-1.7,0.4-2.6c0.1-0.4,0.3-0.9,0.7-1.4
			c0.4-0.5,0.6-0.7,0.9-1c0.6-0.6,1.1-1.2,1.7-1.9c0.6-0.6,1.3-1.2,2-1.7c0.7-0.5,1.5-1.1,2.7-1.4c0.3-0.1,0.7-0.1,1.1-0.1
			c0.2,0,0.4,0,0.7,0.1c0.1,0,0.2,0.1,0.4,0.1l0.1,0.1c0.4,0.1,0.9,0.3,1.3,0.5c0.9,0.4,1.8,1,2.6,1.9c0.8,0.9,1.4,2.1,1.5,3.2
			c0.2,1.2,0,2.2-0.2,3.1c-0.2,0.9-0.5,1.8-0.8,2.6c-0.3,0.8-0.6,1.6-1,2.4c-0.3,0.8-0.7,1.5-1.1,2.3l-1.1,2.2c-0.7,1.4-1.3,3-2,4.4
			l-0.4-1.4c0.3,0.3,0.5,0.6,0.7,0.9c0.2,0.3,0.4,0.6,0.5,0.9c0.3,0.6,0.6,1.2,0.9,1.8c0.2,0.6,0.4,1.2,0.6,1.9l0.1,0.5l0.1,0.5
			c0.1,0.4,0.1,0.7,0.1,1.1c-0.1,1.4-0.7,2.6-1.3,3.7c-0.7,1.1-1.5,2.1-2.3,2.9c0.7-1,1.3-2.1,1.7-3.2c0.5-1.1,0.8-2.3,0.7-3.4
			c0-0.3-0.1-0.5-0.1-0.7l-0.1-0.2c0,0,0-0.1,0-0.1l0-0.1l-0.2-0.4c-0.3-0.5-0.6-1-0.9-1.5c-0.3-0.5-0.7-0.9-1-1.4
			c-0.2-0.2-0.4-0.4-0.6-0.6c-0.2-0.2-0.4-0.4-0.6-0.5l-0.5-0.4l0.2-1c0.3-1.7,0.7-3.3,1.2-5c0.3-0.9,0.6-1.6,0.9-2.4l0.9-2.3
			c0.6-1.5,1.2-3,1.5-4.4c0.1-0.7,0.2-1.3,0.1-1.8c-0.1-0.5-0.2-0.9-0.5-1.2c-0.3-0.4-0.8-0.7-1.4-1.1c-0.3-0.2-0.5-0.3-1-0.5
			l-0.1-0.1c0.1,0,0.1,0,0.1,0c0,0,0.1,0,0.1,0c0,0-0.1,0-0.1,0c-0.4,0-1.1,0.3-1.8,0.7c-0.7,0.4-1.3,0.8-2,1.2
			c-0.7,0.4-1.4,0.9-2.1,1.4l-0.9,0.6c-0.2,0.2-0.4,0.5-0.6,0.8c-0.4,0.6-0.7,1.4-1,2.1C-130.7,224.8-131,225.6-131.1,226.4z"/>
	</g>
	<path class="st2" d="M-144.4,269l6.8-16.4l2.5-8.6c0,0,1.7-3.1,4-2.8c2.3,0.3,6.7,10.4,4.9,12.5c-4.8,5.7-6.9,1.4-6.9,1.4"/>
	<path class="st2" d="M-152.5,269l-3.7-7.4l-2.5-11.4c0,0-5.1-9-6.5-9c-1.4,0-4.6,6.3-4.6,9.3c0,6,6.4,5.3,6.4,5.3"/>
	<path class="st3" d="M-133.9,256.5l-1.1-2.8c0,0,1.1-1.1,1.1-2.3c0-1.2,0-5.6,0-5.6s0.3-2.2,1.5-3.4c1.2-1.2,4.3,0,4.3,0l-1.5,1.9
		l1.5,2.6l1.1,2.5c0,0,1.1,3.7,0,4.9c-1.1,1.2-4,1.4-4,1.4l-2.2-0.6L-133.9,256.5z"/>
	<path class="st3" d="M-163.9,256.5l1.9-2.8l-0.9-2.5v-3.9c0,0-0.2-4.4-1.7-4.9c-1.5-0.5-3.2,0.8-3.2,0.8l1.7,1.2l-1.9,2.8l-0.9,4.1
		c0,0,0.1,3.6,0.7,3.8c0.6,0.2,2.8,0.7,2.8,0.7l1.7-1.1V256.5z"/>
	<g>
		<path class="st4" d="M-166.3,248.5c0,0-0.5-0.4-0.8-0.7c-0.2-0.2-0.3-0.4-0.4-0.6c-0.1-0.2-0.1-0.4,0-0.6c0.1-0.2,0.2-0.3,0.4-0.5
			c0.1-0.1,0.2-0.1,0.3-0.2c0.1-0.1,0.2-0.1,0.3-0.1c0.5-0.1,1.1-0.2,1.1-0.2l0.2,0.1c0,0,0,0.2-0.1,0.5c-0.1,0.3-0.2,0.6-0.3,1
			c-0.1,0.4-0.3,0.7-0.4,1c-0.1,0.3-0.2,0.4-0.2,0.4L-166.3,248.5z"/>
	</g>
	<g>
		<path class="st4" d="M-131.2,245.2c0,0,0.6-0.2,1.1-0.2c0.3,0,0.5,0,0.7,0.1c0.2,0.1,0.4,0.2,0.5,0.3c0.1,0.2,0.2,0.3,0.2,0.6
			c0,0.1,0,0.2,0,0.3c0,0.1-0.1,0.2-0.1,0.4c-0.1,0.5-0.5,1-0.5,1l-0.2,0.1c0,0-0.1-0.1-0.3-0.3c-0.2-0.2-0.4-0.5-0.7-0.8
			c-0.2-0.3-0.4-0.6-0.6-0.8c-0.2-0.2-0.2-0.4-0.2-0.4L-131.2,245.2z"/>
	</g>
	<polygon class="st5" points="-152.9,268.1 -155.5,269.8 -156.7,271.6 -155.5,274.1 -151.1,277.1 -143.8,277.1 -139.7,272.6 
		-140.9,269 -144,268.1 	"/>
	<polygon class="st6" points="-154,269 -156,270.5 -154,274.1 -150.1,276.1 -146.4,276.1 -142.7,274.1 -142,272.6 -142,269.6 
		-143.3,272.6 -146.6,274.9 -147.5,272.6 -149,272.6 -150,274.1 -152.5,273.5 -154,271.3 	"/>
	<linearGradient id="SVGID_1_" gradientUnits="userSpaceOnUse" x1="-148.5953" y1="284.0036" x2="-148.5953" y2="278.4445">
		<stop  offset="0" style="stop-color:#C1B49A"/>
		<stop  offset="0.1701" style="stop-color:#BEB096"/>
		<stop  offset="0.3428" style="stop-color:#B5A58A"/>
		<stop  offset="0.5168" style="stop-color:#A79275"/>
		<stop  offset="0.6916" style="stop-color:#927859"/>
		<stop  offset="0.8653" style="stop-color:#785735"/>
		<stop  offset="1" style="stop-color:#603813"/>
	</linearGradient>
	<path class="st7" d="M-158.3,279.1c0,0,2.3,1.2,4.3,1.7c2,0.5,5.8-2.3,5.8-2.3s1.8,2.3,3.8,2.4c2,0.1,5.6-1.2,5.6-1.2l-2.2,2.7
		l-7.6,1.7l-5.4-1.5L-158.3,279.1z"/>
	<polygon class="st8" points="-181,318.6 -170.5,322.8 -162.5,318.6 -158.9,313.7 -157.4,310.1 -150.4,307.9 -145.8,310.9 
		-138.4,321.2 -129.1,322.8 -123.1,317.8 -125.5,311 -139,299.9 -146.9,297.3 -153.8,297.3 -162.5,301.5 -176.9,310 	"/>
	<polygon class="st9" points="-175.6,304.6 -170.1,303.4 -166.1,293.5 -160.1,290.9 -153.9,294.6 -149.7,297.7 -151.5,298.4 
		-149.7,299.4 -153.9,300.9 -151.1,303.4 -158,304.6 -155.2,306.1 -159.3,307 -162.7,315 -170.3,320 -182.7,314.5 	"/>
	<polygon class="st9" points="-148.4,296 -144.7,292 -138.6,290.9 -135.5,293.5 -130.4,301.7 -124.8,307.1 -122.2,311.9 -129.7,320 
		-143,308.8 -143.7,306.4 -146.5,305.4 -149.7,305.4 -148.5,303.4 -151.1,303.4 -149.7,301.8 -151.9,301.1 -148.5,298 -150.3,297.3 
			"/>
	<g>
		<path class="st3" d="M-141,269c0,0,0.5-0.6,1.5-1.6c1-1,2.4-2.4,4.2-4c0.9-0.8,1.9-1.6,3-2.5c1.1-0.9,2.3-1.7,3.5-2.5
			c1.3-0.8,2.6-1.6,4.1-2.3c0.7-0.4,1.5-0.6,2.2-0.9c0.8-0.3,1.5-0.6,2.3-0.8c3.1-0.9,6.3-1.4,9.4-1.4c1.5,0,3,0.2,4.4,0.5
			c1.4,0.3,2.6,0.8,3.7,1.4c2.2,1.1,3.8,2.2,5,3c1.2,0.8,1.8,1.3,1.8,1.3s-0.7-0.4-1.9-1.1c-1.2-0.7-3-1.6-5.1-2.6
			c-1.1-0.5-2.3-1-3.6-1.2c-1.3-0.2-2.7-0.4-4.2-0.4c-2.9,0-6.1,0.5-9.1,1.5c-0.8,0.2-1.5,0.5-2.2,0.7c-0.7,0.3-1.5,0.6-2.2,0.9
			c-1.4,0.6-2.7,1.4-4,2.1c-1.3,0.8-2.5,1.6-3.6,2.4c-1.1,0.8-2.1,1.6-3.1,2.3c-1.9,1.5-3.4,2.8-4.4,3.7
			C-140.4,268.5-141,269-141,269z"/>
	</g>
	<g>
		<path class="st3" d="M-140.6,269.6c0,0,0.6-0.5,1.7-1.4c1.1-0.8,2.7-2,4.8-3.3c1-0.6,2.1-1.3,3.4-1.9c1.2-0.7,2.5-1.3,3.9-1.9
			c1.4-0.6,2.9-1.1,4.4-1.5c0.8-0.2,1.5-0.4,2.3-0.6c0.8-0.2,1.6-0.3,2.4-0.4c3.2-0.4,6.5-0.4,9.5,0.2c1.5,0.3,2.9,0.7,4.2,1.2
			c1.3,0.5,2.4,1.3,3.4,2c1.9,1.4,3.4,2.8,4.4,3.8c1,1,1.6,1.5,1.6,1.5s-0.6-0.5-1.7-1.4c-1.1-0.9-2.7-2.1-4.6-3.5
			c-1-0.7-2.1-1.3-3.3-1.8c-1.3-0.5-2.6-0.8-4.1-1.1c-2.9-0.5-6.1-0.5-9.2-0.1c-0.8,0.1-1.6,0.2-2.3,0.4c-0.8,0.2-1.6,0.3-2.3,0.5
			c-1.5,0.4-2.9,0.9-4.3,1.4c-1.4,0.6-2.7,1.1-3.9,1.7c-1.2,0.6-2.4,1.2-3.4,1.8c-2.1,1.2-3.8,2.2-5,2.9
			C-139.9,269.1-140.6,269.6-140.6,269.6z"/>
	</g>
	<g>
		<path class="st3" d="M-156,270.1c0,0-0.6-0.6-1.6-1.5c-1-0.9-2.5-2.2-4.4-3.7c-0.9-0.8-2-1.5-3.1-2.3c-1.1-0.8-2.3-1.6-3.6-2.4
			c-1.3-0.8-2.6-1.5-4-2.1c-0.7-0.3-1.4-0.6-2.2-0.9c-0.7-0.3-1.5-0.5-2.2-0.7c-3-1-6.1-1.5-9.1-1.5c-1.5,0-2.9,0.1-4.2,0.4
			c-1.3,0.2-2.5,0.7-3.6,1.2c-2.2,1-3.9,1.9-5.1,2.6c-1.2,0.7-1.9,1.1-1.9,1.1s0.6-0.5,1.8-1.3c1.2-0.8,2.8-1.9,5-3
			c1.1-0.5,2.3-1.1,3.7-1.4c1.4-0.3,2.8-0.5,4.4-0.5c3-0.1,6.3,0.4,9.4,1.4c0.8,0.2,1.5,0.5,2.3,0.8c0.7,0.3,1.5,0.6,2.2,0.9
			c1.5,0.7,2.8,1.5,4.1,2.3c1.3,0.8,2.5,1.7,3.5,2.5c1.1,0.9,2.1,1.7,3,2.5c1.8,1.6,3.2,3,4.2,4C-156.6,269.5-156,270.1-156,270.1z"
			/>
	</g>
	<g>
		<path class="st3" d="M-156.4,270.7c0,0-0.7-0.4-1.8-1.2c-1.2-0.8-2.9-1.8-5-2.9c-1-0.6-2.2-1.2-3.4-1.8c-1.2-0.6-2.5-1.2-3.9-1.7
			c-1.4-0.5-2.8-1.1-4.3-1.4c-0.7-0.2-1.5-0.4-2.3-0.5c-0.8-0.1-1.5-0.3-2.3-0.4c-3.1-0.4-6.3-0.4-9.2,0.1c-1.4,0.3-2.8,0.6-4.1,1.1
			c-1.3,0.4-2.4,1.1-3.3,1.8c-2,1.3-3.5,2.6-4.6,3.5c-1.1,0.9-1.7,1.4-1.7,1.4s0.5-0.6,1.6-1.5c1-0.9,2.5-2.3,4.4-3.8
			c1-0.7,2.1-1.5,3.4-2c1.3-0.5,2.7-1,4.2-1.2c3-0.6,6.3-0.6,9.5-0.2c0.8,0.1,1.6,0.3,2.4,0.4c0.8,0.2,1.5,0.3,2.3,0.6
			c1.5,0.4,3,1,4.4,1.5c1.4,0.6,2.7,1.2,3.9,1.9c1.2,0.7,2.3,1.3,3.4,1.9c2,1.3,3.7,2.4,4.8,3.3C-157,270.2-156.4,270.7-156.4,270.7
			z"/>
	</g>
</g>
</svg>
