<?xml version="1.0" encoding="utf-8"?>
<!-- Generator: Adobe Illustrator 19.0.0, SVG Export Plug-In . SVG Version: 6.00 Build 0)  -->
<svg version="1.1" id="Layer_1" xmlns="http://www.w3.org/2000/svg" xmlns:xlink="http://www.w3.org/1999/xlink" x="0px" y="0px"
	 viewBox="0 0 1920 1080" enable-background="new 0 0 1920 1080" xml:space="preserve">
<g id="dead">
	<polygon id="XMLID_464_" fill="#74894A" points="0,1072.052 1920,855.274 1920,0 0,0 	"/>
	<polygon id="XMLID_463_" fill="#809956" points="0,1080 1920,1080 1920,0 1497.556,0 1463,44.704 1359,39.231 1317.948,0 
		490.518,0 473,6.393 459.569,0 179.937,0 167,6.393 97,126.803 17,208.901 0,222.435 	"/>
	
		<linearGradient id="XMLID_2_" gradientUnits="userSpaceOnUse" x1="956.8629" y1="1066.0168" x2="963.8038" y2="-97.821" gradientTransform="matrix(1 0 0 -1 0 1080)">
		<stop  offset="0" style="stop-color:#2A3A1F;stop-opacity:0.5"/>
		<stop  offset="1" style="stop-color:#2484C6;stop-opacity:0"/>
	</linearGradient>
	<rect id="XMLID_462_" fill="url(#XMLID_2_)" width="1920" height="1080"/>
</g>
<g id="mouse_x5F_dead">
	<polygon id="XMLID_757_" fill="#D15858" points="1119.25,411.5 1100.75,384.25 1113.875,342.25 1140.75,317.25 1153.5,293.5 
		1165.25,279.5 1192.75,267.25 1227,272.25 	"/>
	<polygon id="XMLID_700_" fill="#CE292B" points="1323,730.5 1451.5,695.5 1550.5,612.5 1572,559 1569,533 1505.5,464.5 
		1287.5,399.5 1033,432.5 899,436 637,468 464,510.5 387,553.5 295,637.5 300,679 352,713 462.5,744.5 586.5,717 652,714 722,716.5 
		798,744.5 930.5,744.5 978.5,741 1025,721.5 1103.5,720 	"/>
	<polygon id="XMLID_702_" fill="#CE292B" points="1157,809.5 1154,819.5 1160,824 1173,821 1182.5,816.75 1178,809.5 1168.25,806 	
		"/>
	<polygon id="XMLID_703_" fill="#CE292B" points="1385.5,741.5 1385.5,736.5 1394,733.5 1397.5,737.5 1391.5,744.5 	"/>
	<polygon id="XMLID_701_" fill="#CE292B" points="665.5,472.5 660,448 653,441.5 575.5,419.5 581.5,407 597,390.5 761,388 
		790,399.5 801.5,407.5 790,430.25 799,438 808,457 797,458 776.5,434.5 716.5,447 683.5,445 679.5,450.5 684.5,476 	"/>
	<polygon id="XMLID_704_" fill="#CE292B" points="448.5,459.5 440,446.5 407,440 370,442.5 353.5,452 353.5,464.5 374,476 411,473 	
		"/>
	<polygon id="XMLID_706_" fill="#CE292B" points="383.5,513.5 386,508 393.5,504.5 398,509 390.75,515.5 	"/>
	<polygon id="XMLID_707_" fill="#CE292B" points="326,527.5 342,523.5 348,518 340.5,510 326,507 311,510 313.5,523 	"/>
	<polygon id="XMLID_705_" fill="#CE292B" points="602,747 602,742.333 609.333,739.333 614.333,744.5 	"/>
	<polygon id="XMLID_709_" fill="#CE292B" points="574,770.333 578,779 562.333,791.667 532.667,794.333 525.667,782.333 
		530.333,773.333 554,769 	"/>
	<polygon id="XMLID_708_" fill="#D15858" points="669.5,424 647.5,415.333 622,411 610.333,397 615.5,381.833 641.333,371.333 
		668.167,369.167 681.5,375 696.5,373.667 721,362.333 746.833,365.167 765.167,378.5 772.833,401.333 759.667,417 746.833,418.333 
		746.667,412.333 738.333,401.5 735.667,391.667 737,406.167 743.333,412.833 745,418.333 723.333,424 	"/>
	<polygon id="XMLID_710_" fill="#CE292B" points="661,384.333 657.167,376.833 653.667,381.333 657.333,384.333 	"/>
	<polygon id="XMLID_712_" fill="#B03B3B" points="418.5,601.5 394.5,624.75 389,634.5 377.75,650.5 369.25,639 369.25,619.5 
		383.5,601.5 412.25,587.75 458.25,587.75 481.75,593.5 500.25,581.5 523,574.5 543,576.75 562.5,593.25 581,601.5 608.25,601.75 
		631.5,612.5 647.75,633.75 642.25,650.5 621.25,656.5 584.75,623.25 563.5,620 558.5,623.25 491.5,613.25 411.75,649.5 
		383.5,650.25 392.5,637.25 398,625.75 412,613.5 	"/>
	<polygon id="XMLID_713_" fill="#B03B3B" points="691.75,525.25 714.5,488.75 759,479 843.75,486 877.25,459.25 904.5,460.5 
		934.75,455.5 955.75,446.5 985,449.25 1013.25,458.75 1036.856,432 1060.25,427.25 1103.25,431 1094.75,458.5 1100.25,482.5 
		1098.5,497.75 1064.75,502.5 1053.5,502.25 1058,495 1070.5,487.75 1082.25,463.75 1079.5,463 1066.75,484.25 1050.5,495.5 
		1043.75,502.75 996.75,504.5 909.25,514.25 	"/>
	<polygon id="XMLID_714_" fill="#D15858" points="556.667,665.333 556.667,659.333 561.333,648 554,628.667 543.333,628.667 
		490,598.333 473.667,598.333 453,604.333 448.5,615.5 436.333,620 419,619.667 403.333,643 411.333,654 460,665.333 522,668.667 	
		"/>
	<polygon id="XMLID_711_" fill="#D15858" points="565.667,665.667 565.667,654.333 568.667,643.667 563.667,628.333 596.667,615.5 
		623.333,619.667 638.667,631.667 637.333,640.583 631.333,651.333 604.333,663 	"/>
	<polygon id="XMLID_715_" fill="#D15858" points="675.667,553.667 667.333,536.026 678.333,525.25 702.333,515 752.667,507 767,504 
		778.333,493.667 804,481.667 832.333,480.333 866.333,482 904,500 943.333,505.333 979.667,496.667 1000.667,497 1027.333,505 
		1026.333,517 1029.333,525.25 1022,529.333 1019,556 1009,562.333 999,579 991.333,577.333 991.667,553.667 986.667,538 
		978.333,533.333 974.333,523.333 970.333,525.25 962,542.667 948,549 948,579 887,568.667 851.667,555.667 848.333,549.667 
		849.667,540 858,531.667 868,529.667 874.333,525.25 858.333,525.25 850.667,529.667 843.667,542 846,554.667 804.333,550.333 
		760.333,559 719.333,559.667 	"/>
	<polygon id="XMLID_717_" fill="#D15858" points="956.667,577 954.667,561.333 955.667,552 965,547.333 973,536.026 977,540 
		983.333,540 986.667,560.667 984,577 	"/>
	<polygon id="XMLID_718_" fill="#D15858" points="1006.333,579 1024,556.513 1028,536.026 1034.667,532.333 1052.667,547.333 
		1056.667,577 1026.333,581.667 	"/>
	<polygon id="XMLID_719_" fill="#D15858" points="1063,575.667 1054.667,540 1031.5,516.667 1033,506 1070.667,506 1088,503 
		1113.333,505.667 1136.333,522.333 1147.333,566.333 1134.333,575.667 1085.667,573.667 	"/>
	<polygon id="XMLID_716_" fill="#CE292B" points="750.5,499.833 748.333,494.5 755.667,494.5 758,498.167 	"/>
	<polygon id="XMLID_721_" fill="#CE292B" points="753.167,536.026 750.5,534.667 747.667,529.667 753.167,529.667 758,532.846 	"/>
	<polygon id="XMLID_720_" fill="#CE292B" points="834.667,508.667 833.667,504.333 838.667,501.833 840.833,505.25 	"/>
	<polygon id="XMLID_723_" fill="#CE292B" points="962.333,484.5 962.333,481.167 966.167,478.833 972.333,480.333 968.5,485.167 	
		"/>
	<polygon id="XMLID_724_" fill="#FFFFFF" points="968.22,529.667 969.167,512.167 975.1,525.25 	"/>
	<polygon id="XMLID_725_" fill="#FFFFFF" points="1077.333,466 1084,458.833 1086.333,451.5 1086.333,463 1081,467.167 	"/>
	<polygon id="XMLID_726_" fill="#F48889" points="967.667,672.5 960,662 919.667,644 909.167,646.167 898.167,646.167 
		884.5,638.167 885.167,626.167 888,620.833 894,618 895.667,612.167 887,612.167 873,622.833 872,631.667 873.333,646 
		869.833,644.5 865.5,631 868.167,620.833 875.167,615.833 876.667,611.333 860.5,616 853.333,629.5 853.333,625.5 852.333,616.333 
		848.167,620.833 844.667,631.833 848,651 863.833,660.333 868.333,665 898.5,671.667 933.5,666.5 930.333,659.833 932.833,654.167 
		933.5,651.5 935.833,652.5 933.5,661.5 936.333,666.5 961.333,669.333 	"/>
	<polygon id="XMLID_727_" fill="#FFFFFF" points="928.833,640 933.5,643 936.667,653.333 933.5,651.5 931.333,643.333 	"/>
	<polygon id="XMLID_722_" fill="#FFFFFF" points="1072,430.333 1080.5,402.167 1125.333,406.667 1121.833,445.167 	"/>
	<polygon id="XMLID_728_" fill="#A5A8AB" points="1123.75,482 1125.333,468.5 1102.5,434.25 1117.5,423.667 1098.667,344.5 
		1125.333,336 1113.75,318.75 1155,311 1153.5,291.25 1213.25,269.25 1213.25,258.25 1243.5,242.25 1272.25,256.25 1281.75,238.5 
		1351,281 1371,298.25 1377.5,306.5 1398.75,255.75 1404.25,252.25 1436.25,294 1441,326 1423.75,357 1430.75,365.75 1441,384.5 
		1433.5,407.5 1435.75,417.5 1447.5,431.5 1451.25,462.75 1451.25,515.75 1357.75,570.5 1219.75,560 	"/>
	<polygon id="XMLID_730_" fill="#BBBDBF" points="1125.333,514.362 1132.25,489 1157.5,492.5 1211.75,525.25 1268.5,546.75 
		1327.5,557 1370.75,547.5 1382.25,535 1388.75,513 1371.25,474.75 1378,463.75 1400,495.25 1412,489.75 1409.75,471.5 1420,460.5 
		1430,503 1438.25,512.25 1450.75,511.75 1454,531.75 1463.75,557 1434.833,561.58 1365,630.75 1331.75,621.5 1312,608.75 
		1296.75,608.75 1284.25,619.25 1261.75,625.25 1242.25,625 1227.5,614.75 1189.75,621.5 1170.5,606.25 1160.25,599.75 
		1151.75,578.5 1136,566.75 1138,539.333 	"/>
	<polygon id="XMLID_731_" fill="#939597" points="1371.75,632 1392,640 1426.25,640 1453.75,629 1463.75,619 1470.25,587.25 
		1469,568.75 1463.75,557 1437,555 1413.75,564.75 1385.25,586 	"/>
	<polygon id="XMLID_732_" fill="#EDABBE" points="1429,624.75 1429,638.9 1453.75,629 1461,623.25 1461,617 1452.75,612.25 
		1441,611 	"/>
	<polygon id="XMLID_729_" fill="#999999" points="1150,460.5 1138,438.5 1138,411 1147.333,387.5 1174.75,384.25 1209.75,386.75 
		1234,399.5 1253.5,422.375 1260.25,442.75 1255,455 1242.25,462 1168.75,464 	"/>
	<polygon id="XMLID_734_" fill="#999999" points="1372.75,312.5 1390.5,262.75 1398.75,255.75 1405.5,257.5 1435,304 1435,324 
		1422,349.5 1414,353.5 1386.75,331.5 	"/>
	<polygon id="XMLID_733_" fill="#E8E9EA" points="1420,345.75 1397.75,329.25 1397.75,297.75 1408.875,272.25 1427.75,296.5 
		1432.25,327.5 	"/>
	<polygon id="XMLID_735_" fill="#E8E9EA" points="1163.25,464 1147.333,445.167 1145.5,406.75 1163.25,400.5 1191.5,402.167 
		1217.75,413 1250.75,456 1249,478 1237.75,486.5 1225.5,480.333 1210,481.75 1197,471.5 	"/>
	<polygon id="XMLID_737_" fill="#CE292B" points="1206.5,400.5 1203.75,395.875 1208,393.5 1212.25,397 1211.125,400.5 	"/>
	<polygon id="XMLID_736_" fill="#CE292B" points="1105.744,374.25 1115.125,374.25 1122.75,388.625 1123.375,401.5 1120.875,405.5 
		1113.565,407.125 	"/>
	<polygon id="XMLID_738_" fill="#CE292B" points="1128.875,356.5 1125.333,352.625 1130.875,351.25 1133.25,355.75 	"/>
	<polygon id="XMLID_740_" fill="#CE292B" points="1178.625,340.25 1178.625,336.625 1180.75,335.25 1183.625,337.125 
		1183.625,341.375 	"/>
	<polygon id="XMLID_741_" fill="#CE292B" points="1206.375,335.25 1204.875,333.5 1205.625,327.375 1208,326.375 1210.125,332.125 	
		"/>
	<polygon id="XMLID_742_" fill="#CE292B" points="1154.38,302.842 1153.5,291.25 1201.125,273.375 1203,282.75 1197.5,286.875 
		1177.375,288.75 1163.375,294.5 	"/>
	<polygon id="XMLID_743_" fill="#CE292B" points="1305.125,308 1299,304.625 1296.125,299.125 1305.125,287.875 1311.25,287.25 
		1314.5,290 1318.875,298.5 	"/>
	<polygon id="XMLID_744_" fill="#CE292B" points="1436.125,420.125 1440.125,419.25 1442.75,409.625 1440,398.75 1427.125,380.875 
		1408.625,364.5 1338.75,321.25 1339.625,319.125 1324.875,333 1306.25,339.875 1302.5,343.25 1268.5,355.125 1259.625,363.625 
		1267.625,363.375 1266.625,376 1260.875,385.5 1261.625,403 1273,410.25 1280.5,406 1280.75,414.125 1288.5,424.125 
		1292.625,442.875 1291.375,458.625 1283.75,469.875 1279,493.75 1278.625,524.5 1270.625,535.125 1266.75,547.5 1241.375,569.625 
		1221.75,592.125 1215.625,620.875 1226,620 1229.5,600.333 1248,574.833 1271.333,562 1281.667,540 1285.833,552.833 1290.5,572 
		1283.167,602.167 1263,628 1277.667,626 1293.833,600.5 1298.5,568.333 1289.833,534.5 1289.5,518.833 1290.5,492.833 
		1294.542,474.5 1305,459.5 1305.333,439.5 1301.667,424.125 1291,403.333 1287,365.833 1289.667,360.167 1293.833,358.667 
		1302,361 1311.333,353.5 1313.333,366.5 1332.833,392.833 1347.5,408 1363.167,430.167 1382.667,483.833 1389.667,518.667 
		1398.833,539.167 1403.333,560.167 1399,567.333 1389.167,570.5 1377.333,580.333 1364.167,622.333 1365.5,638.167 1377.667,640 
		1381.875,597.5 1394,583.5 1407.667,573.667 1412.333,555 1396.167,492.667 1375.167,422.667 1324.5,358.667 1322,342 
		1330.667,339 1332.5,336 1336.5,337.333 1341.333,333.333 1380.667,358.167 1383.5,386.333 1406,443.667 1420.167,497.5 
		1422.167,553.5 1452.167,590.333 1459.167,609.333 1461.667,629.667 1471,611 1461,585.333 1433,546.667 1432.667,494.667 
		1422.333,450.667 1399.167,387 1398.5,371.167 1422.333,389.167 1431.5,404.5 	"/>
	<polygon id="XMLID_745_" fill="#CE292B" points="1326,532.667 1333.667,561.667 1327.833,583.667 1336.167,608 1337.333,630 
		1348.167,631.833 1345,606 1339.833,584.167 1344,560.667 1348.167,545.625 1359.833,538.5 	"/>
	<polygon id="XMLID_739_" fill="#CE292B" points="1177.833,459.333 1190.5,459.333 1204.5,467.167 1217,469.5 1214,474.833 
		1203.333,482.833 1194,512.5 1186.833,531.333 1201.167,589.833 1196,628.333 1185,628.333 1187.5,580.667 1181.333,552 
		1172.667,547.167 1167.167,559 1164.667,614.333 1158.667,600.833 1157.667,562.333 1162.167,534.333 1178.833,511.5 
		1187.333,485.167 1187.333,470.167 	"/>
	<polygon id="XMLID_746_" fill="#CE292B" points="1413.25,596.875 1409.75,596.875 1409,593.875 1412,594.75 	"/>
	<polygon id="XMLID_747_" fill="#CE292B" points="1415.625,607 1419.625,607 1424,612.75 1421.875,619.125 1413.25,617.875 
		1411.125,613.063 	"/>
	<polygon id="XMLID_748_" fill="#242021" points="1331.875,542.375 1351.625,542.375 1374,538 1372.625,511.75 1359.833,500.75 
		1341,494.875 1313,503.125 1316.125,526.5 	"/>
	<polygon id="XMLID_749_" fill="#242021" points="1449.75,505.375 1448.25,477.375 1455.875,464.75 1457.5,488.75 	"/>
	<ellipse id="XMLID_750_" fill="#FFFFFF" cx="1344.875" cy="519.81" rx="22.875" ry="19.69"/>
	<ellipse id="XMLID_751_" fill="#FFFFFF" cx="1452.625" cy="485.688" rx="1.375" ry="10.063"/>
	<path id="XMLID_752_" fill="#4C4041" d="M1402.375,616.125c0,0-163.625,64.5-179.125,105.625
		C1263,672.667,1402.375,616.125,1402.375,616.125z"/>
	<path id="XMLID_753_" fill="#4C4041" d="M1246.625,620.5c35.75-36.5,139.375-37,139.375-37S1288.75,587.625,1246.625,620.5z"/>
	<path id="XMLID_754_" fill="#4C4041" d="M1462.833,552.333c0,0,166.167-104.167,248.667-98.333
		C1637.833,449.667,1462.833,552.333,1462.833,552.333z"/>
	<path id="XMLID_755_" fill="#4C4041" d="M1465.167,559.833c0,0,125.333-50.5,230.667-41.333
		C1607.5,511.833,1465.167,559.833,1465.167,559.833z"/>
	<path id="XMLID_756_" fill="#4C4041" d="M1467.833,566.333c0,0,109-20.708,163-1C1573,549.5,1467.833,566.333,1467.833,566.333z"/>
</g>
</svg>
