<?xml version="1.0" encoding="utf-8"?>
<!-- Generator: Adobe Illustrator 19.0.0, SVG Export Plug-In . SVG Version: 6.00 Build 0)  -->
<svg version="1.1" id="Layer_1" xmlns="http://www.w3.org/2000/svg" xmlns:xlink="http://www.w3.org/1999/xlink" x="0px" y="0px"
	 viewBox="0 0 1920 1080" enable-background="new 0 0 1920 1080" xml:space="preserve">
<g id="Layer_1_1_">
</g>
<g id="dead">
	<polygon id="XMLID_464_" fill="#74894A" points="0,1072.052 1920,855.274 1920,0 0,0 	"/>
	<polygon id="XMLID_463_" fill="#809956" points="0,1080 1920,1080 1920,0 1497.556,0 1463,44.704 1359,39.231 1317.948,0 
		490.518,0 473,6.393 459.569,0 179.937,0 167,6.393 97,126.803 17,208.901 0,222.435 	"/>
	
		<linearGradient id="XMLID_2_" gradientUnits="userSpaceOnUse" x1="956.8629" y1="1066.0168" x2="963.8038" y2="-97.821" gradientTransform="matrix(1 0 0 -1 0 1080)">
		<stop  offset="0" style="stop-color:#2A3A1F;stop-opacity:0.5"/>
		<stop  offset="1" style="stop-color:#2484C6;stop-opacity:0"/>
	</linearGradient>
	<rect id="XMLID_462_" fill="url(#XMLID_2_)" width="1920" height="1080"/>
</g>
<g id="chipmunk_x5F_dead">
	<polygon id="XMLID_327_" fill="#CE292B" points="583,414.5 451.5,451 429,544.5 462.5,616.5 544,689.5 623.5,714 822.5,729 
		931,729 983,707 1076,703 1163,717 1267,721 1397,708.5 1463,668 1483.5,612.5 1476,536.026 1410.5,442 1360,382 1316,352.5 
		1201.5,327 	"/>
	<polygon id="XMLID_300_" fill="#B03B3B" points="864,313.5 850.5,301 822,301 779,323 736.5,328 694.5,323 662,342 645,367.5 
		609,387.5 571,394 552,415 535.5,443 510.5,453 485,478.5 485,494 515,513.5 869.5,380.5 	"/>
	<polygon id="XMLID_330_" fill="#CE292B" points="868.59,359.5 829,349.5 782.5,357 760.5,375.5 731,388 682.5,391 606.5,411.75 
		571,446.5 543,463 515.5,486 500,518 869.5,402.5 	"/>
	<polygon id="XMLID_145_" fill="#D15858" points="500,522 512.5,498 538,472 575,456.5 581,437 622,426.5 654.5,424 715,399 
		754.5,390.5 777,388 786.5,370.5 811,359.5 870.5,362 880,494 841,503.5 747.5,500.5 669.5,509.5 641.5,519.5 590.5,522 528,533.5 
			"/>
	<polygon id="XMLID_337_" fill="#CE292B" points="635,423 628,449.5 611.5,484.5 611.5,536.026 623.25,536.026 616,485 627.5,469 
		649,470 665,498 690,522 670.5,494.5 658,464 636,460 643.5,451.5 643,423 694,404.5 698.5,437.5 690,475 711,523 716.5,518 
		708,489 697,468.263 703,433.75 699,400.5 809.5,356.5 833.5,356.5 836.5,388.5 793,436 776,482 775,518 785,518 784.5,485.5 
		800,439 824.5,421.5 831.5,457.5 812.5,513.5 830.5,510.5 841,455 833.5,411.75 846,393 846,433.75 863,452.5 849.5,511 
		858.5,504.5 869.5,440 858,372.5 848.5,382 843,356.5 810.5,356 	"/>
	<path id="XMLID_324_" fill="#A07630" d="M845,263.5h13.5v-11l8.5,11l7.5-8v4.5l13.5-7.5l-4,5.5h4l-3,5.5l42,4l41,14h18l29.5-22V249
		l6,9.5v-13l7.5,9l10-21l-4,19l13-5.5v3l64-16.5l39.5,17.5l42.75,20.5l31.75,64.75l13.5,37.75l5.5-6.5V381h7l-4,10.5l4,7.5h-12.5
		l8,10.5h-8.5v37l-13.5,37L1213,522l-15.5,8.5l-149-87.5L934,487c0,0-61.5-5.5-61.5-7.5s-3-33-3-33L856,436l-15-25.5l33-61L849,288
		L845,263.5z"/>
	<polygon id="XMLID_326_" fill="#C1B49A" points="1151.5,272 1146.5,251 1131,237.5 1111.5,228 1096,233.5 1084,257 1084,274.5 
		1098,310 1099.5,330.5 	"/>
	<polygon id="XMLID_279_" fill="#A79D9E" points="1120,333.5 1102.5,330.5 1102.5,312 1085.5,270.5 1088,254.5 1096.5,238.5 
		1113,230.5 1130,240.5 1144,255.5 1148.5,273 1144.5,290 1135.5,301 	"/>
	<polygon id="XMLID_332_" fill="#CE292B" points="1069.5,296 1059,292.5 1059,279.25 1074,266.5 1088.5,286.5 1088.5,314.5 
		1078,314.5 1071.5,308 	"/>
	<polygon id="XMLID_370_" fill="#C1B49A" points="866.75,525 871.25,507.438 865.5,502 871.25,477 903.5,479.25 921.25,470.25 
		947.5,471.5 976,459.75 1006.25,451 1016.75,436.75 1021.75,434.875 1026.5,415.75 1070.75,392 1125.25,409.25 1158,455 
		1166.5,489.5 1199,511.75 1197.5,462.25 1193.25,435.25 1186,409.25 1155.5,420.5 1147,411.75 1138.25,397.125 1136.75,376.5 
		1156.25,366.75 1188.25,378.5 1207.75,444 1209.75,485 1209.75,517.625 1202.5,530.5 1194.25,536.026 1182.5,524 1188.5,514.75 
		1176.5,520.5 1176.75,528 1184.25,532.75 1184.25,536.026 1166.5,530.5 1148.5,517.625 1135.5,517.625 1126.5,512.875 1138.25,522 
		1141,526.25 1135.5,530.5 1074.063,500.25 967.5,509.25 956.25,533.5 938.75,549.25 916.25,533.5 908.5,513.5 893.5,514.75 
		878.75,507.25 	"/>
	<polygon id="XMLID_371_" fill="#D7CAB7" points="902,590 919.5,603.75 945.25,586.5 960,569 960,561 952.5,549.25 952.5,540 
		940.75,524.75 920.5,530.5 916.25,533.5 926.25,545 924,559 905.25,564.25 936.875,571 911.5,575.25 917.75,584 931,583.75 
		915,591.25 	"/>
	<polygon id="XMLID_373_" fill="#D7CAB7" points="967.75,505.25 1041.75,470 1102.25,524.75 1082,520 1078,515 1061.75,514.75 
		1092.5,528 1108,530.5 1112.5,537.25 1112.5,558.5 1105,564.25 1104.75,549.25 1101.25,562.5 1080,573.75 1084.875,561 
		1061.75,576.75 1064.75,551.75 1054.25,540.513 1016,533.5 	"/>
	<polygon id="XMLID_372_" fill="#231F20" points="1171.5,427.25 1156.5,418.25 1145.75,397.125 1143.75,380 1151.5,362.5 
		1182.25,370 1194.25,398.654 1178.75,424 	"/>
	<polygon id="XMLID_375_" fill="#CE292B" points="1155.5,530.5 1160.5,478.75 1177.25,430.75 1186.25,416.25 1177.25,418.25 
		1171.5,427.25 1164.846,423.257 1158.442,419.415 1154,421.75 1163.5,434.25 1164.75,446.25 1159,467 1150.25,484.5 1148.25,530.5 
		1169,538.25 1174.25,523.375 1174.25,514.75 1182.25,505.25 1182.25,496.75 1167.25,493 1164,502 1167.25,520.5 1163,530.5 	"/>
	<polygon id="XMLID_376_" fill="#FFFFFF" points="1172,505.25 1167.25,495 1178.5,487.25 1181.75,477.25 1192.5,484.25 
		1192.5,493.25 1179.875,503 	"/>
	<ellipse id="XMLID_374_" fill="#FFFFFF" cx="1166.25" cy="392.5" rx="21" ry="22.75"/>
	<polygon id="XMLID_378_" fill="#231F20" points="849.25,386.5 895.75,375.75 936.875,377.5 947.5,355 855,352.75 857.5,366.75 	"/>
	<polygon id="XMLID_380_" fill="#231F20" points="856.883,307.391 853,323 911,310.5 901,307.391 	"/>
	<polygon id="XMLID_385_" fill="#C1B49A" points="858.5,357 844.5,338.75 851.5,327.75 847.25,323 858.5,315.196 904.25,311.955 
		971,327 980.75,334.477 946.257,354.97 	"/>
	<polygon id="XMLID_349_" fill="#CE292B" points="930.5,314.5 927.75,310.5 922.5,310.5 918.5,320.25 922.75,327 931.75,330.5 
		942.5,330.5 947.5,323 947.5,314.5 939.25,310.5 	"/>
	<polygon id="XMLID_369_" fill="#D15858" points="1073.75,519.25 1063.25,514.75 1080,514.75 1084.875,520.5 	"/>
	<polygon id="XMLID_364_" fill="#CE292B" points="1082,545 1080,537.75 1085.25,536.026 1089.75,540 1087.5,545 	"/>
	<polygon id="XMLID_361_" fill="#CE292B" points="936.5,507.25 931.75,505.25 934.125,499.25 939.25,496.75 942,502 	"/>
	<polygon id="XMLID_358_" fill="#CE292B" points="1209.75,427.25 1209.75,415.75 1213.5,409.25 1218.75,409.25 1220.25,418.25 	"/>
	<polygon id="XMLID_355_" fill="#CE292B" points="1064.5,398.75 1070.75,392 1076.25,395.375 1076.25,402.25 1068,402.25 	"/>
	<polygon id="XMLID_343_" fill="#CE292B" points="869.5,440 872.5,429.75 877.5,429.75 877.5,437.5 	"/>
	<polygon id="XMLID_346_" fill="#CE292B" points="891,294.75 898.75,288.75 904.25,294.75 900,298.25 894.5,298.25 	"/>
	<polygon id="XMLID_328_" fill="#CE292B" points="1130.167,296 1135.5,301 1130.167,319 1117.75,365 1123,393.5 1123,415 
		1109,446.5 1104.5,474.5 1114,527.5 1102,517.5 1097.5,469 1104.5,432.5 1113,407.25 1113.5,319 1120.5,301 	"/>
	<polygon id="XMLID_280_" fill="#D15858" points="1058,349.5 1051.5,323 1061.5,331.5 	"/>
	<polygon id="XMLID_297_" fill="#D15858" points="1193,342 1187,323 1201.5,296 1194.25,317 1199,328 	"/>
	<polygon id="XMLID_388_" fill="#CE292B" points="897.625,527.5 897.625,499.667 898.375,472.333 911,458 923,407.25 
		938.667,369.625 952,338.333 980.75,303.333 982,293.5 976.667,288.75 977.667,279.25 980.75,274.667 986,276.667 988.667,290.5 
		994.333,298.25 997.667,320.5 1005,327 1005,349.5 1012.667,392.5 1024.756,422.772 1054.455,481.497 1067.607,493.399 1107,518 
		1114.333,530.5 1067.667,503.333 1048,485.333 1048,481.333 1022.333,432 1005.979,398.333 996.333,333.5 992.333,352.75 
		987.333,365 983.667,351.333 988.333,316.667 980.75,311.955 958,345 953.333,365 928.333,407.25 918.5,470 962,443 
		969.667,402.583 974.667,399.333 979.333,402.583 969.667,434.875 965.955,463.891 979.333,517.625 972,512.875 960,464.333 
		960,449.667 908,483.333 907.333,528 	"/>
	<polygon id="XMLID_352_" fill="#D15858" points="1058.25,505.25 1051,502 1039.5,503.625 1029.36,512.875 	"/>
	<polygon id="XMLID_367_" fill="#CE292B" points="1041.25,515.75 1033.5,520.5 1026.5,520.5 1027.75,513.5 1049,505.25 
		1052.5,507.25 1048,518 	"/>
</g>
</svg>
