<?xml version="1.0" encoding="utf-8"?>
<!-- Generator: Adobe Illustrator 19.0.0, SVG Export Plug-In . SVG Version: 6.00 Build 0)  -->
<svg version="1.1" id="Layer_1" xmlns="http://www.w3.org/2000/svg" xmlns:xlink="http://www.w3.org/1999/xlink" x="0px" y="0px"
	 viewBox="0 0 1920 1080" enable-background="new 0 0 1920 1080" xml:space="preserve">
<g id="dead_dark">
	<polygon id="XMLID_762_" fill="#283E36" points="0,1072.052 1920,855.274 1920,0 0,0 	"/>
	<polygon id="XMLID_761_" fill="#365040" points="0,1080 1920,1080 1920,0 1497.556,0 1463,44.704 1359,39.231 1317.948,0 
		490.518,0 473,6.393 459.569,0 179.937,0 167,6.393 97,126.803 17,208.901 0,222.435 	"/>
	
		<linearGradient id="XMLID_2_" gradientUnits="userSpaceOnUse" x1="956.8629" y1="1066.0168" x2="963.8038" y2="-97.821" gradientTransform="matrix(1 0 0 -1 0 1080)">
		<stop  offset="0" style="stop-color:#2A3A1F;stop-opacity:0.5"/>
		<stop  offset="0.0148" style="stop-color:#2A3D25;stop-opacity:0.48"/>
		<stop  offset="1" style="stop-color:#2484C6;stop-opacity:0"/>
	</linearGradient>
	<rect id="XMLID_542_" fill="url(#XMLID_2_)" width="1920" height="1080"/>
</g>
<g id="squirrel_x5F_dead">
	<polygon id="XMLID_763_" fill="#58151D" points="1568.333,662.333 1571,579.333 1552.667,523.333 1498.667,500.333 
		1463.333,452.333 1396,408.667 1336.333,379.667 1249.667,368.667 1167.333,381.667 1064,408.333 732.333,361.667 604,371.667 
		534,405 401.667,447.667 383.333,490.333 395.667,536.026 456,569.333 608,615.333 736.333,680.333 921,669.667 1064.667,687.333 
		1192.333,715 1348.667,719.333 1527.667,688.333 	"/>
	<polygon id="XMLID_765_" fill="#58151D" points="571,714.333 592,695.667 585.667,661 550.333,641 499,630 475.667,649.333 
		470.667,687.667 502,702 545.333,703.667 	"/>
	<polygon id="XMLID_766_" fill="#6D85AD" points="530.5,435.333 533.167,440.833 551,445.167 554,427.5 541.167,430.333 533,427.5 
		538.333,437.167 	"/>
	<polygon id="XMLID_764_" fill="#484136" points="684.25,414.25 586.25,407 546.75,422 542.25,454.75 547.5,468.75 554,475.75 
		615.75,487.5 676,490 	"/>
	<polygon id="XMLID_768_" fill="#592E3C" points="577,188 597.5,205.75 608,209 627.25,229.5 617.75,229.5 587.75,207.25 
		577,193.25 	"/>
	<polygon id="XMLID_769_" fill="#58151D" points="580.167,206.5 581.5,203.5 577,196.667 577.5,190.667 580.167,195.833 
		584.833,203.5 582.167,206.5 	"/>
	<path id="XMLID_770_" fill="#484136" d="M836.5,328.667L814.333,283.5l-8.167,14.5l-16.333-24.333l-9.167,19.167l-1.5-22.833
		l-7,9.5l-19.833-33.667L746.667,265c0,0-16.333-41.5-16.333-41s-5.5,30.667-5.5,30.667L713,218.167L702.833,229.5l-3.333-31l-10,19
		l-11.833-31l-1.5,21.5l-27-33v30.333l-5.667-14.667v20.5l-4.833-4.667l-3.167,12.167l-9.5-13.833l-7.667,20.333l-0.833-8.5
		l-9.667,9.667l-6.5-6.5l-4.667,11l-4.833-11.5l-3.5,15.5l-6.5-3.833l-6.5,6.5L570,235.167l-6.5,8l-21.833,1.167l38.167,14
		l-19.333,5.833l48,28.167L584.833,294l58.833,22.333l-36.5,5.333l53.167,11l-17,7.667l39.333,6.167l-9.5,11.5l38.667-1.167
		L711,368.667l94.333-8L836.5,328.667z"/>
	<polygon id="XMLID_767_" fill="#58151D" points="655.833,219.5 655.833,216.333 658.833,213.333 661.667,215.333 665,217.333 
		659.833,219.5 	"/>
	<polygon id="XMLID_771_" fill="#58151D" points="635.167,254.5 631.833,249.5 633.5,245.5 636.667,245.5 641.833,250 639.167,253 	
		"/>
	<polygon id="XMLID_773_" fill="#58151D" points="622,268.167 630.167,261.333 638.167,262.167 640.833,264.75 653.5,264 653.5,273 
		647.333,278.667 635.833,277.5 627.25,279.5 623.667,276 629.5,272.833 	"/>
	<polygon id="XMLID_772_" fill="#58151D" points="628.833,326.167 628,322.333 634.167,321.167 639.833,323.667 641.833,327 
		636.833,327.805 	"/>
	<polygon id="XMLID_774_" fill="#58151D" points="710.167,319.833 710.167,310.333 722.333,308.167 726.667,315.5 723.167,319.833 
		718.417,321.167 	"/>
	<polygon id="XMLID_776_" fill="#58151D" points="727.833,294.167 727.833,290.667 731.167,288 735.333,291.083 731.583,294.167 	
		"/>
	<polygon id="XMLID_775_" fill="#31353C" points="838.667,346 879.5,334.833 886.833,348.833 918.167,351.5 928.5,345.5 
		928.5,349.5 937.167,348 937.167,351.5 940.5,355.167 958.667,356 960,361 965.667,363 985.833,363 1002.667,369.5 1017.5,366.5 
		1020.333,371.167 1032.833,370 1043.167,379.5 1083.833,376.833 1146.833,382.667 1159.5,393.667 1178,394.333 1183.667,399.333 
		1263.333,414.667 1224.167,458 828.833,387.667 	"/>
	<polygon id="XMLID_778_" fill="#58151D" points="947.583,363.833 947.583,361.333 950.333,359.917 952.75,362.25 950.667,364.75 	
		"/>
	<polygon id="XMLID_777_" fill="#58151D" points="1002.167,381.667 1002.167,378.25 1005.75,376.333 1009.583,376.75 
		1010.583,379.417 1005.917,382.833 	"/>
	<polygon id="XMLID_780_" fill="#58151D" points="1111,392.25 1109.417,390.417 1111.833,388 1114.083,390.583 1113.333,392.25 	"/>
	<polygon id="XMLID_781_" fill="#58151D" points="1211.5,414.833 1210.833,412.333 1214.083,410.917 1215.25,412.875 
		1213.417,414.833 	"/>
	<polygon id="XMLID_782_" fill="#6D85AD" points="860.417,356 865.167,350.833 873.417,352 879.5,355.583 875.167,365.25 
		869.333,366.417 865.167,364.25 	"/>
	<polygon id="XMLID_779_" fill="#4B1F28" points="851.667,358.083 868.5,364.75 910.417,366.417 920.667,373.25 942.333,376.333 
		980.333,376.833 1008.417,390 1038.333,387.5 1093.583,395.75 1124.75,401.333 1147.833,401.333 1176.083,409.667 1194.417,421.75 
		1226.167,421.75 1218.083,452 835,401.167 	"/>
	<polygon id="XMLID_783_" fill="#58151D" points="863,388.083 871.167,381.167 875.25,370.75 883.75,369.417 886.5,374.25 
		888.583,382.833 900.25,388.083 903.417,392.25 920.917,396.417 926.917,404.417 	"/>
	<polygon id="XMLID_785_" fill="#58151D" points="988.667,396.417 987.583,394.417 989.583,391.75 994.167,393.5 990.083,397.25 	
		"/>
	<polygon id="XMLID_784_" fill="#58151D" points="1067.667,416.917 1066.167,411 1067.333,405.917 1074.25,404.167 
		1087.167,403.583 1094.583,399.25 1102.333,397.333 1111.75,398.917 1104.917,401.5 1094.75,402.25 1087.583,407.125 1078.833,408 
		1079.25,411.667 1076.583,418.333 	"/>
	<polygon id="XMLID_787_" fill="#6D85AD" points="1069.917,406.083 1079,391.75 1079,395.333 1079.833,394.25 1079.833,396.417 
		1083.333,397.333 1075.667,406.083 	"/>
	<polygon id="XMLID_788_" fill="#6D85AD" points="883.833,375.083 878.5,370.417 885.083,362.333 891.167,358.625 890.167,367.25 
		896.917,360.667 891.083,371.917 	"/>
	<polygon id="XMLID_789_" fill="#592E3C" points="850.083,381.417 861.083,384 888.75,384 899.917,395.417 916.5,400 948.833,398.5 
		958.083,401.417 977.167,412.667 987,414.917 1083,414.917 1105.333,424.417 1123,420.167 1146.583,421.167 1167,425.167 
		1188.833,431.333 1200.167,431.833 1211.917,436.75 1219.417,445.083 1201.167,470 898.75,454.417 835,413.917 	"/>
	<polygon id="XMLID_786_" fill="#58151D" points="863.833,413.667 865.917,407 868.333,405.042 875.5,405.667 877.167,408.083 
		876.667,415.833 	"/>
	<polygon id="XMLID_791_" fill="#58151D" points="979.417,433.167 975.167,431.917 974.75,429.25 978.167,426.75 981.25,428.583 	
		"/>
	<polygon id="XMLID_792_" fill="#58151D" points="1050.333,428.417 1048.667,426.75 1049.083,423.667 1052.167,423.667 
		1054.583,427.083 	"/>
	<polygon id="XMLID_790_" fill="#58151D" points="1182.167,445.917 1179.333,445.083 1181.417,441.417 1181.667,437.917 
		1184.5,438.583 1185.167,443.667 	"/>
	<polygon id="XMLID_796_" fill="#525E68" points="1428.333,555 1416.833,521.667 1172.667,500.5 820.667,463.167 807.833,494.833 
		856.833,497.333 940.833,514.667 1034.833,523 1056,529 1118.933,561.468 1156.667,529 1173.854,570.667 1239.667,576.333 
		1314.5,591 1322.833,596.833 1347,602.167 1381.333,602.167 1400.667,596.5 1426.5,572.167 	"/>
	<polygon id="XMLID_793_" fill="#58151D" points="924.917,442.667 928.5,436.167 929.167,426.333 935.75,414.083 939,411 
		944.75,416.667 942,428.667 939.25,423.667 934.833,423.75 932.167,428.833 931.167,440.083 927.917,444.333 	"/>
	<polygon id="XMLID_794_" fill="#424553" points="579.833,451.167 605.167,425.833 670.5,412.833 712.5,412.167 740.333,404.417 
		762.167,375.083 811,336.667 848.667,314.667 854.167,366.417 850.333,414.667 872.667,425.708 902,418.833 919.833,435.5 
		944.75,451.167 952.75,438.5 970.167,443.5 973.167,438.5 990.875,442.5 1021.167,439.333 1062,436.833 1089.333,438.833 
		1133.667,448.333 1141.333,451.167 1141.333,447.667 1151.667,458 1153.167,446.667 1172.167,462.167 1202,461 1248.333,403.333 
		1292.667,393.667 1355.667,427.833 1365.5,436.667 1379.833,452 1392.5,455.333 1406.333,463 1417.667,520.667 1422.833,539 
		1417.333,535.167 1414.5,543.667 1406.167,543.667 1401.333,534.833 1392.667,535.167 1386.5,542.5 1363.333,550.167 1354.167,540 
		1322.667,550.167 1301.5,549.167 1264,542.333 1247.5,540.5 1233.5,515.5 1226.167,513.667 1226.167,536.026 1214.167,546.667 
		1140.75,547.833 1046.083,511.167 878.833,482.667 849.5,482.833 811.667,497.833 745.667,497 672.333,490 601.333,467.833 	"/>
	<polygon id="XMLID_795_" fill="#3B3129" points="1386.833,562.167 1398.333,573.5 1410,573.5 1411.333,562.167 1405.667,548.5 
		1405.667,540.5 1418,540 1424.167,556.75 1425.167,570.833 1426.667,569.167 1425.667,574.833 1413.833,589.333 1398.5,594.167 
		1389.333,577.5 	"/>
	<polygon id="XMLID_797_" fill="#131113" points="1399.333,580 1393.833,573 1391,567.083 1389.333,577.5 1395.167,586.167 
		1406.75,589.833 1419.667,583.5 1422.833,579.167 	"/>
	<polygon id="XMLID_799_" fill="#545049" points="1297.333,398.5 1324.167,367.333 1332.167,371.833 1342.667,364.333 
		1348.5,364.333 1361.5,396.417 1357.243,429.249 1343.333,426.5 1315.667,410.917 	"/>
	<polygon id="XMLID_798_" fill="#545049" points="1235.5,494.167 1230.333,464.667 1222,450.167 1219.417,423.5 1229.333,400.5 
		1239,391.833 1255.5,391.833 1271.667,405.042 1275.833,424.667 1288,438.417 1281.167,453.167 1253.708,482.167 	"/>
	<polygon id="XMLID_800_" fill="#3B3129" points="1238.167,487.167 1240.5,463.167 1226.167,432.667 1233.333,407.5 1245,396.791 
		1267.167,408.333 1266.167,440.5 1254.833,478.333 	"/>
	<polygon id="XMLID_802_" fill="#131113" points="1290.5,511.833 1295,488.167 1320.167,490.5 1343.667,521 1309.667,521.833 	"/>
	<circle id="XMLID_801_" fill="#6D85AD" cx="1312.667" cy="507.333" r="15.5"/>
	<polygon id="XMLID_804_" fill="#484136" points="1196.833,569.667 1199.5,540.5 1181.5,512.5 1160,500.5 1093.667,538.333 
		1064.167,563 1053.5,575.5 1058.333,610.667 1081,637.833 1086.333,664.5 1095.333,680.5 1092,663.167 1093.167,651.333 
		1090.5,639.167 1090.5,620.667 1086,615.167 1086.833,604.667 1082.333,599 1095.5,595.833 1105.333,600.167 1115.833,613.5 
		1130,617.167 1133.333,619.167 1128.333,598.833 1130.333,598 1119.333,584.333 1108.333,575.5 1100,575.833 1104.667,561.5 
		1110.5,574.333 1120.833,581.333 1133.5,594.167 1136.5,593.333 1127.5,576 1124.5,562.167 1127.833,556.167 1130.167,575.667 
		1138.833,591.167 1158.667,582.5 1157,573.833 1153.5,566.167 1154,556 1155.333,551.833 1159.833,548.833 1157,559.333 
		1161.333,575.833 1161.833,581.833 	"/>
	<polygon id="XMLID_803_" fill="#484136" points="1108.875,679.75 1103.875,670.375 1095.125,637.5 1095.125,618.625 
		1090.375,612.75 1090.375,603.625 1091.875,600.25 1095.625,600.25 1104.75,604.75 1113.625,616.75 1128.75,620.625 
		1135.125,626.75 1135.125,633.25 1140.875,639.063 1141.875,663.375 1140,674.125 1136.5,658.875 1131.75,643 1129.25,641.625 
		1128.625,660.125 1127.25,677.125 1118.083,646.75 1110.375,636.625 1108.375,661.625 	"/>
	<polygon id="XMLID_805_" fill="#592E3C" points="1080.667,602.167 1089.333,592.5 1097.167,592.5 1104,595.667 1105.333,600.167 
		1095.833,597.333 	"/>
	<polygon id="XMLID_807_" fill="#592E3C" points="1100,575.833 1102.167,561.333 1101.083,554 1104.5,557.833 1104.5,562.833 	"/>
	<polygon id="XMLID_808_" fill="#592E3C" points="1124.5,562.167 1124.5,556.678 1120.333,550.167 1120.333,541.833 
		1127.833,556.167 	"/>
	<polygon id="XMLID_809_" fill="#592E3C" points="1155.333,551.833 1155.333,547.667 1151.5,544.167 1151.5,537.833 
		1159.833,548.833 	"/>
	<polygon id="XMLID_810_" fill="#592E3C" points="1074.667,470 1084.667,473.167 1086.333,475.5 1095.833,475.5 1118.083,485.833 
		1112,487.833 1087.583,482 	"/>
	<polygon id="XMLID_811_" fill="#592E3C" points="1364.167,468.5 1381.5,473.833 1383.167,495 1377,481.75 1376.667,474 	"/>
	<polygon id="XMLID_806_" fill="#58151D" points="1400.333,600.5 1399.333,592.333 1403.253,588.726 1401.293,585.667 
		1396.167,584.833 1394.443,586.79 1395.667,591 1395.833,600.5 	"/>
	<polygon id="XMLID_813_" fill="#58151D" points="1422.417,555.083 1420.25,552.333 1418.833,549.417 1424.25,545.75 1425,552.5 	
		"/>
	<polygon id="XMLID_812_" fill="#58151D" points="1407.917,512.083 1405.417,510.75 1405,508.083 1408.5,506.417 1411.083,508 
		1411.083,510.333 	"/>
	<polygon id="XMLID_815_" fill="#58151D" points="1383.167,495 1380.25,483.5 1380.833,478.667 1390.083,484.583 1388.917,491.083 	
		"/>
	<polygon id="XMLID_814_" fill="#58151D" points="1375.167,605.333 1369.417,595.833 1369.417,573.417 1372.292,550.833 
		1377.333,540.5 1377.333,520.083 1372.25,500.25 1359.167,489.083 1349.417,464.917 1341.75,440.667 1356,446.333 
		1381.833,450.167 1379.583,444.25 1360,443 1341.75,437 1334.667,432.417 1332.333,422.833 1332.333,411.5 1336.25,389.417 
		1334.667,372.167 1340.617,365.797 1338.917,365.797 1332.333,370 1329.417,367.75 1325.132,367.876 1330.5,379.917 
		1330.417,390.667 1327.417,410.667 1327.25,430 1333.5,436.5 1341.75,451.5 1346.083,470.083 1354.833,490.917 1368.417,503.5 
		1372.5,523.25 1372.667,541.833 1368.583,552.667 1366.917,574.417 1366.833,596.917 1370.667,605.75 	"/>
	<polygon id="XMLID_817_" fill="#58151D" points="1323.083,600.5 1329.417,594.167 1332.5,566.75 1330.5,549 1327.792,539.333 
		1328.583,529.667 1332.083,525.25 1335.583,524.833 1339.083,522.333 1337.5,520 1332.417,520 1330.25,521.833 1326.423,521.423 
		1322.255,519.507 1315,521.5 1310.833,520.917 1309.583,520 1305.917,520 1304.417,521.833 1307.833,527.917 1303.583,536.917 
		1305.333,550.917 1301.667,561.917 1294.167,569.75 1288.833,592.25 1298.167,593.667 1300.583,572.917 1309.417,556.917 
		1311,549.5 1311.167,540 1314.417,535.333 1316.667,540.5 1317.583,549.917 1322.583,560.003 1323.083,565.833 1321.583,572.833 
		1322.917,580 1322.833,588.917 1316.5,596.25 	"/>
	<polygon id="XMLID_816_" fill="#58151D" points="1313.333,497.667 1309.5,494.167 1305.417,492.75 1301.979,488.814 
		1304.917,480.583 1310.5,481.75 1316,485 1318,489.917 	"/>
	<polygon id="XMLID_818_" fill="#58151D" points="1341.833,481.75 1339.083,482.167 1337.167,480.583 1340.833,477.917 	"/>
	<polygon id="XMLID_819_" fill="#58151D" points="1294.417,473.667 1292.333,472.417 1291,469.583 1293.5,467.333 1296.75,468.083 
		1297.167,472.5 	"/>
	<polygon id="XMLID_820_" fill="#58151D" points="1319.75,458 1314.75,453.5 1318,447.25 1320.667,446.333 1324.417,448.417 
		1326.75,451.417 1325.583,454.167 1322.417,458 	"/>
	<polygon id="XMLID_822_" fill="#58151D" points="1277.167,440.667 1275.583,439.167 1278.583,436.583 1281.833,438.625 
		1279.75,440.25 	"/>
	<polygon id="XMLID_823_" fill="#58151D" points="1255.333,476.666 1249.5,477.917 1240.142,486.12 1242.417,491.833 
		1236.583,502.083 1235.583,521.833 1239.917,546.5 1229.75,560.003 1228.583,569.583 1220.5,579.667 1226.333,580 
		1234.083,573.083 1235.167,563.917 1240.5,558.083 1240.75,566.667 1235.917,580 1241.333,581.167 1249.917,552.417 1242,514.75 
		1248.083,491 1255.333,482.25 	"/>
	<polygon id="XMLID_821_" fill="#58151D" points="1271.333,536.75 1269.167,532.667 1275.25,528 1282.333,532.375 1279.75,535.417 
		1275.25,535.167 	"/>
	<polygon id="XMLID_825_" fill="#58151D" points="1184.333,575.833 1185.833,548.333 1181.833,535 1181.833,525.667 1173,514.667 
		1177.333,487.167 1188.667,461.521 1193.667,459.833 1195.836,461.241 1182.25,490.833 1177.667,506 1178.5,513.5 
		1185.167,524.667 1185.833,536.026 1189.333,547 1190.333,568.667 1188.167,576.667 	"/>
	<polygon id="XMLID_824_" fill="#58151D" points="1141.167,497.5 1137.5,494.167 1137.5,490.167 1143,487.167 1146.5,487.833 
		1148.667,494.167 	"/>
	<polygon id="XMLID_827_" fill="#58151D" points="1081.23,476.098 1088.833,480.333 1102.25,483.167 1107.5,485.667 
		1093.167,490.667 1088.333,504 1078.833,514.5 1070.167,541.833 1058.5,537.833 1070,523.167 1073.333,508.966 1083,497.5 
		1084.833,483.167 	"/>
	<polygon id="XMLID_828_" fill="#58151D" points="1065.333,453.5 1067.833,447 1073.333,447 1074.667,449.167 1071.833,453.5 	"/>
	<polygon id="XMLID_829_" fill="#58151D" points="1031.833,459 1034.667,459 1033.25,463.167 1029.667,478.917 1030.583,491.667 
		1032.167,499.167 1030.583,528.333 1025.833,526.5 1028.667,508.966 1028.167,497.5 1016.833,502.833 1009.5,518.25 
		1009.5,526.833 1003.833,525.333 1006,512.167 1012.833,497.5 1023.333,491.333 1024.833,474.833 1027.208,466.667 	"/>
	<polygon id="XMLID_830_" fill="#58151D" points="1134.917,453.167 1136,445.917 1134.917,443.833 1130.917,443 1128.917,440.75 
		1133.667,435.833 1138.917,436.25 1140.167,438.917 1138.833,440.583 1139.25,444.5 1137.833,453.167 	"/>
	<polygon id="XMLID_831_" fill="#58151D" points="924.417,514.583 927.75,503.417 928.167,493.667 934,480.583 937,478.75 
		938.917,467.833 937.083,456 933.833,451 935.667,448.25 943.5,445.5 940.75,431.75 939.583,421.583 943.5,417.583 943.5,432.917 
		948.613,445.05 948.083,449.167 948.083,452 943.167,456.833 943.25,478.417 946.083,486.167 942.167,520.167 936.167,519.083 
		940.5,498.75 941.5,488.917 938.917,485.917 935.5,488 933,494.333 932.25,503.417 927,517.083 	"/>
	<polygon id="XMLID_832_" fill="#58151D" points="890.5,507 891.333,481.583 881,455.083 874.667,450.833 872.5,444.333 
		872.5,436.417 870.75,434.333 876.234,424.872 873,422.833 870.75,424.761 862.167,439.417 859.667,451.167 858.583,475 
		854.5,489.333 848.75,501.417 853.417,503.75 857.75,485.917 862,479.25 863.5,447.25 866.25,438.833 869.667,440.083 
		870.042,449.083 873.5,455.083 878,458.833 884.25,478.417 887.583,484.5 887.583,507.583 	"/>
	<polygon id="XMLID_826_" fill="#58151D" points="819.417,501.417 820.333,475.583 811.167,456.75 803.917,445.083 801.583,433.083 
		803.75,415.833 804,411.333 802.5,405.583 791.417,405.042 789,409.083 789,414.917 792.833,421.25 789,436.583 786.417,438.25 
		785.917,450.5 783,452.583 783.5,458.417 790.417,461.667 794.75,459.25 791.583,445.917 795.75,445 806.583,461.917 
		813.167,479.917 814,501.417 	"/>
	<polygon id="XMLID_834_" fill="#58151D" points="751.667,480.167 754.25,477.333 751.167,473.833 747.417,475.667 748.25,479 	"/>
	<polygon id="XMLID_835_" fill="#58151D" points="722.5,449.5 730,447.167 734.167,443.667 731,439.5 726.25,436.917 
		718.583,439.25 715.5,445.833 	"/>
	<polygon id="XMLID_836_" fill="#58151D" points="695.917,495.083 695.25,483.667 697.083,471.583 695.25,465.167 691.333,458 
		689.5,450.583 691.333,440.833 692.833,437.5 689.5,432.083 679.833,433.25 672.917,447.917 672,459.833 674,472.917 673.5,481.5 
		665.167,493.917 667.667,495.083 676.75,482.917 677.25,469 676,459.333 677.75,447.917 682.917,441.333 685.083,441.25 
		684.833,451.917 688.167,463.583 692.583,469 692.5,477 689.75,497.5 	"/>
	<polygon id="XMLID_837_" fill="#58151D" points="602.833,467 601.667,462.333 604.75,458.833 607.917,459.25 612,463.5 
		610.5,467.417 605.917,465.917 	"/>
	<polygon id="XMLID_833_" fill="#58151D" points="582.667,452.5 587.333,454.583 592.833,454.25 597.25,448.5 595.167,445.167 
		588.5,441.583 584.833,441.583 582.667,445.667 	"/>
	<polygon id="XMLID_839_" fill="#58151D" points="822.75,348.25 820.333,343.375 822.75,336.875 835,334.833 837.75,337 
		830.75,345.125 826.75,347.625 	"/>
	<polygon id="XMLID_840_" fill="#6D85AD" points="792.375,413.125 786.875,402.25 788.5,397.625 789,401.125 790.625,402 
		789.625,397.625 789.625,395.875 793.5,401.375 794.25,397.75 795.125,398.5 795.125,395.875 797.375,398.375 797.375,401.125 
		799.375,409.375 797.5,412.25 	"/>
	<polygon id="XMLID_841_" fill="#6D85AD" points="934.125,419.125 927.875,401.875 927.875,392.75 931.875,400.375 932.75,393.375 
		934.125,400.25 934.125,404.417 939.875,410.438 940.625,417.583 	"/>
	<polygon id="XMLID_838_" fill="#6D85AD" points="1133.125,438.875 1132,428.417 1134.542,430.375 1136.75,429.75 1136.75,437.917 
		1134.542,439.375 	"/>
	<polygon id="XMLID_842_" fill="#6D85AD" points="687.333,434.167 681.125,430.833 675.833,424 675.833,427.5 672.5,425.333 
		676.167,434.167 684.25,437.833 686.5,436.917 	"/>
</g>
</svg>
