<?xml version="1.0" encoding="utf-8"?>
<!-- Generator: Adobe Illustrator 19.0.0, SVG Export Plug-In . SVG Version: 6.00 Build 0)  -->
<svg version="1.1" id="Layer_1" xmlns="http://www.w3.org/2000/svg" xmlns:xlink="http://www.w3.org/1999/xlink" x="0px" y="0px"
	 viewBox="0 0 1920 1080" enable-background="new 0 0 1920 1080" xml:space="preserve">
<g id="dead_cave">
	<polygon id="XMLID_843_" fill="#634631" points="0,1072.052 1920,855.274 1920,0 0,0 	"/>
	<polygon id="XMLID_760_" fill="#7D6363" points="0,1080 1920,1080 1920,0 1497.556,0 1463,44.704 1359,39.231 1317.948,0 
		490.518,0 473,6.393 459.569,0 179.937,0 167,6.393 97,126.803 17,208.901 0,222.435 	"/>
	
		<linearGradient id="XMLID_2_" gradientUnits="userSpaceOnUse" x1="956.8629" y1="1066.0168" x2="963.8038" y2="-97.821" gradientTransform="matrix(1 0 0 -1 0 1080)">
		<stop  offset="0" style="stop-color:#2A3A1F;stop-opacity:0.5"/>
		<stop  offset="1" style="stop-color:#2484C6;stop-opacity:0"/>
	</linearGradient>
	<rect id="XMLID_759_" fill="url(#XMLID_2_)" width="1920" height="1080"/>
</g>
<g id="hare_x5F_dead">
	<polygon id="XMLID_845_" fill="#CE292B" points="1084.333,791.667 1010.333,779 809,755.667 669.667,760.333 577.667,755.667 
		485.667,740.333 455.667,711 360.333,679 280.333,687 142.333,670.333 89,635 76.333,569.667 120.333,501 183.667,448.333 243,437 
		255,407 481,311.667 1526.333,391.667 1595,417 1718.333,489.667 1762.333,530.333 1813.667,613.667 1805,677.667 
		1713.667,741.667 1605,749 1498.333,727 1353,775 	"/>
	<polygon id="XMLID_878_" fill="#A18254" points="861.333,268.667 900.333,261.333 935.667,268.667 960,268.667 990,243.667 
		1036.667,268.667 1067.667,251 1095,268.667 1140,286.333 1192,270.333 1225.333,245.667 1231.667,219.667 1251.75,241.333 
		1253.333,263 1299.75,278.333 1328.25,260 1353,273 1387.333,263.333 1427.75,267.667 1225.667,460.375 843.333,321.333 	"/>
	<polygon id="XMLID_879_" fill="#CE292B" points="885.333,290.333 906,276.667 1034,285.333 1066,298 1093.333,298 
		1122.667,290.333 1135.542,278.333 1148,278.333 1158,282 1161,287.333 1247,281 1272,276.667 1292.333,276.667 1295.667,273.333 
		1312.75,276.333 1322,285.667 1358,285.667 1387.333,293 1401,302.333 1231,409 907,381 	"/>
	<polygon id="XMLID_875_" fill="#B03B3B" points="900,289.333 919.333,282.333 938.667,289.333 955,282.333 1029.75,289.333 
		1056.25,308 1094.667,302.333 1137,308 1187,298.667 1274,301 1305,291 1399.333,304 1206.375,427.167 900,351.708 	"/>
	<polygon id="XMLID_880_" fill="#D15858" points="907,292 930,289.667 953.667,303 983.333,293.333 1023,314.333 1059,317 
		1086.667,311.667 1154,317 1179.667,349.333 1249.333,316.333 1308.333,309.667 1347.75,292 1370.125,299.975 1387.667,313 
		1149.667,452.667 912.352,354.75 	"/>
	<polygon id="XMLID_882_" fill="#FDE7D7" points="992.667,346.333 1028.333,204 1005.667,133.333 1048.333,203.667 1020.5,369.667 	
		"/>
	<polygon id="XMLID_883_" fill="#FDE7D7" points="1114.667,374.333 1117,243 1079,152.333 1143.167,228.667 1145,397.667 	"/>
	<polygon id="XMLID_884_" fill="#FDE7D7" points="1203.333,389.333 1203.333,299.105 1171,236.667 1223.667,289.667 
		1237.333,397.667 	"/>
	<polygon id="XMLID_881_" fill="#CE292B" points="1218.833,311.667 1225.29,302.495 1230.039,340.021 1227.333,336.167 
		1224.436,324 1218.833,322.333 	"/>
	<polygon id="XMLID_886_" fill="#CE292B" points="1203.333,315.667 1203.333,382.75 1232.5,367.667 1230.039,359.631 
		1216.667,354.75 	"/>
	<polygon id="XMLID_887_" fill="#CE292B" points="1115.015,354.75 1115.65,319.007 1130,337.167 1134.5,339 1139.667,331.667 
		1135.542,306.333 1126.167,297 1115.992,299.757 1116.334,280.497 1124.333,284.667 1134.5,279.5 1143.167,236.667 1145,381 	"/>
	<polygon id="XMLID_888_" fill="#CE292B" points="995.381,335.5 1024.407,219.667 1028,235.833 1036.167,238.667 1043.5,232.493 
		1037.131,270.48 1027.833,258.333 1018.667,264 1010.25,277.583 1009.167,294.667 1012.833,304.167 1023.667,307 1032.278,299.421 
		1027,333.5 1021.833,317.167 1017.333,314.667 1007.5,316.333 	"/>
	<polygon id="XMLID_844_" fill="#CE292B" points="1440.333,829.333 1446.667,779.333 1496.667,763.667 1562.333,781 
		1562.333,806.667 1518.667,840.667 1447,858.333 1414,829.333 	"/>
	<polygon id="XMLID_848_" fill="#CE292B" points="1640.333,822.667 1630.333,808.333 1661.667,791.667 1703,795.333 
		1750.333,776.667 1794.667,791.667 1764,811 1698,829.667 	"/>
	<polygon id="XMLID_849_" fill="#CE292B" points="1857.333,559.667 1823,528.333 1789.333,451 1748.667,397 1696.333,381 
		1647.333,373.333 1609,352.333 1594.333,332.333 1618,327.667 1575.333,302 1593.667,275 1664.667,290.333 1684.667,318 
		1639,330.667 1722.333,346.667 1750.667,332.667 1813.667,327 1881.667,406.667 1904.333,467.667 1881,536.026 	"/>
	<polygon id="XMLID_851_" fill="#CE292B" points="1514,158.333 1498,148 1420,148 1384.333,138.333 1382.333,124.667 
		1435.333,117.667 1457.333,138 1470,138 1476.333,132.333 1506,124.333 1511,124.333 1521.667,116 1566,125 1593.667,146.667 
		1564,158.333 	"/>
	<polygon id="XMLID_850_" fill="#CE292B" points="298.333,276.667 329,255.667 338,224 319.667,218.333 310.333,229 300,220 
		271.333,237.333 271.333,266 	"/>
	<polygon id="XMLID_853_" fill="#CE292B" points="202,204.667 233,181.667 202,152.333 144.667,167.333 170,204.667 	"/>
	<polygon id="XMLID_852_" fill="#CE292B" points="0,395.333 121.333,359 181.333,381 202.333,399 190,414.333 144,413 
		114.333,417.667 76.333,468.667 0,486 	"/>
	<polygon id="XMLID_855_" fill="#CE292B" points="490,818.333 510.333,796.667 500.167,770 436.333,764 383.667,771 359.667,764 
		369.333,737.333 320.333,737.333 271.333,752 224.667,753 202.333,803 253,837.333 347,849 	"/>
	<polygon id="XMLID_854_" fill="#AC8D6B" points="935,639 820,642 762,620 649.5,584.5 619.5,557.5 502.5,509.5 470.5,473 433,473 
		405.5,466.5 362.5,412.5 358,382.5 376,293 387.5,265 464,210.5 544.5,181.5 581.5,189.5 614.75,209 640.5,243 668.25,227 
		709.25,208 726.5,205.25 749.75,204.25 833.25,211 881.25,208.25 899.25,211.75 901,221.5 890,235.25 878.25,259.75 977,339.75 
		1027.75,315.75 1034,362.5 1066.5,390 1105.5,340.5 1170,388.5 1241.75,354 1313.75,347.75 1385.75,303 1462.5,206.25 1521.75,238 
		1555.75,324.5 1557.5,458.5 1509.75,594.75 1470.25,629.25 1467.25,627.25 1425,646.75 1361,644.75 1296.25,650.25 1230,645.75 
		1164.25,656 968.5,651.5 	"/>
	<polygon id="XMLID_857_" fill="#BCA087" points="1543.667,613.333 1523.333,638.667 1507,633 1496.667,610 1488.333,600.333 
		1463.333,600.333 1447.333,587 1451,573.333 1469.667,559.667 1443.667,544.333 1441.667,526.333 1453,513 1467,515.333 
		1481.333,494.667 1504,491.333 1512,500.333 1556,482.667 1578,492 1568,515.667 1591.667,538 1593.333,573.667 1563.667,590 
		1580.667,606 1575.333,629.333 1551,625.667 	"/>
	<polygon id="XMLID_856_" fill="#241F20" points="488.667,233.667 493.667,220.667 507,208.667 521.333,204.667 527,214.333 
		522,228.333 	"/>
	
		<ellipse id="XMLID_858_" transform="matrix(-0.6549 -0.7558 0.7558 -0.6549 678.2006 748.0274)" fill="#FFFFFF" cx="509.907" cy="219.151" rx="6.68" ry="13.404"/>
	<polygon id="XMLID_859_" fill="#A18254" points="748.5,433.167 750.667,389.5 747,387.333 755,382.167 759.333,364.5 
		768.5,360.333 824.167,366.333 855.5,360.333 867.5,360.333 864,399.167 855.5,403.833 858,426.333 842.667,439 842.833,449.5 
		827.833,451.333 825.667,444.333 821,438.333 813.667,439.333 812.5,448.5 807.25,448.5 802.167,435 782.333,438.833 773.5,442.5 
		759.5,426.833 	"/>
	<polygon id="XMLID_861_" fill="#B03B3B" points="752,387.833 759,382.833 763.333,368.333 770.333,364.333 820.833,369.167 
		855.167,363.667 863.333,364.5 860.167,398.333 851.5,402.333 854,420.5 833.5,427.167 814.833,423 802.333,411.667 
		784.833,408.667 770.333,409.333 768.667,401.333 757.5,395.417 	"/>
	<polygon id="XMLID_862_" fill="#FDE7D7" points="757.125,398.25 770.333,364.333 786.252,365.857 770.333,409.333 768.667,401.333 
			"/>
	<polygon id="XMLID_860_" fill="#FDE7D7" points="802.708,367.432 787.5,410.333 808.658,417.401 823.433,368.75 	"/>
	<polygon id="XMLID_863_" fill="#FDE7D7" points="814.833,423 833.643,367.115 855.167,363.667 832.625,427.167 	"/>
	<polygon id="XMLID_864_" fill="#CE292B" points="630,236.5 636.75,230.5 649.75,230.5 658.75,242 658.75,258.5 636,279.25 
		613.5,292.25 607,327 609.75,371.5 604.5,399.5 590.25,427.167 583.75,466.5 606,573.25 585.75,569 569.25,476 573.75,420.667 
		582.75,409.5 592.75,371 591.25,328.25 596.25,295.25 588.75,292.5 544.25,353.25 533.75,417.25 531.5,344.5 553.25,307.75 
		581,273.75 616,266.75 628.5,252.75 	"/>
	<polygon id="XMLID_865_" fill="#CE292B" points="643.5,590.5 643.5,575.25 655.5,541.75 671.5,471.5 695.75,442 734.75,405.833 
		752,387.833 761.75,391.25 761.75,397.669 743.75,422.5 731.75,431.5 711.25,452.5 722.25,465 719,487.5 704.75,509.25 
		700.5,541.25 702.625,567.5 698.25,593.25 685.5,611.25 678.75,605.25 690.25,565.25 688.25,542 692.5,498 698.5,484.25 
		696,476.75 685,476.75 674.25,524.25 671,549.25 658.75,581.25 654.5,599 	"/>
	<polygon id="XMLID_866_" fill="#CE292B" points="735.5,617.5 747,593 748.5,543 761.75,494.25 771.75,472.75 776.75,449.25 
		778.5,415.25 778.5,409.5 783.75,405.833 797,409.5 793.25,424.25 793.25,452.75 778.75,502.5 761.75,545.75 757.5,600.75 
		745.5,622.5 	"/>
	<polygon id="XMLID_867_" fill="#CE292B" points="808.75,645.25 805.5,632.75 817.5,606.5 835.5,591.5 838,527.25 832.5,501.5 
		836.25,478.5 844.5,458.25 847,446.25 847,434.25 841.25,423.75 844.75,418.75 855,416.75 865,438 865,468.25 858.833,486.75 
		852.25,494.5 873.5,517 886,542.5 890.75,598.75 890.75,650 880.25,650 876.25,635.5 880.25,600.75 869.75,542.75 860.75,522.25 
		849.25,515.25 854.5,526.5 848.125,603.75 829,617 819,632.25 816.5,650 	"/>
	<polygon id="XMLID_869_" fill="#CE292B" points="945,654 957.75,608.5 960,564.75 951,526.25 950.25,470 956.5,439.75 962.5,431.5 
		957.75,413.75 956.5,372.75 962.5,328.003 972.25,325 984.25,328.25 989,341 981,363.667 976.75,394.25 978.75,423.5 994.5,445 
		1009,458 1017.25,480.25 1022.75,535 1029.75,669 1014.5,670.25 1011,533.375 1002.75,484 987.375,462.25 977,460.25 965.5,478.25 
		967.75,523.5 978.75,573.5 972.25,614.25 960,657.75 	"/>
	<polygon id="XMLID_870_" fill="#CE292B" points="1104.25,664.25 1112.25,641.25 1096,583.5 1098.5,570 1104.125,515.5 1098.5,481 
		1088,459.75 1073.25,456.25 1061,430.5 1056.25,380.5 1059.25,376 1067.5,377.25 1074.5,382 1077,397.75 1075.25,413.75 
		1083,433.75 1103.75,449.75 1116,493 1117.75,534.75 1110.25,589.5 1123,608.5 1127,631.5 1122.25,664.25 	"/>
	<path id="XMLID_868_" fill="#CE292B" d="M1228,656c0-0.75-15.25-30.25-15.25-30.25l-18.25-74.083l3.5-24.167l-9.75-61.5
		L1161,394.25l11.25-13.25h13.348l1.902,15.25l16.25,63.5L1216.5,528l-2.5,43.5l14,44.5l23.75,46L1228,656z"/>
	<polygon id="XMLID_871_" fill="#CE292B" points="1309,660.5 1311.5,621.5 1306.75,569 1306.75,507 1309.125,479.25 1302,409 
		1320.5,454.75 1316.25,512 1320.5,551.667 1320.5,592.25 1323.5,634 1319.75,666.5 	"/>
	<polygon id="XMLID_872_" fill="#CE292B" points="1328.25,657.75 1340.75,564.25 1340.75,548.75 1332.5,515.75 1331,482.667 
		1330,472.5 1338.25,440.25 1340.75,471.5 1336.5,493.25 1353,547.25 1353,600.75 1340.625,658.75 	"/>
	<polygon id="XMLID_873_" fill="#CE292B" points="1377.25,654.5 1387,634.25 1387,608.25 1377.25,569.75 1382.125,488.75 
		1365.25,466 1363.5,451.75 1377,414 1397.5,477.5 1420.25,529 1421.75,592 1427.75,613 1427.75,658.75 1422.75,656 1421.75,619 
		1413.5,595.75 1410,547 1410,527.5 1401.5,508.75 1391.25,512 1387.75,563.5 1397,606.75 1395.625,635.25 1386,656 	"/>
	<polygon id="XMLID_874_" fill="#D15858" points="1311.875,460.375 1286.75,375.875 1306.125,395.125 1312.75,421 	"/>
	<polygon id="XMLID_876_" fill="#D15858" points="1335.125,460.375 1336.375,418.125 1328.25,380 1347.75,416.75 1340.625,453.875 	
		"/>
	<polygon id="XMLID_877_" fill="#D15858" points="1366.5,448.5 1370.375,424.875 1361.125,377 1376.875,401.25 1379.125,423.625 	
		"/>
	<polygon id="XMLID_889_" fill="#A18254" points="436,293.5 448.5,273.333 470.5,273.333 534,345 564,395.417 552,451.333 561,486 
		608,506.5 632.5,536.026 625.5,556.5 570,562 531.5,545 476.5,503 492,395.417 467,328 	"/>
	<polygon id="XMLID_890_" fill="#A18254" points="420,432.5 408.5,451.333 354.5,490.5 348,521 358,548 348,585.5 276.5,613.5 
		220.5,608.5 202.333,588.5 207,573.25 230,562 248,546 271.333,533.375 281,506 298.5,486 335.5,456.5 358,442.5 376.5,422.5 
		398,422.5 	"/>
</g>
</svg>
