<?xml version="1.0" encoding="utf-8"?>
<!-- Generator: Adobe Illustrator 19.0.0, SVG Export Plug-In . SVG Version: 6.00 Build 0)  -->
<svg version="1.1" id="Layer_1" xmlns="http://www.w3.org/2000/svg" xmlns:xlink="http://www.w3.org/1999/xlink" x="0px" y="0px"
	 viewBox="0 0 1920 1080" enable-background="new 0 0 1920 1080" xml:space="preserve">
<g id="dead">
	<polygon id="XMLID_464_" fill="#74894A" points="0,1072.052 1920,855.274 1920,0 0,0 	"/>
	<polygon id="XMLID_463_" fill="#809956" points="0,1080 1920,1080 1920,0 1497.556,0 1463,44.704 1359,39.231 1317.948,0 
		490.518,0 473,6.393 459.569,0 179.937,0 167,6.393 97,126.803 17,208.901 0,222.435 	"/>
	
		<linearGradient id="XMLID_2_" gradientUnits="userSpaceOnUse" x1="956.8629" y1="1066.0168" x2="963.8038" y2="-97.821" gradientTransform="matrix(1 0 0 -1 0 1080)">
		<stop  offset="0" style="stop-color:#2A3A1F;stop-opacity:0.5"/>
		<stop  offset="1" style="stop-color:#2484C6;stop-opacity:0"/>
	</linearGradient>
	<rect id="XMLID_462_" fill="url(#XMLID_2_)" width="1920" height="1080"/>
</g>
<g id="beaver_x5F_dead">
	<path id="XMLID_325_" fill="#CC2929" d="M1696.976,438.331l-42.075-72.317l-28.927-71.002l-63.114-26.297L1389.3,221.379
		l-226.156,26.297l-454.939,21.037l-135.43,44.705l-205.118,76.262l-95.984,67.057l-55.224,127.541l51.279,40.761l30.241,38.13
		l76.26,26.298l73.634,38.13l49.963-6.574l35.503-24.982l71,7.889l49.967,26.297l40.76,6.574l76.262-42.076
		c0,0,168.302-27.612,173.561-28.927c5.26-1.315,81.521,36.816,81.521,36.816s64.428-22.353,71.003-22.353
		c6.574,0,44.705,2.63,44.705,2.63l60.755,24.073l-22.85,9.034l3.834,16.104l6.135,8.435l20.705,2.301l29.907,7.668l25.306,3.834
		l17.637,1.534l2.556-2.018c3.202,1.679,5.332,2.667,5.909,2.667c3.944,0,76.262-1.315,76.262-1.315l86.779-18.407l28.927-9.204
		l24.982-71.001l74.947-28.927l64.427-28.927l55.225-69.687L1696.976,438.331z"/>
	<polygon id="XMLID_323_" fill="#FFE7D7" points="1511.59,197.721 1508.96,150.386 1515.535,166.164 1523.423,141.182 
		1523.423,172.738 1531.313,170.108 1523.423,209.555 1516.85,229.277 	"/>
	<polygon id="XMLID_322_" fill="#231F20" points="1357.743,338.401 1343.279,369.958 1284.112,414.663 1236.776,451.479 
		1226.258,504.073 1243.351,551.409 1265.704,564.557 1353.799,569.816 1381.411,546.149 1420.857,492.24 1451.099,423.867 
		1449.783,351.55 1426.116,246.361 	"/>
	<polyline id="XMLID_321_" fill="#231F20" points="1468.192,412.033 1470.11,419.134 1481.34,460.683 1499.748,472.517 
		1489.23,508.018 1481.34,560.613 1480.025,601.373 1502.378,619.781 1523.416,626.355 1554.972,600.059 1545.767,547.464 
		1537.879,509.333 1535.249,468.572 1545.767,434.385 	"/>
	<polygon id="XMLID_320_" fill="#231F20" points="336.02,467.373 328.251,486.145 318.472,497.063 301.517,498.112 294.59,502.389 
		287.623,512.507 300.414,505.353 305.176,509.709 298.34,517.726 274.93,538.835 263.708,539.107 279.895,547.754 306.599,523.279 
		282.774,553.618 273.551,568.631 294.331,555.803 310.501,533.592 299.87,565.894 318.427,536.688 331.321,514.92 358.846,490.335 
			"/>
	<polyline id="XMLID_319_" fill="#593A35" points="407.714,436.496 337.585,474.482 332.325,486.754 332.325,496.105 
		342.261,499.612 354.533,498.443 428.753,475.067 	"/>
	<polygon id="XMLID_318_" fill="#231F20" points="1025.085,517.222 1044.727,522.41 1059.337,521.241 1070.441,508.383 
		1078.039,505.461 1090.311,506.045 1076.87,511.89 1077.454,518.318 1087.974,517.734 1118.948,511.89 1125.961,503.124 
		1123.038,521.241 1087.389,527.669 1125.961,527.085 1143.493,528.837 1120.701,537.604 1093.233,537.019 1125.376,548.123 
		1090.896,545.201 1065.766,542.279 1029.533,549.292 	"/>
	<polyline id="XMLID_317_" fill="#543E3C" points="731.871,239.787 745.02,256.88 759.484,241.102 772.633,225.324 804.189,188.508 
		831.801,177.988 847.579,153.006 906.748,143.802 968.546,146.432 1001.417,121.45 1073.734,108.301 1109.235,114.875 
		1135.376,90.556 1176.293,120.135 1160.515,302.9 952.767,373.903 659.554,296.326 	"/>
	<polygon id="XMLID_316_" fill="#CC2929" points="540.389,463.272 519.345,495.368 525.702,519.596 562.582,537.062 592.356,542.34 
		608.172,537.398 642.117,516.025 685.64,514.749 744.574,502.233 790.203,472.698 833.311,437.871 886.748,411.102 926.694,405.04 
		1009.263,417.604 1067.239,400.353 1105.633,420.992 1304.96,272.764 1327.666,235.981 1182.482,97.504 1125.07,140.446 
		1061.095,142.384 950.938,175.422 900.168,199.622 869.446,216.861 814.555,265.092 758.596,286.573 668.655,359.299 
		616.937,406.017 559.625,443.717 	"/>
	<polygon id="XMLID_315_" fill="#F4CFB5" points="970.646,75.168 1003.346,92.032 1028.247,133.38 1038.796,185.463 
		1037.758,240.474 1054.631,235.026 1057.428,170.092 1045.724,123.752 1011.402,81.702 	"/>
	<polygon id="XMLID_314_" fill="#F4CFB5" points="708.896,190.222 760.278,231.096 768.246,271.528 773.842,330.594 762.158,366.24 
		778.903,361.445 790.212,331.646 791.105,281.216 774.686,226.151 	"/>
	<polyline id="XMLID_313_" fill="#F4CFB5" points="909.899,276.896 895.733,217.588 870.088,182.808 840.509,158.796 
		810.774,145.021 847.727,146.462 878.943,163.343 903.767,198.514 924.67,263.502 	"/>
	<polygon id="XMLID_312_" fill="#AF3A3A" points="657.08,389.476 678.58,361.057 691.875,350.826 721.391,341.949 731.513,333.231 
		743.85,318.264 769.283,303.545 786.009,305.956 801.419,294.717 822.375,295.112 852.297,292.532 881.803,256.402 
		933.037,263.132 970.166,267.501 1021.684,231.261 1086.954,188.468 1126.594,170.871 1170.156,139.723 1206.078,152.455 
		708.166,404.066 	"/>
	<polygon id="XMLID_311_" fill="#C14646" points="683.226,392.592 678.58,361.057 703.154,336.365 725.561,315.299 737.197,309.753 
		767.88,322.386 807.222,320.507 809.654,358.287 	"/>
	<polygon id="XMLID_310_" fill="#AF3A3A" points="945.789,281.716 943.051,232.399 977.844,193.749 1022.168,177.814 
		1054.561,183.14 1089.375,198.995 1100.518,219.645 	"/>
	<polygon id="XMLID_309_" fill="#FFE7D7" points="666.685,213.564 676.57,245.196 695.878,277.529 717.852,307.292 756.858,351.003 
		785.366,340.011 740.923,306.679 705.396,272.991 683.471,240.609 	"/>
	<polygon id="XMLID_308_" fill="#FFE7D7" points="799.143,137.447 792.807,167.725 798.264,211.851 808.703,241.921 833.15,279.592 
		877.998,319.22 889.831,303.197 851.586,274.699 821.949,234.309 806.874,199.959 	"/>
	<polygon id="XMLID_307_" fill="#FFE7D7" points="1001.294,256.557 961.683,217.028 935.122,180.365 921.351,132.414 
		912.769,87.179 931.928,127.372 950.938,175.422 975.028,204.177 1016.199,244.26 	"/>
	<polygon id="XMLID_306_" fill="#FFE7D7" points="1004.442,61.655 1021.029,99.179 1037.618,136.702 1055.916,166.92 
		1086.056,208.366 1102.928,202.92 1073.848,160.969 1050.814,131.709 1023.897,86.129 	"/>
	<polygon id="XMLID_305_" fill="#CE5757" points="643.094,436.381 625.054,420.318 625.904,403.041 642.065,379.76 665.739,374.966 
		693.14,367.097 709.104,354.296 730.258,344.212 776.905,344.044 807.222,320.507 869.428,301.24 881.912,278.416 922.055,261.877 
		969.453,249.668 994.432,231.272 1055.273,200.974 1086.056,208.366 1111.588,188.408 1128.056,176.665 1165.727,152.218 
		1224.503,120.308 1257.263,161.805 1243.365,176.218 1223.12,193.655 1196.173,205.201 1187.159,210.796 1171.909,241.43 
		1148.846,269.296 1102.506,281.001 1072.079,282.524 1039.954,318.604 1000.671,345.117 944.554,347.204 928.186,353.708 
		902.198,369.99 878.622,369.545 839.439,390.818 810.832,407.05 775.473,420.009 741.628,436.143 711.656,441.343 678.77,462.21 
		650.508,460.104 	"/>
	<polygon id="XMLID_304_" fill="#F4A6A6" points="886.855,294.231 889.831,303.197 899.202,306.518 907.258,296.188 
		895.416,284.959 	"/>
	<polygon id="XMLID_301_" fill="#C14646" points="1036.551,248.837 1016.199,244.26 1004.76,239.328 1002.892,227.239 
		1007.475,225.83 1007.824,232.01 1012.381,237.337 1017.678,240.581 1023.689,236.851 1028.814,230.659 1044.351,228.156 
		1055.684,238.62 1044.409,231.302 1030.158,233.479 1024.775,240.949 	"/>
	<polygon id="XMLID_299_" fill="#C14646" points="852.462,151.163 862.36,157.406 870.915,160.828 877.967,157.467 869.456,151.716 
		857.857,149.169 	"/>
	<polygon id="XMLID_298_" fill="#CC2929" points="926.592,259.48 939.021,267.402 941.108,280.252 944.786,295.23 949.689,294.624 
		948.208,286.676 947.733,274.787 954.385,280.27 956.161,297.308 963.802,312.127 975.159,327.482 978.235,349.67 978.406,328.243 
		965.479,309.597 957.86,293.613 957.741,275.209 949.904,270.868 943.859,270.288 938.234,259.7 930.843,256.299 	"/>
	<polygon id="XMLID_223_" fill="#593A35" points="1491.21,184.027 1397.12,189.87 1371.99,190.455 1335.173,175.26 
		1298.939,158.897 1262.016,155.783 1227.624,97.615 1177.952,57.021 1135.376,90.556 1135.376,124.089 1121.183,164.682 
		1103.443,219.396 1069.738,229.986 1034.258,231.751 995.228,284.699 933.138,286.464 888.788,300.584 856.856,332.353 
		824.923,328.823 732.675,272.344 737.131,235.842 655.61,277.917 620.109,298.956 579.348,342.346 643.973,512.378 
		690.099,514.141 776.04,512.529 863.357,568.502 912.007,575.075 1007.992,564.557 1044.808,544.834 1042.178,527.741 
		1025.084,517.222 1007.992,515.907 914.637,517.222 906.785,508.249 956.201,496.493 1046.675,457.664 1160.212,408.245 
		1211.1,365.321 1343.354,349.415 1431.016,311.428 1452.64,294.48 1467.833,261.169 1466.665,407.856 1478.938,434.154 
		1494.132,449.934 1516.924,454.608 1541.469,448.765 1544.976,389.155 1545.56,274.026 1555.495,216.754 	"/>
	<polygon id="XMLID_296_" fill="#603F38" points="467.914,340.073 466.161,299.749 476.68,273.45 494.213,262.931 515.251,271.697 
		539.797,290.983 560.836,306.762 574.862,319.034 622.784,366.371 552.069,347.086 	"/>
	<polygon id="XMLID_295_" fill="#CC2929" points="590.638,333.641 611.677,352.342 638.561,396.174 656.093,428.316 661.352,438.25 
		674.793,475.069 681.806,510.133 672.456,537.016 684.729,533.509 691.742,496.108 696.417,481.497 702.261,487.341 
		704.014,499.031 702.846,511.886 707.521,524.159 714.534,510.717 711.027,493.186 705.767,475.654 699.339,455.2 687.651,440.004 
		666.028,401.433 648.495,363.446 623.366,342.407 605.833,331.888 	"/>
	<polygon id="XMLID_294_" fill="#C94B4B" points="478.434,330.137 477.85,305.592 483.693,293.32 502.979,289.813 514.667,298.58 
		560.836,329.553 	"/>
	<polyline id="XMLID_293_" fill="#6D493F" points="403.694,340.922 394.907,393.434 395.232,434.131 428.071,519.669 
		448.553,544.66 460.618,559.711 479.08,591.188 501.331,603.752 535.512,606.217 604.666,603.057 634.471,608.317 667.782,589.032 
		666.029,548.708 650.25,517.15 666.047,492.417 664.286,425.028 639.485,383.42 598.703,338.97 541.138,324.216 496.742,329.041 
		450.689,327.07 	"/>
	<line id="XMLID_292_" fill="none" x1="450.689" y1="327.07" x2="403.694" y2="340.922"/>
	<polygon id="XMLID_291_" fill="#231306" points="595.614,548.517 599.834,505.36 620.055,523.1 640.78,544.095 643.526,562.013 
		632.491,577.037 617.772,573.462 	"/>
	<polygon id="XMLID_290_" fill="#231F20" points="420.083,424.973 440.765,416.334 459.212,403.441 459.301,389.032 
		446.685,371.717 427.219,365.668 415.017,374.637 405.265,398.602 404.628,410.751 	"/>
	<polygon id="XMLID_289_" fill="#FFFFFF" points="409.523,347.195 407.432,318.925 418.476,315.034 417.724,346.397 	"/>
	<polygon id="XMLID_288_" fill="#FFFFFF" points="422.253,345.293 423.86,312.523 430.622,315.669 432.44,342.81 	"/>
	<polygon id="XMLID_287_" fill="#231F20" points="526.764,454.883 531.401,473.915 543.384,492.989 567.141,492.699 
		579.338,475.061 573.435,450.84 543.265,439.864 527.36,427.244 	"/>
	<polygon id="XMLID_286_" fill="#F4769A" points="520.996,557.147 531.826,549.754 535.055,542.472 520.815,532.672 
		505.177,528.642 500.644,523.147 482.923,540.845 483.954,547.692 	"/>
	<polygon id="XMLID_285_" fill="#894C3E" points="485.694,564.725 475.871,552.817 472.576,543.225 482.923,540.845 496.73,546.386 
		520.996,557.147 514.058,576.719 504.192,574.087 490.228,570.219 	"/>
	<ellipse id="XMLID_284_" fill="#FFFFFF" cx="549.2" cy="469.58" rx="16.575" ry="18.285"/>
	<polygon id="XMLID_283_" fill="#231F20" points="531.224,471.989 539.628,476.659 540.561,481.795 539.628,485.997 
		535.503,480.472 	"/>
	<polygon id="XMLID_282_" fill="#FFFFFF" points="480.187,278.709 479.603,283.385 491.291,279.878 490.706,272.281 	"/>
	<polygon id="XMLID_281_" fill="#FFFFFF" points="495.967,271.696 496.551,278.709 502.395,279.294 507.07,275.203 	"/>
	<polygon id="XMLID_267_" fill="#F4CFB5" points="348.109,455.202 378.498,463.968 383.173,461.046 379.082,458.123 356.29,454.617 
		350.446,451.695 342.264,452.28 	"/>
	<polygon id="XMLID_266_" fill="#CC2929" points="574.278,469.227 572.524,483.252 573.693,496.11 579.537,508.383 576.031,527.668 
		577.199,549.29 585.966,563.902 584.212,584.356 579.537,607.147 592.394,609.485 594.732,586.693 592.979,564.486 
		584.212,545.784 584.212,528.252 585.966,518.317 587.719,506.044 577.199,489.097 579.338,475.061 	"/>
	<polygon id="XMLID_265_" fill="#CC2929" points="520.996,557.147 522.85,573.836 512.33,591.953 503.564,620.588 517.005,608.316 
		519.927,590.783 529.278,580.849 533.369,586.693 532.784,610.069 536.875,610.069 539.213,583.771 529.278,572.083 
		526.94,552.213 535.055,542.472 523.434,546.953 	"/>
	<polygon id="XMLID_264_" fill="#CC2929" points="378.498,463.968 379.668,476.823 370.318,497.862 373.239,513.055 
		377.915,501.952 383.175,483.251 383.759,470.978 389.603,479.16 389.603,486.172 390.772,489.679 394.278,480.913 
		385.512,465.718 383.173,461.046 	"/>
	<polygon id="XMLID_263_" fill="#CC2929" points="549.146,327.213 553.821,337.732 547.977,357.602 549.146,383.9 553.821,393.836 
		537.458,411.368 511.743,435.914 513.497,448.187 518.757,468.056 528.107,506.626 543.886,535.263 548.562,573.249 
		549.73,597.211 554.99,607.731 560.834,611.236 552.653,593.12 556.159,574.419 552.653,538.185 547.977,514.809 539.211,501.952 
		531.613,489.094 525.185,462.796 519.925,438.25 529.86,424.81 540.379,416.043 554.99,413.121 571.938,420.134 582.457,435.914 
		594.73,449.939 606.419,452.861 623.951,465.134 628.041,482.667 636.223,487.926 642.651,510.133 664.275,537.016 
		682.391,536.432 649.08,507.212 644.989,480.913 631.548,475.654 628.041,453.446 613.431,444.095 598.821,442.342 
		585.379,418.381 578.951,407.277 569.016,402.603 563.172,396.174 556.159,377.472 554.99,362.278 559.081,352.927 
		562.587,340.654 558.496,325.46 543.886,322.537 541.138,324.216 	"/>
	<polygon id="XMLID_262_" fill="#CC2929" points="826.74,330.72 819.142,349.422 806.87,359.356 791.091,377.473 792.844,389.745 
		780.571,402.603 771.805,424.81 767.714,459.291 764.208,487.927 746.676,523.576 760.701,517.147 768.883,491.433 
		770.051,472.732 774.726,452.278 777.649,430.07 785.831,417.797 796.935,430.07 803.948,430.654 811.545,438.837 814.467,430.654 
		808.039,425.979 797.519,423.057 788.753,410.2 792.844,401.434 797.519,395.589 798.688,383.317 802.194,378.057 817.974,372.213 
		827.324,363.448 848.363,332.474 828.493,327.214 	"/>
	<path id="XMLID_261_" fill="#CC2929" d="M969.919,286.303l4.675,25.714l4.091,30.39l-8.766,20.454l1.753,12.857l5.259,3.506
		l-0.584-12.273l3.506-15.195l7.013-7.597l7.597,9.35v18.117l5.844,14.026l8.766,9.35v13.441c0,0,1.169,26.299,2.921,28.052
		c1.754,1.753,8.767,23.961,8.767,23.961l5.259,19.285l3.505-9.935l-5.844-17.532l-7.597-21.624l-0.585-19.285l2.922-19.87
		l-10.519-8.766l-9.35-14.026l3.507-18.701l-8.182-15.779l-11.104-22.792l-1.753-26.883L969.919,286.303z"/>
	<polygon id="XMLID_260_" fill="#CC2929" points="476.087,438.243 471.412,445.84 474.918,456.944 487.775,458.113 487.19,444.088 
		481.931,434.152 	"/>
	<polygon id="XMLID_259_" fill="#CC2929" points="643.813,572.656 643.228,579.084 648.488,582.007 651.994,572.656 646.15,565.059 
			"/>
	<polygon id="XMLID_258_" fill="#CC2929" points="449.203,431.23 442.19,448.178 444.528,461.62 436.346,483.242 438.683,493.178 
		443.359,492.008 443.359,483.242 444.528,475.061 452.709,472.139 451.541,480.321 456.216,482.074 456.8,476.23 453.294,463.957 
		447.45,466.879 447.45,452.853 452.709,440.581 453.294,432.399 	"/>
	<path id="XMLID_257_" fill="#CC2929" d="M1525.102,202.137l8.182,6.428l9.935,19.285c0,0,9.35,4.676,9.35,6.429
		c0,1.753-3.506,27.467-3.506,27.467s1.169,29.805,1.753,31.558c0.584,1.753,8.766,36.818,8.766,36.818l7.597-19.285l-11.688-91.752
		L1525.102,202.137z"/>
	<path id="XMLID_256_" fill="#CC2929" d="M1509.323,193.37l-6.428,28.052v21.039l-12.858,15.195l-7.012,25.13l1.752,16.948
		c0,0-2.336,16.949-4.09,19.286c-1.753,2.338-10.519,26.299-10.519,26.299s-7.013,21.623-7.013,25.129
		c0,3.507-0.584,26.883-0.584,26.883l4.674-23.376l5.844-22.792l4.674-13.441l6.43-16.948l7.597-11.688l2.923-19.87l-4.091-11.104
		l2.337-19.285l5.844-6.429l9.35-11.688l-2.337-16.363l10.519-28.052L1509.323,193.37z"/>
	<polygon id="XMLID_255_" fill="#FFE7D7" points="1160.44,318.158 1175.343,301.502 1171.836,315.528 	"/>
	<polygon id="XMLID_254_" fill="#CC2929" points="1160.44,318.158 1163.947,325.171 1174.905,333.937 1179.287,351.47 
		1180.164,377.768 1185.424,392.231 1192.437,382.589 1188.492,377.329 1185.424,365.056 1188.054,353.222 1180.602,329.115 
		1174.027,322.103 1171.836,315.528 	"/>
	<polygon id="XMLID_253_" fill="#894C3E" points="708.692,317.28 716.874,316.696 731.484,316.696 742.003,317.865 749.6,314.943 
		740.923,306.679 721.549,305.008 705.185,313.19 	"/>
	<polyline id="XMLID_252_" fill="#CC2929" points="1096.886,142.835 1097.325,134.507 1096.886,112.153 1106.967,112.153 
		1111.788,147.656 	"/>
	<polygon id="XMLID_251_" fill="#F4769A" points="687.069,327.8 701.679,319.618 716.289,312.02 743.757,312.02 721.549,305.008 
		704.016,305.592 696.419,314.359 	"/>
	<polygon id="XMLID_250_" fill="#894C3E" points="661.939,309.683 685.315,309.099 712.198,296.242 725.639,297.41 712.198,288.06 
		674.796,293.904 659.601,308.514 	"/>
	<polygon id="XMLID_249_" fill="#F4769A" points="650.251,317.865 659.601,308.514 682.393,298.58 698.172,295.657 723.302,293.904 
		704.6,286.307 688.238,289.813 667.783,292.151 649.667,307.346 	"/>
	<polygon id="XMLID_248_" fill="#CC2929" points="649.667,307.346 637.978,302.67 622.784,303.254 612.849,303.839 645.575,286.307 
		658.432,282.216 678.302,286.891 691.744,289.813 678.887,289.813 667.783,292.151 657.263,300.917 	"/>
	<path id="XMLID_247_" fill="#CC2929" d="M711.029,311.436l4.09,6.429l2.922,9.35l9.935,3.507l4.091,19.87l3.506,7.598
		c0,0,11.688,8.182,12.273,11.103c0.584,2.922,0.584,12.272,0.584,12.272l6.429,24.547l6.429,9.35l4.091,17.532l4.675,5.26
		l4.09-5.845l-1.169-18.701l-11.688-17.532l-6.429-18.7l-0.584-10.52l-17.532-18.702l-5.259-21.623l-11.104-7.013l-4.09-7.598
		L711.029,311.436z"/>
	<polygon id="XMLID_246_" fill="#F4769A" points="928.429,528.836 950.638,538.186 959.987,548.706 965.247,559.226 
		964.663,545.199 954.144,533.512 943.039,530.59 	"/>
	<polyline id="XMLID_245_" fill="#843030" points="1092.722,325.828 1089.654,324.075 1089.216,317.719 1092.941,313.117 
		1096.009,308.296 1099.516,308.296 1104.776,308.296 1107.405,313.994 1104.995,320.349 	"/>
	<polygon id="XMLID_244_" fill="#843030" points="1194.409,190.172 1191.561,187.323 1190.903,183.817 1194.19,179.214 
		1199.45,178.557 1202.518,182.94 1204.271,187.761 1199.888,192.144 	"/>
	<polygon id="XMLID_243_" fill="#843030" points="1350.666,200.91 1348.913,205.732 1352.419,208.362 1357.021,209.458 
		1359.871,206.828 1362.281,201.349 1359.213,200.034 1353.515,198.938 	"/>
	<polygon id="XMLID_242_" fill="#843030" points="1400.852,201.129 1398.88,206.17 1402.825,208.362 1407.646,209.238 
		1409.18,203.102 1404.797,199.596 1401.729,200.91 	"/>
	<polygon id="XMLID_241_" fill="#CC2929" points="1353.734,206.389 1355.487,212.525 1358.993,220.853 1364.692,237.947 
		1373.019,256.795 1371.267,288.353 1371.267,322.979 1372.581,333.06 1373.019,411.955 1363.377,419.845 1351.981,423.352 
		1335.326,440.884 1337.079,457.101 1345.406,467.621 1355.487,464.552 1366.883,461.484 1374.773,464.991 1380.91,465.867 
		1387.922,462.799 1399.318,464.991 1409.838,474.196 1415.097,489.097 1417.727,504.877 1421.233,500.494 1417.727,483.838 
		1415.536,474.196 1410.276,464.552 1403.701,454.91 1405.893,449.65 1408.523,441.322 1406.331,428.173 1399.756,421.16 
		1387.485,415.9 1380.471,414.147 1376.964,335.252 1375.649,324.294 1373.458,288.791 1378.279,258.986 1370.389,237.509 
		1363.377,219.977 1360.747,215.594 1357.679,204.636 	"/>
	<path id="XMLID_237_" fill="#CC2929" d="M1092.059,324.288l5.259,11.104v14.026l6.429,16.363l4.675,15.195c0,0,0,18.7,0,21.622
		c0,2.923,9.935,32.729,9.935,32.729l11.688-2.339l-9.35-27.467l1.168-19.286h8.182l2.338,7.597l4.675,9.936l7.596,7.013
		l4.676,15.778l8.181-19.871l-8.181-11.103l-8.182-13.442l-2.337-8.181l-11.689-2.337l-8.181-12.857v-19.87l-5.844-15.195
		l-12.273-12.857l-7.012,7.597L1092.059,324.288z"/>
	<path id="XMLID_236_" fill="#CC2929" d="M1193.741,187.527l-0.584,10.52c0,0-2.922,13.441-1.168,13.441
		c1.752,0,13.441,8.182,13.441,8.182l1.752,19.87l1.17,25.13l4.675,5.844l4.09,22.207l-2.337,36.233l7.597,24.545l15.779,24.545
		l-9.35-28.635l-3.507-23.377l4.09-27.467l-9.35-26.883l-8.182-12.857l1.754-19.87l-1.754-25.13l-10.519-5.844l-1.169-21.039
		l-2.921-5.259L1193.741,187.527z"/>
	<polygon id="XMLID_235_" fill="#CC2929" points="1403.701,205.074 1405.455,217.786 1407.207,228.743 1406.769,245.837 
		1415.536,255.918 1421.233,278.272 1423.864,297.119 1431.315,301.941 1440.519,308.953 1441.396,300.187 1427.808,295.366 
		1425.617,277.834 1420.357,254.165 1412.468,244.96 1412.03,230.496 1408.961,217.786 1407.207,205.513 	"/>
	<polygon id="XMLID_234_" fill="#CC2929" points="475.512,327.801 496.551,316.697 513.498,314.943 522.265,321.956 
		543.886,322.537 536.875,327.216 505.901,330.138 	"/>
	<polyline id="XMLID_233_" fill="#CC2929" points="492.46,326.048 493.629,333.644 491.291,342.411 494.797,349.423 
		497.135,354.684 499.473,351.761 495.381,343.579 498.304,327.216 	"/>
	<polygon id="XMLID_232_" fill="#CC2929" points="939.534,534.096 943.041,544.031 947.717,549.875 946.547,567.408 944.21,591.953 
		948.885,583.187 948.885,560.979 954.145,553.966 956.483,545.199 952.392,539.357 	"/>
	<polyline id="XMLID_231_" fill="#CC2929" points="1289.594,301.794 1286.381,372.216 1285.212,314.359 	"/>
	<polyline id="XMLID_230_" fill="#CC2929" points="1307.42,278.126 1307.42,302.963 1308.88,328.093 1308.88,365.202 
		1310.634,361.112 1312.68,328.97 1310.634,302.963 1311.511,285.723 	"/>
	<path id="XMLID_229_" fill="#CC2929" d="M1317.939,291.275l-1.461,16.363c0,0,3.215,13.441,3.215,14.61
		c0,1.169,0.876,30.682,0.876,30.682l6.137,4.383l-3.508-36.818l-4.967-12.273l3.506-17.533L1317.939,291.275z"/>
	<polygon id="XMLID_228_" fill="#F4769A" points="1299.529,244.813 1307.128,262.93 1308.88,303.254 1313.555,264.098 	"/>
	<polygon id="XMLID_227_" fill="#F4769A" points="1285.503,264.683 1289.594,281.046 1285.503,317.28 1294.269,282.215 
		1286.088,261.76 	"/>
	<polygon id="XMLID_226_" fill="#F4769A" points="1320.568,255.917 1320.568,269.943 1318.23,303.254 1326.997,271.696 	"/>
	<polygon id="XMLID_225_" fill="#CC2929" points="691.451,325.755 699.633,328.385 709.276,339.489 719.211,343.872 
		731.776,354.976 739.081,359.943 733.529,328.385 728.854,319.327 736.451,312.021 725.932,307.638 710.152,309.391 	"/>
	<polyline id="XMLID_224_" fill="#CC2929" points="653.465,299.457 689.99,290.399 670.705,286.892 	"/>
	<path id="XMLID_222_" fill="#CC2929" d="M476.816,750.508l-13.803,7.668l8.435,15.337l19.938,14.57l36.809,4.601l12.27,5.368
		l26.073,6.902c0,0,9.202-2.301,20.705,0.767s27.606,6.135,27.606,6.135s22.239,0.767,24.539-5.368s19.938-24.539,19.938-24.539
		l21.472-28.373l-23.772-13.803L621.75,728.27"/>
	<polyline id="XMLID_220_" fill="#AF3A3A" points="500.84,745.392 505.953,729.544 520.267,729.544 525.379,725.965 
		540.205,720.853 562.699,723.409 570.879,714.207 601.042,703.471 620.98,719.319 631.204,723.409 651.654,730.055 654.21,746.415 
		667.502,757.151 661.367,766.353 617.401,761.752 	"/>
	<polygon id="XMLID_219_" fill="#CE5757" points="512.088,739.77 525.38,739.259 536.116,731.59 546.852,728.523 564.745,734.147 
		580.593,720.344 603.087,723.411 608.711,728.523 616.89,731.59 621.491,738.748 637.851,737.725 641.429,745.393 648.587,755.619 
		641.429,759.708 628.138,769.932 608.711,771.466 594.907,774.534 568.323,774.023 565.256,768.91 558.099,774.534 
		540.717,778.624 527.425,773 504.931,770.444 488.06,766.354 473.746,757.663 473.746,749.484 480.392,741.815 488.06,740.792 
		499.307,733.635 509.021,735.681 	"/>
	<path id="XMLID_218_" fill="#6D493F" d="M384.794,636.248l7.668-2.301l10.736-4.601l22.239-6.902l13.036-10.736l12.27-7.668
		l-7.668,9.202l12.27-2.301l16.104-10.736l-8.723,18.094l-15.816,1.077c0,0-3.834,15.337-7.668,17.638s-26.073,2.301-26.073,2.301
		l-13.036,9.969l-12.27-0.767l8.435-6.135l-13.036,1.534L384.794,636.248z"/>
	<polygon id="XMLID_217_" fill="#6D493F" points="1165.444,694.528 1171.578,702.964 1163.143,700.663 1175.413,711.399 
		1184.615,720.601 1196.118,726.736 1212.988,738.239 1206.087,725.969 1222.19,729.036 1214.522,717.534 1219.89,717.534 
		1228.325,718.301 1222.19,706.031 1232.926,706.031 1220.657,690.694 1206.087,677.658 1205.32,687.627 1191.516,684.559 
		1182.314,670.756 1199.952,675.357 1186.149,662.321 1166.977,658.487 1153.174,643.15 1160.076,662.321 1147.806,657.72 
		1169.278,672.29 1163.91,676.891 1173.112,684.559 1147.039,668.456 1151.64,680.725 1129.402,667.689 	"/>
	<polygon id="XMLID_216_" fill="#CC2929" points="1337.217,586.403 1337.984,589.47 1344.119,591.771 1351.787,587.937 
		1347.953,583.336 1336.45,583.336 	"/>
	<polygon id="XMLID_202_" fill="#CC2929" points="1393.197,567.999 1412.368,573.367 1409.301,576.434 1397.798,577.968 
		1393.197,571.833 	"/>
	<polygon id="XMLID_196_" fill="#CC2929" points="1413.135,611.709 1424.638,610.175 1436.141,614.776 1436.141,617.844 
		1425.405,619.377 1416.202,614.776 	"/>
</g>
</svg>
