<?xml version="1.0" encoding="utf-8"?>
<!-- Generator: Adobe Illustrator 19.0.0, SVG Export Plug-In . SVG Version: 6.00 Build 0)  -->
<svg version="1.1" id="Layer_1" xmlns="http://www.w3.org/2000/svg" xmlns:xlink="http://www.w3.org/1999/xlink" x="0px" y="0px"
	 viewBox="0 0 1920 1080" enable-background="new 0 0 1920 1080" xml:space="preserve">
<g id="dead">
	<polygon id="XMLID_464_" fill="#74894A" points="0,1072.052 1920,855.274 1920,0 0,0 	"/>
	<polygon id="XMLID_463_" fill="#809956" points="0,1080 1920,1080 1920,0 1497.556,0 1463,44.704 1359,39.231 1317.948,0 
		490.518,0 473,6.393 459.569,0 179.937,0 167,6.393 97,126.803 17,208.901 0,222.435 	"/>
	
		<linearGradient id="XMLID_2_" gradientUnits="userSpaceOnUse" x1="956.8629" y1="1066.0168" x2="963.8038" y2="-97.821" gradientTransform="matrix(1 0 0 -1 0 1080)">
		<stop  offset="0" style="stop-color:#2A3A1F;stop-opacity:0.5"/>
		<stop  offset="1" style="stop-color:#2484C6;stop-opacity:0"/>
	</linearGradient>
	<rect id="XMLID_462_" fill="url(#XMLID_2_)" width="1920" height="1080"/>
</g>
<g id="marten_x5F_dead">
	<polygon id="XMLID_647_" fill="#CE292B" points="1013.5,803.5 960,858.5 883,861.5 840.5,853 782.5,857 722.5,839.5 692,799.5 
		562.5,799.5 507.5,788.5 439.5,792.5 341.5,746 305.5,716 288.5,668 309.5,583.5 458.5,450.5 536.5,353 537.5,311 566,268.5 
		599.5,238 609,178.5 651,145.5 729.5,115.5 743.5,115.5 755,93 781.5,93 788.5,98.5 786,110.5 790,118.5 931.5,141 975.5,190.5 
		998.5,226.5 1234,376 1358,398.5 1519,448 1598,488.5 1637.5,555.5 1630.5,637.5 1581,731.5 1532.5,758 1453,757.5 1370,780 
		1260.5,794 1132.5,779.5 	"/>
	<polygon id="XMLID_648_" fill="#CE292B" points="1189.5,835.5 1211,813 1232.5,818 1254.5,820 1276,808.5 1292.5,812 1300.5,845.5 
		1267.5,843 1242,845.5 1223.5,832 1204.5,842 	"/>
	<polygon id="XMLID_649_" fill="#CE292B" points="1291.5,252 1294.5,274 1309,292.5 1354,301 1395,320 1440.5,310 1470.5,314 
		1483.5,293.5 1469.5,267.5 1425,260 1376.5,231 1331.5,238 1310.5,254 	"/>
	<polygon id="XMLID_633_" fill="#CE292B" points="1270.5,264.5 1270.5,257 1279,260.75 1279,264.5 	"/>
	<polygon id="XMLID_651_" fill="#CE292B" points="1302.5,207.25 1309.5,205.5 1311.5,211.5 1305.25,216.5 1300.75,211 	"/>
	<polygon id="XMLID_652_" fill="#CE292B" points="1211.25,231 1212.75,223.75 1206.25,223.75 1202.75,225.75 1207.75,230 	"/>
	<polygon id="XMLID_653_" fill="#CE292B" points="1216.25,177 1212.75,172.5 1216.25,166.75 1223,170.75 1223,174.5 	"/>
	<polygon id="XMLID_650_" fill="#CE292B" points="1136.75,196.75 1139,191.25 1144,192.75 1145.5,196.75 	"/>
	<polygon id="XMLID_654_" fill="#CE292B" points="1125.75,186 1131.5,179.5 1135.5,179.5 1135.5,173 1117.75,171.875 1111,173.75 
		1108.75,177 1112.75,183.5 	"/>
	<polygon id="XMLID_655_" fill="#CE292B" points="1219.5,113.75 1228.5,127.25 1251,134 1270.5,132.75 1281,121.75 1286.75,110.25 	
		"/>
	<polygon id="XMLID_656_" fill="#D15858" points="930.667,812 949.333,794.333 936,769.667 913,764 892.333,725 854,713.667 
		819.333,721.333 778,713.667 765.333,730.333 734.667,729.333 719.667,757.333 745.333,778 766,783.333 780.333,746.667 
		792.667,736.333 809.333,736.333 793,743 787.667,751 791.333,758.333 800.667,762.833 800.667,776.667 807.333,787 
		803.667,798.333 814.667,808.5 850.333,800 850.333,792.333 857,780 859.667,762.833 862,779 872.667,791 872.667,806 
		881.667,810.667 	"/>
	<polygon id="XMLID_658_" fill="#D15858" points="774,784.333 782,760.333 792.667,765.333 796.667,778.667 801.667,786.667 
		799,797.667 786.333,787.333 	"/>
	<polygon id="XMLID_659_" fill="#D15858" points="854.667,800.667 854.667,791.667 861.667,785 867.333,791.333 871,806.667 	"/>
	<polygon id="XMLID_657_" fill="#D15858" points="1239.333,117.333 1259,114.333 1284.708,114.333 1283.333,95 1268.667,101 
		1238,98.667 	"/>
	<polygon id="XMLID_665_" fill="#6F534B" points="778,104.25 760.5,99.75 753.25,74.75 761.75,60 780,55.25 917.75,39.5 
		1036.5,68.25 1086.5,110.25 1141.125,115 1195,101.75 1231,87.5 1245.25,98.25 1243.25,103 1245.25,110.25 1242.75,115 
		1245.25,116.431 1244,119.5 1226,117.333 1205.5,119.5 1148.25,138.75 1086.75,128.75 1030,85.5 916.5,63.25 793.5,78.75 
		786,86.75 	"/>
	<polygon id="XMLID_660_" fill="#9F5B2D" points="1082,760 1118,743.333 1112.333,756 1114,760 	"/>
	<polygon id="XMLID_661_" fill="#9F5B2D" points="1154.667,756 1168,741 1185.333,733.667 1219,751.667 	"/>
	<polygon id="XMLID_663_" fill="#9F5B2D" points="1443,697.333 1422.333,733.667 1249,749.667 1231,714.667 1242.333,700 
		1233,680.667 1147.333,603.667 1127.333,659.333 1137,685.667 1137.333,707.667 1123,731.667 1072,721 992.333,738.667 
		857,701.333 878.667,682 728,643.333 639.333,546.333 483,515 503,480 410.333,389.333 496.333,362.667 523.333,402.667 
		621.667,441 732.333,375 661.333,374.333 626.333,282 662.667,278 604.667,236.667 689.333,220.667 634.667,197 671.333,176.333 
		629.333,169 692.667,158 737.333,125.333 790,135.333 867.333,122.667 940.333,153.333 910.667,160.667 928.667,214.333 
		1004,234.667 991.333,263.333 1095.667,292.333 1062,293.333 1149.667,315.333 1102.667,313 1122.125,352.333 1150.333,343.667 
		1214.667,367.667 1274.75,360.667 1350.667,419.333 1279,428.667 1309.333,475 1374.333,460 1434.667,469.333 1276.667,506 
		1302.333,542 1273.333,511.333 1298.333,608.667 1460,646.667 1355.667,662 1359.667,706.333 	"/>
	<polygon id="XMLID_662_" fill="#6F534B" points="1486.75,566 1480.25,561.75 1478.25,551.75 1484,556.75 1482.5,544.75 
		1484.5,532.25 1486.75,544.25 1489.5,549.125 1491.5,540 1500.25,529.75 1497,547.875 1504.75,532.5 1510.5,529.75 1507,534.5 
		1505.75,551.75 1511.75,541.25 1521,540 1510,551.5 1506.75,562.75 1514,569.75 1498,572.75 1486.25,570.25 	"/>
	<polygon id="XMLID_666_" fill="#6F534B" points="1281.75,114 1281.75,106.167 1277,101 1286.75,86.75 1297.75,89.125 
		1321.25,100.375 1332.5,112.25 1332.5,122.667 1318.75,125.75 1294.5,110.25 1286.75,115 	"/>
	<polygon id="XMLID_664_" fill="#6F534B" points="472.75,613.25 464.5,614.5 461.25,630 485.75,635.75 515,650.25 541,645.75 
		556.75,663.25 579.25,668 598.5,665.25 607,668 613.75,648.25 607.5,635.25 615.25,621 620.25,594.25 617.25,583.75 600.25,560.25 
		590.25,543.75 579.5,538.75 572.25,522 562,518.75 554.75,506.5 544,516 528.25,506.5 515.75,512 510.75,509.25 504.25,540 
		493.5,560 497.75,578 	"/>
	<polygon id="XMLID_668_" fill="#785D57" points="515,577.5 501.75,540 501.75,521.75 505.75,512.25 510.75,506.5 507.25,527 
		515,564.5 	"/>
	<polygon id="XMLID_667_" fill="#785D57" points="455,628.5 481,626.5 468,633 461.25,632.25 	"/>
	<polygon id="XMLID_670_" fill="#FDE7D7" points="468,618.75 474.25,596.75 499.75,566 499.75,574 503.75,576.25 498,583.75 
		497,592.375 487.75,595.5 484,605 478.75,607.25 474.75,616.75 	"/>
	<polygon id="XMLID_671_" fill="#241F20" points="574.75,621.5 570.75,618.75 566,610.25 566,604 570.375,600 577.75,598 
		583.75,603.75 587.25,609.75 585.5,616 576.625,621.5 	"/>
	<polygon id="XMLID_672_" fill="#241F20" points="579.25,668 577.75,663.5 578.5,657.5 585.625,654 593.875,652.875 598.875,657.5 
		600.25,665.5 	"/>
	<polygon id="XMLID_673_" fill="#CE292B" points="603,647.875 607.25,644.25 608.75,646.75 	"/>
	<polygon id="XMLID_674_" fill="#CE292B" points="563.625,662.625 561.625,659.625 563.625,655.75 567.625,657 568.25,662.625 	"/>
	<polygon id="XMLID_675_" fill="#CE292B" points="516.25,639.75 513.125,638.125 513.125,634.5 521.125,634.5 523.375,637.125 	"/>
	
		<ellipse id="XMLID_698_" transform="matrix(-0.8391 -0.5439 0.5439 -0.8391 727.4554 1432.0913)" fill="#FEFEFE" cx="575.498" cy="608.474" rx="9.025" ry="7.333"/>
	<polygon id="XMLID_676_" fill="#CE292B" points="503.75,628.625 499.875,627.375 501.813,623.625 507.125,622.25 508.375,624.125 	
		"/>
	<polygon id="XMLID_669_" fill="#CE292B" points="572.25,602.5 570.375,601.125 571.313,596 573.75,598 	"/>
	<polygon id="XMLID_678_" fill="#CE292B" points="536.375,564.875 533.5,561.625 535.5,558.75 537.625,558.75 540.25,561.813 	"/>
	<polygon id="XMLID_677_" fill="#CE292B" points="550.25,545.5 549.375,539 554.625,541.375 553.5,544.75 	"/>
	<polygon id="XMLID_699_" fill="#D15858" points="766.625,93 759.75,81.667 763.188,71 773.5,71 780.333,84.333 770.667,95 	"/>
	<polygon id="XMLID_679_" fill="#CE292B" points="512.5,532.75 512.5,527 514.375,528.625 514.375,531.625 	"/>
	<polygon id="XMLID_681_" fill="#FDE7D7" points="759.75,98 763.5,82.5 766.5,79.25 771.25,79.25 773.5,85.5 770.25,99.25 
		766.625,97 763.75,105 763.5,95.25 	"/>
	<path id="XMLID_680_" fill="#D15858" d="M928.667,635.667c-0.333-1-64.333-6-64.333-6L830.667,604l-119.333-38.333l-21.667-106.333
		l52-88l-21-38.333l-66-20l4-53l71-42l73-2.333V191.25L831,159.667l46.667,4.667L960,234.667l-22.333,46.667L987,304l44-20.667
		L1102.667,320L1165,381l-17.667,72l61,7.667L1303.667,492l-16,41l9.667,35.333l42-8.667l30,35.667l-59,47l-69,17l-110.667-16.667
		L1065,644.333l-98.333-27L928.667,635.667z"/>
	<polygon id="XMLID_689_" fill="#CE292B" points="1163.5,383 1146.25,451.75 1233.75,463.75 1250.5,447.5 1234.25,425.5 
		1206.5,414.25 1183.5,412.5 1167.25,405.75 	"/>
	<polygon id="XMLID_692_" fill="#CE292B" points="970.75,323.5 975.833,334.25 988.25,340 1017.75,342.75 1030,352.5 
		1043.75,354.25 1090,345.5 1128,328.5 1093.75,349.75 1064,357.75 1041.75,361.75 1025,360.25 1012,353.25 1002,356.5 1002,361.75 
		1008.75,381.75 968,350.25 	"/>
	<polygon id="XMLID_683_" fill="#B03B3B" points="761.667,355.667 721.667,321.667 732,265.667 789.333,268.667 834.333,220 
		873.333,208.333 891.667,211.333 920.333,258.667 972,298 975.333,346 1003.333,373 1053.333,371 1074,397.667 1076,448.333 
		1115,463 1183.667,446 1196,473.667 1230,531 1181.667,578 1026.333,588 979.667,573.667 920.333,582.333 852.667,547 799,543 
		800.667,499 808.333,467.333 751,472 736,414 759,398.167 	"/>
	<polygon id="XMLID_684_" fill="#FDE7D7" points="1142.333,629.667 1142.333,623.667 1148.333,616.667 1165.667,628 
		1165.667,636.333 1175.667,633 1191,645.667 1186.833,651.125 1186.833,656.667 1197.667,651.333 1210,656.667 1205,666.333 
		1207.333,669.667 1220.667,668 1227.667,669.667 1226,687.667 1216.667,697.667 1204,695.333 1197.333,689.667 1200.333,684.667 
		1194,681.333 1186.833,684.667 1178.667,672 1179.333,667.667 1177,665 1167.667,671 1153.333,653.667 1154.667,650.333 
		1153.333,648.333 1142.333,650 1135.333,636.667 	"/>
	<polygon id="XMLID_685_" fill="#959494" points="1211.5,690.667 1210.667,685.333 1216,679 1218.833,679 1218.833,686 	"/>
	<polygon id="XMLID_686_" fill="#CE292B" points="587.25,540 594,524.333 605.875,510.667 654.667,478.667 686,481 695.333,478.667 
		705.667,467.333 724.333,460 750,457.667 756.667,436.167 787.667,426 809.667,426 835.333,422.667 846.333,426 851.333,439 
		845.333,454.667 824.667,452.333 801.667,456.667 795,477.25 777.667,496.667 729.667,521.667 719.292,547.333 699,558.75 
		667.333,571 666.333,583.333 656,568.667 659.333,558.75 694.667,550.667 708.333,536.026 719.292,510.667 771.333,484 
		786.333,457.333 787.667,446.667 811,439.667 828.333,440.333 828.333,436.167 793.667,436.167 767,443.667 758.333,464.667 
		743.667,469.333 721.667,468.667 698.667,492.667 683.667,495 671.667,510.667 646.667,510.667 638.667,503 630.667,503 612,516 
		598.667,536.026 598.667,545.5 	"/>
	<polygon id="XMLID_687_" fill="#CE292B" points="721.667,611.667 744.667,573 772.667,571.333 778,562 783.333,545.5 
		797.667,536.026 804.333,536.026 812,524 823.333,521.667 819.667,545.5 828.333,563.667 838.333,598 827.667,623 817.667,619.667 
		827.667,598 816.667,563.667 807.667,551 794.333,555.667 789.667,577.667 781.333,585 754,588 747.667,602.5 734.667,611.667 	"/>
	<polygon id="XMLID_688_" fill="#CE292B" points="834.5,675.333 863,645 864.333,629.667 861,625.333 858.667,597 867.333,556 
		877.333,551.333 874,504.667 893.667,477.25 912,462.667 915.667,429.667 925,409.5 929,407 929,416.333 922,436.167 919.667,468 
		931.667,484.667 944,519.667 956.667,536.026 971.333,540 971.333,492.333 984.333,471.333 1020.667,459 1038.667,445.333 
		1067.667,451.667 1070.667,467.667 1099.333,470.667 1108.333,481.667 1172.333,493.667 1194,492.667 1224.333,503 1245,517.667 
		1275.333,518.333 1311,545 1306,561.333 1271.667,527.333 1232,524 1216.333,509.667 1191.333,500.333 1175,502.333 
		1117.667,491.333 1121.667,500.333 1127.333,529.75 1112.333,565.333 1101,628.333 1113.333,675.333 1095.333,697.667 
		1093.333,742 1087.333,742 1082,711.333 1082,694.333 1086.667,668 1094.333,659.333 1092.667,597 1100,558.333 1114.667,529.75 
		1108.333,496.333 1093.667,477.25 1058.333,469 1057.333,460.667 1048.667,455.333 985,493 980.333,521.667 978.667,548.667 
		1000,616.667 996.667,628.333 1015.667,642.667 1021,659.333 1020.667,684.833 1005.667,711.333 988.333,711.333 978.333,724.333 
		972,749.667 963,746.667 963,720.333 945.333,692.333 941.667,670.333 966,638.333 989,625 992.333,614.333 971.333,546.667 
		951,540 937.667,524.333 916.333,473.667 899,483.333 882.667,510 888.333,554.667 896.667,563.333 897.333,589.667 894.667,606 
		904,628.667 900.667,651 890.667,677 847.333,705.667 886.667,667.667 894,647.333 895.333,627.667 888.333,603.333 889.333,588 
		887.333,566.333 881.333,562.667 871.667,562 865.667,599.333 866.667,621.667 869.667,630 869.667,646.333 873.667,650.667 
		876.333,663.667 868.333,674.667 843.333,684.833 867,671 872,661.333 865.333,651.333 853,659.333 838.333,681.333 	"/>
	<polygon id="XMLID_682_" fill="#CE292B" points="690.5,606.5 728.25,606.5 846.5,615.5 861.25,627 829.25,642.5 712,644.25 	"/>
	<polygon id="XMLID_690_" fill="#CE292B" points="901.75,325.75 899.5,315 907.5,317 913.25,323.5 909.5,328.5 	"/>
	<polygon id="XMLID_693_" fill="#CE292B" points="768,293.75 777.75,302.75 779.75,313.75 776,321.75 758.5,325.75 749,332.5 
		749,342.75 735.5,349.5 730.75,359.5 721.667,361 693,391.5 719.292,356.25 727.5,352.625 730.75,342.625 742,338.75 744.75,328.5 
		762,313 	"/>
	<polygon id="XMLID_691_" fill="#FDE7D7" points="834.5,437.75 826.5,405.25 832,390 834.5,409.5 844.75,425.5 844.75,436.167 	"/>
	<polygon id="XMLID_695_" fill="#FDE7D7" points="773,315 773,308.25 765.75,303.25 769.375,295.019 782,293.75 787.75,291.75 
		781.5,285.75 768.25,279 752.5,284.25 749.25,306 758.5,315 	"/>
	<polygon id="XMLID_696_" fill="#FDE7D7" points="1036.75,451.25 1034.25,445.75 1051,428.75 1049,436.167 1056,428.75 
		1052.25,437.75 1045.125,448.75 	"/>
	<polygon id="XMLID_697_" fill="#CE292B" points="838,229.5 844,227 841,220.25 827.5,215.25 820.5,219.25 807.5,220.5 
		797.5,215.25 794.5,215.25 793.25,200.75 789.5,195.25 793,183.25 787.75,167.5 782.5,155.75 782.5,138.75 770.75,117.25 
		755.5,132 759.75,141.75 757.75,163.75 764.75,188 759.75,208.333 763.014,216.934 770.974,216.68 765,207.25 772,188.25 
		764,164.5 762.25,160.75 768.5,143.75 773.5,146 773.5,158.5 787.75,183 783.75,192.75 787.75,204.5 787.75,216.143 793.25,217.25 
		809.5,229.5 823.75,225.75 828.75,222 	"/>
	<polygon id="XMLID_694_" fill="#CE292B" points="746,179.25 740.5,174.75 739.25,170.75 744.5,168.25 750.75,171.25 753.25,176.5 	
		"/>
</g>
</svg>
