<?xml version="1.0" encoding="utf-8"?>
<!-- Generator: Adobe Illustrator 19.0.0, SVG Export Plug-In . SVG Version: 6.00 Build 0)  -->
<svg version="1.1" id="Layer_1" xmlns="http://www.w3.org/2000/svg" xmlns:xlink="http://www.w3.org/1999/xlink" x="0px" y="0px"
	 viewBox="0 0 1920 1080" enable-background="new 0 0 1920 1080" xml:space="preserve">
<g id="bottom_x5F_clearing_hawk">
	<rect id="XMLID_100_" x="73.633" fill="#3F5F3D" width="1801.411" height="785.454"/>
	<polygon id="XMLID_97_" fill="#3E4850" points="157,81.385 192,296.385 302,549.385 310,498.385 283,415.385 289,362.385 
		248,199.385 233.5,98.385 246,7.385 341,0 299,137.385 314,226.385 336,278.385 335,28.385 365,-5.615 374,170.385 360,370.385 
		399,453.385 399,571.385 434,645.385 533,645.385 533,513.385 504,329.385 521,173.385 505,29.385 540,0 574,0 556,46.385 
		568,204.385 554,315.385 574,494.385 598,608.385 641,608.385 589,322.727 609,135.385 605,49.385 617,0 646,0 637,334.385 
		675,488.385 670,590.385 763,574.385 828,305.385 844,139.385 838,0 861,0 880,158.385 831,548.385 972,507.385 955,200.385 
		965,130.385 960,28.385 898,0 949,0 1001,0 1025,133.385 1025,222.385 1093,480.385 1273,431.385 1230,271.385 1242,127.385 
		1223,0 1265,0 1279,45.385 1267,271.385 1325,431.385 1372,128.385 1372,31.385 1394,0 1564,0 1580,120.385 1567,196.385 
		1567,259.385 1614,103.385 1614,32.385 1629,40.385 1682,213.385 1769,145.385 1769,216.385 1714,243.385 1691,322.727 
		1652,347.385 1634,204.385 1592,302.385 1613,381.385 256,720.385 59,390.385 	"/>
	<polygon id="XMLID_1_" fill="#728544" points="1884,264.385 1681,299.385 1563,337.385 1261,368.385 1207,399.385 1044,399.385 
		738,520.385 642,520.385 618,548.385 507,548.385 494,569.385 472,569.385 414,604.385 274,634.385 91.75,632.216 84.375,885 
		1884,893 	"/>
</g>
<g id="fallen">
	<polyline id="XMLID_198_" fill="#CC2929" points="652.804,655.257 642.54,653.026 636.292,658.827 639.416,667.307 
		642.986,667.753 654.589,670.877 658.606,674.447 665.746,674.893 684.043,677.571 691.184,674.893 692.522,665.968 
		688.06,653.472 669.316,650.794 	"/>
	<polyline id="XMLID_197_" fill="#CC2929" points="959.699,709.717 961.187,715.965 963.567,719.238 971.6,720.131 983.204,723.106 
		993.022,724.594 999.865,725.189 1005.518,720.726 993.915,711.205 989.154,707.932 980.526,708.825 972.493,704.659 	"/>
	<polyline id="XMLID_195_" fill="#AF3A3A" points="696.187,698.104 698.17,691.955 703.724,691.955 705.708,690.567 711.46,688.583 
		720.187,689.575 723.361,686.005 735.064,681.84 742.8,687.988 746.767,689.575 754.701,692.154 755.692,698.501 760.849,702.666 
		758.469,706.237 741.411,704.452 	"/>
	<path id="XMLID_200_" fill="#CC2929" d="M963.441,623.614L920.6,609.779l-26.776,5.355l-22.313-9.818l-43.288-6.694H806.8
		l-13.387,0.893l-26.777,7.587l-22.76-1.785l-42.842,10.264l-25.437,7.587l-25.884,3.57l-9.818,3.57l-12.496,7.586l-1.785,9.372
		l9.818,12.049l9.372,6.694l6.248,0.893l15.173-1.785l15.173,6.694l1.526,0.366l0.813,4.22l2.85,5.48l10.96,1.973l10.522,5.919
		l16.879,0.219l14.193,2.08l-52.276,8.021l-5.355,2.975l3.273,5.951l7.736,5.653l14.281,1.785l4.76,2.083l10.116,2.678
		c0,0,3.57-0.893,8.033,0.297c4.463,1.19,10.711,2.38,10.711,2.38s8.628,0.297,9.521-2.083c0.893-2.38,7.736-9.521,7.736-9.521
		l7.923-10.47l5.162,2.747l25.428,0.986l19.509-4.384l13.1-6.55l2.545,0.399l9.818,13.388l-3.57,23.206l7.14,14.727l18.297,4.016
		l23.652,5.355l12.049-5.801l12.049-13.835l7.587-15.62l15.619-30.346l13.834-8.925l19.636-6.248l11.603-18.743l4.462-17.405
		L963.441,623.614z M749.709,693.617l0.667,0.098l0.581,0.309L749.709,693.617z"/>
	<polygon id="XMLID_193_" fill="#AF3A3A" points="695.561,600.057 704.358,593.809 708.92,592.47 717.392,594.255 720.976,592.917 
		725.863,589.793 734.009,588.9 737.919,592.47 743.132,591.132 748.345,594.702 756.165,598.718 767.894,591.132 779.95,601.842 
		788.747,609.429 806.016,605.412 827.52,601.396 839.575,601.842 854.238,598.272 861.732,608.536 876.068,612.552 
		878.349,616.569 706.639,613.445 	"/>
	<polygon id="XMLID_192_" fill="#C14646" points="700.588,629.415 704.158,617.812 716.654,613.35 727.81,609.779 732.719,609.779 
		741.199,619.151 755.033,624.953 749.678,638.34 	"/>
	<polygon id="XMLID_191_" fill="#AF3A3A" points="809.032,634.324 816.172,616.92 834.469,609.333 852.32,611.118 862.584,618.258 
		871.956,629.415 872.402,638.34 	"/>
	<polygon id="XMLID_190_" fill="#CE5757" points="681.181,609.617 678.345,601.137 680.827,595.336 688.273,589.981 
		695.365,592.212 703.876,593.997 709.904,592.212 716.996,592.212 729.762,599.799 741.109,596.675 760.612,600.245 
		766.994,594.444 780.115,595.336 794.653,598.906 803.872,596.675 824.439,596.229 831.886,603.815 841.46,601.137 
		847.488,599.799 860.963,597.567 881.175,596.229 893.231,600.245 904.223,607.385 909.188,614.972 902.451,621.22 
		893.231,621.666 884.721,615.865 879.047,618.542 871.246,621.22 862.381,620.774 859.19,621.22 851.034,629.253 841.105,635.054 
		826.921,631.484 818.411,627.021 804.936,634.161 790.752,636.839 775.149,628.36 769.831,627.914 760.612,629.253 
		754.229,625.236 740.754,626.129 730.825,627.021 719.478,625.682 708.131,625.682 699.266,622.559 687.564,624.344 
		680.118,618.989 	"/>
	<polygon id="XMLID_185_" fill="#F4A6A6" points="681.398,625.845 680.952,628.523 681.845,632.093 684.969,630.754 
		684.969,624.953 682.737,622.275 	"/>
	<polygon id="XMLID_172_" fill="#F4A6A6" points="786.718,628.969 786.272,632.539 788.95,635.217 793.412,632.985 791.181,627.184 
			"/>
	<polygon id="XMLID_170_" fill="#FFE7D7" points="885.99,725.925 889.212,720.902 895.659,720.902 895.659,724.555 903.394,727.751 
		915.641,730.948 931.756,736.428 927.245,737.341 929.823,739.625 925.311,740.538 893.08,731.405 889.857,732.318 
		887.923,734.145 883.411,734.145 879.543,730.948 881.477,727.751 	"/>
	<polygon id="XMLID_169_" fill="#CE5757" points="915.764,733.222 916.359,734.214 917.946,735.205 922.31,736.197 925.285,736.197 
		926.475,735.999 928.458,734.214 925.086,730.445 920.921,730.445 917.946,728.263 913.185,728.858 912.789,730.246 	"/>
	<polyline id="XMLID_168_" fill="#FFE7D7" points="717.211,694.534 705.508,685.212 703.326,685.41 699.755,684.418 
		699.954,680.649 702.532,680.054 704.714,677.873 707.095,676.087 710.268,676.881 709.673,680.649 707.293,681.84 
		712.648,686.997 717.409,692.749 	"/>
	<polygon id="XMLID_167_" fill="#CE5757" points="700.551,695.923 705.708,695.724 709.873,692.749 714.039,691.559 
		720.981,693.741 727.13,688.386 735.857,689.576 738.039,691.559 741.213,692.749 742.998,695.526 749.345,695.13 750.734,698.105 
		753.511,702.072 750.734,703.659 745.576,707.626 738.039,708.221 732.684,709.411 722.369,709.213 721.179,707.229 
		718.402,709.411 711.658,710.998 706.501,708.816 697.773,707.824 691.228,706.237 685.674,702.865 685.674,699.692 
		688.253,696.717 691.228,696.32 695.592,693.543 699.36,694.336 	"/>
	<polygon id="XMLID_166_" fill="#A97C50" points="963.295,683.077 966.271,678.912 970.734,676.531 974.601,672.664 
		975.197,666.415 976.089,669.688 978.172,662.547 979.362,668.795 977.874,673.259 974.006,676.829 968.056,680.399 
		967.04,683.255 962.403,684.267 	"/>
	<polygon id="XMLID_165_" fill="#A97C50" points="954.046,701.387 956.426,704.659 953.153,703.767 957.914,707.932 
		961.484,711.503 965.947,713.883 972.493,718.346 969.815,713.585 976.063,714.775 973.088,710.312 975.171,710.312 
		978.443,710.61 976.063,705.849 980.229,705.849 975.468,699.899 969.815,694.841 969.518,698.709 964.162,697.518 
		960.592,692.163 967.435,693.948 962.079,688.89 954.641,687.402 949.285,681.452 951.963,688.89 947.203,687.105 955.534,692.758 
		953.451,694.543 957.021,697.518 946.905,691.271 948.69,696.031 940.062,690.973 	"/>
	<polygon id="XMLID_164_" fill="#CC2929" points="633.013,601.714 621.409,599.929 610.698,610.938 576.185,606.772 
		569.937,616.591 569.044,627.004 561.011,634.443 565.771,636.228 572.019,638.608 579.755,635.93 587.193,635.038 
		594.929,638.906 602.07,635.335 614.566,629.682 632.12,627.004 637.178,618.078 652.055,612.128 654.732,605.285 648.484,604.987 
		645.806,607.962 	"/>
	<polygon id="XMLID_163_" fill="#CC2929" points="806.472,743.338 804.091,745.123 805.281,746.908 807.96,746.908 813.613,743.635 
		811.53,742.148 	"/>
	<polygon id="XMLID_162_" fill="#CC2929" points="1020.692,659.435 1020.99,660.625 1023.37,661.518 1026.345,660.03 
		1024.858,658.245 1020.395,658.245 	"/>
	<polygon id="XMLID_161_" fill="#CC2929" points="1042.412,652.294 1049.85,654.377 1048.66,655.567 1044.197,656.162 
		1042.412,653.782 	"/>
	<polygon id="XMLID_160_" fill="#CC2929" points="1050.148,669.253 1054.611,668.658 1059.074,670.443 1059.074,671.634 
		1054.908,672.229 1051.338,670.443 	"/>
	<polygon id="XMLID_159_" fill="#CC2929" points="1043.007,683.237 1041.222,687.105 1045.09,688.295 1048.065,690.973 
		1051.635,688.89 1050.743,685.617 1047.47,685.617 	"/>
	<polygon id="XMLID_158_" fill="#CC2929" points="1087.041,674.609 1089.719,676.394 1091.207,679.369 1086.149,679.667 
		1083.768,678.179 1082.281,675.501 1085.851,674.609 	"/>
	<polygon id="XMLID_157_" fill="#CC2929" points="1000.758,657.055 1004.328,660.625 1014.444,664.195 1015.634,671.634 
		1018.61,676.989 1014.742,678.179 1010.874,681.749 1001.353,678.774 994.807,674.609 990.345,668.658 990.94,662.708 
		997.188,662.41 995.403,656.757 	"/>
	<polygon id="XMLID_156_" fill="#CC2929" points="667.975,687.831 663.066,688.278 660.835,692.294 667.975,692.294 
		672.438,690.063 	"/>
	<polygon id="XMLID_155_" fill="#CC2929" points="565.695,674.872 565.695,681.169 568.9,682.068 575.311,675.771 569.702,666.776 
		567.297,671.274 	"/>
	<polygon id="XMLID_154_" fill="#CC2929" points="558.672,751.243 556.44,752.582 557.779,754.814 570.275,753.921 574.291,751.243 
		564.473,749.458 	"/>
	<polygon id="XMLID_153_" fill="#C14646" points="845.625,637.894 839.378,632.985 836.254,629.415 837.593,624.952 
		839.399,625.219 838.506,627.401 839.2,629.98 840.49,631.963 843.167,631.666 845.944,630.376 851.696,632.062 853.878,637.517 
		851.201,633.153 845.944,631.566 842.87,633.252 	"/>
	<polygon id="XMLID_152_" fill="#C14646" points="734.172,643.765 735.462,645.55 738.239,645.253 741.611,642.575 745.875,642.773 
		748.156,639.996 745.776,640.79 740.52,640.889 739.032,643.368 736.652,644.261 	"/>
	<polygon id="XMLID_151_" fill="#C14646" points="874.805,654.873 877.978,655.765 883.135,653.187 885.714,653.484 
		882.738,651.104 881.053,652.79 878.176,655.071 	"/>
	<polygon id="XMLID_150_" fill="#CC2929" points="806.076,623.533 809.051,628.293 807.662,633.054 806.472,638.806 
		808.257,639.401 809.051,636.426 810.836,632.261 812.224,635.236 810.042,641.385 810.241,647.732 811.629,654.873 
		809.051,663.005 812.621,655.666 811.232,647.137 811.232,640.393 814.208,634.046 812.224,631.269 810.241,630.079 
		810.042,625.517 808.059,623.137 	"/>
	<polyline id="XMLID_149_" fill="#8E694D" points="915.438,630.747 915.235,629.681 915.47,642.212 923.419,648.904 
		935.325,646.516 947.504,635.988 973.429,630.192 992.031,635.946 1006.599,646.601 1012.199,656.959 1010.163,669.746 
		1001.586,675.159 991.992,671.792 984.434,663.224 976.797,658.067 965.989,650.65 952.478,650.864 943.471,656.064 
		930.156,659.133 915.471,657.386 903.839,644.044 907.363,627.166 910.835,628.117 	"/>
	<polyline id="XMLID_148_" fill="#A97C50" points="687.611,660.831 706.799,669.291 715.259,671.766 723.924,675.067 
		741.256,674.655 754.667,675.067 768.285,676.306 801.091,673.211 823.114,675.401 857.781,675.437 889.946,668.922 
		900.479,665.597 906.073,661.562 918.379,654.871 926.944,638.388 924.924,620.726 918.179,605.265 909.753,602.652 
		891.405,599.352 872.223,599.889 857.763,601.928 841.205,601.47 802.122,603.999 778.601,605.25 756.318,606.102 729.495,600.983 
		713.401,597.695 	"/>
	<polyline id="XMLID_147_" fill="#A97C50" points="687.655,660.141 684.542,658.112 679.85,657.46 678.045,655.007 675.432,650.503 
		668.919,649.138 665.81,646.674 660.589,637.23 658.959,629.95 655.765,627.224 652.309,624.582 647.088,615.138 649.314,609.503 
		649.775,601.981 651.856,593.213 654.836,590.804 659.461,584.539 667.072,579.91 674.387,579.281 679.633,581.199 
		686.911,584.485 691.696,584.529 694.75,578.77 700.37,577.822 703.615,579.809 705.627,583.351 710.06,588.568 710.679,592.271 
		714.419,597.134 724.429,606.187 728.298,606.527 738.836,606.761 	"/>
	<polygon id="XMLID_146_" fill="#231F20" points="673.708,591.716 671.736,588.523 671.975,586.132 680.117,585.38 685.681,585.822 
		688.47,585.282 693.737,580.11 696.486,579.222 699.084,580.551 700.234,583.214 699.536,588.211 697.136,593.757 696.824,594.581 
		694.295,595.254 690.869,594.048 688.725,593.006 686.428,592.159 	"/>
	<polygon id="XMLID_144_" fill="#231F20" points="655.753,599.905 661.06,604.695 663.928,605.069 667.378,603.665 667.937,599.581 
		669.101,596.024 670.395,592.425 669.41,590.72 666.766,589.695 662.458,589.786 657.716,589.873 653.084,592.093 653.918,596.016 
			"/>
	<polygon id="XMLID_143_" fill="#231F20" points="673.996,634.631 671.879,639.508 673.611,644.297 677.137,647.205 
		681.697,647.032 683.866,645.174 682.382,639.438 679.944,636.467 	"/>
	<polygon id="XMLID_142_" fill="#EACB94" points="673.094,589.614 677.851,587.129 678.412,585.873 676.755,584.59 673.923,586.007 
		672.627,587.356 	"/>
	<polygon id="XMLID_141_" fill="#F7D99C" points="673.549,590.148 678.773,587.089 679.842,589.013 678.853,590.349 
		675.686,591.163 674.524,591.337 	"/>
	<polygon id="XMLID_140_" fill="#EACB94" points="691.978,582.269 689.641,580.856 689.784,579.508 695.6,580.953 696.766,581.878 
		695.661,583.825 	"/>
	<polygon id="XMLID_139_" fill="#F7D99C" points="697.488,588.584 693.917,584.244 693.101,583.062 698.017,583.064 
		698.867,585.247 698.139,588.807 	"/>
	<polyline id="XMLID_138_" fill="#D89C98" points="693.78,594.553 696.482,593.968 697.072,591.32 694.578,588.079 691.206,585.699 
		687.769,585.798 686.933,586.791 688.515,589.893 689.584,591.861 	"/>
	
		<ellipse id="XMLID_137_" transform="matrix(-0.3535 -0.9354 0.9354 -0.3535 313.8365 1501.2637)" fill="#FFFFFF" cx="675.697" cy="642.182" rx="3.095" ry="2.201"/>
	<path id="XMLID_136_" fill="#A97C50" d="M651.162,678.774l2.975-0.893l4.166-1.785l8.628-2.678l5.058-4.165l4.761-2.975
		l-2.975,3.57l4.76-0.893l6.248-4.165l-3.384,7.021l-6.136,0.418c0,0-1.488,5.95-2.975,6.843
		c-1.488,0.893-10.116,0.893-10.116,0.893l-5.058,3.868l-4.76-0.297l3.273-2.38l-5.058,0.595L651.162,678.774z"/>
	<polyline id="XMLID_133_" fill="#CC2929" points="769.228,616.937 768.242,618.581 768.735,620.719 772.023,622.034 
		772.023,625.322 771.365,632.063 768.57,638.474 766.598,645.379 765.447,650.64 765.282,655.244 765.447,658.367 767.913,665.435 
		768.077,646.366 771.53,641.434 775.311,639.79 777.448,642.913 778.435,648.667 777.941,656.723 776.791,662.971 776.791,669.054 
		779.092,677.109 782.38,682.206 783.038,684.837 785.669,684.672 783.86,677.274 780.079,673.493 778.599,665.766 780.736,659.847 
		782.052,650.476 780.243,641.598 777.284,637.323 773.174,634.693 774.325,632.063 775.147,626.802 775.475,621.705 
		778.27,620.225 779.75,617.924 777.613,616.115 773.503,614.142 	"/>
	<path id="XMLID_132_" fill="#CC2929" d="M809.672,617.431l-3.124,1.644c0,0,0.493,1.48,0.986,2.302s1.973,2.302,1.973,2.302
		l0.164,2.63l-1.151,4.768l-1.48,6.083l1.151,4.932l3.04,5.046l1.389,8.529l-0.977,6.482l-0.493,7.727l2.302,6.083l2.795,0.986
		l-2.63-7.069l1.151-6.905l1.48-8.714l-1.644-7.727l-3.288-5.59l-1.48-4.439l0.405-6.423l1.732-4.757l1.973-2.63l2.63-0.986
		l0.493-2.137l-0.822-5.097"/>
	<polygon id="XMLID_131_" fill="#FFE7D7" points="781.159,591.159 774.019,595.846 768.664,603.88 767.325,609.906 769.556,618.387 
		776.697,619.056 773.127,609.683 773.573,602.541 	"/>
	<polygon id="XMLID_130_" fill="#FFE7D7" points="809.085,618.631 813.955,610.035 819.967,602.572 818.334,610.894 815.13,620.273 
			"/>
	<polyline id="XMLID_129_" fill="#231F20" points="694.267,656.832 689.04,659.583 687.114,663.159 687.389,667.287 
		692.616,671.138 696.193,671.413 702.521,670.038 703.621,663.435 	"/>
	<polygon id="XMLID_128_" fill="#CC2929" points="681.682,638.885 682.833,643.982 683.244,647.188 681.6,649.572 680.203,655.819 
		681.271,659.189 681.189,663.546 683.491,663.711 683.244,659.847 682.504,656.805 682.258,651.216 683.655,649.572 
		683.866,645.174 682.587,638.885 681.518,638.146 	"/>
	<polygon id="XMLID_127_" fill="#CC2929" points="671.982,639.707 671.243,643.242 671.078,649.49 672.805,644.804 672.887,637.241 
			"/>
	<polygon id="XMLID_126_" fill="#CE5757" points="657.713,649.902 660.391,645.439 663.515,642.315 672.887,641.423 
		676.457,644.993 677.795,651.241 683.151,654.365 685.828,659.72 681.812,661.951 676.01,662.398 671.548,659.72 667.531,661.059 
		659.945,657.489 654.589,658.381 650.127,654.811 649.68,649.902 653.697,649.009 	"/>
	<polygon id="XMLID_125_" fill="#CC2929" points="661.543,600.168 663.516,606.415 661.543,612.827 657.926,624.336 658.09,633.871 
		659.241,637.488 661.378,633.213 660.556,624.829 662.2,618.581 665.16,610.854 665.982,604.443 663.516,597.702 661.872,597.702 	
		"/>
	<polygon id="XMLID_124_" fill="#CC2929" points="695.081,663.793 697.219,667.903 695.739,672.342 702.315,672.835 
		700.671,667.574 698.863,663.628 697.054,662.642 695.575,662.642 	"/>
	<polygon id="XMLID_123_" fill="#CC2929" points="824.248,602.524 826.66,607.566 826.66,618.088 824.906,623.129 826.441,632.774 
		829.729,638.912 829.948,644.173 827.536,648.996 827.536,656.01 831.482,669.382 834.77,671.574 833.455,662.806 831.263,654.038 
		831.702,648.338 833.674,642.42 833.236,636.282 836.305,636.72 836.743,640.666 836.086,647.242 837.839,653.818 838.497,663.025 
		838.497,674.862 841.566,673.766 842.223,665.217 841.347,654.476 839.155,646.584 840.031,637.159 838.278,631.898 
		834.551,629.706 831.482,627.513 831.482,622.472 831.921,616.334 831.044,608.443 831.702,601.428 827.52,601.396 	"/>
	<polygon id="XMLID_122_" fill="#CC2929" points="855.594,601.647 855.594,606.469 854.06,615.018 852.744,623.567 853.841,628.828 
		853.402,639.569 852.525,649.872 854.937,656.448 854.06,669.82 854.279,673.766 858.225,673.327 857.786,669.381 858.005,657.325 
		856.471,648.337 857.348,639.131 858.005,627.513 854.937,623.348 856.69,615.457 859.102,606.907 859.759,600.989 857.786,600.77 
			"/>
	<polygon id="XMLID_121_" fill="#CC2929" points="787.859,604.715 788.517,613.045 788.298,626.417 789.613,631.02 787.859,640.227 
		786.982,652.502 786.544,670.477 788.298,670.477 788.736,652.283 789.832,640.227 791.586,640.227 792.024,645.488 
		792.024,649.653 794.216,654.914 794.216,662.805 793.997,668.943 795.751,668.943 795.97,653.379 793.559,649.872 
		794.216,639.788 792.463,635.624 792.682,631.678 791.181,627.184 791.367,613.045 790.709,604.277 788.298,602.962 	"/>
	<polygon id="XMLID_201_" fill="#CC2929" points="740.73,664.56 738.099,652.942 730.866,642.859 730.427,635.625 731.523,627.514 
		736.346,619.184 735.25,610.855 731.523,605.813 729.112,601.648 731.962,599.456 726.701,598.36 722.536,600.114 721.221,604.936 
		717.713,612.389 717.494,621.157 714.644,629.487 713.049,634.407 712.508,631.898 705.274,625.322 699.52,619.568 
		696.561,609.703 698.205,601.483 699.027,593.427 698.205,590.304 695.739,590.304 691.3,589.646 688.725,593.006 689.492,599.839 
		690.478,606.58 689.492,611.348 688.012,618.088 688.998,624.993 691.629,632.063 692.451,640.283 688.998,648.667 
		686.861,656.723 685.875,661.491 688.341,660.669 689.985,657.216 692.122,649.325 695.575,641.105 695.903,635.351 
		694.259,629.268 691.793,622.856 691.793,615.951 692.286,613.649 693.437,612.827 694.424,618.417 699.027,623.185 
		703.63,629.103 708.398,635.351 712.18,644.557 715.303,656.723 723.852,667.081 729.278,672.999 731.086,678.26 736.018,678.754 
		734.045,671.52 726.647,663.135 718.756,653.764 715.926,645.747 715.521,639.132 718.152,631.022 719.905,623.788 
		721.001,614.362 723.632,607.128 727.139,603.621 729.331,608.663 731.523,611.731 729.989,617.65 727.797,623.13 727.358,636.502 
		729.331,646.366 735.907,654.477 736.144,664.852 737.442,675.74 741.168,677.932 	"/>
	<path id="XMLID_119_" fill="#CE5757" d="M874.448,675.957l-1.535,2.192l-14.029,1.096l-6.357-1.096l-5.261,1.096l-9.426,2.63
		l-14.906-2.63l-12.495,0.219l-16.879,1.754l-18.413-1.096l-6.795-2.63l-7.672,1.973l-11.399-0.438l-1.754-5.48l1.315-1.754
		l3.507-1.973l5.919-0.438l6.357-3.507l8.111-1.535l3.507,1.973l5.261,1.973l3.727-1.754l1.754-3.288l2.192,0.438l2.63-0.877
		l3.507,2.63l1.315,2.192l5.261-2.192l4.823,0.877l6.357,1.315l7.453,2.63h4.822l4.384-1.973l5.699-0.219l1.754,1.096l4.384,0.877
		l5.042,0.219l3.946,1.973l5.261-1.973l4.823,3.069l3.507,0.219c0,0,3.508-0.877,4.384-0.438c0.877,0.438,7.453-0.438,7.453-0.438
		l1.315,1.754L874.448,675.957z"/>
	<polygon id="XMLID_118_" fill="#231F20" points="748.37,686.891 744.883,690.609 743.155,693.38 735.658,690.621 733.153,690.945 
		731.477,693.465 735.857,694.011 738.989,695.675 737.067,697.426 729.565,701.031 727.688,702.783 733.098,705.319 
		741.599,701.057 735.247,708.065 733.262,712.011 740.778,711.039 744.854,705.673 744.975,713.085 748.268,711.552 
		751.541,702.505 758.15,697.904 	"/>
	<polygon id="XMLID_117_" fill="#B2855B" points="737.42,631.953 730.377,632.896 727.772,634.211 724.583,641.706 724.468,649.5 
		726.374,652.95 729.333,658.485 736.144,664.852 744.771,668.34 752.807,670.983 746.655,688.534 745.382,693.271 747.565,697.362 
		750.897,700.684 754.786,700.525 758.952,696.96 763.803,689.275 773.009,672.342 767.255,661.984 758.342,652.169 
		751.861,642.422 745.128,634.271 	"/>
	<path id="XMLID_116_" fill="#CC2929" d="M767.474,668.067l-0.329,2.192l0.548,1.973l-0.329,4.275l-3.178,7.124v2.63
		c0,0,0.877,8.001,0.986,8.33s1.096-9.535,1.096-9.535l-0.329-1.863l2.411-5.701l1.096-5.698l1.425-1.206l-0.219-1.863"/>
	<polygon id="XMLID_115_" fill="#FFE7D7" points="768.132,666.752 774.708,658.093 777.448,654.805 776.352,657.216 
		779.092,654.367 777.01,658.203 781.394,654.915 770.105,669.931 768.242,669.492 767.474,668.067 	"/>
	<polyline id="XMLID_114_" fill="#CC2929" points="756.514,692.399 757.72,693.824 757.172,695.906 757.172,698.975 
		759.145,701.606 759.254,706.428 757.5,706.647 757.5,701.387 756.185,698.866 755.637,694.591 	"/>
	<polygon id="XMLID_113_" fill="#FFE7D7" points="755.528,692.509 754.432,694.482 751.253,695.139 753.226,695.687 756.076,695.03 
		757.172,693.057 756.514,692.399 	"/>
	<g id="XMLID_221_">
		<polyline id="XMLID_112_" fill="#FFE7D7" points="614.094,607.494 621.36,609.312 623.524,611.947 621.223,611.436 
			621.567,612.646 616.159,610.404 610.643,613.247 613.23,617.74 617.851,617.838 619.867,618.713 619.277,620.364 
			621.214,620.591 619.533,621.388 612.984,620.601 608.46,615.882 		"/>
		<polygon id="XMLID_106_" fill="#231F20" points="589.28,601.543 584.703,600.072 581.644,599.719 580.968,592.215 579.68,590.211 
			576.856,589.8 578.159,593.754 578.005,597.095 575.737,596.164 569.635,591.227 567.384,590.334 567.408,595.969 
			574.472,601.492 565.935,598.909 561.771,598.811 565.634,604.824 571.853,606.13 565.585,609.227 568.221,611.414 
			577.253,610.55 583.843,614.325 		"/>
		<polygon id="XMLID_104_" fill="#8E694D" points="607.176,602.435 589.67,601.346 585.044,601.403 581.89,604.432 579.728,608.307 
			580.868,611.796 585.171,614.664 593.388,617.099 611.115,621.12 619.043,613.245 620.324,605.795 		"/>
	</g>
	<polyline id="XMLID_103_" fill="#CE5757" points="871.488,626.308 869.844,619.897 872.639,614.636 873.461,609.375 
		875.927,608.224 880.201,606.087 885.298,604.278 888.586,605.593 886.449,620.883 	"/>
	<polygon id="XMLID_102_" fill="#231F20" points="934.85,650.395 940.68,651.861 946.419,653.771 949.455,655.438 953.929,658.246 
		952.357,658.868 948.638,657.051 953.533,660.612 952.225,661.65 948.155,660.089 952.42,663.426 950.74,664.196 945.77,661.766 
		950.979,665.833 949.571,666.46 946.038,665.172 937.388,664.73 924.413,660.403 923.709,655.951 	"/>
	<polygon id="XMLID_101_" fill="#B2855B" points="870.884,624.878 875.621,611.489 886.08,603.946 894.652,601.512 899.782,602.784 
		909.096,607.884 916.643,614.403 925.491,626.382 929.385,635.493 930.802,641.201 935.29,650.947 932.269,656.882 
		925.022,660.219 919.248,648.34 914.336,640.304 910.765,636.497 909.588,642.491 903.834,653.016 893.474,657.484 884.638,652.77 
		877.115,641.696 	"/>
	<polygon id="XMLID_99_" fill="#CC2929" points="925.577,636.173 925.413,637.735 926.564,639.296 926.892,642.995 927.55,648.174 
		925.988,651.545 925.988,658.039 926.317,662.231 927.632,662.56 927.221,658.367 927.303,652.202 929.194,648.667 
		928.125,642.584 927.468,638.228 928.372,636.666 927.468,635.433 	"/>
	<polygon id="XMLID_98_" fill="#FFE7D7" points="925.74,637.376 923.986,623.686 924.424,618.771 925.521,624.739 925.491,619.769 
		927.055,627.196 927.797,636.37 	"/>
	<path id="XMLID_96_" fill="#CC2929" d="M871.488,622.363l-2.302,3.617l0.164,7.234l1.315,6.741l-0.658,12.659l0.986,8.22
		c0,0,1.48,6.247,1.48,7.069s-1.315,5.097-1.315,5.097l1.973-0.658l0.986-4.768l-1.151-7.398l-0.986-8.056l1.151-2.137l1.315,0.822
		l2.466,5.919l-0.164,6.576l1.315,1.808l1.973,5.097l-0.164,3.781l1.151-0.986l0.164-3.288l-2.302-5.261l-0.822-1.973l-0.086-6.712
		l-2.873-6.605l-1.315-2.959l-0.658-6.083l-1.644-3.946l0.986-9.535L871.488,622.363z"/>
	<path id="XMLID_95_" fill="#CC2929" d="M797.724,568.109"/>
	<polygon id="XMLID_134_" fill="#FFE7D7" points="723.144,593.391 721.359,599.64 722.698,606.781 725.375,613.7 733.408,615.485 
		726.714,606.781 724.483,599.417 	"/>
	<path id="XMLID_135_" fill="#CC2929" d="M724.839,612.334l-0.493,1.808l1.151,2.466l1.644,1.48l1.644,0.329l2.795-0.493l1.151,1.48
		l0.986,2.795l2.137,5.097l2.302,3.124l3.453,1.973c0,0,2.302,1.808,2.795,1.808c0.493,0,5.097,7.563,5.097,7.563l3.946,9.7v10.193
		l-0.638,9.327l-0.512,3.167l-1.808,2.63l-3.946,1.644l-1.644,3.781l3.124,3.453l5.261,1.644l4.439-0.986l7.234-0.493l2.137-2.137
		l-0.329-2.795h1.644l2.137-1.644l0.822-3.453l-10.193-0.986l-4.439-0.164l-1.48-6.741l1.644-7.563l1.151-7.398l-0.164-6.576
		l-3.781-4.439l-3.946-6.741l-3.946-3.288l-4.439-4.11l-4.768-5.919l-2.466-4.11l0.493-2.795l-5.261-2.959"/>
</g>
<g id="hawk">
	<g id="XMLID_48_">
		<polygon id="XMLID_94_" fill="#8A5D3B" points="1053.35,308.245 985.582,209.144 785.195,110.044 678.079,74.339 580.145,83.52 
			571.983,112.376 599.673,134.236 635.379,154.639 636.545,165.424 719.614,173.439 716.116,191.365 812.739,266.856 
			841.741,308.245 883.713,325.588 906.885,325.588 914.9,345.991 953.229,372.223 978.15,426.291 1004.237,416.673 
			1036.444,377.761 		"/>
		<path id="XMLID_93_" fill="#5A4A42" d="M931.077,394.812c0,0-9.764-12.096-8.015-19.091c1.749-6.85,3.935-15.011,3.935-15.011
			h6.995l5.247,9.181l10.347,7.724l-16.177,7.724L931.077,394.812z"/>
		<path id="XMLID_92_" fill="#A87C4F" d="M930.494,351.529v-20.695c0,0,32.791-36.871,56.546-38.037
			c23.609-1.166,150.4,4.081,165.993,58.732c15.594,54.797,29.439,92.834,32.208,103.181c2.915,10.347,44.887,34.539,44.887,34.539
			l5.247,12.096l157.395,73.742v12.096l14.428,14.428l-2.915,13.262l-42.701,13.262l-23.609-14.428l3.498,14.428l-70.391,4.081
			l-38.62-30.605l-8.016,20.84l-97.352-8.598l-8.015-23.026l-6.85,20.549l-78.406-14.865l7.432-16.031l-17.343,0.583l-6.85-24.192
			l21.278-16.177l19.091-12.096l10.93-6.85l-6.267-35.122l-23.609-18.946l-39.786-47.218v-10.93l-15.011-11.513l-13.845-19.82
			h-10.347L930.494,351.529z"/>
		<polygon id="XMLID_91_" fill="#C1B49A" points="949.44,377.761 972.466,365.374 949.44,355.026 946.088,360.71 933.992,360.71 
			939.093,369.891 		"/>
		<path id="XMLID_81_" fill="#F6921E" stroke="#231F20" stroke-width="2" stroke-miterlimit="10" d="M967.365,344.533
			c0,0-4.664,4.081,0,8.015c4.664,4.081,10.93,2.332,10.93,2.332s12.096-2.332,12.679-10.347c0.583-8.016-9.181-8.016-9.181-8.016
			l-9.181,4.664L967.365,344.533z"/>
		<polygon id="XMLID_80_" fill="#8A5D3B" points="1003.654,426.291 997.824,448.297 990.975,504.26 960.953,494.641 
			946.088,478.319 940.841,479.485 926.851,476.57 910.237,481.817 895.955,481.817 895.955,490.998 895.955,495.079 
			908.051,498.139 906.885,504.26 911.986,507.758 920.147,500.762 930.494,501.928 933.992,498.139 930.494,504.26 913.734,511.11 
			916.066,517.522 930.494,523.206 953.229,506.009 957.601,506.592 1011.086,535.885 1015.75,515.773 1039.942,531.367 
			1045.188,505.426 1061.219,477.153 		"/>
		<polygon id="XMLID_79_" fill="#C3996B" points="1084.974,442.614 1065.883,491.581 1065.883,518.688 1049.706,527.869 
			1016.916,509.361 990.975,509.944 972.466,511.693 972.466,518.688 965.325,520.437 965.325,530.784 968.531,535.885 
			972.466,531.95 978.15,541.131 997.387,535.302 986.311,554.976 993.889,562.409 1002.488,557.891 1017.499,532.533 
			1021.579,529.035 1053.787,545.795 1096.488,536.468 1134.525,497.848 1141.374,452.961 1107.418,433.869 		"/>
		<path id="XMLID_78_" fill="#5A4A42" d="M897.558,481.817l2.623,4.081l-4.372,2.915c0,0-6.267,0.583-7.433,3.643
			c-1.166,3.06-2.623,6.995-2.623,6.995l-1.603,1.312c0,0-1.749-8.307,1.166-12.679c2.915-4.372,6.704-6.121,6.704-6.121h5.538
			V481.817z"/>
		<polygon id="XMLID_77_" fill="#5A4A42" points="923.499,518.251 930.494,519.854 928.745,524.809 923.499,529.618 
			916.649,529.618 914.9,526.12 921.604,523.934 		"/>
		<path id="XMLID_76_" fill="#5A4A42" d="M975.672,512.858l2.915,3.643l-12.096,3.498l2.477,1.312l-1.02,4.372l-4.664,2.04
			l-4.226,8.016l-0.729,9.181l-2.915,1.603l-2.332-5.538c0,0-4.664-10.493,4.226-18.654c8.89-8.015,11.513-9.619,11.513-9.619h6.85
			V512.858z"/>
		<path id="XMLID_75_" fill="#5A4A42" d="M978.587,529.764l1.895,1.457l-0.874,4.664l-8.161,2.623l-4.372,4.226v2.478h-2.623v-4.081
			c0,0,1.02-6.995,4.664-8.016C972.466,531.95,978.587,529.764,978.587,529.764z"/>
		<path id="XMLID_74_" fill="#5A4A42" d="M991.995,560.514l6.412-1.749v3.643c0,0-10.202,15.74-17.926,15.74
			c-7.724,0-10.056-3.206-10.347-5.392c-0.437-2.04-1.895-8.307-1.895-8.307l1.603-2.04l2.623,3.206c0,0,0.729,5.829,4.955,6.121
			c4.226,0.437,10.202-3.352,10.202-3.352L991.995,560.514z"/>
		<path id="XMLID_73_" fill="#5A4A42" d="M919.273,485.606v4.809l-4.372,2.623h-2.477l-1.312,4.226l1.312,3.352l-1.312,0.874
			l2.332,2.915l-2.332,1.603c0,0-4.809-1.166-5.975-3.643c-1.166-2.478,0-3.206,0-3.206s-1.603,2.915-0.583,5.975
			s1.603,5.392,1.603,5.392l-1.166,1.749l-4.809-4.809l-0.729,2.915l-1.02,4.372l-2.623-1.749c0,0-4.955-15.74,3.498-21.715
			c8.453-5.975,12.533-5.538,12.533-5.538h7.433V485.606z"/>
		<ellipse id="XMLID_72_" fill="#231F20" cx="978.15" cy="345.991" rx="7.433" ry="6.558"/>
		<path id="XMLID_71_" fill="#C3996B" d="M1241.641,478.756l-13.845-4.955h-10.784l-38.766-27.398l-3.498-25.212l-28.856-36.288
			l-33.957-54.214l29.439-10.202l142.967-81.904c0,0,33.374-50.133,77.24-64.415c43.867-14.282,455.279-19.383,455.279-19.383
			l28.856,19.383l-8.016,15.302l-64.561,16.322l25.358,4.081l5.829,32.791l-19.529,39.932l-4.664,19.82l-28.856,17.051
			l-24.192,6.121v37.308l-112.945,46.636h-37.017l-117.609,18.363l-16.177,20.403l-25.358-6.121l-33.374,27.544l-112.945,28.273"/>
		<polygon id="XMLID_70_" fill="#D0C97C" points="928.017,361.584 933.992,349.634 948.565,340.744 960.224,361.584 
			939.821,361.584 		"/>
	</g>
</g>
<g id="top_x5F_forest">
	<path id="XMLID_30_" fill="#1E542A" d="M0,0v1080h1920V0H0z M572.109,129.437l140.651-14.836l-175.326,50.777L572.109,129.437z
		 M365.877,200.014l11.198,4.057l2.517-28.359l2.202-3.901l38.3-26.339l14.761-1.557l78.744,32.831l-185.788,90.717L365.877,200.014
		z M192.049,209.168l56.226,6.303l46-41.4l8.636,3.129l-31.536,79.371l-5.716,27.074l-81.25,13.702L192.049,209.168z
		 M84.775,567.071l-3.333,2.312l5.874-37.764l4.433,43.164L84.775,567.071z M198.307,657.732l-13.682-5.254l-21.85-105.407
		l18.706-215.918l77.76-17.108l-40.965,194.026L198.307,657.732z M1760.356,603.191l-25.381-7.82l-89.1,84.3l-44.1,13.3l-23,88.2
		l-38.803,12.672l-20.197-21.072l-40.3,10l-40.3-40.2l-94,36.9l-80.5-36.9l-57.1,28.5h-60.5l-53.7,57.1l-63.8-42.8l-102.6-11.4
		l-43.4,32.3l-75.6-35.2l-90.6,60.4l-65.5-70.5l-70.5,6.7l-35.2-35.2l-141.433,67.6h-13.067l-32.7-63.6l-103.498,12.136
		l13.798-213.736l44.495-232.824l71.705-15.776l176.3-85.6l276.252-80.385l0.248,0.385l7.744-2.71l85.587-24.904l46.49-4.52
		l16.279,43.834h71.992l-8.292,20.1l52.254,7.112l11.646,16.988l22.799-12.3l0.001,0l59.4,31.9l43.2-44.9l51.9,66.3l75.1-41.5
		l19.6,39.5l77-0.7l8.967-24.238l78.134,43.038l57.8,19.8l104.3,86.9l45.5,138.9L1760.356,603.191z"/>
	<path id="XMLID_15_" fill="#496B44" d="M478.575,120.971c-11.8,1.6-27.8-13.2-29.9-25.2c-3.1-17.5,18.9-27.8,32.9-35.3
		c21.7-11.6,24.9,3.5,30.9,25.6s-1.8,16.8-15.5,29.9"/>
	<path id="XMLID_14_" fill="#496B44" d="M754.775,81.371c-18.7,4.1-46.1-22.7-50.3-40.1c33.1,5.3,60.1,0.3,93.3-1.8
		c1.3,10.8,3,25.1-4.4,33.5"/>
	<path id="XMLID_13_" fill="#496B44" d="M1016.175,112.271c-4.2-13.7-5.9-29.1-4.8-43.5c14.3-2,65.6,28.8,45.1,40.2"/>
	<path id="XMLID_12_" fill="#496B44" d="M1306.575,181.071c-15.6-2.2-20.4-41.3-25-56.2c8.9-6.8,35.6-10.8,45.1-2.6
		c11.5,9.8,1.4,32.9,6.8,45.4"/>
	<path id="XMLID_11_" fill="#496B44" d="M1383.775,112.271c-15.1-2.8-11.9-18.2-11.6-30c10.3-2,20,0.7,25,9.8"/>
	<path id="XMLID_10_" fill="#496B44" d="M1279.775,73.671c-16.4-10,2.2-26.8,16.8-21.4c14.8,5.5,10.1,22.3,10.1,36.6"/>
	<path id="XMLID_9_" fill="#496B44" d="M248.375,563.571c-0.1,30.5-5,59.9-5,90.6c0,18.6-1.2,34-8,50.5c-1.8-8.9-2.3-17.7-2.1-26.9"
		/>
	<path id="XMLID_8_" fill="#496B44" d="M151.775,392.171c0,12.2,8,98.6-11.5,93.8c-0.3-2.8-0.9-7-0.3-9.8"/>
	<path id="XMLID_7_" fill="#496B44" d="M1763.675,321.871c-3.3,24.2,16.8,60.3,23.7,84.2c6,20.6,17.6,51.9,15.4,73.3
		c-7-0.9-11.8-5.1-15.4-10.2"/>
	<path id="XMLID_6_" fill="#496B44" d="M1715.975,779.171c-20-9.1-51.6-98.2-18.1-99.1c16.1-0.4,36.1,37.2,44.7,50.3
		c1.1-18.4-5.2-33,13.7-36.8c12.6-2.5,20.3,4.2,26.9,13.4"/>
	<path id="XMLID_5_" fill="#496B44" d="M1251.375,835.371c-3.1,1.7-8.4,1.9-11.9,3.8c-6.3-13.8,6.3-32.1,15.7-42.5
		c11.2-12.5,11-14.2,25.4-2.9c18.3,14.5,34.1,19.9,26.3,46.6"/>
	<path id="XMLID_4_" fill="#496B44" d="M521.075,809.471c-1.5-7.1,9-32.1,18.5-28.7c4.3,1.6,6.9,18.6,11.7,23.7"/>
	<path id="XMLID_3_" fill="#496B44" d="M614.875,799.271c23.4-22.6,41.5,5.9,45.3,28.5"/>
	<path id="XMLID_2_" fill="#496B44" d="M84.375,684.571c22.4-5.3,45.9-16.7,53.8,10.6c3.6,12.2-3.6,25.5,1.6,36.4"/>
</g>
</svg>
