<?xml version="1.0" encoding="utf-8"?>
<!-- Generator: Adobe Illustrator 19.0.0, SVG Export Plug-In . SVG Version: 6.00 Build 0)  -->
<svg version="1.1" id="Layer_1" xmlns="http://www.w3.org/2000/svg" xmlns:xlink="http://www.w3.org/1999/xlink" x="0px" y="0px"
	 viewBox="0 0 1920 1080" enable-background="new 0 0 1920 1080" xml:space="preserve">
<g id="bottom_x5F_forest_x5F_night_flip">
	<rect id="XMLID_458_" x="35.646" y="43.071" fill="#4F607E" width="1806.4" height="976.5"/>
	<path id="XMLID_457_" fill="#435E4D" d="M1084.146,797.871c22.4-36.7,24.7-82.2,20.4-124.9c-3.8-38.1-12.2-75.9-25.1-112
		c-1.1-3.1-2.3-6.2-4.3-8.7c-4.7-5.8-12.9-7.2-20.4-8.1c-32.8-3.7-65.9-4.8-98.8-3c-3.3-14.3-11.6-27.3-23.2-36.3
		c-2.4-1.8-5.2-3.5-8.1-3.2c-4.6,0.6-7.1,5.7-7.4,10.3c-0.3,4.6,0.8,9.3-0.3,13.7c-6.8-10.4-21.2-11.9-33.6-11.5
		c-13,0.5-25.9,1.9-38.7,4.2c-14.2,2.6-111.7,26-104.8-9c0.9-4.6,4.7-8.2,7.5-12c12-16.2,8.6-38.7,4.6-58.5
		c-15.5-3.6-23,22.6-38.6,12c-13.9-9.5-17.5-29.3-30.9-39.5c-10-7.6-23.7-8.3-34.5-14.8c-8.6-5.2-14.8-13.6-21.6-21
		s-15.4-14.3-25.5-14.7c-15.2-0.7-12.7,11.6-20.6,18c-8.3,6.8-24.9-0.2-31.6-6c-18-15.6-21.8-32.4-28.4-54.4
		c-3.8-12.6-10-25.3-21.2-32.2c-9.2-5.7-20.5-6.6-30.9-9.6c-35.6-10.2-56.4-51.8-95-52.2c-6.3,0-12.9,0-18.1,3.5
		c-6.1,4-8.5,12.8-5.4,19.4c14.4,31.1-27.5,30.8-49.1,28.6c-3-0.3-6.2-0.8-8.7-2.5c-5.3-3.6-6-11-7.7-17.2
		c-5.1-18.6-22.3-30.6-36.9-43.3c-8.8-7.6-20.9-19.6-22.7-31.7c-1.3-8.5,5.1-17.3-6.3-21.5c-13-4.8-27.9-11.3-39.3-2
		c-9.1,7.4-19.5,16.6-28,25.3c-18.7,19-32.3,42.7-42.1,67.3c-15.7,39.4-22.5,81.7-33.3,122.8c-9.7,37.2-22.7,73.5-30.7,111.1
		c-19.8,92.5-7.9,192,37.2,275.2s124.3,148.3,215.9,171.7c96.4,24.6,197.7,3.7,297.2,1.3c48.4-1.2,96.9,1.2,145.2-3.7
		c47.8-4.8,94.7-14.9,141.4-25.5c42.9-9.7,84.5-19.7,124.1-39.5C1036.746,848.271,1066.146,827.471,1084.146,797.871z"/>
	<path id="XMLID_456_" fill="#00584F" d="M309.346,771.371c-12,1.1-37.4,5.9-36.2,21.9c2.4,31.3,20.4,59.5,42.6,81.6
		c20.4,20.3,47.9,33.6,67.1,54.7c18,19.7,38.3,23.2,64.7,26.9c345.2,48.8,698.3,41.5,1041.2-21.7c37.7-6.9,75.7-14.7,110.2-31.2
		c67.6-32.3,116.3-96.2,144.7-165.6s120.373-88.688,128.873-163.188c4.1-35.9-73.673-127.912-75.773-163.912
		c-0.3-4.6-0.8-9.5-3.9-12.8c-3.5-3.7-9.1-4.3-14.1-4.5c-21.5-0.9-43.1,0.9-64.6,0.2c-14.9-0.4-30.1-1.4-43.9-7.1
		c-11.4-4.6-21.6-12.4-33.6-14.8c-5.3-1.1-10.7-1.1-16-0.9c-24.3,0.8-48.5,5-71.7,12.4c-2.4,0.7-4.8,1.6-6.5,3.3
		c-3,3-3.1,7.9-2.8,12.2c0.3,3.7,0.8,7.4,2.6,10.6c1.9,3.3,5.3,5.8,7.1,9.2c4.4,8.4-1.8,15.5-4.5,23s-4.6,15.8-6.2,23.6
		c-2,9.7,0.4,19.6,0.4,29.5c0,0.4,0,0.9-0.3,1.2c-0.5,0.5-1.3,0.3-2,0.1c-3.9-1.3-8.1-1.5-12.2-1.7c-11.5-0.5-21.1-1.1-31.9-4.5
		c-11.3-3.5-25-4.9-36.7-3c-15.4,2.5-29.5,12.2-37.3,25.7c-3.5,6.1-6.2,13.2-12.3,16.8c-4.5,2.7-10.1,2.7-15.4,2.7
		c-9,0-18.1-0.1-26.7-2.5c-13.7-3.7-28-13.2-40.8-7.1c-13.9,6.5-15.2,26.4-26.7,36.5c-6.8,5.9-16.6,7.8-23.4,13.8
		c-5.1,4.5-8.1,10.9-10.5,17.3c-5.1,13.3-8.7,27.3-10.6,41.4c-0.6,4.7-40.6-6.7-45.7-7c-20.5-1.3-41.1,5-60.7-4.3
		c-7.8-3.7-14.4-9.5-20.9-15.2c-8.2-7.2-16.4-14.4-24.6-21.6c-5-4.5-11.4-9.3-17.9-7.5c-6.2,1.7-9.4,8.6-10.8,14.9
		s-2.2,13.2-6.6,17.9c-10.1-10.5-23.4-18-37.6-21.2c-8.4-1.9-19.1-1.3-23.1,6.3c-2.2,4.1-1.5,9.3-3.6,13.6
		c-3.3,6.9-12.8,8.8-20.1,6.5c-7.4-2.3-13.2-7.8-19.3-12.5c-12.7-9.9-27.3-17.5-42.7-22.1c-2.1,4.9-4.1,9.7-6.2,14.5
		c-24.2-4.2-51.6-2.3-69.2,14.8c-10.1,9.8-16,23.8-27.5,32c-9,6.3-21,8.3-31.6,5.2c-8.3-2.5-15.5-7.8-23.7-10.8
		c-19.5-7.1-37.8,13.4-58.5,13c-15.1-0.3-30.2-7.7-44.8-3.7c-15.6,4.3-25.1,20.7-28,36.6c-3,15.9-1.1,32.4-2.8,48.5
		c-10.9,7.1-24.8-2.2-34.4-10.9c-9.6-8.8-23.7-17.9-34.4-10.4c-5.2,3.6-7.4,10.1-9.4,16.1c-6.2,18.7-15.6,39.4-34.5,45.1
		c-7.3,2.2-15.2,1.7-22.8,1.3c-15.8-1-31.5-1.9-47.3-2.8c-7.7-0.5-15.9-0.8-22.6,3c-6.8,3.9-11,11.4-18,14.7
		c-11.4,5.3-24.2-2.6-35.6-7.9C348.346,768.771,329.346,769.571,309.346,771.371z"/>
</g>
<g id="wolf_night">
	<g id="XMLID_382_">
		<polyline id="XMLID_505_" fill="#454860" points="1243.648,650.671 1341.048,668.971 1401.748,682.671 1447.848,739.771 
			1488.648,805.971 1469.848,839.071 1220.648,828.871 1149.448,804.871 		"/>
		<polygon id="XMLID_504_" fill="#484B63" points="1220.648,623.271 1266.648,651.771 1294.948,678.071 1308.548,702.071 
			1314.848,747.771 1326.348,779.771 1331.548,809.471 1194.448,789.971 		"/>
		<polyline id="XMLID_503_" fill="#524C56" points="751.548,544.471 739.048,568.471 735.848,580.971 740.048,598.171 
			746.348,608.371 739.048,626.671 735.848,649.471 742.148,656.371 755.748,662.071 763.048,686.071 765.148,712.371 
			757.848,743.171 755.748,762.571 755.748,784.871 772.548,810.571 825.948,856.271 1165.148,840.271 1198.648,773.971 
			1215.348,742.071 1236.348,697.471 1236.348,664.371 1219.548,606.071 1205.948,583.271 1194.448,564.971 1178.648,554.971 		"/>
		<polygon id="XMLID_502_" fill="#5A5871" points="951.348,705.771 972.648,703.771 1013.448,693.471 1031.348,682.471 
			1038.948,669.071 1048.648,677.471 1053.748,668.471 1060.048,656.171 1069.848,651.871 1083.648,643.171 1087.148,633.571 
			1103.848,630.871 1110.148,622.271 1123.348,618.971 1130.848,618.971 1137.148,607.671 1156.748,595.371 1172.848,581.871 
			1169.948,564.671 1178.648,554.971 1180.348,533.471 1182.648,523.771 1191.248,508.171 1176.348,485.071 1148.148,468.371 
			1113.048,446.271 974.948,465.171 951.348,465.171 813.248,446.271 778.148,468.371 749.948,485.071 734.948,508.171 
			743.648,523.771 745.948,533.471 747.648,554.971 756.248,564.671 753.348,581.871 769.448,595.371 789.048,607.671 
			795.348,618.971 802.848,618.971 816.148,622.271 822.448,630.871 839.148,633.571 842.548,643.171 856.348,651.871 
			866.148,656.171 872.448,668.471 874.748,683.071 879.348,691.671 894.348,684.771 914.348,696.471 		"/>
		<polygon id="XMLID_501_" fill="#353446" points="974.948,633.371 984.148,631.871 994.548,630.771 1003.748,625.771 
			1008.848,622.071 1009.748,613.371 1009.448,606.471 1005.448,596.671 1004.548,591.771 995.648,588.871 977.848,589.771 
			948.448,589.771 930.548,588.871 921.648,591.771 920.848,596.671 916.748,606.471 916.448,613.371 917.348,622.071 
			922.548,625.771 931.748,630.771 942.048,631.871 951.348,633.371 		"/>
		<polyline id="XMLID_500_" fill="#6C667F" points="904.748,590.271 907.248,619.271 911.648,630.271 915.648,628.171 
			919.648,617.371 923.948,591.871 		"/>
		<polyline id="XMLID_499_" fill="#6C667F" points="1021.548,590.271 1018.948,619.271 1014.648,630.271 1010.648,628.171 
			1006.548,617.371 1002.248,591.871 		"/>
		<polyline id="XMLID_497_" fill="#59294A" points="974.948,602.871 989.348,601.571 996.548,600.471 1002.248,596.171 
			977.848,594.271 974.948,594.771 951.348,594.771 948.448,594.271 923.948,596.171 929.748,600.471 936.948,601.571 
			951.348,602.871 		"/>
		<polyline id="XMLID_483_" fill="#424055" points="974.948,328.471 1027.348,359.171 1182.648,461.871 1192.948,462.971 
			1169.948,429.671 1160.248,413.471 1161.948,394.171 1163.648,382.271 1164.848,367.771 1136.048,318.771 1087.148,282.271 
			1048.048,268.271 1011.748,263.371 974.948,262.271 951.348,262.271 914.448,263.371 878.248,268.271 839.148,282.271 
			790.248,318.771 761.448,367.771 762.548,382.271 764.348,394.171 766.048,413.471 756.248,429.671 733.248,462.971 
			743.648,461.871 898.948,359.171 951.348,328.471 		"/>
		<path id="XMLID_480_" fill="#454860" d="M951.348,320.971"/>
		<path id="XMLID_476_" fill="#454860" d="M974.948,320.971"/>
		<polyline id="XMLID_422_" fill="#454860" points="974.948,320.971 1003.148,326.871 1022.148,333.371 1039.948,340.871 
			1074.448,355.971 1100.948,374.271 1123.948,394.171 1142.948,415.071 1176.848,445.771 1187.848,471.571 1191.848,490.971 
			1142.348,486.171 1134.348,481.271 1121.648,476.471 1108.448,482.371 1079.048,499.071 1057.248,514.071 1042.248,526.971 
			1038.248,533.471 991.648,513.071 974.948,487.771 951.348,487.771 934.648,513.071 888.048,533.471 883.948,526.971 
			869.048,514.071 847.148,499.071 817.848,482.371 804.548,476.471 791.948,481.271 783.848,486.171 734.448,490.971 
			738.448,471.571 749.348,445.771 783.348,415.071 802.248,394.171 825.348,374.271 851.748,355.971 886.248,340.871 
			904.148,333.371 923.148,326.871 951.348,320.971 		"/>
		<polygon id="XMLID_407_" fill="#1A1828" points="913.948,287.571 899.548,299.471 883.448,307.471 859.248,321.471 
			840.848,331.771 746.448,277.971 743.048,269.271 751.048,234.371 757.448,220.371 770.648,209.071 779.848,206.371 
			803.448,211.171 819.548,223.071 841.448,239.771 860.348,252.671 878.248,268.271 903.548,281.171 911.648,283.271 		"/>
		<polygon id="XMLID_406_" fill="#5A5871" points="856.348,279.571 855.248,300.471 853.448,319.871 849.448,334.971 
			842.548,339.771 809.748,365.071 790.748,382.871 779.248,383.871 763.148,373.671 753.948,357.571 745.348,312.871 
			739.048,277.971 745.948,262.271 758.548,227.371 769.448,219.771 781.048,221.971 803.448,228.971 831.648,254.771 		"/>
		<polyline id="XMLID_405_" fill="#5A5871" points="974.948,594.771 991.648,598.571 1004.848,596.371 1017.548,593.771 
			1030.148,584.571 1036.548,570.571 1039.948,557.171 1042.848,543.671 1042.248,526.971 1038.248,514.071 1029.648,498.471 
			986.448,517.371 939.748,517.371 896.648,498.471 888.048,514.071 883.948,526.971 883.448,543.671 886.248,557.171 
			889.748,570.571 896.048,584.571 908.748,593.771 921.348,596.371 934.648,598.571 951.348,594.771 		"/>
		<polyline id="XMLID_404_" fill="#353446" points="974.948,529.171 991.048,528.671 1015.248,517.871 1027.348,504.371 
			1034.748,496.371 1039.948,488.771 1052.648,482.371 1065.248,474.871 1075.648,467.271 1081.948,459.771 1087.148,441.971 
			1087.148,429.071 1075.648,412.371 1058.948,407.071 1034.748,406.471 1019.848,409.171 1004.848,421.571 1003.748,436.671 
			1003.148,451.171 1003.148,461.371 999.148,467.871 988.748,470.571 974.948,472.671 951.348,472.671 937.448,470.571 
			927.148,467.871 923.148,461.371 923.148,451.171 922.548,436.671 921.348,421.571 906.448,409.171 891.448,406.471 
			867.348,407.071 850.648,412.371 839.148,429.071 839.148,441.971 844.248,459.771 850.648,467.271 860.948,474.871 
			873.648,482.371 886.248,488.771 891.448,496.371 898.948,504.371 911.048,517.871 935.148,528.671 951.348,529.171 		"/>
		<polygon id="XMLID_403_" points="896.548,462.871 889.348,457.571 880.048,457.471 871.648,455.771 859.448,450.371 
			855.148,445.471 849.548,434.871 845.348,429.371 863.048,431.771 870.348,431.571 883.648,434.571 890.048,439.771 
			895.548,446.071 897.548,456.271 		"/>
		<polygon id="XMLID_402_" fill="#1A1828" points="1012.348,287.571 1026.748,299.471 1042.848,307.471 1066.948,321.471 
			1085.448,331.771 1179.748,277.971 1183.248,269.271 1175.148,234.371 1168.848,220.371 1155.548,209.071 1146.348,206.371 
			1122.848,211.171 1106.648,223.071 1084.848,239.771 1065.848,252.671 1048.048,268.271 1022.648,281.171 1014.648,283.271 		"/>
		<path id="XMLID_401_" fill="#5A5871" d="M951.348,594.771"/>
		<path id="XMLID_400_" fill="#5A5871" d="M975.148,593.171"/>
		<polygon id="XMLID_399_" points="1029.748,462.871 1036.848,457.571 1046.248,457.471 1054.648,455.771 1066.848,450.371 
			1071.148,445.471 1076.648,434.871 1080.848,429.371 1063.148,431.771 1055.948,431.571 1042.648,434.571 1036.248,439.771 
			1030.748,446.071 1028.648,456.271 		"/>
		<polyline id="XMLID_398_" fill="#1D1A2E" points="974.948,587.771 985.348,586.171 997.948,580.271 1007.748,567.871 
			1013.448,554.971 1008.848,537.271 1000.848,530.271 992.248,526.471 980.148,524.871 974.948,524.871 951.348,524.871 
			946.148,524.871 934.048,526.471 925.448,530.271 917.348,537.271 912.748,554.971 918.548,567.871 928.248,580.271 
			940.948,586.171 951.348,587.771 		"/>
		<polygon id="XMLID_397_" fill="#5A5871" points="1069.848,279.571 1071.048,300.471 1072.748,319.871 1076.748,334.971 
			1083.648,339.771 1116.448,365.071 1135.448,382.871 1146.948,383.871 1163.048,373.671 1172.248,357.571 1180.948,312.871 
			1187.248,277.971 1180.348,262.271 1167.648,227.371 1156.748,219.771 1145.248,221.971 1122.848,228.971 1094.648,254.771 		"/>
		<path id="XMLID_396_" fill="#4D4246" d="M881.448,440.971c1.4-1.8,4.6-0.7,4.7,1.4c0.1,2.1-2.6,13.6-13.5,10.4
			c-10.8-3.1-8.8-14.2-7.3-15.8s3.4-0.2,3.4,0.9s-1.2,10,6.4,10.2C882.648,448.371,879.948,442.871,881.448,440.971z"/>
		<ellipse id="XMLID_395_" fill="#6C667F" cx="870.248" cy="438.971" rx="2.7" ry="3"/>
		<path id="XMLID_394_" fill="#4D4246" d="M1044.648,440.971c-1.4-1.8-4.6-0.7-4.7,1.4s2.6,13.6,13.5,10.4
			c10.8-3.1,8.8-14.2,7.3-15.8s-3.4-0.2-3.4,0.9s1.2,10-6.4,10.2C1043.348,448.271,1046.148,442.871,1044.648,440.971z"/>
		<ellipse id="XMLID_391_" fill="#6C667F" cx="1046.048" cy="441.971" rx="2.7" ry="3"/>
	</g>
</g>
<g id="top_x5F_forest_x5F_night">
	<path id="XMLID_208_" fill="#133636" d="M0,0v1080h1920V0H0z M572.109,129.437l140.651-14.836l-175.326,50.777L572.109,129.437z
		 M365.877,200.014l11.198,4.057l2.517-28.359l2.202-3.901l38.3-26.339l14.761-1.557l78.744,32.831l-185.788,90.717L365.877,200.014
		z M192.049,209.168l56.226,6.303l46-41.4l8.636,3.129l-31.536,79.371l-5.716,27.074l-81.25,13.702L192.049,209.168z
		 M84.775,567.071l-3.333,2.312l5.874-37.764l4.433,43.164L84.775,567.071z M198.307,657.732l-13.682-5.254l-21.85-105.407
		l18.706-215.918l77.76-17.108l-40.965,194.026L198.307,657.732z M1760.356,603.191l-25.381-7.82l-89.1,84.3l-44.1,13.3l-23,88.2
		l-38.803,12.672l-20.197-21.072l-40.3,10l-40.3-40.2l-94,36.9l-80.5-36.9l-57.1,28.5h-60.5l-53.7,57.1l-63.8-42.8l-102.6-11.4
		l-43.4,32.3l-75.6-35.2l-90.6,60.4l-65.5-70.5l-70.5,6.7l-35.2-35.2l-141.433,67.6h-13.067l-32.7-63.6l-103.498,12.136
		l13.798-213.736l44.495-232.824l71.705-15.776l176.3-85.6l276.252-80.385l0.248,0.385l7.744-2.71l85.587-24.904l46.49-4.52
		l16.279,43.834h71.992l-8.292,20.1l52.254,7.112l11.646,16.988l22.799-12.3h0.001l59.4,31.9l43.2-44.9l51.9,66.3l75.1-41.5
		l19.6,39.5l77-0.7l8.967-24.238l78.134,43.038l57.8,19.8l104.3,86.9l45.5,138.9L1760.356,603.191z"/>
	<path id="XMLID_207_" fill="#283E43" d="M478.575,120.971c-11.8,1.6-27.8-13.2-29.9-25.2c-3.1-17.5,18.9-27.8,32.9-35.3
		c21.7-11.6,24.9,3.5,30.9,25.6c6,22.1-1.8,16.8-15.5,29.9"/>
	<path id="XMLID_206_" fill="#283E43" d="M754.775,81.371c-18.7,4.1-46.1-22.7-50.3-40.1c33.1,5.3,60.1,0.3,93.3-1.8
		c1.3,10.8,3,25.1-4.4,33.5"/>
	<path id="XMLID_205_" fill="#283E43" d="M1016.175,112.271c-4.2-13.7-5.9-29.1-4.8-43.5c14.3-2,65.6,28.8,45.1,40.2"/>
	<path id="XMLID_204_" fill="#283E43" d="M1306.575,181.071c-15.6-2.2-20.4-41.3-25-56.2c8.9-6.8,35.6-10.8,45.1-2.6
		c11.5,9.8,1.4,32.9,6.8,45.4"/>
	<path id="XMLID_203_" fill="#283E43" d="M1383.775,112.271c-15.1-2.8-11.9-18.2-11.6-30c10.3-2,20,0.7,25,9.8"/>
	<path id="XMLID_90_" fill="#283E43" d="M1279.775,73.671c-16.4-10,2.2-26.8,16.8-21.4c14.8,5.5,10.1,22.3,10.1,36.6"/>
	<path id="XMLID_89_" fill="#283E43" d="M248.375,563.571c-0.1,30.5-5,59.9-5,90.6c0,18.6-1.2,34-8,50.5c-1.8-8.9-2.3-17.7-2.1-26.9
		"/>
	<path id="XMLID_88_" fill="#283E43" d="M151.775,392.171c0,12.2,8,98.6-11.5,93.8c-0.3-2.8-0.9-7-0.3-9.8"/>
	<path id="XMLID_87_" fill="#283E43" d="M1763.675,321.871c-3.3,24.2,16.8,60.3,23.7,84.2c6,20.6,17.6,51.9,15.4,73.3
		c-7-0.9-11.8-5.1-15.4-10.2"/>
	<path id="XMLID_86_" fill="#283E43" d="M1715.975,779.171c-20-9.1-51.6-98.2-18.1-99.1c16.1-0.4,36.1,37.2,44.7,50.3
		c1.1-18.4-5.2-33,13.7-36.8c12.6-2.5,20.3,4.2,26.9,13.4"/>
	<path id="XMLID_85_" fill="#283E43" d="M1251.375,835.371c-3.1,1.7-8.4,1.9-11.9,3.8c-6.3-13.8,6.3-32.1,15.7-42.5
		c11.2-12.5,11-14.2,25.4-2.9c18.3,14.5,34.1,19.9,26.3,46.6"/>
	<path id="XMLID_84_" fill="#283E43" d="M521.075,809.471c-1.5-7.1,9-32.1,18.5-28.7c4.3,1.6,6.9,18.6,11.7,23.7"/>
	<path id="XMLID_83_" fill="#283E43" d="M614.875,799.271c23.4-22.6,41.5,5.9,45.3,28.5"/>
	<path id="XMLID_82_" fill="#283E43" d="M84.375,684.571c22.4-5.3,45.9-16.7,53.8,10.6c3.6,12.2-3.6,25.5,1.6,36.4"/>
</g>
</svg>
