<?xml version="1.0" encoding="utf-8"?>
<!-- Generator: Adobe Illustrator 19.0.0, SVG Export Plug-In . SVG Version: 6.00 Build 0)  -->
<svg version="1.1" id="Layer_1" xmlns="http://www.w3.org/2000/svg" xmlns:xlink="http://www.w3.org/1999/xlink" x="0px" y="0px"
	 viewBox="0 0 1920 1080" enable-background="new 0 0 1920 1080" xml:space="preserve">
<g id="bottom_x5F_clearing">
	<rect id="XMLID_17_" x="103.633" y="43.615" fill="#3F5F3D" width="1771.411" height="925.454"/>
	<polygon id="XMLID_18_" fill="#3E4850" points="157,265 192,480 302,733 310,682 283,599 289,546 248,383 233.5,282 246,191 
		341,149 299,321 314,410 336,462 335,212 365,178 374,354 360,554 399,637 399,755 434,829 533,829 533,697 504,513 521,357 
		505,213 540,117 574,102 556,230 568,388 554,499 574,678 598,792 641,792 589,506.342 609,319 605,233 617,102 646,102 637,518 
		675,672 670,774 763,758 828,489 844,323 838,95 861,90 880,342 831,732 972,691 955,384 965,314 960,212 898,82 949,57 1001,163 
		1025,317 1025,406 1093,664 1273,615 1230,455 1242,311 1223,108 1265,114 1279,229 1267,455 1325,615 1372,312 1372,215 1394,128 
		1564,163 1580,304 1567,380 1567,443 1614,287 1614,216 1629,224 1682,397 1769,329 1769,400 1714,427 1691,506.342 1652,531 
		1634,388 1592,486 1613,565 256,904 59,574 	"/>
	<polygon id="XMLID_16_" fill="#728544" points="1884,448 1681,483 1563,521 1261,552 1207,583 1044,583 738,704 642,704 618,732 
		507,732 494,753 472,753 414,788 274,818 274,973 1884,973 	"/>
</g>
<g id="fall">
	<polyline id="XMLID_69_" fill="#8E694D" points="1249.762,456.173 1276.587,455.225 1298.534,443.85 1303.412,423.944 
		1288.779,404.985 1259.515,392.661 1226.595,351.902 1220.499,313.984 1226.595,278.911 1240.008,259.952 1264.394,252.368 
		1281.464,262.796 1283.902,282.702 1275.367,303.557 1272.928,321.568 1269.27,347.161 1281.464,370.86 1298.534,382.235 
		1315.604,403.089 1325.358,430.578 1311.946,462.809 1279.025,471.34 1238.788,468.496 	"/>
	<polygon id="XMLID_68_" fill="#231F20" points="1131.804,341.761 1126.209,331.629 1121.35,321.043 1119.696,314.578 
		1117.75,304.585 1120.68,305.98 1123.021,313.603 1121.574,302.028 1124.737,302.5 1127.894,310.282 1126.959,299.888 
		1130.238,301.236 1133.361,311.429 1132.211,298.746 1134.932,299.9 1137.766,306.566 1148.492,319.316 1159.465,343.262 
		1154.172,350.114 	"/>
	<polygon id="XMLID_67_" fill="#231F20" points="1170.451,336.459 1166.109,325.426 1162.582,314.03 1161.768,307.248 
		1161.135,296.848 1163.938,298.656 1165.295,306.705 1165.385,294.768 1168.551,295.672 1170.721,303.991 1171.174,293.32 
		1174.339,295.129 1176.148,305.892 1176.69,292.868 1179.312,294.405 1181.302,301.55 1190.527,315.93 1198.486,341.704 
		1192.155,347.944 	"/>
	<polygon id="XMLID_66_" fill="#A57955" points="1190.286,466.407 1165.434,479.332 1140.203,476.128 1124.57,468.098 
		1118.888,459.36 1112.323,439.47 1110.22,419.912 1113.588,390.734 1120.239,372.359 1125.879,362.223 1132.527,342.131 
		1144.871,337.643 1159.81,342.585 1152.144,367.483 1148.41,385.681 1148.433,395.976 1158.198,388.918 1180.66,381.49 
		1201.611,388.994 1208.002,407.683 1203.941,433.775 	"/>
	<polygon id="XMLID_65_" fill="#231F20" points="996.172,413.303 1000.643,404.299 1002.331,398.083 1018.059,399.032 
		1022.606,396.995 1024.34,391.284 1015.755,392.743 1008.892,391.38 1011.529,386.981 1023.648,375.907 1026.198,371.53 
		1014.537,369.819 1000.906,382.699 1008.918,365.852 1010.424,357.273 996.782,363.379 992.135,375.833 987.692,361.902 
		982.345,366.669 981.306,385.617 971.44,398.063 	"/>
	<polygon id="XMLID_64_" fill="#A57955" points="889.057,487.233 887.49,501.159 889.376,504.273 896.042,508.959 908.958,515.181 
		916.472,513.184 928.476,510.171 943.917,500.184 954.719,485.346 963.62,471.234 995.512,415.33 998.441,406.111 994.506,397.856 
		988.237,391.015 980.558,390.984 972.033,397.634 961.792,412.345 945.779,435.444 930.27,451.642 913.654,464.256 897.18,473.591 
			"/>
	<polygon id="XMLID_63_" fill="#231F20" points="957.606,398.138 957.063,388.099 955.471,381.859 969.627,374.939 972.581,370.927 
		971.278,365.103 964.524,370.599 957.882,372.793 958.008,367.665 963.103,352.06 963.168,346.995 952.175,351.246 946.655,369.17 
		945.331,350.562 942.418,342.353 933.552,354.386 935.639,367.514 924.913,357.576 922.607,364.36 931.034,381.361 
		928.575,397.053 	"/>
	<polyline id="XMLID_62_" fill="#A97C50" points="826.863,592.688 864.709,609.373 881.394,614.256 898.486,620.767 932.67,619.953 
		959.121,620.767 985.98,623.209 1050.685,617.105 1146.047,604.574 1203.256,566.579 1253.072,525.252 1268.273,509.646 
		1274.229,497.418 1289.373,474.309 1288.88,437.676 1268.89,408.868 1239.629,379.688 1210.328,363.043 1175.365,374.427 
		1142.532,393.255 1119.308,410.289 1090.107,424.941 1052.719,435.2 1006.327,444.152 962.377,458.803 909.473,468.163 
		877.731,468.163 	"/>
	<polyline id="XMLID_61_" fill="#A97C50" points="826.951,591.327 820.81,587.324 811.556,586.038 807.996,581.2 802.844,572.318 
		789.998,569.626 783.865,564.765 773.568,546.138 770.353,531.78 764.052,526.402 757.236,521.193 746.939,502.566 751.33,491.452 
		752.238,476.616 756.343,459.322 762.22,454.571 771.343,442.214 786.355,433.084 800.781,431.844 811.128,435.627 
		825.483,442.108 834.92,442.194 840.944,430.837 852.029,428.966 858.429,432.885 862.398,439.87 871.141,450.16 872.361,457.465 
		879.738,467.057 899.481,484.911 907.111,485.582 927.897,486.043 	"/>
	<polygon id="XMLID_60_" fill="#231F20" points="799.442,456.37 795.552,450.071 796.024,445.357 812.082,443.873 823.056,444.745 
		828.557,443.68 838.947,433.479 844.368,431.727 849.492,434.348 851.76,439.602 850.384,449.456 845.651,460.396 845.035,462.021 
		840.047,463.348 833.29,460.969 829.062,458.914 824.53,457.243 	"/>
	<polygon id="XMLID_59_" fill="#231F20" points="764.03,472.521 774.497,481.968 780.153,482.706 786.957,479.937 788.06,471.882 
		790.355,464.866 792.908,457.769 790.965,454.405 785.75,452.384 777.254,452.564 767.9,452.736 758.765,457.113 760.41,464.851 	
		"/>
	<polygon id="XMLID_58_" fill="#231F20" points="800.01,541.013 795.835,550.631 799.252,560.076 806.205,565.813 815.199,565.472 
		819.478,561.808 816.55,550.494 811.742,544.635 	"/>
	<polygon id="XMLID_57_" fill="#EACB94" points="798.232,452.224 807.614,447.322 808.72,444.845 805.453,442.316 799.866,445.11 
		797.31,447.771 	"/>
	<polygon id="XMLID_56_" fill="#F7D99C" points="799.129,453.277 809.432,447.243 811.54,451.038 809.59,453.673 803.344,455.28 
		801.052,455.623 	"/>
	<polygon id="XMLID_55_" fill="#EACB94" points="835.476,437.737 830.868,434.95 831.15,432.292 842.621,435.143 844.921,436.966 
		842.741,440.807 	"/>
	<polygon id="XMLID_54_" fill="#F7D99C" points="846.344,450.192 839.302,441.633 837.692,439.302 847.388,439.305 849.064,443.611 
		847.628,450.632 	"/>
	<polyline id="XMLID_53_" fill="#D89C98" points="839.03,461.966 844.36,460.813 845.523,455.59 840.605,449.196 833.955,444.502 
		827.175,444.697 825.528,446.655 828.646,452.776 830.756,456.655 	"/>
	<polyline id="XMLID_52_" fill="#231F20" points="839.992,584.8 829.682,590.226 825.883,597.28 826.426,605.42 836.736,613.017 
		843.79,613.56 856.271,610.846 858.441,597.823 	"/>
	<polygon id="XMLID_51_" fill="#B2855B" points="897.103,515.752 903.208,528.367 907.277,532.437 923.285,533.794 937.96,529.206 
		943.25,523.509 951.796,514.556 959.528,497.871 960.749,479.559 960.749,462.873 957.9,398.576 955.458,389.216 947.726,384.333 
		938.773,381.891 932.262,385.96 928.6,396.135 927.786,414.04 926.565,442.119 922.089,464.095 907.82,482.244 896.697,499.881 	
		"/>
	<polygon id="XMLID_50_" fill="#B2855B" points="1202.98,468.338 1176.069,476.113 1151.964,468.003 1138.219,457.051 
		1134.369,447.364 1131.851,426.57 1133.64,406.983 1142.689,379.039 1152.83,362.334 1160.357,353.507 1170.832,335.118 
		1183.818,333.15 1197.492,340.939 1185.071,363.838 1177.825,380.944 1175.82,391.041 1186.784,386.046 1210.269,383.189 
		1229.332,394.671 1231.916,414.253 1222.796,439.033 	"/>
	
		<ellipse id="XMLID_49_" transform="matrix(-0.3535 -0.9354 0.9354 -0.3535 567.3563 1503.9176)" fill="#FFFFFF" cx="803.365" cy="555.906" rx="6.104" ry="4.341"/>
	
		<linearGradient id="XMLID_23_" gradientUnits="userSpaceOnUse" x1="761.8474" y1="749.4885" x2="765.4702" y2="1110.5924" gradientTransform="matrix(1 0 0 -1 0 1080)">
		<stop  offset="0" style="stop-color:#231F20;stop-opacity:0.5"/>
		<stop  offset="0.9681" style="stop-color:#272324;stop-opacity:0"/>
	</linearGradient>
	<rect id="XMLID_47_" x="758.975" fill="url(#XMLID_23_)" width="8.718" height="364.734"/>
	
		<linearGradient id="XMLID_24_" gradientUnits="userSpaceOnUse" x1="802.1332" y1="786.9429" x2="804.9154" y2="1064.2631" gradientTransform="matrix(1 0 0 -1 0 1080)">
		<stop  offset="0" style="stop-color:#231F20;stop-opacity:0.5"/>
		<stop  offset="0.9681" style="stop-color:#272324;stop-opacity:0"/>
	</linearGradient>
	<rect id="XMLID_46_" x="802.885" fill="url(#XMLID_24_)" width="1.661" height="270.82"/>
	
		<linearGradient id="XMLID_25_" gradientUnits="userSpaceOnUse" x1="1259.6545" y1="837.3795" x2="1262.033" y2="1074.4421" gradientTransform="matrix(1 0 0 -1 0 1080)">
		<stop  offset="0" style="stop-color:#231F20;stop-opacity:0.5"/>
		<stop  offset="0.9681" style="stop-color:#272324;stop-opacity:0"/>
	</linearGradient>
	<rect id="XMLID_45_" x="1257.853" fill="url(#XMLID_25_)" width="6.642" height="182.324"/>
	
		<linearGradient id="XMLID_28_" gradientUnits="userSpaceOnUse" x1="1002.6946" y1="763.6671" x2="1005.8649" y2="1079.6697" gradientTransform="matrix(1 0 0 -1 0 1080)">
		<stop  offset="0" style="stop-color:#231F20;stop-opacity:0.5"/>
		<stop  offset="0.9681" style="stop-color:#272324;stop-opacity:0"/>
	</linearGradient>
	<rect id="XMLID_44_" x="1001.17" fill="url(#XMLID_28_)" width="6.227" height="315.972"/>
	
		<linearGradient id="XMLID_29_" gradientUnits="userSpaceOnUse" x1="900.1078" y1="761.4653" x2="903.3076" y2="1080.3979" gradientTransform="matrix(1 0 0 -1 0 1080)">
		<stop  offset="0" style="stop-color:#231F20;stop-opacity:0.5"/>
		<stop  offset="0.9681" style="stop-color:#272324;stop-opacity:0"/>
	</linearGradient>
	<rect id="XMLID_42_" x="900.852" fill="url(#XMLID_29_)" width="1.66" height="323.194"/>
	
		<linearGradient id="XMLID_31_" gradientUnits="userSpaceOnUse" x1="836.9683" y1="765.4525" x2="842.3858" y2="1305.4491" gradientTransform="matrix(1 0 0 -1 0 1080)">
		<stop  offset="0" style="stop-color:#231F20;stop-opacity:0.5"/>
		<stop  offset="0.9681" style="stop-color:#272324;stop-opacity:0"/>
	</linearGradient>
	<rect id="XMLID_37_" x="837.755" y="7.139" fill="url(#XMLID_31_)" width="1.66" height="292.577"/>
	
		<linearGradient id="XMLID_32_" gradientUnits="userSpaceOnUse" x1="952.1203" y1="1052.2229" x2="952.3607" y2="1076.1879" gradientTransform="matrix(1 0 0 -1 0 1080)">
		<stop  offset="0" style="stop-color:#231F20;stop-opacity:0.5"/>
		<stop  offset="0.9681" style="stop-color:#272324;stop-opacity:0"/>
	</linearGradient>
	<rect id="XMLID_27_" x="949.006" fill="url(#XMLID_32_)" width="6.642" height="14.364"/>
	
		<linearGradient id="XMLID_33_" gradientUnits="userSpaceOnUse" x1="1101.7937" y1="782.4008" x2="1104.9709" y2="1099.0992" gradientTransform="matrix(1 0 0 -1 0 1080)">
		<stop  offset="0" style="stop-color:#231F20;stop-opacity:0.5"/>
		<stop  offset="0.9681" style="stop-color:#272324;stop-opacity:0"/>
	</linearGradient>
	<rect id="XMLID_26_" x="1100.109" fill="url(#XMLID_33_)" width="6.642" height="269.015"/>
	
		<linearGradient id="XMLID_34_" gradientUnits="userSpaceOnUse" x1="1205.7253" y1="830.0899" x2="1207.8878" y2="1045.6483" gradientTransform="matrix(1 0 0 -1 0 1080)">
		<stop  offset="0" style="stop-color:#231F20;stop-opacity:0.5"/>
		<stop  offset="0.9681" style="stop-color:#272324;stop-opacity:0"/>
	</linearGradient>
	<rect id="XMLID_22_" x="1204.719" fill="url(#XMLID_34_)" width="4.981" height="203.997"/>
	
		<linearGradient id="XMLID_35_" gradientUnits="userSpaceOnUse" x1="1136.7456" y1="796.0659" x2="1139.0714" y2="1027.8986" gradientTransform="matrix(1 0 0 -1 0 1080)">
		<stop  offset="0" style="stop-color:#231F20;stop-opacity:0.5"/>
		<stop  offset="0.9681" style="stop-color:#272324;stop-opacity:0"/>
	</linearGradient>
	<rect id="XMLID_21_" x="1136.638" fill="url(#XMLID_35_)" width="3.321" height="258.179"/>
	
		<linearGradient id="XMLID_36_" gradientUnits="userSpaceOnUse" x1="1226.1708" y1="805.5161" x2="1229.6923" y2="1156.5286" gradientTransform="matrix(1 0 0 -1 0 1080)">
		<stop  offset="0" style="stop-color:#231F20;stop-opacity:0.5"/>
		<stop  offset="0.9681" style="stop-color:#272324;stop-opacity:0"/>
	</linearGradient>
	<rect id="XMLID_20_" x="1227.965" fill="url(#XMLID_36_)" width="0" height="191.355"/>
	
		<linearGradient id="XMLID_38_" gradientUnits="userSpaceOnUse" x1="1072.1489" y1="859.1134" x2="1074.1522" y2="1058.7911" gradientTransform="matrix(1 0 0 -1 0 1080)">
		<stop  offset="0" style="stop-color:#231F20;stop-opacity:0.5"/>
		<stop  offset="0.9681" style="stop-color:#272324;stop-opacity:0"/>
	</linearGradient>
	<rect id="XMLID_19_" x="1071.881" fill="url(#XMLID_38_)" width="3.321" height="164.265"/>
</g>
<g id="top_x5F_forest">
	<path id="XMLID_30_" fill="#1E542A" d="M0,0v1080h1920V0H0z M572.109,129.437l140.651-14.836l-175.326,50.777L572.109,129.437z
		 M365.877,200.014l11.198,4.057l2.517-28.359l2.202-3.901l38.3-26.339l14.761-1.557l78.744,32.831l-185.788,90.717L365.877,200.014
		z M192.049,209.168l56.226,6.303l46-41.4l8.636,3.129l-31.536,79.371l-5.716,27.074l-81.25,13.702L192.049,209.168z
		 M84.775,567.071l-3.333,2.312l5.874-37.764l4.433,43.164L84.775,567.071z M198.307,657.732l-13.682-5.254l-21.85-105.407
		l18.706-215.918l77.76-17.108l-40.965,194.026L198.307,657.732z M1760.356,603.191l-25.381-7.82l-89.1,84.3l-44.1,13.3l-23,88.2
		l-38.803,12.672l-20.197-21.072l-40.3,10l-40.3-40.2l-94,36.9l-80.5-36.9l-57.1,28.5h-60.5l-53.7,57.1l-63.8-42.8l-102.6-11.4
		l-43.4,32.3l-75.6-35.2l-90.6,60.4l-65.5-70.5l-70.5,6.7l-35.2-35.2l-141.433,67.6h-13.067l-32.7-63.6l-103.498,12.136
		l13.798-213.736l44.495-232.824l71.705-15.776l176.3-85.6l276.252-80.385l0.248,0.385l7.744-2.71l85.587-24.904l46.49-4.52
		l16.279,43.834h71.992l-8.292,20.1l52.254,7.112l11.646,16.988l22.799-12.3l0.001,0l59.4,31.9l43.2-44.9l51.9,66.3l75.1-41.5
		l19.6,39.5l77-0.7l8.967-24.238l78.134,43.038l57.8,19.8l104.3,86.9l45.5,138.9L1760.356,603.191z"/>
	<path id="XMLID_15_" fill="#496B44" d="M478.575,120.971c-11.8,1.6-27.8-13.2-29.9-25.2c-3.1-17.5,18.9-27.8,32.9-35.3
		c21.7-11.6,24.9,3.5,30.9,25.6s-1.8,16.8-15.5,29.9"/>
	<path id="XMLID_14_" fill="#496B44" d="M754.775,81.371c-18.7,4.1-46.1-22.7-50.3-40.1c33.1,5.3,60.1,0.3,93.3-1.8
		c1.3,10.8,3,25.1-4.4,33.5"/>
	<path id="XMLID_13_" fill="#496B44" d="M1016.175,112.271c-4.2-13.7-5.9-29.1-4.8-43.5c14.3-2,65.6,28.8,45.1,40.2"/>
	<path id="XMLID_12_" fill="#496B44" d="M1306.575,181.071c-15.6-2.2-20.4-41.3-25-56.2c8.9-6.8,35.6-10.8,45.1-2.6
		c11.5,9.8,1.4,32.9,6.8,45.4"/>
	<path id="XMLID_11_" fill="#496B44" d="M1383.775,112.271c-15.1-2.8-11.9-18.2-11.6-30c10.3-2,20,0.7,25,9.8"/>
	<path id="XMLID_10_" fill="#496B44" d="M1279.775,73.671c-16.4-10,2.2-26.8,16.8-21.4c14.8,5.5,10.1,22.3,10.1,36.6"/>
	<path id="XMLID_9_" fill="#496B44" d="M248.375,563.571c-0.1,30.5-5,59.9-5,90.6c0,18.6-1.2,34-8,50.5c-1.8-8.9-2.3-17.7-2.1-26.9"
		/>
	<path id="XMLID_8_" fill="#496B44" d="M151.775,392.171c0,12.2,8,98.6-11.5,93.8c-0.3-2.8-0.9-7-0.3-9.8"/>
	<path id="XMLID_7_" fill="#496B44" d="M1763.675,321.871c-3.3,24.2,16.8,60.3,23.7,84.2c6,20.6,17.6,51.9,15.4,73.3
		c-7-0.9-11.8-5.1-15.4-10.2"/>
	<path id="XMLID_6_" fill="#496B44" d="M1715.975,779.171c-20-9.1-51.6-98.2-18.1-99.1c16.1-0.4,36.1,37.2,44.7,50.3
		c1.1-18.4-5.2-33,13.7-36.8c12.6-2.5,20.3,4.2,26.9,13.4"/>
	<path id="XMLID_5_" fill="#496B44" d="M1251.375,835.371c-3.1,1.7-8.4,1.9-11.9,3.8c-6.3-13.8,6.3-32.1,15.7-42.5
		c11.2-12.5,11-14.2,25.4-2.9c18.3,14.5,34.1,19.9,26.3,46.6"/>
	<path id="XMLID_4_" fill="#496B44" d="M521.075,809.471c-1.5-7.1,9-32.1,18.5-28.7c4.3,1.6,6.9,18.6,11.7,23.7"/>
	<path id="XMLID_3_" fill="#496B44" d="M614.875,799.271c23.4-22.6,41.5,5.9,45.3,28.5"/>
	<path id="XMLID_2_" fill="#496B44" d="M84.375,684.571c22.4-5.3,45.9-16.7,53.8,10.6c3.6,12.2-3.6,25.5,1.6,36.4"/>
</g>
</svg>
