<?xml version="1.0" encoding="utf-8"?>
<!-- Generator: Adobe Illustrator 19.0.0, SVG Export Plug-In . SVG Version: 6.00 Build 0)  -->
<svg version="1.1" id="Layer_1" xmlns="http://www.w3.org/2000/svg" xmlns:xlink="http://www.w3.org/1999/xlink" x="0px" y="0px"
	 viewBox="0 0 1920 1080" enable-background="new 0 0 1920 1080" xml:space="preserve">
<g id="bottom_x5F_forest">
	<rect id="XMLID_25_" x="66.245" y="43.071" fill="#A4D7F4" width="1806.4" height="976.5"/>
	<path id="XMLID_24_" fill="#8CC640" d="M824.145,797.871c-22.4-36.7-24.7-82.2-20.4-124.9c3.8-38.1,12.2-75.9,25.1-112
		c1.1-3.1,2.3-6.2,4.3-8.7c4.7-5.8,12.9-7.2,20.4-8.1c32.8-3.7,65.9-4.8,98.8-3c3.3-14.3,11.6-27.3,23.2-36.3
		c2.4-1.8,5.2-3.5,8.1-3.2c4.6,0.6,7.1,5.7,7.4,10.3s-0.8,9.3,0.3,13.7c6.8-10.4,21.2-11.9,33.6-11.5c13,0.5,25.9,1.9,38.7,4.2
		c14.2,2.6,111.7,26,104.8-9c-0.9-4.6-4.7-8.2-7.5-12c-12-16.2-8.6-38.7-4.6-58.5c15.5-3.6,23,22.6,38.6,12
		c13.9-9.5,17.5-29.3,30.9-39.5c10-7.6,23.7-8.3,34.5-14.8c8.6-5.2,14.8-13.6,21.6-21c6.8-7.4,15.4-14.3,25.5-14.7
		c15.2-0.7,12.7,11.6,20.6,18c8.3,6.8,24.9-0.2,31.6-6c18-15.6,21.8-32.4,28.4-54.4c3.8-12.6,10-25.3,21.2-32.2
		c9.2-5.7,20.5-6.6,30.9-9.6c35.6-10.2,56.4-51.8,95-52.2c6.3,0,12.9,0,18.1,3.5c6.1,4,8.5,12.8,5.4,19.4
		c-14.4,31.1,27.5,30.8,49.1,28.6c3-0.3,6.2-0.8,8.7-2.5c5.3-3.6,6-11,7.7-17.2c5.1-18.6,22.3-30.6,36.9-43.3
		c8.8-7.6,20.9-19.6,22.7-31.7c1.3-8.5-5.1-17.3,6.3-21.5c13-4.8,27.9-11.3,39.3-2c9.1,7.4,19.5,16.6,28,25.3
		c18.7,19,32.3,42.7,42.1,67.3c15.7,39.4,22.5,81.7,33.3,122.8c9.7,37.2,22.7,73.5,30.7,111.1c19.8,92.5,7.9,192-37.2,275.2
		s-124.3,148.3-215.9,171.7c-96.4,24.6-197.7,3.7-297.2,1.3c-48.4-1.2-96.9,1.2-145.2-3.7c-47.8-4.8-94.7-14.9-141.4-25.5
		c-42.9-9.7-84.5-19.7-124.1-39.5C871.545,848.271,842.145,827.471,824.145,797.871z"/>
	<path id="XMLID_23_" fill="#02A64F" d="M1598.945,771.371c12,1.1,37.4,5.9,36.2,21.9c-2.4,31.3-20.4,59.5-42.6,81.6
		c-20.4,20.3-47.9,33.6-67.1,54.7c-18,19.7-38.3,23.2-64.7,26.9c-345.2,48.8-698.3,41.5-1041.2-21.7c-37.7-6.9-75.7-14.7-110.2-31.2
		c-67.6-32.3-116.3-96.2-144.7-165.6S44.273,649.284,35.773,574.784c-4.1-35.9,73.673-127.912,75.773-163.912
		c0.3-4.6,0.8-9.5,3.9-12.8c3.5-3.7,9.1-4.3,14.1-4.5c21.5-0.9,43.1,0.9,64.6,0.2c14.9-0.4,30.1-1.4,43.9-7.1
		c11.4-4.6,21.6-12.4,33.6-14.8c5.3-1.1,10.7-1.1,16-0.9c24.3,0.8,48.5,5,71.7,12.4c2.4,0.7,4.8,1.6,6.5,3.3c3,3,3.1,7.9,2.8,12.2
		c-0.3,3.7-0.8,7.4-2.6,10.6c-1.9,3.3-5.3,5.8-7.1,9.2c-4.4,8.4,1.8,15.5,4.5,23s4.6,15.8,6.2,23.6c2,9.7-0.4,19.6-0.4,29.5
		c0,0.4,0,0.9,0.3,1.2c0.5,0.5,1.3,0.3,2,0.1c3.9-1.3,8.1-1.5,12.2-1.7c11.5-0.5,21.1-1.1,31.9-4.5c11.3-3.5,25-4.9,36.7-3
		c15.4,2.5,29.5,12.2,37.3,25.7c3.5,6.1,6.2,13.2,12.3,16.8c4.5,2.7,10.1,2.7,15.4,2.7c9,0,18.1-0.1,26.7-2.5
		c13.7-3.7,28-13.2,40.8-7.1c13.9,6.5,15.2,26.4,26.7,36.5c6.8,5.9,16.6,7.8,23.4,13.8c5.1,4.5,8.1,10.9,10.5,17.3
		c5.1,13.3,8.7,27.3,10.6,41.4c0.6,4.7,40.6-6.7,45.7-7c20.5-1.3,41.1,5,60.7-4.3c7.8-3.7,14.4-9.5,20.9-15.2
		c8.2-7.2,16.4-14.4,24.6-21.6c5-4.5,11.4-9.3,17.9-7.5c6.2,1.7,9.4,8.6,10.8,14.9s2.2,13.2,6.6,17.9c10.1-10.5,23.4-18,37.6-21.2
		c8.4-1.9,19.1-1.3,23.1,6.3c2.2,4.1,1.5,9.3,3.6,13.6c3.3,6.9,12.8,8.8,20.1,6.5c7.4-2.3,13.2-7.8,19.3-12.5
		c12.7-9.9,27.3-17.5,42.7-22.1c2.1,4.9,4.1,9.7,6.2,14.5c24.2-4.2,51.6-2.3,69.2,14.8c10.1,9.8,16,23.8,27.5,32
		c9,6.3,21,8.3,31.6,5.2c8.3-2.5,15.5-7.8,23.7-10.8c19.5-7.1,37.8,13.4,58.5,13c15.1-0.3,30.2-7.7,44.8-3.7
		c15.6,4.3,25.1,20.7,28,36.6c3,15.9,1.1,32.4,2.8,48.5c10.9,7.1,24.8-2.2,34.4-10.9c9.6-8.8,23.7-17.9,34.4-10.4
		c5.2,3.6,7.4,10.1,9.4,16.1c6.2,18.7,15.6,39.4,34.5,45.1c7.3,2.2,15.2,1.7,22.8,1.3c15.8-1,31.5-1.9,47.3-2.8
		c7.7-0.5,15.9-0.8,22.6,3c6.8,3.9,11,11.4,18,14.7c11.4,5.3,24.2-2.6,35.6-7.9C1559.945,768.771,1578.945,769.571,1598.945,771.371
		z"/>
</g>
<g id="raccoon">
	<path id="XMLID_541_" fill="#877969" d="M720.034,441.853c0,0,28.5,46.8,28.5,75.3c0,28.5-17.6,95.3-17.6,95.3l17.6,21.7
		l-34.809,195.589l-235.941,68.089c0,0-154.15-231.878-154.15-266.978s18.4-39.3,18.4-39.3s-28.4-19.2-18.4-71.1
		s23.4-56.9,23.4-56.9l-10-33.5c0,0-18.4-58.5,3.3-93.7c21.7-35.1,40.1-11.7,40.1-11.7l53.5,15.1l165.6-3.3l103.7-43.5
		c0,0,23.4-3.3,31.8,10c8.4,13.4,10,48.5,3.3,63.6C731.734,381.653,720.034,441.853,720.034,441.853z"/>
	<polygon id="XMLID_540_" fill="#B2A496" points="592.934,522.753 568.334,538.353 570.034,546.153 540.534,550.553 
		542.734,536.653 526.034,520.453 449.034,579.053 488.634,627.553 616.334,622.553 648.134,568.953 	"/>
	<polygon id="XMLID_539_" fill="#594F45" points="596.334,454.253 582.834,492.053 589.634,522.753 639.734,577.353 
		592.934,622.553 531.034,622.553 495.934,622.553 459.134,584.053 531.034,522.753 521.034,473.653 509.234,461.953 
		437.334,470.253 388.834,522.753 367.134,590.753 442.334,634.253 531.034,652.653 551.134,642.553 571.134,652.653 
		618.034,630.853 674.834,614.153 733.434,579.053 744.134,553.453 706.634,515.453 648.134,454.253 	"/>
	<path id="XMLID_538_" fill="#B2A496" d="M592.934,460.253c0,0,16.7-35.1,45.2-33.5s53.5,33.5,53.5,33.5l41.8,33.5v51.8l-13.4,11.7
		l-43.5-34.5l5-30.8l-45.2-21.7L592.934,460.253z"/>
	<polygon id="XMLID_537_" fill="#B2A496" points="509.234,461.953 494.234,478.653 469.134,478.653 452.434,492.053 
		437.334,492.053 393.834,557.253 350.334,568.953 350.334,522.753 420.634,443.553 470.834,435.153 	"/>
	<path id="XMLID_536_" fill="#594F45" d="M703.834,426.753l19.5-46.2c0,0,16.7-65.2-3.3-70.7c-20.1-5.5-88.7,49.3-88.7,49.3
		L703.834,426.753z"/>
	<path id="XMLID_535_" fill="#594F45" d="M429.834,371.653l-47.7-28.4c0,0-19.6-7.5-31.8,6.7c-15.6,18.2,0,58.5,0,58.5l23.4,33.5
		L429.834,371.653z"/>
	<polygon id="XMLID_534_" fill="#594F45" points="363.134,448.253 347.034,463.653 334.234,430.953 330.734,398.353 	"/>
	<polygon id="XMLID_533_" fill="#594F45" points="577.334,546.153 538.834,546.153 521.534,571.253 524.334,589.053 
		537.734,604.653 563.934,604.653 586.734,590.753 586.734,565.653 	"/>
	<path id="XMLID_532_" fill="#594F45" d="M592.934,604.653l-29,5.6l-3.3-8.9h-5v8.9l-34.1-4.5c0,0,25.6,13.4,39,11.7
		C573.934,615.753,592.934,604.653,592.934,604.653z"/>
	<path id="XMLID_531_" d="M504.034,513.953c0,0-8.6-24.4-23-24.4s-29.5,7.6-29.5,7.6l5,1.3c0,0-6.5,17.3-0.7,22.5
		s19.4,13.6,30.2,7.5C496.934,522.353,504.034,513.953,504.034,513.953z"/>
	<path id="XMLID_530_" fill="#FFFFFF" d="M474.334,502.453c0,4,4.2,7.2,9.4,7.2c5.2,0,9.4-3.2,9.4-7.2s-4.2-7.2-9.4-7.2
		S474.334,498.453,474.334,502.453z"/>
	<polygon id="XMLID_529_" fill="#B2A496" points="730.934,612.453 680.634,652.653 599.634,671.053 616.334,702.753 
		589.634,942.953 720.934,832.953 748.434,634.253 	"/>
	<path id="XMLID_528_" fill="#B2A496" d="M342.034,591.553l25.1,36l82,41.8l48.9,13.4l-32.2,26.8h-45.8l62.6,18.4l5.9,195.1
		l-141.5-170c0,0-22.6-48-23.4-122.1C322.834,556.753,342.034,591.553,342.034,591.553z"/>
	<path id="XMLID_527_" d="M595.334,505.753c0,0,8.6-24.4,23-24.4s29.5,7.6,29.5,7.6l-5,1.3c0,0,6.5,17.3,0.7,22.5
		s-19.4,13.6-30.2,7.5S595.334,505.753,595.334,505.753z"/>
	<ellipse id="XMLID_526_" fill="#FFFFFF" cx="627.334" cy="492.553" rx="9.1" ry="7.3"/>
	<g id="XMLID_554_">
		<path id="XMLID_525_" fill="#B2A496" d="M490.834,576.753c0,0-3.5-1-9.5-2.7c-6.1-1.7-14.8-3.9-25.3-6.3
			c-10.5-2.4-22.9-4.9-36.2-6.8c-6.7-0.9-13.6-1.7-20.6-2c-3.5-0.2-7.1-0.2-10.6-0.1c-3.5,0.2-7.2,0.3-10.7,0.5
			c-7.1,0.4-14.3,1.2-21.3,2.3s-13.8,2.4-20.3,4c-6.5,1.7-12.8,3.5-18.6,5.5c-5.8,2-11.2,4.3-16.1,6.6c-9.7,4.6-17.4,9.4-22.5,13.1
			c-2.5,1.9-4.5,3.4-5.7,4.5c-1.3,1.1-1.9,1.7-1.9,1.7s2.4-2.7,7.4-6.6c5-3.9,12.5-9,22.2-13.8s21.6-9.4,34.7-12.8
			c6.6-1.7,13.4-3.1,20.5-4.2c7-1.1,14.2-1.9,21.4-2.4c3.6-0.3,7.2-0.3,10.8-0.5c3.6-0.1,7.2,0,10.8,0.2c7.1,0.4,14.1,1.2,20.8,2.2
			c6.7,1,13.1,2.2,19.2,3.5s11.8,2.6,17,3.9c10.5,2.6,19.1,5.2,25.1,7.1S490.834,576.753,490.834,576.753z"/>
	</g>
	<g id="XMLID_552_">
		<path id="XMLID_524_" fill="#B2A496" d="M473.834,584.753c0,0-3.6-0.5-9.8-1.1c-6.3-0.7-15.2-1.5-26-2.3
			c-10.8-0.7-23.3-1.2-36.8-1c-6.7,0.1-13.7,0.5-20.7,1.2c-3.5,0.4-7,0.9-10.5,1.5c-3.5,0.7-7.1,1.4-10.5,2.2
			c-7,1.5-13.9,3.4-20.6,5.6c-6.7,2.1-13.3,4.5-19.4,7.2c-6.2,2.7-12,5.5-17.5,8.4c-5.4,2.9-10.4,6-14.8,9
			c-8.9,6.1-15.7,12-20.1,16.5c-2.2,2.2-3.9,4.1-5,5.4s-1.6,2-1.6,2s2-3,6.3-7.7c4.3-4.6,10.9-10.8,19.7-17.1s19.8-12.7,32.2-18.1
			c6.2-2.7,12.8-5.2,19.5-7.4c6.8-2.2,13.7-4.2,20.8-5.8c1.8-0.4,3.5-0.8,5.3-1.1s3.5-0.7,5.3-1c3.6-0.6,7.1-1.1,10.7-1.5
			c7.1-0.8,14.1-1,20.9-1.1s13.3,0.1,19.5,0.4s12,0.7,17.4,1.2c10.8,0.9,19.7,2.1,25.9,3
			C470.234,584.153,473.834,584.753,473.834,584.753z"/>
	</g>
	<g id="XMLID_550_">
		<path id="XMLID_523_" fill="#B2A496" d="M481.734,587.453c0,0-3.5-1-9.5-2.7c-6.1-1.7-14.8-3.9-25.3-6.3
			c-10.5-2.4-22.9-4.9-36.2-6.8c-6.7-0.9-13.6-1.7-20.6-2c-3.5-0.2-7.1-0.2-10.6-0.1c-3.5,0.2-7.2,0.3-10.7,0.5
			c-7.1,0.4-14.3,1.2-21.3,2.3s-13.8,2.4-20.3,4c-6.5,1.7-12.8,3.5-18.6,5.5s-11.2,4.3-16.1,6.6c-9.7,4.6-17.4,9.4-22.5,13.1
			c-2.5,1.9-4.5,3.4-5.7,4.5c-1.3,1.1-1.9,1.7-1.9,1.7s2.4-2.7,7.4-6.6c5-3.9,12.5-9,22.2-13.8s21.6-9.4,34.7-12.8
			c6.6-1.7,13.4-3.1,20.5-4.2c7-1.1,14.2-1.9,21.4-2.4c3.6-0.3,7.2-0.3,10.8-0.5c3.6-0.1,7.2,0,10.8,0.2c7.1,0.4,14.1,1.2,20.8,2.2
			c6.7,1,13.1,2.2,19.2,3.5s11.8,2.6,17,3.9c10.5,2.6,19.1,5.2,25.1,7.1C478.334,586.253,481.734,587.453,481.734,587.453z"/>
	</g>
	<g id="XMLID_548_">
		<path id="XMLID_522_" fill="#B2A496" d="M789.834,557.453c0,0-3-0.9-8.2-2.3c-5.3-1.4-12.8-3.3-21.9-5.4
			c-9.1-2.1-19.8-4.2-31.3-5.8c-5.8-0.8-11.7-1.5-17.8-1.8c-3-0.2-6.1-0.2-9.2-0.1c-3.1,0.1-6.2,0.2-9.3,0.5
			c-6.2,0.4-12.3,1-18.4,1.9c-6,0.9-11.9,2.1-17.6,3.5c-5.6,1.4-11,3-16,4.8s-9.7,3.7-13.9,5.7c-8.4,4-15,8-19.4,11.3
			c-4.4,3.2-6.6,5.4-6.6,5.4s2.1-2.3,6.4-5.7s10.8-7.8,19.2-12s18.6-8.2,30-11.1c5.7-1.5,11.6-2.7,17.7-3.6c6.1-1,12.3-1.7,18.5-2.1
			c3.1-0.3,6.2-0.3,9.3-0.4c3.1,0,6.2,0,9.3,0.2c6.2,0.3,12.2,1.1,18,1.9s11.4,1.9,16.6,3c5.2,1.1,10.2,2.3,14.7,3.4
			c9.1,2.3,16.5,4.5,21.7,6.1C786.934,556.353,789.834,557.453,789.834,557.453z"/>
	</g>
	<g id="XMLID_546_">
		<path id="XMLID_521_" fill="#B2A496" d="M792.134,599.453c0,0-2.8-1.4-7.7-3.7s-12-5.5-20.6-9.1s-18.8-7.5-29.8-11.1
			c-5.5-1.8-11.3-3.4-17.3-4.7c-3-0.7-6-1.2-9-1.7c-3-0.4-6.2-0.8-9.2-1.1c-6.1-0.7-12.3-1.1-18.4-1.2c-6.1-0.1-12.1,0-17.9,0.4
			c-5.8,0.5-11.4,1.1-16.6,2c-5.3,0.9-10.2,2-14.6,3.2c-9,2.5-16.2,5.4-21.1,7.8c-4.9,2.4-7.4,4.2-7.4,4.2s2.5-1.9,7.3-4.5
			s11.9-5.9,20.9-8.5c9-2.7,19.8-4.9,31.4-5.9c5.8-0.5,11.9-0.7,18.1-0.6c6.2,0.1,12.4,0.4,18.6,1.1c3.1,0.3,6.2,0.8,9.3,1.2
			c3.1,0.5,6.2,1.1,9.2,1.8c6,1.4,11.8,3.1,17.4,4.9s10.9,3.8,15.8,5.8c5,2,9.6,4,13.9,5.9c8.6,3.8,15.5,7.3,20.4,9.7
			C789.434,597.853,792.134,599.453,792.134,599.453z"/>
	</g>
	<g id="XMLID_544_">
		<path id="XMLID_120_" fill="#B2A496" d="M794.334,632.553c0,0-2.5-1.9-6.9-5.1s-10.8-7.7-18.5-12.8c-7.8-5.2-17-10.9-27.2-16.6
			c-5.1-2.8-10.4-5.5-16-8c-2.8-1.2-5.6-2.3-8.5-3.4c-2.9-0.9-5.9-2-8.8-2.8c-5.9-1.9-11.9-3.4-17.9-4.7s-11.9-2.3-17.6-3
			c-5.8-0.7-11.4-1.1-16.7-1.2c-5.3-0.1-10.4,0-15,0.4c-9.3,0.7-16.9,2.2-22.2,3.6c-5.3,1.4-8.1,2.7-8.1,2.7s2.8-1.4,8-3.1
			c5.2-1.6,12.8-3.5,22.2-4.4c9.3-0.9,20.3-1,32,0.3c5.8,0.6,11.8,1.6,17.8,2.9s12.1,2.8,18.1,4.6c3,0.9,5.9,1.9,8.9,2.9
			c2.9,1.1,5.8,2.2,8.6,3.5c5.6,2.5,11,5.3,16.1,8.2c5.1,2.8,9.9,5.8,14.4,8.7s8.7,5.7,12.5,8.4c7.7,5.3,13.8,10.1,18.1,13.5
			C791.934,630.553,794.334,632.553,794.334,632.553z"/>
	</g>
</g>
<g id="hare">
	<polygon id="XMLID_475_" fill="#AA8B6A" points="988.98,877.773 788.014,857.569 788.903,841.449 791.772,825.37 798.203,796.222 
		801.118,761.229 805.015,718.459 809.693,696.685 815.928,682.688 828.401,663.249 838.534,648.473 849.756,635.971 
		854.585,623.095 859.413,591.709 869.07,565.152 877.118,549.861 885.97,538.594 885.166,519.28 885.166,500.771 883.556,479.042 
		877.118,437.194 894.823,451.679 943.914,416.27 958.399,423.513 982.543,428.341 995.42,428.341 1019.562,423.513 
		1034.048,416.27 1083.138,451.679 1100.844,437.194 1094.406,479.042 1092.796,500.771 1092.796,519.28 1091.991,538.594 
		1100.844,549.861 1108.891,565.152 1118.548,591.709 1123.378,623.095 1128.206,635.971 1139.427,648.473 1149.561,663.249 
		1162.032,682.688 1168.27,696.685 1172.946,718.459 1176.844,761.229 1179.757,796.222 1186.187,825.37 1189.057,841.449 
		1189.945,857.569 	"/>
	<polygon id="XMLID_474_" fill="#A28961" points="959.206,687.479 970.472,700.356 980.933,705.989 987.373,706.794 995.42,705.184 
		1006.686,701.966 1017.148,689.089 988.981,673.799 	"/>
	<polygon id="XMLID_473_" fill="#826C4A" points="1196.306,220.266 1194.389,237.23 1192.116,269.503 1178.249,318.215 
		1164.052,355.667 1150.139,375.399 1141.005,393.38 1130.973,408.166 1116.635,413.418 1107.952,419.309 1072.98,489.575 
		1031.104,461.82 1038.063,397.207 1084.157,294.409 1157.362,237.512 1177.71,217.592 	"/>
	<polyline id="XMLID_472_" fill="#A08153" points="1020.888,441.212 1026.469,413.649 1023.68,373.475 1054.156,314.612 
		1077.154,275.293 1101.501,254.449 1151.07,215.154 1163.705,206.732 1180.691,209.453 1191.219,211.559 1195.595,223.508 
		1183.553,224.667 1170.967,234.697 1138.529,254.168 1118.157,273.283 1103.628,299.472 1095.274,343.999 1094.586,375.421 
		1077.148,412.161 1050.908,459.033 	"/>
	<polygon id="XMLID_471_" fill="#826C4A" points="792.117,213.031 792.631,230.095 792.239,262.445 802.048,312.134 
		813.114,350.628 825.354,371.438 832.976,390.11 841.757,405.673 855.614,412.087 863.783,418.673 892.85,491.581 936.869,467.368 
		935.253,402.401 897.781,296.156 829.508,233.424 810.87,211.898 	"/>
	<polyline id="XMLID_470_" fill="#A08153" points="948.748,447.669 945.455,419.742 951.542,379.934 926.016,318.762 
		906.333,277.681 883.785,254.904 837.62,211.66 825.722,202.227 808.569,203.541 797.903,204.773 792.557,216.32 804.464,218.467 
		816.182,229.5 846.907,251.574 865.636,272.302 877.959,299.6 882.618,344.663 880.716,376.034 895.07,414.086 917.362,462.959 	
		"/>
	<g id="XMLID_498_">
		<polyline id="XMLID_469_" fill="#A28961" points="989.277,685.339 974.302,689.409 952.522,695.873 932.259,696.028 
			919.912,690.593 896.116,671.725 875.257,648.33 862.739,637.206 861.156,622.451 862.07,599.879 867.603,579.445 878.293,556.35 
			884.7,549.781 895.023,537.172 891.237,505.974 892.861,484.292 902.923,466.795 929.257,441.407 952.637,435.124 
			989.277,435.596 1025.917,435.124 1049.297,441.407 1075.632,466.795 1085.694,484.292 1087.317,505.974 1083.531,537.172 
			1093.854,549.781 1100.26,556.35 1110.951,579.445 1116.483,599.879 1117.398,622.451 1115.815,637.206 1103.297,648.33 
			1082.438,671.725 1058.641,690.593 1046.294,696.028 1026.032,695.873 1004.252,689.409 989.277,685.339 		"/>
	</g>
	<polygon id="XMLID_468_" fill="#231F20" points="890.885,501.885 902.612,505.633 913.344,525.462 915.547,541.906 
		899.992,543.399 891.644,538.413 888.462,523.479 887.94,513.703 	"/>
	<g id="XMLID_426_">
		<polygon id="XMLID_467_" fill="#D9BE91" points="989.44,583.404 974.237,588.986 958.674,597.766 954.219,608.604 
			937.514,605.919 914.664,614.691 904.789,623.302 900.684,638.227 896.04,657.952 900.921,664.977 910.412,681.429 
			923.289,689.354 932.259,696.028 947.633,696.135 959.368,692.594 988.528,685.339 990.026,685.339 1019.186,692.594 
			1030.921,696.135 1046.294,696.028 1055.265,689.354 1068.141,681.429 1077.632,664.977 1082.513,657.952 1077.87,638.227 
			1073.763,623.302 1063.889,614.691 1041.04,605.919 1024.336,608.604 1019.879,597.766 1004.316,588.986 989.114,583.404 		"/>
	</g>
	<polygon id="XMLID_466_" fill="#231F20" points="958.455,635.803 986.782,657.608 988.528,685.339 993.856,688.366 
		996.469,657.885 1015.057,643.776 1022.712,633.298 1016.585,630.181 993.276,650.238 962.633,634.651 	"/>
	<polygon id="XMLID_465_" fill="#231F20" points="1086.673,501.885 1074.945,505.633 1064.214,525.462 1062.01,541.906 
		1077.564,543.399 1085.913,538.413 1089.096,523.479 1089.617,513.703 	"/>
	<ellipse id="XMLID_461_" fill="#FFFFFF" cx="1082.342" cy="522.067" rx="4.024" ry="4.785"/>
	<ellipse id="XMLID_460_" fill="#FFFFFF" cx="893.221" cy="519.475" rx="2.414" ry="3.001"/>
</g>
<g id="mouse">
	<path id="XMLID_570_" fill="#A7A9AC" d="M1426.991,533.3c0,0-17-1.7-22.6-16.6c-4.7-12.5-25.3-74.2-73.9-36c-42.2,33.1-8,91-5,98.9
		s16,17.1,16,17.1L1426.991,533.3z"/>
	<path id="XMLID_569_" fill="#A7A9AC" d="M1469.391,584.7c0,0,2-4.9,4.2-18s-2.2-15.6-3.8-28c-1.6-12.4,11.5-38.6,30.1-40.8
		s44.8,3.3,51.4,16.4c6.6,13.1,4.4,56.9,0,66.7s-22.1,27.8-35,31.3s-38.3,0-38.3,0L1469.391,584.7z"/>
	<path id="XMLID_568_" fill="#BCBEC0" d="M1278.391,807.6c0,0-9.9-152.9,10.8-171.6c20.7-18.7,69.9-113.5,132-104.7
		c62.2,8.9,101.5,86.9,108.4,112.6c6.9,25.6,48.3,163.7,48.3,163.7H1278.391z"/>
	<polygon id="XMLID_567_" fill="#939598" points="1278.391,808.6 1286.291,752.3 1317.991,716.3 1331.591,747.3 1353.391,728.6 
		1349.491,700 1369.891,677.3 1387.291,669.2 1418.691,680.3 1426.191,695.1 1433.591,716.3 1450.891,728.6 1455.691,749.3 
		1483.391,764.1 1497.691,754.6 1516.891,776.9 1524.791,808.6 	"/>
	<path id="XMLID_566_" fill="#A7A9AC" d="M1352.091,585.8v10.8l-10.6,20.8l8,18.2l27.5-15.8l10.3-27.6l17.2-10.7l11.9,16l17.2-6
		c0,0,5.7,10.8,7.6,11.9c1.8,1.1-0.6,23.1-0.6,23.1v20.8l24.5,17.6l32.7,10.4l13.2-15v-24.8l-8.8-28.1l2-4.1l-30.1-64.4l-11.8-3.4
		l-44.7-5.6l-28.7,0.4l-39.3,32.3v19.1"/>
	<path id="XMLID_565_" fill="#A7A9AC" d="M1440.491,537.4c0,0,13.8,3.9,21.7,0c7.9-3.9,20.4-21.1,20.4-21.1l13.8,1.8l-14,52.4
		l-41.9-21.7V537.4z"/>
	<path id="XMLID_564_" fill="#E6E7E8" d="M1373.991,568c0,0,10.7-23.7,14.8-35.7c9.9-28.8-12.8-86.5-52.2-50
		c-39.4,36.5-17.7,72.9-14.8,80.8c3,7.9,23.6,29.6,23.6,29.6L1373.991,568z"/>
	<path id="XMLID_563_" fill="#E6E7E8" d="M1473.691,582.3c0,0,1.8-4.4,3.8-16.2s-2-14.1-3.4-25.3c-1.5-11.2,10.3-34.8,27.1-36.8
		c16.8-2,40.4,3,46.3,14.8s3.9,51.2,0,60.1c-3.9,8.9-19.9,25-31.5,28.2s-34.5,0-34.5,0L1473.691,582.3z"/>
	<polygon id="XMLID_562_" fill="#ECABBF" points="1372.491,699.1 1380.391,695.1 1387.291,699.1 1399.091,695.1 1402.091,704 
		1391.091,716.3 1382.891,713.8 1375.491,713.8 	"/>
	<path id="XMLID_561_" d="M1350.791,631.9l11.8-3l3.8-2.6l6.1-10.2l-1.3-11.5c0,0-5.9-1-10.8,1s-9.7,8-10.5,10.8s-0.2,8,0,8.9
		C1349.991,626.1,1350.791,631.9,1350.791,631.9z"/>
	<path id="XMLID_560_" d="M1450.891,620.6l-7.2,5.7l-1.5,7.4l-1,8.4l12.6,8l9.5,1.6l3.3-1.8v-2.6c0,0,4.1-8,1.5-14.5
		c-2.6-6.4-7.8-8.9-9.7-9.5C1456.491,622.7,1450.891,620.6,1450.891,620.6z"/>
	<path id="XMLID_559_" fill="#FFFFFF" d="M1356.891,615.7c0,0-0.4-2.3,2.2-3.7s10.8-0.9,10.8-0.9l-2.8,4.5c0,0-6-0.3-6.1,1.7
		s2.9,2.6,2.9,2.6l-9.3,2.5c0,0-1.8-1.4-1-3.7C1354.391,616.4,1356.891,615.7,1356.891,615.7z"/>
	<path id="XMLID_558_" fill="#FFFFFF" d="M1446.391,630.2l5.4-4.1c0,0,9.9,3.2,11.5,5.9s2.2,3.6,1.2,4.1s-6.5,1.4-7.1,0
		s-1.7-3.3-1.7-3.3s-2.1,0-3.4-0.1C1451.091,632.7,1446.391,630.2,1446.391,630.2z"/>
	<polygon id="XMLID_557_" fill="#E6E7E8" points="1361.691,695.1 1372.491,713.3 1384.791,719.8 1399.091,719.8 1423.291,702.5 
		1433.591,705.7 1429.191,719.8 1404.491,728.6 1356.291,716.3 1352.091,705.7 1352.091,691.7 	"/>
	<path id="XMLID_556_" fill="#414042" d="M1414.391,682.7c0,0,1.8-1.6,5.1-4.4c3.3-2.8,7.9-6.7,13.6-11.3c2.9-2.3,6-4.7,9.3-7.3
		s6.8-5.2,10.5-7.9s7.6-5.4,11.5-8.1c2-1.4,4-2.7,6.1-4c2-1.3,4.1-2.6,6.2-3.9c2.1-1.2,4.2-2.5,6.4-3.6c2.1-1.1,4.3-2.3,6.5-3.2
		c4.4-2,8.8-3.7,13.1-5.2c8.7-3,17-4.9,24.2-6.4c7.2-1.4,13.3-2.2,17.5-2.7s6.7-0.6,6.7-0.6s-2.4,0.2-6.7,0.8
		c-4.2,0.6-10.2,1.6-17.4,3.1c-7.2,1.5-15.4,3.7-24,6.6c-4.3,1.5-8.7,3.2-13,5.2c-2.2,1-4.3,2.1-6.5,3.2c-2.1,1.2-4.2,2.4-6.3,3.6
		c-2.1,1.3-4.2,2.5-6.2,3.8s-4.1,2.6-6.1,4c-4,2.7-7.8,5.4-11.6,8.1c-3.7,2.7-7.3,5.3-10.6,7.8c-3.3,2.5-6.5,4.9-9.4,7.2
		c-5.8,4.5-10.5,8.3-13.9,11C1416.291,681.2,1414.391,682.7,1414.391,682.7z"/>
	<path id="XMLID_555_" fill="#414042" d="M1418.391,688.9c0,0,2.7-1.4,7.6-3.8c2.4-1.2,5.4-2.6,8.7-4.2c3.4-1.6,7.2-3.4,11.4-5.3
		c4.2-1.9,8.8-4,13.6-6.1c2.4-1,4.9-2.1,7.5-3.2c2.6-1.1,5.2-2.1,7.8-3.2c2.7-1.1,5.4-2.1,8.2-3.2c2.8-1,5.6-2.1,8.4-3.2
		c2.9-1,5.7-2,8.6-3c2.9-0.9,5.8-1.9,8.8-2.8c3-0.8,5.9-1.8,8.9-2.5c1.5-0.4,3-0.7,4.5-1.1c1.5-0.4,3-0.6,4.5-0.9
		c6-1.1,11.9-1.9,17.6-2.5c11.5-1.1,22.3-1.2,31.5-0.9s16.9,0.9,22.2,1.5c5.3,0.6,8.4,1,8.4,1s-3-0.4-8.4-0.9s-13-0.9-22.2-1.1
		c-9.2-0.2-20,0.1-31.4,1.2c-5.7,0.6-11.6,1.4-17.5,2.5c-1.5,0.3-3,0.6-4.4,0.9c-1.5,0.3-3,0.7-4.4,1.1c-3,0.7-5.9,1.7-8.8,2.5
		c-2.9,0.9-5.8,1.9-8.8,2.8c-2.9,1-5.8,2-8.6,3c-2.8,1.1-5.6,2.1-8.4,3.1c-2.8,1.1-5.5,2.1-8.2,3.2c-2.7,1.1-5.3,2.1-7.9,3.2
		c-2.6,1.1-5.1,2.1-7.5,3.1c-4.9,2.1-9.4,4-13.6,5.9c-8.4,3.7-15.4,6.9-20.3,9.2C1421.191,687.6,1418.391,688.9,1418.391,688.9z"/>
	<path id="XMLID_553_" fill="#414042" d="M1421.691,694.1c0,0,2.5-0.8,7-2.2c2.2-0.7,4.9-1.5,8-2.4s6.6-1.9,10.5-2.9
		c3.8-1,8-2.1,12.4-3.2c2.2-0.5,4.5-1.1,6.8-1.7c2.3-0.5,4.7-1.1,7.1-1.6s4.9-1,7.4-1.6c2.5-0.5,5.1-1,7.6-1.5
		c2.6-0.5,5.2-0.9,7.8-1.4c2.6-0.4,5.2-0.8,7.9-1.2c2.6-0.3,5.3-0.7,7.9-0.9s5.3-0.3,7.9-0.4c5.2-0.1,10.4,0.1,15.4,0.4
		c9.9,0.7,19.1,2.2,26.9,3.7s14.2,3.2,18.7,4.5s7,2.1,7,2.1s-2.5-0.8-7-1.9c-4.5-1.2-11-2.6-18.8-4.1c-7.8-1.4-17-2.8-26.9-3.4
		c-4.9-0.3-10.1-0.5-15.3-0.3c-2.6,0.1-5.2,0.2-7.8,0.4c-2.6,0.2-5.2,0.6-7.9,0.9c-2.6,0.3-5.2,0.7-7.8,1.1
		c-2.6,0.4-5.2,0.9-7.8,1.3c-2.6,0.5-5.1,1-7.6,1.5s-5,1-7.4,1.5s-4.8,1.1-7.1,1.6c-2.3,0.5-4.6,1.1-6.8,1.6
		c-4.4,1.1-8.6,2.1-12.5,3.1c-7.7,2-14.1,3.7-18.6,4.9C1424.191,693.4,1421.691,694.1,1421.691,694.1z"/>
	<path id="XMLID_551_" fill="#414042" d="M1379.091,678.1c0,0-0.4-0.5-1.2-1.5c-0.8-1-2-2.3-3.5-4.2c-1.5-1.8-3.2-4-5.2-6.6
		s-4.2-5.5-6.7-8.6s-5.3-6.4-8.4-9.7c-3.2-3.3-6.6-6.7-10.3-10c-1.8-1.7-3.7-3.4-5.7-5.1c-1.9-1.7-3.9-3.4-5.9-5.1
		c-2-1.7-4-3.4-6.1-5c-2-1.7-4.1-3.4-6.2-5c-2.1-1.7-4.2-3.3-6.2-5c-2.1-1.6-4.2-3.2-6.4-4.7c-4.3-3-8.7-5.6-13.1-8
		c-8.8-4.8-17.3-8.6-24.7-11.5c-7.4-2.9-13.7-5.1-18.2-6.5c-4.4-1.4-7-2.1-7-2.1s2.6,0.6,7.1,1.9c4.5,1.3,10.9,3.3,18.3,6.1
		c7.5,2.9,16.1,6.5,24.9,11.3c4.4,2.4,8.9,5,13.2,8c2.2,1.5,4.3,3,6.4,4.7c2.1,1.6,4.2,3.3,6.3,5c2.1,1.7,4.1,3.4,6.2,5
		c2.1,1.7,4.1,3.4,6.1,5.1c2,1.7,4,3.4,5.9,5.1c1.9,1.7,3.8,3.4,5.7,5.1c3.7,3.4,7.1,6.8,10.2,10.2s5.9,6.7,8.3,9.9
		c2.5,3.2,4.6,6.1,6.5,8.7c1.9,2.6,3.6,4.9,5.1,6.7c1.4,1.9,2.6,3.3,3.4,4.2C1378.691,677.6,1379.091,678.1,1379.091,678.1z"/>
	<path id="XMLID_549_" fill="#414042" d="M1378.691,687.6c0,0-2.6-1.9-7.2-5.1c-4.6-3.2-11.3-7.8-19.3-13.2c-4-2.7-8.4-5.6-13-8.6
		c-2.3-1.5-4.7-3-7.2-4.6c-2.5-1.5-5-3.1-7.5-4.7c-2.6-1.6-5.2-3.2-7.9-4.8c-2.7-1.6-5.4-3.2-8.1-4.8c-2.8-1.5-5.6-3.1-8.4-4.7
		c-2.8-1.5-5.7-3-8.5-4.5c-2.9-1.4-5.8-2.9-8.7-4.2c-1.5-0.7-2.9-1.3-4.4-1.9c-1.5-0.6-2.9-1.2-4.4-1.8c-5.9-2.3-11.9-4.2-17.7-5.8
		c-11.6-3.2-22.7-5.4-32.3-6.9c-9.5-1.5-17.6-2.4-23.2-2.9s-8.8-0.6-8.8-0.6s3.2,0.1,8.9,0.4c5.6,0.4,13.7,1.1,23.3,2.5
		s20.7,3.4,32.4,6.6c5.8,1.6,11.8,3.5,17.8,5.7c1.5,0.6,3,1.1,4.5,1.8c1.5,0.6,3,1.2,4.4,1.9c2.9,1.3,5.8,2.8,8.7,4.2
		c2.9,1.5,5.7,3,8.6,4.5c2.8,1.6,5.6,3.1,8.4,4.7c2.7,1.6,5.5,3.2,8.1,4.8c2.7,1.6,5.3,3.2,7.9,4.8s5.1,3.2,7.5,4.8s4.8,3.1,7.1,4.7
		c4.6,3.1,9,6,13,8.7s7.6,5.3,10.8,7.6c3.2,2.3,6,4.3,8.3,6C1376.091,685.6,1378.691,687.6,1378.691,687.6z"/>
	<path id="XMLID_547_" fill="#414042" d="M1372.691,687.9c0,0-2.7-0.9-7.4-2.5c-4.7-1.5-11.5-3.7-19.6-6.1
		c-4.1-1.2-8.5-2.5-13.2-3.9c-2.3-0.7-4.8-1.3-7.2-2c-2.5-0.7-5-1.3-7.6-2s-5.2-1.3-7.8-2c-2.7-0.6-5.3-1.3-8.1-1.9
		c-2.7-0.6-5.5-1.2-8.2-1.8c-2.8-0.5-5.5-1.1-8.3-1.6c-2.8-0.4-5.6-1-8.4-1.3c-1.4-0.2-2.8-0.3-4.2-0.5c-1.4-0.2-2.8-0.2-4.2-0.4
		c-5.5-0.4-11-0.5-16.3-0.3c-10.6,0.3-20.5,1.2-28.9,2.4s-15.4,2.5-20.2,3.5c-4.9,1-7.6,1.7-7.6,1.7s2.7-0.8,7.6-1.9
		c4.8-1.1,11.8-2.6,20.2-3.9c8.4-1.3,18.3-2.4,28.9-2.7c5.3-0.2,10.8-0.1,16.4,0.3c2.8,0.2,5.6,0.4,8.4,0.8c2.8,0.3,5.6,0.9,8.4,1.3
		c2.8,0.5,5.6,1.1,8.4,1.6c2.8,0.6,5.5,1.2,8.2,1.8c2.7,0.7,5.4,1.3,8.1,1.9c2.6,0.7,5.3,1.4,7.8,2c2.6,0.7,5.1,1.4,7.6,2.1
		c2.5,0.7,4.9,1.4,7.2,2.1c4.7,1.4,9.1,2.7,13.1,4c4.1,1.3,7.8,2.5,11,3.6c3.3,1.1,6.1,2.1,8.5,2.9
		C1369.991,687,1372.691,687.9,1372.691,687.9z"/>
	<path id="XMLID_545_" fill="#414042" d="M1417.691,697.7c0,0,2.3-0.2,6.4-0.6c4.1-0.3,9.9-0.8,16.8-1.2c3.5-0.2,7.3-0.4,11.3-0.5
		c2-0.1,4.1-0.1,6.2-0.2c2.1,0,4.2-0.1,6.4-0.1c2.2,0,4.4,0,6.6,0s4.5,0.1,6.8,0.1c2.3,0.1,4.6,0.2,6.9,0.3s4.6,0.3,7,0.4
		c2.3,0.2,4.6,0.4,7,0.7c2.3,0.3,4.6,0.7,6.9,1.1c4.5,0.9,8.9,2,13.1,3.2c8.4,2.4,16,5.4,22.4,8.2s11.6,5.4,15.2,7.3
		c3.6,1.9,5.6,3.1,5.6,3.1s-2-1.1-5.7-2.9c-3.6-1.8-8.9-4.3-15.3-6.9c-6.4-2.7-14.1-5.5-22.4-7.9c-4.2-1.2-8.5-2.3-13-3.1
		c-2.3-0.4-4.5-0.8-6.8-1.1s-4.6-0.5-6.9-0.7s-4.6-0.3-6.9-0.5c-2.3-0.1-4.6-0.2-6.9-0.3c-2.3,0-4.6-0.1-6.8-0.1c-2.2,0-4.5,0-6.6,0
		c-2.2,0-4.3,0-6.4,0s-4.1,0.1-6.1,0.1c-4,0.1-7.8,0.2-11.3,0.3c-7,0.3-12.8,0.6-16.8,0.8
		C1419.991,697.6,1417.691,697.7,1417.691,697.7z"/>
	<path id="XMLID_543_" fill="#414042" d="M1373.091,694.1c0,0-2.4-0.4-6.6-1s-10.1-1.4-17.3-2.3c-3.6-0.4-7.5-0.9-11.6-1.3
		c-4.1-0.4-8.5-0.8-13-1.2c-2.3-0.2-4.5-0.3-6.9-0.5c-2.3-0.1-4.7-0.3-7-0.4c-2.4-0.1-4.8-0.2-7.1-0.2c-2.4,0-4.8-0.1-7.2,0
		c-4.8,0-9.6,0.3-14.3,0.9c-4.7,0.6-9.3,1.4-13.7,2.3c-8.8,1.9-16.9,4.3-23.7,6.6c-6.8,2.3-12.5,4.5-16.4,6.1s-6.1,2.6-6.1,2.6
		s2.2-1.1,6-2.8c3.9-1.7,9.4-4,16.3-6.4c6.8-2.4,14.9-4.9,23.7-6.9c4.4-1,9-1.8,13.8-2.4c4.7-0.6,9.6-0.9,14.4-0.9
		c2.4-0.1,4.8,0,7.2,0c2.4,0.1,4.8,0.2,7.2,0.3c2.4,0.1,4.7,0.3,7,0.4c2.3,0.2,4.6,0.4,6.9,0.5c2.3,0.2,4.5,0.4,6.6,0.6
		c2.2,0.2,4.3,0.5,6.3,0.7c4.1,0.5,8,1,11.6,1.5s6.9,1,9.8,1.4c2.9,0.5,5.4,0.9,7.5,1.2
		C1370.691,693.7,1373.091,694.1,1373.091,694.1z"/>
</g>
<g id="top_x5F_forest">
	<path id="XMLID_30_" fill="#1E542A" d="M0,0v1080h1920V0H0z M572.109,129.437l140.651-14.836l-175.326,50.777L572.109,129.437z
		 M365.877,200.014l11.198,4.057l2.517-28.359l2.202-3.901l38.3-26.339l14.761-1.557l78.744,32.831l-185.788,90.717L365.877,200.014
		z M192.049,209.168l56.226,6.303l46-41.4l8.636,3.129l-31.536,79.371l-5.716,27.074l-81.25,13.702L192.049,209.168z
		 M84.775,567.071l-3.333,2.312l5.874-37.764l4.433,43.164L84.775,567.071z M198.307,657.732l-13.682-5.254l-21.85-105.407
		l18.706-215.918l77.76-17.108l-40.965,194.026L198.307,657.732z M1760.356,603.191l-25.381-7.82l-89.1,84.3l-44.1,13.3l-23,88.2
		l-38.803,12.672l-20.197-21.072l-40.3,10l-40.3-40.2l-94,36.9l-80.5-36.9l-57.1,28.5h-60.5l-53.7,57.1l-63.8-42.8l-102.6-11.4
		l-43.4,32.3l-75.6-35.2l-90.6,60.4l-65.5-70.5l-70.5,6.7l-35.2-35.2l-141.433,67.6h-13.067l-32.7-63.6l-103.498,12.136
		l13.798-213.736l44.495-232.824l71.705-15.776l176.3-85.6l276.252-80.385l0.248,0.385l7.744-2.71l85.587-24.904l46.49-4.52
		l16.279,43.834h71.992l-8.292,20.1l52.254,7.112l11.646,16.988l22.799-12.3h0.001l59.4,31.9l43.2-44.9l51.9,66.3l75.1-41.5
		l19.6,39.5l77-0.7l8.967-24.238l78.134,43.038l57.8,19.8l104.3,86.9l45.5,138.9L1760.356,603.191z"/>
	<path id="XMLID_15_" fill="#496B44" d="M478.575,120.971c-11.8,1.6-27.8-13.2-29.9-25.2c-3.1-17.5,18.9-27.8,32.9-35.3
		c21.7-11.6,24.9,3.5,30.9,25.6c6,22.1-1.8,16.8-15.5,29.9"/>
	<path id="XMLID_14_" fill="#496B44" d="M754.775,81.371c-18.7,4.1-46.1-22.7-50.3-40.1c33.1,5.3,60.1,0.3,93.3-1.8
		c1.3,10.8,3,25.1-4.4,33.5"/>
	<path id="XMLID_13_" fill="#496B44" d="M1016.175,112.271c-4.2-13.7-5.9-29.1-4.8-43.5c14.3-2,65.6,28.8,45.1,40.2"/>
	<path id="XMLID_12_" fill="#496B44" d="M1306.575,181.071c-15.6-2.2-20.4-41.3-25-56.2c8.9-6.8,35.6-10.8,45.1-2.6
		c11.5,9.8,1.4,32.9,6.8,45.4"/>
	<path id="XMLID_11_" fill="#496B44" d="M1383.775,112.271c-15.1-2.8-11.9-18.2-11.6-30c10.3-2,20,0.7,25,9.8"/>
	<path id="XMLID_10_" fill="#496B44" d="M1279.775,73.671c-16.4-10,2.2-26.8,16.8-21.4c14.8,5.5,10.1,22.3,10.1,36.6"/>
	<path id="XMLID_9_" fill="#496B44" d="M248.375,563.571c-0.1,30.5-5,59.9-5,90.6c0,18.6-1.2,34-8,50.5c-1.8-8.9-2.3-17.7-2.1-26.9"
		/>
	<path id="XMLID_8_" fill="#496B44" d="M151.775,392.171c0,12.2,8,98.6-11.5,93.8c-0.3-2.8-0.9-7-0.3-9.8"/>
	<path id="XMLID_7_" fill="#496B44" d="M1763.675,321.871c-3.3,24.2,16.8,60.3,23.7,84.2c6,20.6,17.6,51.9,15.4,73.3
		c-7-0.9-11.8-5.1-15.4-10.2"/>
	<path id="XMLID_6_" fill="#496B44" d="M1715.975,779.171c-20-9.1-51.6-98.2-18.1-99.1c16.1-0.4,36.1,37.2,44.7,50.3
		c1.1-18.4-5.2-33,13.7-36.8c12.6-2.5,20.3,4.2,26.9,13.4"/>
	<path id="XMLID_5_" fill="#496B44" d="M1251.375,835.371c-3.1,1.7-8.4,1.9-11.9,3.8c-6.3-13.8,6.3-32.1,15.7-42.5
		c11.2-12.5,11-14.2,25.4-2.9c18.3,14.5,34.1,19.9,26.3,46.6"/>
	<path id="XMLID_4_" fill="#496B44" d="M521.075,809.471c-1.5-7.1,9-32.1,18.5-28.7c4.3,1.6,6.9,18.6,11.7,23.7"/>
	<path id="XMLID_3_" fill="#496B44" d="M614.875,799.271c23.4-22.6,41.5,5.9,45.3,28.5"/>
	<path id="XMLID_2_" fill="#496B44" d="M84.375,684.571c22.4-5.3,45.9-16.7,53.8,10.6c3.6,12.2-3.6,25.5,1.6,36.4"/>
</g>
</svg>
