<?xml version="1.0" encoding="utf-8"?>
<!-- Generator: Adobe Illustrator 19.0.0, SVG Export Plug-In . SVG Version: 6.00 Build 0)  -->
<svg version="1.1" id="Layer_1" xmlns="http://www.w3.org/2000/svg" xmlns:xlink="http://www.w3.org/1999/xlink" x="0px" y="0px"
	 viewBox="0 0 1920 1080" enable-background="new 0 0 1920 1080" xml:space="preserve">
<g id="bottom_x5F_forest">
	<rect id="XMLID_25_" x="66.245" y="43.071" fill="#A4D7F4" width="1806.4" height="976.5"/>
	<path id="XMLID_24_" fill="#8CC640" d="M824.145,797.871c-22.4-36.7-24.7-82.2-20.4-124.9c3.8-38.1,12.2-75.9,25.1-112
		c1.1-3.1,2.3-6.2,4.3-8.7c4.7-5.8,12.9-7.2,20.4-8.1c32.8-3.7,65.9-4.8,98.8-3c3.3-14.3,11.6-27.3,23.2-36.3
		c2.4-1.8,5.2-3.5,8.1-3.2c4.6,0.6,7.1,5.7,7.4,10.3s-0.8,9.3,0.3,13.7c6.8-10.4,21.2-11.9,33.6-11.5c13,0.5,25.9,1.9,38.7,4.2
		c14.2,2.6,111.7,26,104.8-9c-0.9-4.6-4.7-8.2-7.5-12c-12-16.2-8.6-38.7-4.6-58.5c15.5-3.6,23,22.6,38.6,12
		c13.9-9.5,17.5-29.3,30.9-39.5c10-7.6,23.7-8.3,34.5-14.8c8.6-5.2,14.8-13.6,21.6-21c6.8-7.4,15.4-14.3,25.5-14.7
		c15.2-0.7,12.7,11.6,20.6,18c8.3,6.8,24.9-0.2,31.6-6c18-15.6,21.8-32.4,28.4-54.4c3.8-12.6,10-25.3,21.2-32.2
		c9.2-5.7,20.5-6.6,30.9-9.6c35.6-10.2,56.4-51.8,95-52.2c6.3,0,12.9,0,18.1,3.5c6.1,4,8.5,12.8,5.4,19.4
		c-14.4,31.1,27.5,30.8,49.1,28.6c3-0.3,6.2-0.8,8.7-2.5c5.3-3.6,6-11,7.7-17.2c5.1-18.6,22.3-30.6,36.9-43.3
		c8.8-7.6,20.9-19.6,22.7-31.7c1.3-8.5-5.1-17.3,6.3-21.5c13-4.8,27.9-11.3,39.3-2c9.1,7.4,19.5,16.6,28,25.3
		c18.7,19,32.3,42.7,42.1,67.3c15.7,39.4,22.5,81.7,33.3,122.8c9.7,37.2,22.7,73.5,30.7,111.1c19.8,92.5,7.9,192-37.2,275.2
		s-124.3,148.3-215.9,171.7c-96.4,24.6-197.7,3.7-297.2,1.3c-48.4-1.2-96.9,1.2-145.2-3.7c-47.8-4.8-94.7-14.9-141.4-25.5
		c-42.9-9.7-84.5-19.7-124.1-39.5C871.545,848.271,842.145,827.471,824.145,797.871z"/>
	<path id="XMLID_23_" fill="#02A64F" d="M1598.945,771.371c12,1.1,37.4,5.9,36.2,21.9c-2.4,31.3-20.4,59.5-42.6,81.6
		c-20.4,20.3-47.9,33.6-67.1,54.7c-18,19.7-38.3,23.2-64.7,26.9c-345.2,48.8-698.3,41.5-1041.2-21.7c-37.7-6.9-75.7-14.7-110.2-31.2
		c-67.6-32.3-116.3-96.2-144.7-165.6S44.273,649.284,35.773,574.784c-4.1-35.9,73.673-127.912,75.773-163.912
		c0.3-4.6,0.8-9.5,3.9-12.8c3.5-3.7,9.1-4.3,14.1-4.5c21.5-0.9,43.1,0.9,64.6,0.2c14.9-0.4,30.1-1.4,43.9-7.1
		c11.4-4.6,21.6-12.4,33.6-14.8c5.3-1.1,10.7-1.1,16-0.9c24.3,0.8,48.5,5,71.7,12.4c2.4,0.7,4.8,1.6,6.5,3.3c3,3,3.1,7.9,2.8,12.2
		c-0.3,3.7-0.8,7.4-2.6,10.6c-1.9,3.3-5.3,5.8-7.1,9.2c-4.4,8.4,1.8,15.5,4.5,23s4.6,15.8,6.2,23.6c2,9.7-0.4,19.6-0.4,29.5
		c0,0.4,0,0.9,0.3,1.2c0.5,0.5,1.3,0.3,2,0.1c3.9-1.3,8.1-1.5,12.2-1.7c11.5-0.5,21.1-1.1,31.9-4.5c11.3-3.5,25-4.9,36.7-3
		c15.4,2.5,29.5,12.2,37.3,25.7c3.5,6.1,6.2,13.2,12.3,16.8c4.5,2.7,10.1,2.7,15.4,2.7c9,0,18.1-0.1,26.7-2.5
		c13.7-3.7,28-13.2,40.8-7.1c13.9,6.5,15.2,26.4,26.7,36.5c6.8,5.9,16.6,7.8,23.4,13.8c5.1,4.5,8.1,10.9,10.5,17.3
		c5.1,13.3,8.7,27.3,10.6,41.4c0.6,4.7,40.6-6.7,45.7-7c20.5-1.3,41.1,5,60.7-4.3c7.8-3.7,14.4-9.5,20.9-15.2
		c8.2-7.2,16.4-14.4,24.6-21.6c5-4.5,11.4-9.3,17.9-7.5c6.2,1.7,9.4,8.6,10.8,14.9s2.2,13.2,6.6,17.9c10.1-10.5,23.4-18,37.6-21.2
		c8.4-1.9,19.1-1.3,23.1,6.3c2.2,4.1,1.5,9.3,3.6,13.6c3.3,6.9,12.8,8.8,20.1,6.5c7.4-2.3,13.2-7.8,19.3-12.5
		c12.7-9.9,27.3-17.5,42.7-22.1c2.1,4.9,4.1,9.7,6.2,14.5c24.2-4.2,51.6-2.3,69.2,14.8c10.1,9.8,16,23.8,27.5,32
		c9,6.3,21,8.3,31.6,5.2c8.3-2.5,15.5-7.8,23.7-10.8c19.5-7.1,37.8,13.4,58.5,13c15.1-0.3,30.2-7.7,44.8-3.7
		c15.6,4.3,25.1,20.7,28,36.6c3,15.9,1.1,32.4,2.8,48.5c10.9,7.1,24.8-2.2,34.4-10.9c9.6-8.8,23.7-17.9,34.4-10.4
		c5.2,3.6,7.4,10.1,9.4,16.1c6.2,18.7,15.6,39.4,34.5,45.1c7.3,2.2,15.2,1.7,22.8,1.3c15.8-1,31.5-1.9,47.3-2.8
		c7.7-0.5,15.9-0.8,22.6,3c6.8,3.9,11,11.4,18,14.7c11.4,5.3,24.2-2.6,35.6-7.9C1559.945,768.771,1578.945,769.571,1598.945,771.371
		z"/>
</g>
<g id="marten">
	<polyline id="XMLID_425_" fill="#58403C" points="979.05,854.671 1094.05,840.971 1100.05,788.871 1100.45,752.071 
		1101.75,728.571 1096.15,700.771 1085.05,671.271 973.85,655.471 946.15,655.471 834.95,671.271 823.85,700.771 818.25,728.571 
		819.55,752.071 819.95,788.871 825.95,840.971 940.95,854.671 	"/>
	<polyline id="XMLID_423_" fill="#9E5A2D" points="964.95,546.371 986.75,515.171 1056.45,496.771 1058.15,511.771 1058.15,523.771 
		1064.95,561.371 1072.65,611.371 1085.45,669.071 1086.35,689.171 1083.35,725.171 1077.85,745.171 1054.25,751.171 
		1035.85,757.571 1022.25,769.171 1011.05,794.371 992.25,821.771 984.55,828.571 962.65,833.771 957.25,833.771 935.45,828.571 
		927.75,821.771 908.95,794.371 897.75,769.171 884.05,757.571 865.75,751.171 842.15,745.171 836.65,725.171 833.65,689.171 
		834.45,669.071 847.35,611.371 855.05,561.371 861.85,523.771 861.85,511.771 863.55,496.771 933.25,515.171 955.05,546.371 	"/>
	<polyline id="XMLID_421_" fill="#3D322E" points="959.95,549.671 969.15,546.771 976.45,542.871 981.15,536.771 984.15,531.871 
		959.95,535.671 959.95,535.671 935.85,531.871 938.85,536.771 943.55,542.871 950.85,546.771 959.95,549.671 	"/>
	<polyline id="XMLID_417_" fill="#6F524A" points="959.95,347.571 982.85,346.271 1030.35,338.971 1061.95,324.071 1074.85,325.271 
		1082.55,330.871 1090.65,347.171 1094.05,368.471 1093.65,384.371 1096.65,390.271 1097.05,398.471 1093.65,407.371 
		1087.25,419.771 1086.75,436.471 1083.35,446.371 1078.65,454.871 1068.85,479.671 1064.95,492.071 1052.95,505.371 
		1038.45,511.771 1026.45,517.271 1013.25,518.171 1004.25,519.071 1000.45,525.871 995.25,534.371 988.85,536.571 981.15,538.271 
		959.95,540.371 938.85,538.271 931.15,536.571 924.75,534.371 919.55,525.871 915.75,519.071 906.75,518.171 893.55,517.271 
		881.55,511.771 866.95,505.371 855.05,492.071 851.15,479.671 841.35,454.871 836.65,446.371 833.25,436.471 832.75,419.771 
		826.35,407.371 822.95,398.471 823.35,390.271 826.35,384.371 825.95,368.471 829.35,347.171 837.45,330.871 845.15,325.271 
		858.05,324.071 889.65,338.971 937.15,346.271 959.95,347.571 	"/>
	<polygon id="XMLID_409_" fill="#231F20" points="925.15,473.271 925.15,466.871 921.75,460.471 918.35,455.271 910.85,452.471 
		904.65,453.171 899.05,457.871 899.05,467.271 900.75,472.871 905.95,479.271 912.75,480.071 920.05,477.071 	"/>
	<polygon id="XMLID_408_" fill="#775C56" points="921.35,379.671 920.05,375.771 902.95,353.971 893.05,339.471 883.65,331.771 
		874.65,324.871 861.45,321.871 851.15,323.571 859.75,326.171 865.75,328.771 873.85,333.471 891.35,349.671 894.75,354.871 
		907.65,370.171 	"/>
	<polygon id="XMLID_189_" fill="#231F20" points="994.85,473.271 994.85,466.871 998.25,460.471 1001.65,455.271 1008.15,452.571 
		1015.35,453.171 1020.95,457.871 1020.95,467.271 1019.25,472.871 1014.05,479.271 1007.25,480.071 999.95,477.071 	"/>
	<polyline id="XMLID_188_" fill="#231F20" points="959.95,534.871 965.35,533.971 970.45,529.671 975.15,524.171 975.15,515.571 
		968.35,508.371 961.95,504.071 959.95,503.671 958.05,504.071 951.65,508.371 944.85,515.571 944.85,524.171 949.55,529.671 
		954.65,533.971 959.95,534.871 	"/>
	<polygon id="XMLID_176_" fill="#775C56" points="998.65,379.671 999.95,375.771 1017.05,353.971 1026.95,339.471 1036.35,331.771 
		1045.35,324.871 1058.55,321.871 1068.85,323.571 1060.25,326.171 1054.25,328.771 1046.15,333.471 1028.65,349.671 
		1025.25,354.871 1012.35,370.171 	"/>
	<ellipse id="XMLID_175_" fill="#FFFFFF" cx="903.25" cy="460.671" rx="1.6" ry="2.4"/>
	<ellipse id="XMLID_174_" fill="#FFFFFF" cx="1002.15" cy="460.171" rx="1.4" ry="2.2"/>
</g>
<g id="chipmunk">
	<polygon id="XMLID_599_" fill="#A07630" points="434.775,806.826 434.775,777.226 459.175,707.526 448.775,690.726 
		446.375,639.526 475.175,598.726 500.775,589.126 497.575,582.726 496.375,573.126 500.775,555.526 486.375,516.326 
		489.575,498.726 500.775,498.726 542.375,518.726 544.775,523.526 595.575,521.126 611.975,508.326 630.975,499.626 
		637.775,500.726 647.175,512.326 631.975,554.726 639.975,568.326 639.975,575.526 636.775,583.526 657.575,588.326 
		688.075,624.326 692.875,652.726 692.875,685.926 661.575,713.926 673.675,733.926 689.675,767.826 681.275,812.426 	"/>
	<polygon id="XMLID_598_" fill="#C1B49A" points="469.775,606.326 509.575,615.526 536.775,632.326 546.375,652.726 
		557.975,660.326 576.775,660.326 595.975,639.526 595.975,632.326 622.375,613.926 659.175,603.526 672.675,606.126 
		688.075,624.326 694.975,655.526 692.875,685.926 661.575,713.926 622.375,701.926 609.575,727.526 647.575,756.426 
		650.775,788.426 662.375,811.826 445.175,806.826 455.575,762.826 489.575,713.126 459.175,707.526 448.775,690.726 
		446.375,639.526 	"/>
	<path id="XMLID_597_" fill="#C1B49A" d="M501.775,591.126c-1.5-2.7-2.9-5.6-4-8.5c-1.1-3-2-6-2.2-9.3c0-0.9,0-1.6,0.1-2.4
		c0-0.8,0.2-1.6,0.3-2.4c0.3-1.6,0.7-3.2,1.2-4.7s1-3,1.6-4.5c0.3-0.7,0.6-1.5,1-2.2c0.3-0.7,0.7-1.4,1.1-2.2l0.1,1.5
		c-0.7-1-1.4-1.9-2-2.9s-1.2-2-1.8-3c-0.6-1-1.1-2-1.6-3.1c-0.5-1-1-2.1-1.5-3.2c-0.2-0.5-0.4-1.1-0.6-1.7c-0.2-0.6-0.4-1.1-0.6-1.7
		c-0.4-1.1-0.7-2.3-0.8-3.6c-0.2-1.3-0.3-2.2-0.5-3.3s-0.4-2.2-0.6-3.2c-0.9-4.4-2.2-8.7-3.1-13.2c-0.5-2.2-0.9-4.5-1.3-6.9
		c-0.1-1.2-0.3-2.4-0.3-3.7c0-0.6,0-1.3,0.2-2c0.1-0.7,0.3-1.5,0.8-2.3l0.1-0.2l0.2-0.2c1.1-1.1,2.5-2.1,4-2.7s3.1-0.9,4.6-1
		c3.1-0.1,6,0.6,8.7,1.7s5.2,2.5,7.5,4.1s4.5,3.5,6.5,5.5c1,1,1.9,2.1,2.8,3.3c0.2,0.3,0.4,0.6,0.6,0.9s0.3,0.6,0.5,0.9
		c0.4,0.7,0.6,1.4,0.9,2.1c1,2.7,1.4,5.5,1.7,8.3c0.2,2.8,0.3,5.5,0.3,8.3c-0.1,2.8-0.3,5.5-0.6,8.2c-0.1-2.7-0.2-5.5-0.4-8.2
		c-0.3-2.7-0.6-5.4-1.1-8.1c-0.5-2.6-1.1-5.3-2.2-7.6c-0.2-0.6-0.6-1.2-0.8-1.7c-0.1-0.2-0.3-0.5-0.5-0.8c-0.1-0.2-0.4-0.5-0.5-0.7
		c-0.8-1-1.7-2-2.6-2.9c-1.9-1.8-4-3.4-6.2-4.9c-2.2-1.4-4.5-2.7-6.9-3.5c-2.4-0.9-4.9-1.4-7.3-1.3c-2.4,0.2-4.5,1.1-6.1,2.7
		l0.3-0.3c-0.2,0.3-0.4,1.3-0.3,2.3c0,1,0.1,2.1,0.3,3.1c0.3,2.1,0.8,4.3,1.3,6.5c1,4.4,2.1,8.8,3.1,13.3c0.2,1.1,0.5,2.3,0.6,3.4
		c0.2,1.1,0.3,2.5,0.4,3.4c0,0.5,0.2,1,0.3,1.5c0.1,0.5,0.2,1,0.4,1.5c0.1,0.5,0.3,1,0.5,1.5s0.3,1,0.5,1.5c0.4,1,0.8,2,1.2,3
		c0.4,1,0.9,2,1.4,3s1,2,1.6,2.9c0.5,1,1.1,1.9,1.7,2.8l0.5,0.8l-0.4,0.7c-0.4,0.6-0.7,1.3-1.1,2s-0.7,1.4-1,2.1
		c-0.7,1.4-1.3,2.8-1.8,4.2s-1,2.9-1.4,4.3c-0.2,0.7-0.4,1.5-0.5,2.2s-0.2,1.6-0.2,2.2c0,0.7,0,1.5,0.1,2.3s0.2,1.5,0.3,2.3
		c0.1,0.8,0.3,1.5,0.5,2.3s0.4,1.5,0.6,2.3C499.475,585.326,500.475,588.226,501.775,591.126z"/>
	<path id="XMLID_595_" fill="#C1B49A" d="M609.575,529.126c-0.1-2.2,0-4.3,0.3-6.5s0.7-4.3,1.5-6.4c0.4-1,0.9-2.1,1.7-3
		c0.8-1,1.6-1.6,2.4-2.4c1.6-1.5,3.1-3,4.8-4.4s3.4-2.8,5.2-4.1c1.9-1.3,3.8-2.5,6.3-3.1c0.6-0.1,1.3-0.3,2.1-0.2
		c0.4,0,0.8,0.1,1.2,0.2c0.2,0.1,0.4,0.1,0.6,0.2l0.4,0.1c1,0.4,2.1,0.8,3.1,1.3c2,1,4.1,2.3,5.7,4.2c1.7,1.8,2.8,4.4,3.1,6.8
		c0.3,2.5,0.1,4.8-0.4,7.1c-0.5,2.2-1.2,4.4-1.9,6.4c-0.8,2.1-1.6,4.1-2.4,6.1c-0.9,2-1.7,4-2.6,5.9c-0.9,2-1.8,3.9-2.6,5.8
		c-0.8,2-1.6,3.9-2.4,5.9s-1.5,4-2.2,6l-0.4-1.4c0.6,0.7,1.1,1.3,1.7,2c0.5,0.7,1,1.3,1.4,2c0.9,1.4,1.7,2.8,2.4,4.3
		c0.3,0.8,0.7,1.5,1,2.3s0.6,1.5,0.8,2.3l0.4,1.2l0.1,0.3l0.1,0.3l0.1,0.6c0.2,0.9,0.2,1.7,0.2,2.6c-0.1,3.4-1.4,6.5-2.9,9.3
		c-1.6,2.8-3.4,5.5-5.6,7.9c1.9-2.5,3.6-5.3,5-8.2c1.3-2.9,2.3-6,2.2-9c0-0.8-0.1-1.5-0.3-2.2l-0.2-0.6l-0.1-0.3l-0.1-0.3l-0.4-1.1
		c-0.3-0.7-0.6-1.4-1-2.1c-0.3-0.7-0.7-1.4-1.1-2.1c-0.4-0.7-0.8-1.3-1.2-2c-0.4-0.6-0.9-1.3-1.3-1.9c-0.5-0.6-1-1.2-1.5-1.8
		s-1.1-1.2-1.6-1.6l-0.6-0.5l0.2-0.8c0.5-2.1,1.2-4.2,1.8-6.3s1.3-4.1,2.1-6.2c0.8-2.1,1.6-4.1,2.5-6l2.5-5.9
		c1.6-3.9,3.1-7.9,4-11.9c0.4-2,0.6-3.9,0.4-5.7c-0.1-0.9-0.3-1.8-0.7-2.6c-0.3-0.8-0.8-1.6-1.4-2.2c-1.2-1.4-2.8-2.5-4.5-3.4
		c-0.9-0.5-1.7-0.9-2.8-1.3l-0.4-0.2c0,0-0.1,0-0.2,0s-0.3-0.1-0.4-0.1c-0.3,0-0.7,0-1.1,0.1c-1.7,0.4-3.6,1.3-5.3,2.4
		c-1.8,1.1-3.5,2.3-5.2,3.6c-1.7,1.3-3.4,2.6-5.1,3.9l-1.3,1c-0.2,0.2-0.4,0.3-0.6,0.5c-0.2,0.1-0.3,0.3-0.5,0.5
		c-0.7,0.7-1.2,1.5-1.7,2.4c-0.9,1.8-1.6,3.9-2.1,5.9C610.275,524.826,609.875,526.926,609.575,529.126z"/>
	<path id="XMLID_593_" fill="none" stroke="#C1B49A" stroke-width="4" stroke-miterlimit="10" d="M575.175,639.526l17.6-42.4
		l6.4-22.4c0,0,4.4-8,10.4-7.2s17.4,26.9,12.8,32.4c-12.4,14.8-18,3.6-18,3.6"/>
	<path id="XMLID_592_" fill="none" stroke="#C1B49A" stroke-width="4" stroke-miterlimit="10" d="M554.375,639.526l-9.6-19.2
		l-6.4-29.6c0,0-13.2-23.2-16.8-23.2s-12,16.3-12,24c-0.1,15.6,16.5,13.7,16.5,13.7"/>
	<path id="XMLID_591_" fill="#231F20" d="M602.375,607.126l-2.8-7.2c0,0,2.8-2.8,2.8-6s0-14.4,0-14.4s0.8-5.6,4-8.8s11.2,0,11.2,0
		l-4,4.8l4,6.8l2.8,6.6c0,0,2.8,9.6,0,12.7c-2.8,3.1-10.4,3.5-10.4,3.5l-5.6-1.6L602.375,607.126z"/>
	<path id="XMLID_590_" fill="#231F20" d="M524.775,607.126l4.8-7.2l-2.4-6.4v-10c0,0-0.6-11.4-4.4-12.8s-8.4,2-8.4,2l4.4,3.2l-5,7.3
		l-2.4,10.6c0,0,0.2,9.4,1.8,9.8c1.6,0.4,7.3,1.8,7.3,1.8l4.3-3L524.775,607.126L524.775,607.126z"/>
	<path id="XMLID_589_" fill="#FFFFFF" d="M518.575,586.426c0,0-0.4-0.6-0.6-1.5c-0.1-0.4-0.1-0.9-0.1-1.3c0-0.5,0.1-1,0.2-1.4
		c0.2-0.5,0.4-0.9,0.6-1.3c0.1-0.2,0.3-0.4,0.4-0.6s0.3-0.3,0.5-0.5c0.6-0.6,1.3-0.9,1.3-0.9l0.2,0.1c0,0-0.1,0.5-0.3,1.2
		s-0.5,1.6-0.8,2.6c-0.3,0.9-0.6,1.8-0.8,2.5s-0.4,1.1-0.4,1.1L518.575,586.426z"/>
	<path id="XMLID_587_" fill="#FFFFFF" d="M609.275,577.926c0,0,0.7,0,1.5,0.4c0.4,0.2,0.8,0.4,1.2,0.7s0.7,0.6,1,1s0.5,0.8,0.7,1.3
		c0.1,0.2,0.1,0.5,0.2,0.7c0.1,0.2,0.1,0.4,0.1,0.6c0.1,0.8,0,1.6,0,1.6l-0.2,0.1c0,0-0.3-0.4-0.8-0.9c-0.5-0.6-1.1-1.3-1.7-2.1
		s-1.2-1.6-1.6-2.2s-0.7-1-0.7-1L609.275,577.926z"/>
	<polygon id="XMLID_585_" fill="#C1B49A" stroke="#C1B49A" stroke-miterlimit="10" points="553.175,637.126 546.375,641.526 
		543.275,646.126 546.375,652.726 557.975,660.326 576.775,660.326 587.475,648.726 584.375,639.526 576.175,637.126 	"/>
	<polygon id="XMLID_584_" fill="#CB9798" stroke="#C1B49A" stroke-miterlimit="10" points="550.375,639.526 545.075,643.426 
		550.375,652.726 560.375,657.926 569.975,657.926 579.575,652.726 581.575,648.726 581.575,641.126 577.975,648.726 
		569.575,654.726 567.175,648.726 563.375,648.726 560.775,652.726 554.375,651.126 550.375,645.526 	"/>
	
		<linearGradient id="XMLID_16_" gradientUnits="userSpaceOnUse" x1="564.375" y1="676.3519" x2="564.375" y2="661.9464" gradientTransform="matrix(1 0 0 1 0 2)">
		<stop  offset="0" style="stop-color:#C1B49A"/>
		<stop  offset="0.1701" style="stop-color:#BEB096"/>
		<stop  offset="0.3428" style="stop-color:#B5A58A"/>
		<stop  offset="0.5168" style="stop-color:#A79275"/>
		<stop  offset="0.6916" style="stop-color:#927859"/>
		<stop  offset="0.8653" style="stop-color:#785735"/>
		<stop  offset="1" style="stop-color:#603813"/>
	</linearGradient>
	<path id="XMLID_583_" fill="url(#XMLID_16_)" d="M539.175,665.526c0,0,6,3.2,11.2,4.4s15-6,15-6s4.6,5.9,9.8,6.1
		c5.2,0.3,14.4-3.1,14.4-3.1l-5.6,6.9l-19.6,4.4l-14-4L539.175,665.526z"/>
	<polygon id="XMLID_582_" fill="#C1A799" points="480.375,768.026 507.775,778.826 528.375,768.026 537.575,755.226 
		541.475,746.026 559.575,740.426 571.575,748.026 590.775,774.826 614.775,778.826 630.375,766.026 624.175,748.426 
		589.175,719.526 568.775,712.726 550.775,712.726 528.375,723.526 491.175,745.826 	"/>
	<polygon id="XMLID_581_" fill="#D7CAB6" points="494.475,731.726 508.575,728.726 519.075,703.026 534.675,696.126 
		550.775,705.726 561.475,713.926 556.875,715.726 561.475,718.326 550.775,722.226 557.775,728.726 539.975,731.726 
		547.275,735.626 536.675,737.926 527.975,758.526 508.275,771.626 476.075,757.426 	"/>
	<polygon id="XMLID_580_" fill="#D7CAB6" points="564.875,709.526 574.575,699.126 590.275,696.126 598.175,702.826 
		611.675,724.126 626.175,738.326 632.675,750.526 613.375,771.626 578.975,742.526 577.175,736.326 569.875,733.926 
		561.475,733.926 564.475,728.726 557.775,728.726 561.475,724.526 555.675,722.626 564.475,714.526 559.875,712.726 	"/>
	<path id="XMLID_579_" fill="#231F20" d="M584.175,639.526c0,0,1.4-1.5,3.9-4.1c1.3-1.3,2.9-2.8,4.7-4.5s3.9-3.6,6.3-5.7
		c1.2-1,2.4-2.1,3.7-3.1c1.3-1.1,2.7-2.1,4.1-3.2c1.4-1.1,2.9-2.1,4.4-3.2c1.5-1.1,3.1-2.1,4.8-3.2c1.7-1,3.3-2.1,5.1-3
		c0.9-0.5,1.8-1,2.7-1.4s1.8-0.9,2.8-1.3l1.4-0.7l1.4-0.6c1-0.4,1.9-0.8,2.9-1.2c1.9-0.7,3.9-1.4,5.9-2c4-1.2,8-2.2,12.1-2.8
		c4-0.6,8.1-0.9,12-0.8c3.9,0,7.7,0.5,11.2,1.2s6.7,2.1,9.5,3.4c2.8,1.4,5.3,2.8,7.5,4c2.2,1.3,4,2.4,5.6,3.4
		c3.1,1.9,4.7,3.1,4.7,3.1s-1.7-1.1-4.8-3c-1.6-0.9-3.4-2-5.7-3.2c-2.2-1.2-4.7-2.5-7.5-3.9c-2.8-1.3-5.9-2.6-9.4-3.2
		c-3.5-0.7-7.2-1-11-1.1c-3.9,0-7.8,0.3-11.8,0.9c-4,0.6-8,1.6-11.9,2.8c-2,0.6-3.9,1.3-5.8,2c-1,0.4-1.9,0.8-2.9,1.1l-1.4,0.6
		l-1.4,0.6c-0.9,0.4-1.8,0.9-2.7,1.3c-0.9,0.5-1.8,0.9-2.6,1.4c-1.8,0.9-3.4,2-5.1,3c-1.6,1-3.2,2.1-4.8,3.1c-1.5,1.1-3,2.1-4.4,3.2
		s-2.8,2.1-4.1,3.1s-2.6,2-3.8,3c-2.4,2-4.5,3.8-6.4,5.5s-3.5,3.2-4.8,4.4C585.675,638.026,584.175,639.526,584.175,639.526z"/>
	<path id="XMLID_577_" fill="#231F20" d="M585.175,641.026c0,0,1.6-1.3,4.6-3.4c1.5-1,3.3-2.3,5.4-3.7c2.1-1.4,4.5-2.9,7.2-4.5
		c1.3-0.8,2.7-1.6,4.2-2.4c1.4-0.8,3-1.6,4.6-2.5s3.2-1.6,4.9-2.5c1.7-0.8,3.4-1.6,5.2-2.3s3.6-1.5,5.5-2.1c0.9-0.3,1.9-0.7,2.9-1
		s2-0.6,2.9-0.8l1.5-0.4l1.5-0.3c1-0.2,2-0.5,3-0.7c2-0.4,4.1-0.8,6.1-1c4.1-0.5,8.3-0.8,12.4-0.8c4.1,0.1,8.1,0.5,12,1.2
		c3.8,0.7,7.5,1.8,10.8,3.1c3.4,1.3,6.2,3.1,8.8,4.9c2.5,1.8,4.7,3.6,6.7,5.2c1.9,1.6,3.6,3.1,4.9,4.3c2.7,2.4,4.2,3.9,4.2,3.9
		s-1.5-1.4-4.3-3.7c-1.4-1.2-3.1-2.6-5-4.1c-2-1.6-4.2-3.3-6.8-5.1c-2.5-1.7-5.4-3.5-8.7-4.7s-6.9-2.2-10.7-2.9s-7.8-1-11.8-1.1
		c-4,0-8.2,0.3-12.2,0.8c-2,0.2-4.1,0.6-6.1,1c-1,0.2-2,0.4-3,0.7l-1.5,0.3l-1.5,0.4c-1,0.3-1.9,0.5-2.9,0.8s-1.9,0.6-2.8,1
		c-1.9,0.6-3.7,1.4-5.5,2.1s-3.5,1.5-5.2,2.3s-3.3,1.5-4.9,2.4c-1.6,0.8-3.1,1.6-4.6,2.4s-2.9,1.6-4.2,2.4c-2.7,1.5-5.1,3-7.3,4.3
		c-2.1,1.3-4,2.5-5.5,3.5C586.875,639.826,585.175,641.026,585.175,641.026z"/>
	<path id="XMLID_575_" fill="#231F20" d="M545.075,642.426c0,0-1.4-1.5-4.1-4c-1.3-1.2-2.9-2.7-4.8-4.4c-1.9-1.7-4-3.5-6.4-5.5
		c-1.2-1-2.4-2-3.8-3c-1.3-1-2.7-2.1-4.1-3.1c-1.4-1.1-2.9-2.1-4.4-3.2c-1.5-1-3.1-2.1-4.8-3.1s-3.3-2.1-5.1-3
		c-0.9-0.5-1.8-0.9-2.6-1.4c-0.9-0.4-1.8-0.9-2.7-1.3l-1.4-0.6l-1.4-0.6c-1-0.4-1.9-0.8-2.9-1.1c-1.9-0.7-3.8-1.4-5.8-2
		c-3.9-1.2-7.9-2.2-11.9-2.8s-8-0.9-11.8-0.9c-3.9,0-7.6,0.4-11,1.1c-3.5,0.6-6.6,1.9-9.4,3.2s-5.3,2.6-7.5,3.9
		c-2.2,1.2-4.1,2.3-5.7,3.2c-3.1,1.9-4.8,3-4.8,3s1.7-1.2,4.7-3.1c1.5-1,3.4-2.1,5.6-3.4s4.7-2.7,7.5-4c2.8-1.4,5.9-2.7,9.5-3.4
		c3.5-0.7,7.3-1.2,11.2-1.2c3.9-0.1,7.9,0.2,12,0.8c4,0.6,8.1,1.6,12.1,2.8c2,0.6,3.9,1.3,5.9,2c1,0.4,1.9,0.8,2.9,1.2l1.4,0.6
		l1.4,0.7c0.9,0.4,1.8,0.9,2.8,1.3c0.9,0.5,1.8,1,2.7,1.4c1.8,0.9,3.4,2,5.1,3c1.6,1.1,3.2,2.1,4.8,3.2c1.5,1.1,3,2.1,4.4,3.2
		c1.4,1.1,2.8,2.1,4.1,3.2c1.3,1,2.6,2.1,3.7,3.1c2.4,2,4.5,3.9,6.3,5.7c1.8,1.7,3.4,3.3,4.7,4.5
		C543.675,640.826,545.075,642.426,545.075,642.426z"/>
	<path id="XMLID_573_" fill="#231F20" d="M544.075,643.926c0,0-1.7-1.2-4.7-3.2c-1.5-1-3.3-2.2-5.5-3.5c-2.1-1.3-4.6-2.8-7.3-4.3
		c-1.3-0.8-2.7-1.6-4.2-2.4c-1.5-0.8-3-1.6-4.6-2.4s-3.2-1.6-4.9-2.4c-1.7-0.8-3.4-1.5-5.2-2.3c-1.8-0.7-3.6-1.5-5.5-2.1
		c-0.9-0.3-1.9-0.6-2.8-1c-1-0.3-1.9-0.5-2.9-0.8l-1.5-0.4l-1.5-0.3c-1-0.2-2-0.5-3-0.7c-2-0.4-4-0.7-6.1-1
		c-4.1-0.5-8.2-0.9-12.2-0.8c-4,0-8,0.4-11.8,1.1s-7.4,1.7-10.7,2.9c-3.3,1.2-6.2,3-8.7,4.7c-2.5,1.8-4.8,3.5-6.8,5.1s-3.7,3-5,4.1
		c-2.8,2.3-4.3,3.7-4.3,3.7s1.5-1.5,4.2-3.9c1.3-1.2,3-2.7,4.9-4.3s4.1-3.4,6.7-5.2c2.5-1.8,5.4-3.7,8.8-4.9c3.3-1.3,7-2.4,10.8-3.1
		s7.9-1.1,12-1.2s8.3,0.2,12.4,0.8c2.1,0.3,4.1,0.7,6.1,1c1,0.2,2,0.4,3,0.7l1.5,0.3l1.5,0.4c1,0.3,2,0.6,2.9,0.8
		c1,0.3,1.9,0.7,2.9,1c1.9,0.6,3.7,1.4,5.5,2.1c1.8,0.8,3.5,1.5,5.2,2.3c1.7,0.8,3.3,1.6,4.9,2.5c1.6,0.8,3.1,1.6,4.6,2.5
		c1.5,0.8,2.9,1.6,4.2,2.4c2.7,1.6,5.1,3.1,7.2,4.5c2.1,1.4,3.9,2.6,5.4,3.7C542.475,642.626,544.075,643.926,544.075,643.926z"/>
</g>
<g id="squirrel">
	<polygon id="XMLID_611_" fill="#C3996B" points="1276.491,433.157 1268.191,411.457 1255.891,405.057 1249.691,419.057 
		1249.691,436.557 1246.891,451.057 1246.291,459.557 1247.391,463.857 	"/>
	<polygon id="XMLID_610_" fill="#A87C4F" points="1312.091,429.657 1303.291,397.557 1312.091,405.057 1317.691,349.457 
		1339.091,377.257 1383.791,336.557 1392.291,356.857 1453.291,336.557 1453.291,364.357 1516.391,336.557 1503.591,365.457 
		1534.591,370.857 1517.491,383.157 1553.891,391.157 1523.891,407.157 1545.291,412.557 1475.791,470.857 1452.191,522.557 
		1476.791,528.857 1470.391,548.957 1518.491,522.557 1491.791,567.857 1529.191,556.457 1522.791,582.457 1546.391,582.457 
		1523.891,620.857 1547.391,620.857 1522.791,650.057 1561.291,655.357 1535.691,677.857 1565.591,687.457 1531.391,730.257 
		1565.591,730.257 1540.991,752.157 1560.291,752.157 1512.091,795.557 1546.391,795.557 1514.291,819.557 1533.491,826.557 
		1483.191,846.857 1457.591,839.357 	"/>
	<polygon id="XMLID_609_" fill="#C3996B" points="1346.691,430.057 1353.791,421.057 1353.791,414.157 1369.291,394.857 
		1381.091,412.457 1381.091,422.657 1386.991,439.857 1383.191,459.557 1376.291,468.157 	"/>
	<path id="XMLID_608_" fill="#716558" d="M1376.291,819.357l24.6-77.8l20.3-25.1l20.9,13.4l-43.4-122.6l11.8-7.5
		c0,0,48.1,36.4,54.6,68.5c6.4,32.1,18.2,118.8,18.2,118.8l-16,44.9l5.3,28.9L1376.291,819.357z"/>
	<path id="XMLID_607_" fill="#C1B49A" d="M1273.591,433.357l-12.8,8.6l-13.4,21.9l-11.8,51.3v24.6l-28.9,53.6c0,0-2.1,3.2,0,7
		c2.1,3.7,4.8,13.9,4.8,13.9l-20.3,35.8l3.7,58.8l-17.1,38l4.8,69.5l210.2,3.2l15.5-77l15-18.7l18.7,5.9l-3.7-31l-27.8-98.9
		l-1.6-26.2l-16.6-44.4l-15.5-27.3l3.7-12.8l-4.8-25.1l-13.4-26.7l-22.5-10.2L1273.591,433.357z"/>
	<polygon id="XMLID_606_" fill="#9A8479" points="1247.391,463.857 1258.091,460.657 1264.491,477.757 1258.591,502.957 
		1247.391,515.757 1241.491,503.957 1236.491,511.257 1236.491,528.057 1244.191,532.857 1264.491,516.857 1267.691,524.357 
		1272.491,512.557 1284.791,496.757 1294.391,493.257 1299.791,499.157 1309.891,499.757 1315.791,493.257 1323.291,496.757 
		1327.091,505.557 1339.391,514.157 1345.191,528.557 1345.191,535.557 1353.291,538.257 1362.891,526.957 1376.291,531.257 
		1376.291,556.457 1383.791,553.257 1392.291,529.157 1376.791,501.857 1380.491,489.057 1371.991,486.357 1370.891,497.357 
		1370.891,508.557 1367.191,513.657 1355.891,508.557 1343.091,475.657 1353.291,460.657 1358.591,457.957 1363.391,464.457 
		1363.391,469.757 1369.591,481.057 1371.991,486.357 1380.491,489.057 1377.191,471.457 1375.691,463.857 1362.391,437.157 
		1339.891,426.957 1273.591,433.357 1260.691,441.957 1246.291,459.557 	"/>
	<path id="XMLID_605_" fill="#231F20" d="M1249.191,470.857c0,0,6.2,12.3,7.2,14.4c1.1,2.1,2.3,14.8,2.3,14.8s-6.9,4.2-9.6,4.7
		s-7.1,1.5-7.8-0.8c-1-3.2,2.4-2.7,2.4-2.7s-4.6-7.8-3.1-15s7.1-10.2,7.1-10.2l-0.5-3.5L1249.191,470.857z"/>
	<path id="XMLID_604_" fill="#231F20" d="M1360.791,468.157l2.7,1.6c0,0,8,6.9,8.6,16.6c0.5,9.6-2.7,9.4-2.7,9.4s1.6-0.5,1.6,1.6
		s-1.8,5.1-4.5,5.1s-10.2-2.7-10.2-2.7s-1.4,1.8-3.5,0.5s-2.1-7.6-1.6-12.1S1360.791,468.157,1360.791,468.157z"/>
	<path id="XMLID_603_" fill="#FFFFFF" d="M1249.691,477.257l2.8,5.6h-4.5l-1.6,5.3h-4.5c0,0-2-4.8,2-8.4
		C1247.891,476.157,1249.691,477.257,1249.691,477.257z"/>
	<path id="XMLID_602_" fill="#FFFFFF" d="M1356.691,482.657c0,0-1.6-0.9,0-5.5c1.6-4.7,4.7-5.2,4.7-5.2s3.6,1.1,4.4,2.9
		c0.8,1.9,0,2.4,0,2.4l0.4,4l-6-1.3l1.2,2.7H1356.691L1356.691,482.657z"/>
	<polygon id="XMLID_601_" fill="#8A5D3B" points="1299.791,499.157 1304.891,496.257 1309.891,499.757 1308.591,508.257 
		1306.691,512.557 1308.891,516.857 1316.591,516.857 1317.691,521.357 1319.291,514.157 1321.691,517.657 1317.391,528.857 
		1307.791,536.357 1305.391,548.957 1302.991,537.657 1294.391,533.957 1284.791,520.357 1287.491,512.557 1287.491,518.457 
		1289.591,519.757 1296.791,517.957 1300.291,513.857 1299.491,506.657 	"/>
	<polygon id="XMLID_600_" fill="#3B2314" points="1291.191,523.757 1303.291,527.857 1314.391,522.557 1317.691,523.757 
		1314.391,529.457 1307.791,532.657 1303.291,535.057 1293.391,528.857 	"/>
	
		<linearGradient id="XMLID_17_" gradientUnits="userSpaceOnUse" x1="1308.3408" y1="572.801" x2="1308.3409" y2="558.9689" gradientTransform="matrix(1 0 0 1 0 2)">
		<stop  offset="0" style="stop-color:#FAC3B5"/>
		<stop  offset="0.0447" style="stop-color:#ECB9AB"/>
		<stop  offset="0.2042" style="stop-color:#C0978B"/>
		<stop  offset="0.3653" style="stop-color:#9B7B71"/>
		<stop  offset="0.5257" style="stop-color:#7F665C"/>
		<stop  offset="0.6854" style="stop-color:#6A564E"/>
		<stop  offset="0.8439" style="stop-color:#5E4D45"/>
		<stop  offset="1" style="stop-color:#5A4A42"/>
	</linearGradient>
	<path id="XMLID_596_" fill="url(#XMLID_17_)" d="M1277.591,564.157c0,0,9.4,3.7,13.6,2.4c4.3-1.3,13.2-5.6,13.2-5.6
		s14.6,4.5,20.5,4.8s14.2-1.9,14.2-1.9l-13.1,6.7l-11.6,2.3l-6.9,1.9l-10-1.6l-11.1-1.6L1277.591,564.157z"/>
	<path id="XMLID_594_" fill="#9F917C" d="M1258.791,557.457c0,0,23.9,32.1,34.8,33.7c11,1.6,26.2,1.9,32.9,0
		c6.7-1.9,26.2-21.1,27-24.6s1.1-17.6,1.1-17.6l8.3,5.1l2.4,16.7l-23.5,32l-27.4,13.4l-39.2-16.8l-16.4-26.5L1258.791,557.457
		L1258.791,557.457z"/>
	<polygon id="XMLID_588_" fill="#A87C4F" points="1208.291,634.757 1246.291,639.857 1290.691,660.957 1296.591,671.157 
		1303.291,677.057 1305.691,685.857 1299.991,688.557 1304.291,693.857 1296.591,701.657 1283.491,692.557 1283.191,698.657 
		1269.291,700.057 1254.291,689.557 1240.391,689.357 1220.591,701.657 1197.391,697.857 1192.291,690.657 1187.691,648.657 	"/>
	<path id="XMLID_586_" fill="#A87C4F" d="M1297.591,650.257l7-12l29.2-9.6l19-7.8c0,0,42.5,0,42.8,0s24.1,27.5,24.1,27.5l10.2,39.3
		l-6.4,11.5l-29.7,1.1l-37.4-12.6l-18.7-15.5l-23.1,9.1l-4.5-2.1l-3.2,9.1l-9.1,1.1l-12.8-13.9l7.2-21.9L1297.591,650.257z"/>
	<polygon id="XMLID_578_" fill="#8A5D3B" points="1362.391,437.157 1366.791,425.357 1366.791,413.557 1376.291,407.157 
		1376.291,415.757 1378.391,426.957 1383.191,437.157 1383.191,454.257 1374.691,462.257 	"/>
	<path id="XMLID_576_" fill="#231F20" d="M1334.391,524.957c0,0,0.9-0.1,2.4-0.1s3.7-0.1,6.3-0.2c2.6,0,5.6-0.1,8.9,0
		c3.2,0,6.7,0.1,10.2,0.1c3.5,0.1,6.9,0.2,10.2,0.4c3.2,0.1,6.3,0.3,8.9,0.5c2.6,0.1,4.8,0.4,6.3,0.5s2.4,0.2,2.4,0.2v0.1
		c0,0-13.9-0.3-27.7-0.6C1348.191,525.457,1334.391,525.057,1334.391,524.957L1334.391,524.957z"/>
	<path id="XMLID_574_" fill="#231F20" d="M1337.791,528.757c0,0,0.9,0,2.4,0.1s3.7,0.2,6.3,0.4c2.6,0.2,5.6,0.4,8.9,0.7
		c3.2,0.3,6.7,0.7,10.1,1c3.4,0.4,6.9,0.9,10.1,1.3c3.2,0.4,6.2,0.9,8.8,1.3c2.6,0.4,4.7,0.8,6.2,1c1.5,0.3,2.3,0.4,2.3,0.4v0.1
		c0,0-13.8-1.5-27.6-3.1C1351.491,530.457,1337.791,528.857,1337.791,528.757L1337.791,528.757z"/>
	<path id="XMLID_572_" fill="#231F20" d="M1229.891,538.857c0,0,0.8-0.2,2.3-0.5s3.6-0.7,6.2-1.2c2.6-0.4,5.5-1,8.8-1.5
		c3.2-0.5,6.6-1,10.1-1.5c3.4-0.4,6.9-0.9,10.1-1.3c3.2-0.4,6.2-0.7,8.8-1c2.6-0.3,4.8-0.4,6.3-0.6c1.5-0.1,2.4-0.2,2.4-0.2v0.1
		c0,0-13.7,2-27.4,3.9C1243.591,537.057,1229.891,538.957,1229.891,538.857L1229.891,538.857z"/>
	<path id="XMLID_571_" fill="#231F20" d="M1224.691,529.357c0,0,0.9-0.1,2.4-0.2s3.7-0.3,6.3-0.4c2.6-0.1,5.6-0.3,8.9-0.4
		c3.2-0.1,6.7-0.2,10.2-0.3c3.5,0,6.9-0.1,10.2-0.1c3.2,0,6.3,0.1,8.9,0.1s4.8,0.1,6.3,0.2c1.5,0.1,2.4,0.1,2.4,0.1v0.1
		c0,0-13.9,0.3-27.7,0.6C1238.591,529.157,1224.691,529.457,1224.691,529.357L1224.691,529.357z"/>
</g>
<g id="top_x5F_forest">
	<path id="XMLID_30_" fill="#1E542A" d="M0,0v1080h1920V0H0z M572.109,129.437l140.651-14.836l-175.326,50.777L572.109,129.437z
		 M365.877,200.014l11.198,4.057l2.517-28.359l2.202-3.901l38.3-26.339l14.761-1.557l78.744,32.831l-185.788,90.717L365.877,200.014
		z M192.049,209.168l56.226,6.303l46-41.4l8.636,3.129l-31.536,79.371l-5.716,27.074l-81.25,13.702L192.049,209.168z
		 M84.775,567.071l-3.333,2.312l5.874-37.764l4.433,43.164L84.775,567.071z M198.307,657.732l-13.682-5.254l-21.85-105.407
		l18.706-215.918l77.76-17.108l-40.965,194.026L198.307,657.732z M1760.356,603.191l-25.381-7.82l-89.1,84.3l-44.1,13.3l-23,88.2
		l-38.803,12.672l-20.197-21.072l-40.3,10l-40.3-40.2l-94,36.9l-80.5-36.9l-57.1,28.5h-60.5l-53.7,57.1l-63.8-42.8l-102.6-11.4
		l-43.4,32.3l-75.6-35.2l-90.6,60.4l-65.5-70.5l-70.5,6.7l-35.2-35.2l-141.433,67.6h-13.067l-32.7-63.6l-103.498,12.136
		l13.798-213.736l44.495-232.824l71.705-15.776l176.3-85.6l276.252-80.385l0.248,0.385l7.744-2.71l85.587-24.904l46.49-4.52
		l16.279,43.834h71.992l-8.292,20.1l52.254,7.112l11.646,16.988l22.799-12.3h0.001l59.4,31.9l43.2-44.9l51.9,66.3l75.1-41.5
		l19.6,39.5l77-0.7l8.967-24.238l78.134,43.038l57.8,19.8l104.3,86.9l45.5,138.9L1760.356,603.191z"/>
	<path id="XMLID_15_" fill="#496B44" d="M478.575,120.971c-11.8,1.6-27.8-13.2-29.9-25.2c-3.1-17.5,18.9-27.8,32.9-35.3
		c21.7-11.6,24.9,3.5,30.9,25.6c6,22.1-1.8,16.8-15.5,29.9"/>
	<path id="XMLID_14_" fill="#496B44" d="M754.775,81.371c-18.7,4.1-46.1-22.7-50.3-40.1c33.1,5.3,60.1,0.3,93.3-1.8
		c1.3,10.8,3,25.1-4.4,33.5"/>
	<path id="XMLID_13_" fill="#496B44" d="M1016.175,112.271c-4.2-13.7-5.9-29.1-4.8-43.5c14.3-2,65.6,28.8,45.1,40.2"/>
	<path id="XMLID_12_" fill="#496B44" d="M1306.575,181.071c-15.6-2.2-20.4-41.3-25-56.2c8.9-6.8,35.6-10.8,45.1-2.6
		c11.5,9.8,1.4,32.9,6.8,45.4"/>
	<path id="XMLID_11_" fill="#496B44" d="M1383.775,112.271c-15.1-2.8-11.9-18.2-11.6-30c10.3-2,20,0.7,25,9.8"/>
	<path id="XMLID_10_" fill="#496B44" d="M1279.775,73.671c-16.4-10,2.2-26.8,16.8-21.4c14.8,5.5,10.1,22.3,10.1,36.6"/>
	<path id="XMLID_9_" fill="#496B44" d="M248.375,563.571c-0.1,30.5-5,59.9-5,90.6c0,18.6-1.2,34-8,50.5c-1.8-8.9-2.3-17.7-2.1-26.9"
		/>
	<path id="XMLID_8_" fill="#496B44" d="M151.775,392.171c0,12.2,8,98.6-11.5,93.8c-0.3-2.8-0.9-7-0.3-9.8"/>
	<path id="XMLID_7_" fill="#496B44" d="M1763.675,321.871c-3.3,24.2,16.8,60.3,23.7,84.2c6,20.6,17.6,51.9,15.4,73.3
		c-7-0.9-11.8-5.1-15.4-10.2"/>
	<path id="XMLID_6_" fill="#496B44" d="M1715.975,779.171c-20-9.1-51.6-98.2-18.1-99.1c16.1-0.4,36.1,37.2,44.7,50.3
		c1.1-18.4-5.2-33,13.7-36.8c12.6-2.5,20.3,4.2,26.9,13.4"/>
	<path id="XMLID_5_" fill="#496B44" d="M1251.375,835.371c-3.1,1.7-8.4,1.9-11.9,3.8c-6.3-13.8,6.3-32.1,15.7-42.5
		c11.2-12.5,11-14.2,25.4-2.9c18.3,14.5,34.1,19.9,26.3,46.6"/>
	<path id="XMLID_4_" fill="#496B44" d="M521.075,809.471c-1.5-7.1,9-32.1,18.5-28.7c4.3,1.6,6.9,18.6,11.7,23.7"/>
	<path id="XMLID_3_" fill="#496B44" d="M614.875,799.271c23.4-22.6,41.5,5.9,45.3,28.5"/>
	<path id="XMLID_2_" fill="#496B44" d="M84.375,684.571c22.4-5.3,45.9-16.7,53.8,10.6c3.6,12.2-3.6,25.5,1.6,36.4"/>
</g>
</svg>
