<?xml version="1.0" encoding="utf-8"?>
<!-- Generator: Adobe Illustrator 19.0.0, SVG Export Plug-In . SVG Version: 6.00 Build 0)  -->
<svg version="1.1" id="Layer_1" xmlns="http://www.w3.org/2000/svg" xmlns:xlink="http://www.w3.org/1999/xlink" x="0px" y="0px"
	 viewBox="0 0 1920 1080" enable-background="new 0 0 1920 1080" xml:space="preserve">
<g id="bottom_x5F_forest_flip">
	<rect id="XMLID_455_" x="35.646" y="43.071" fill="#A4D7F4" width="1806.4" height="976.5"/>
	<path id="XMLID_454_" fill="#8CC640" d="M1084.146,797.871c22.4-36.7,24.7-82.2,20.4-124.9c-3.8-38.1-12.2-75.9-25.1-112
		c-1.1-3.1-2.3-6.2-4.3-8.7c-4.7-5.8-12.9-7.2-20.4-8.1c-32.8-3.7-65.9-4.8-98.8-3c-3.3-14.3-11.6-27.3-23.2-36.3
		c-2.4-1.8-5.2-3.5-8.1-3.2c-4.6,0.6-7.1,5.7-7.4,10.3c-0.3,4.6,0.8,9.3-0.3,13.7c-6.8-10.4-21.2-11.9-33.6-11.5
		c-13,0.5-25.9,1.9-38.7,4.2c-14.2,2.6-111.7,26-104.8-9c0.9-4.6,4.7-8.2,7.5-12c12-16.2,8.6-38.7,4.6-58.5
		c-15.5-3.6-23,22.6-38.6,12c-13.9-9.5-17.5-29.3-30.9-39.5c-10-7.6-23.7-8.3-34.5-14.8c-8.6-5.2-14.8-13.6-21.6-21
		s-15.4-14.3-25.5-14.7c-15.2-0.7-12.7,11.6-20.6,18c-8.3,6.8-24.9-0.2-31.6-6c-18-15.6-21.8-32.4-28.4-54.4
		c-3.8-12.6-10-25.3-21.2-32.2c-9.2-5.7-20.5-6.6-30.9-9.6c-35.6-10.2-56.4-51.8-95-52.2c-6.3,0-12.9,0-18.1,3.5
		c-6.1,4-8.5,12.8-5.4,19.4c14.4,31.1-27.5,30.8-49.1,28.6c-3-0.3-6.2-0.8-8.7-2.5c-5.3-3.6-6-11-7.7-17.2
		c-5.1-18.6-22.3-30.6-36.9-43.3c-8.8-7.6-20.9-19.6-22.7-31.7c-1.3-8.5,5.1-17.3-6.3-21.5c-13-4.8-27.9-11.3-39.3-2
		c-9.1,7.4-19.5,16.6-28,25.3c-18.7,19-32.3,42.7-42.1,67.3c-15.7,39.4-22.5,81.7-33.3,122.8c-9.7,37.2-22.7,73.5-30.7,111.1
		c-19.8,92.5-7.9,192,37.2,275.2s124.3,148.3,215.9,171.7c96.4,24.6,197.7,3.7,297.2,1.3c48.4-1.2,96.9,1.2,145.2-3.7
		c47.8-4.8,94.7-14.9,141.4-25.5c42.9-9.7,84.5-19.7,124.1-39.5C1036.746,848.271,1066.146,827.471,1084.146,797.871z"/>
	<path id="XMLID_171_" fill="#02A64F" d="M309.346,771.371c-12,1.1-37.4,5.9-36.2,21.9c2.4,31.3,20.4,59.5,42.6,81.6
		c20.4,20.3,47.9,33.6,67.1,54.7c18,19.7,38.3,23.2,64.7,26.9c345.2,48.8,698.3,41.5,1041.2-21.7c37.7-6.9,75.7-14.7,110.2-31.2
		c67.6-32.3,116.3-96.2,144.7-165.6s120.373-88.688,128.873-163.188c4.1-35.9-73.673-127.912-75.773-163.912
		c-0.3-4.6-0.8-9.5-3.9-12.8c-3.5-3.7-9.1-4.3-14.1-4.5c-21.5-0.9-43.1,0.9-64.6,0.2c-14.9-0.4-30.1-1.4-43.9-7.1
		c-11.4-4.6-21.6-12.4-33.6-14.8c-5.3-1.1-10.7-1.1-16-0.9c-24.3,0.8-48.5,5-71.7,12.4c-2.4,0.7-4.8,1.6-6.5,3.3
		c-3,3-3.1,7.9-2.8,12.2c0.3,3.7,0.8,7.4,2.6,10.6c1.9,3.3,5.3,5.8,7.1,9.2c4.4,8.4-1.8,15.5-4.5,23s-4.6,15.8-6.2,23.6
		c-2,9.7,0.4,19.6,0.4,29.5c0,0.4,0,0.9-0.3,1.2c-0.5,0.5-1.3,0.3-2,0.1c-3.9-1.3-8.1-1.5-12.2-1.7c-11.5-0.5-21.1-1.1-31.9-4.5
		c-11.3-3.5-25-4.9-36.7-3c-15.4,2.5-29.5,12.2-37.3,25.7c-3.5,6.1-6.2,13.2-12.3,16.8c-4.5,2.7-10.1,2.7-15.4,2.7
		c-9,0-18.1-0.1-26.7-2.5c-13.7-3.7-28-13.2-40.8-7.1c-13.9,6.5-15.2,26.4-26.7,36.5c-6.8,5.9-16.6,7.8-23.4,13.8
		c-5.1,4.5-8.1,10.9-10.5,17.3c-5.1,13.3-8.7,27.3-10.6,41.4c-0.6,4.7-40.6-6.7-45.7-7c-20.5-1.3-41.1,5-60.7-4.3
		c-7.8-3.7-14.4-9.5-20.9-15.2c-8.2-7.2-16.4-14.4-24.6-21.6c-5-4.5-11.4-9.3-17.9-7.5c-6.2,1.7-9.4,8.6-10.8,14.9
		s-2.2,13.2-6.6,17.9c-10.1-10.5-23.4-18-37.6-21.2c-8.4-1.9-19.1-1.3-23.1,6.3c-2.2,4.1-1.5,9.3-3.6,13.6
		c-3.3,6.9-12.8,8.8-20.1,6.5c-7.4-2.3-13.2-7.8-19.3-12.5c-12.7-9.9-27.3-17.5-42.7-22.1c-2.1,4.9-4.1,9.7-6.2,14.5
		c-24.2-4.2-51.6-2.3-69.2,14.8c-10.1,9.8-16,23.8-27.5,32c-9,6.3-21,8.3-31.6,5.2c-8.3-2.5-15.5-7.8-23.7-10.8
		c-19.5-7.1-37.8,13.4-58.5,13c-15.1-0.3-30.2-7.7-44.8-3.7c-15.6,4.3-25.1,20.7-28,36.6c-3,15.9-1.1,32.4-2.8,48.5
		c-10.9,7.1-24.8-2.2-34.4-10.9c-9.6-8.8-23.7-17.9-34.4-10.4c-5.2,3.6-7.4,10.1-9.4,16.1c-6.2,18.7-15.6,39.4-34.5,45.1
		c-7.3,2.2-15.2,1.7-22.8,1.3c-15.8-1-31.5-1.9-47.3-2.8c-7.7-0.5-15.9-0.8-22.6,3c-6.8,3.9-11,11.4-18,14.7
		c-11.4,5.3-24.2-2.6-35.6-7.9C348.346,768.771,329.346,769.571,309.346,771.371z"/>
</g>
<g id="mouse">
	<path id="XMLID_570_" fill="#A7A9AC" d="M1046.722,618.741c0,0,13-9.2,16-17.1s37.2-65.8-5-98.9c-48.6-38.2-69.2,23.5-73.9,36
		c-5.6,14.9-22.6,16.6-22.6,16.6L1046.722,618.741z"/>
	<path id="XMLID_569_" fill="#A7A9AC" d="M910.222,634.341c0,0-25.4,3.5-38.3,0s-30.6-21.5-35-31.3s-6.6-53.6,0-66.7
		c6.6-13.1,32.8-18.6,51.4-16.4s31.7,28.4,30.1,40.8c-1.6,12.4-6,14.9-3.8,28s4.2,18,4.2,18L910.222,634.341z"/>
	<path id="XMLID_568_" fill="#BCBEC0" d="M810.321,829.641c0,0,41.4-138.1,48.3-163.7c6.9-25.7,46.2-103.7,108.4-112.6
		c62.1-8.8,111.3,86,132,104.7s10.8,171.6,10.8,171.6H810.321z"/>
	<polygon id="XMLID_567_" fill="#939598" points="863.421,830.641 871.321,798.941 890.521,776.641 904.821,786.141 
		932.521,771.341 937.321,750.641 954.622,738.341 962.021,717.141 969.521,702.341 1000.921,691.241 1018.321,699.341 
		1038.722,722.041 1034.822,750.641 1056.622,769.341 1070.222,738.341 1101.922,774.341 1109.822,830.641 	"/>
	<path id="XMLID_566_" fill="#A7A9AC" d="M1038.622,603.741v-19.1l-39.3-32.3l-28.7-0.4l-44.7,5.6l-11.8,3.4l-30.1,64.4l2,4.1
		l-8.8,28.1v24.8l13.2,15l32.7-10.4l24.5-17.6v-20.8c0,0-2.4-22-0.6-23.1c1.9-1.1,7.6-11.9,7.6-11.9l17.2,6l11.9-16l17.2,10.7
		l10.3,27.6l27.5,15.8l8-18.2l-10.6-20.8v-10.8"/>
	<path id="XMLID_565_" fill="#A7A9AC" d="M947.721,570.841l-41.9,21.7l-14-52.4l13.8-1.8c0,0,12.5,17.2,20.4,21.1
		c7.9,3.9,21.7,0,21.7,0V570.841z"/>
	<path id="XMLID_564_" fill="#E6E7E8" d="M1042.822,614.741c0,0,20.6-21.7,23.6-29.6c2.9-7.9,24.6-44.3-14.8-80.8
		s-62.1,21.2-52.2,50c4.1,12,14.8,35.7,14.8,35.7L1042.822,614.741z"/>
	<path id="XMLID_563_" fill="#E6E7E8" d="M906.721,629.141c0,0-22.9,3.2-34.5,0s-27.6-19.3-31.5-28.2s-5.9-48.3,0-60.1
		s29.5-16.8,46.3-14.8s28.6,25.6,27.1,36.8c-1.4,11.2-5.4,13.5-3.4,25.3s3.8,16.2,3.8,16.2L906.721,629.141z"/>
	<polygon id="XMLID_562_" fill="#ECABBF" points="1012.721,735.841 1005.321,735.841 997.122,738.341 986.122,726.041 
		989.122,717.141 1000.921,721.141 1007.821,717.141 1015.721,721.141 	"/>
	<path id="XMLID_561_" d="M1038.322,647.341c0.2-0.9,0.8-6.1,0-8.9s-5.6-8.8-10.5-10.8s-10.8-1-10.8-1l-1.3,11.5l6.1,10.2l3.8,2.6
		l11.8,3C1037.422,653.941,1038.222,648.141,1038.322,647.341z"/>
	<path id="XMLID_560_" d="M929.821,645.341c-1.9,0.6-7.1,3.1-9.7,9.5c-2.6,6.5,1.5,14.5,1.5,14.5v2.6l3.3,1.8l9.5-1.6l12.6-8l-1-8.4
		l-1.5-7.4l-7.2-5.7C937.321,642.641,931.721,644.741,929.821,645.341z"/>
	<path id="XMLID_559_" fill="#FFFFFF" d="M1034.622,640.741c0.8,2.3-1,3.7-1,3.7l-9.3-2.5c0,0,3-0.6,2.9-2.6s-6.1-1.7-6.1-1.7
		l-2.8-4.5c0,0,8.2-0.5,10.8,0.9s2.2,3.7,2.2,3.7S1033.822,638.441,1034.622,640.741z"/>
	<path id="XMLID_558_" fill="#FFFFFF" d="M935.921,654.741c-1.3,0.1-3.4,0.1-3.4,0.1s-1.1,1.9-1.7,3.3s-6.1,0.5-7.1,0
		s-0.4-1.4,1.2-4.1s11.5-5.9,11.5-5.9l5.4,4.1C941.821,652.241,937.122,654.741,935.921,654.741z"/>
	<polygon id="XMLID_557_" fill="#E6E7E8" points="1036.122,713.741 1036.122,727.741 1031.922,738.341 983.721,750.641 
		959.021,741.841 954.622,727.741 964.921,724.541 989.122,741.841 1003.421,741.841 1015.721,735.341 1026.521,717.141 	"/>
	<path id="XMLID_556_" fill="#414042" d="M968.822,700.541c-3.4-2.7-8.1-6.5-13.9-11c-2.9-2.3-6.1-4.7-9.4-7.2
		c-3.3-2.5-6.9-5.1-10.6-7.8c-3.8-2.7-7.6-5.4-11.6-8.1c-2-1.4-4.1-2.7-6.1-4s-4.1-2.5-6.2-3.8c-2.1-1.2-4.2-2.4-6.3-3.6
		c-2.2-1.1-4.3-2.2-6.5-3.2c-4.3-2-8.7-3.7-13-5.2c-8.6-2.9-16.8-5.1-24-6.6s-13.2-2.5-17.4-3.1c-4.3-0.6-6.7-0.8-6.7-0.8
		s2.5,0.1,6.7,0.6s10.3,1.3,17.5,2.7c7.2,1.5,15.5,3.4,24.2,6.4c4.3,1.5,8.7,3.2,13.1,5.2c2.2,0.9,4.4,2.1,6.5,3.2
		c2.2,1.1,4.3,2.4,6.4,3.6c2.1,1.3,4.2,2.6,6.2,3.9c2.1,1.3,4.1,2.6,6.1,4c3.9,2.7,7.8,5.4,11.5,8.1s7.2,5.3,10.5,7.9s6.4,5,9.3,7.3
		c5.7,4.6,10.3,8.5,13.6,11.3s5.1,4.4,5.1,4.4S971.921,703.241,968.822,700.541z"/>
	<path id="XMLID_555_" fill="#414042" d="M962.022,707.241c-4.9-2.3-11.9-5.5-20.3-9.2c-4.2-1.9-8.7-3.8-13.6-5.9
		c-2.4-1-4.9-2-7.5-3.1s-5.2-2.1-7.9-3.2c-2.7-1.1-5.4-2.1-8.2-3.2c-2.8-1-5.6-2-8.4-3.1c-2.8-1-5.7-2-8.6-3c-3-0.9-5.9-1.9-8.8-2.8
		c-2.9-0.8-5.8-1.8-8.8-2.5c-1.4-0.4-2.9-0.8-4.4-1.1c-1.4-0.3-2.9-0.6-4.4-0.9c-5.9-1.1-11.8-1.9-17.5-2.5
		c-11.4-1.1-22.2-1.4-31.4-1.2s-16.8,0.6-22.2,1.1s-8.4,0.9-8.4,0.9s3.1-0.4,8.4-1c5.3-0.6,13-1.2,22.2-1.5s20-0.2,31.5,0.9
		c5.7,0.6,11.6,1.4,17.6,2.5c1.5,0.3,3,0.5,4.5,0.9s3,0.7,4.5,1.1c3,0.7,5.9,1.7,8.9,2.5c3,0.9,5.9,1.9,8.8,2.8c2.9,1,5.7,2,8.6,3
		c2.8,1.1,5.6,2.2,8.4,3.2c2.8,1.1,5.5,2.1,8.2,3.2c2.6,1.1,5.2,2.1,7.8,3.2c2.6,1.1,5.1,2.2,7.5,3.2c4.8,2.1,9.4,4.2,13.6,6.1
		c4.2,1.9,8,3.7,11.4,5.3c3.3,1.6,6.3,3,8.7,4.2c4.9,2.4,7.6,3.8,7.6,3.8S967.021,709.641,962.022,707.241z"/>
	<path id="XMLID_553_" fill="#414042" d="M959.522,714.041c-4.5-1.2-10.9-2.9-18.6-4.9c-3.9-1-8.1-2-12.5-3.1
		c-2.2-0.5-4.5-1.1-6.8-1.6s-4.7-1.1-7.1-1.6s-4.9-1-7.4-1.5s-5-1-7.6-1.5c-2.6-0.4-5.2-0.9-7.8-1.3c-2.6-0.4-5.2-0.8-7.8-1.1
		c-2.7-0.3-5.3-0.7-7.9-0.9c-2.6-0.2-5.2-0.3-7.8-0.4c-5.2-0.2-10.4,0-15.3,0.3c-9.9,0.6-19.1,2-26.9,3.4
		c-7.8,1.5-14.3,2.9-18.8,4.1c-4.5,1.1-7,1.9-7,1.9s2.5-0.8,7-2.1s10.9-3,18.7-4.5s17-3,26.9-3.7c5-0.3,10.2-0.5,15.4-0.4
		c2.6,0.1,5.3,0.2,7.9,0.4s5.3,0.6,7.9,0.9c2.7,0.4,5.3,0.8,7.9,1.2c2.6,0.5,5.2,0.9,7.8,1.4c2.5,0.5,5.1,1,7.6,1.5
		c2.5,0.6,5,1.1,7.4,1.6s4.8,1.1,7.1,1.6c2.3,0.6,4.6,1.2,6.8,1.7c4.4,1.1,8.6,2.2,12.4,3.2c3.9,1,7.4,2,10.5,2.9s5.8,1.7,8,2.4
		c4.5,1.4,7,2.2,7,2.2S964.021,715.441,959.522,714.041z"/>
	<path id="XMLID_551_" fill="#414042" d="M1010.321,698.541c0.8-0.9,2-2.3,3.4-4.2c1.5-1.8,3.2-4.1,5.1-6.7c1.9-2.6,4-5.5,6.5-8.7
		c2.4-3.2,5.2-6.5,8.3-9.9s6.5-6.8,10.2-10.2c1.9-1.7,3.8-3.4,5.7-5.1c1.9-1.7,3.9-3.4,5.9-5.1c2-1.7,4-3.4,6.1-5.1
		c2.1-1.6,4.1-3.3,6.2-5s4.2-3.4,6.3-5c2.1-1.7,4.2-3.2,6.4-4.7c4.3-3,8.8-5.6,13.2-8c8.8-4.8,17.4-8.4,24.9-11.3
		c7.4-2.8,13.8-4.8,18.3-6.1s7.1-1.9,7.1-1.9s-2.6,0.7-7,2.1c-4.5,1.4-10.8,3.6-18.2,6.5c-7.4,2.9-15.9,6.7-24.7,11.5
		c-4.4,2.4-8.8,5-13.1,8c-2.2,1.5-4.3,3.1-6.4,4.7c-2,1.7-4.1,3.3-6.2,5c-2.1,1.6-4.2,3.3-6.2,5c-2.1,1.6-4.1,3.3-6.1,5
		s-4,3.4-5.9,5.1c-2,1.7-3.9,3.4-5.7,5.1c-3.7,3.3-7.1,6.7-10.3,10c-3.1,3.3-5.9,6.6-8.4,9.7c-2.5,3.1-4.7,6-6.7,8.6
		s-3.7,4.8-5.2,6.6c-1.5,1.9-2.7,3.2-3.5,4.2s-1.2,1.5-1.2,1.5S1009.521,699.641,1010.321,698.541z"/>
	<path id="XMLID_549_" fill="#414042" d="M1016.421,704.241c2.3-1.7,5.1-3.7,8.3-6c3.2-2.3,6.8-4.9,10.8-7.6s8.4-5.6,13-8.7
		c2.3-1.6,4.7-3.1,7.1-4.7s4.9-3.2,7.5-4.8s5.2-3.2,7.9-4.8c2.6-1.6,5.4-3.2,8.1-4.8c2.8-1.6,5.6-3.1,8.4-4.7c2.9-1.5,5.7-3,8.6-4.5
		c2.9-1.4,5.8-2.9,8.7-4.2c1.4-0.7,2.9-1.3,4.4-1.9c1.5-0.7,3-1.2,4.5-1.8c6-2.2,12-4.1,17.8-5.7c11.7-3.2,22.8-5.2,32.4-6.6
		s17.7-2.1,23.3-2.5c5.7-0.3,8.9-0.4,8.9-0.4s-3.2,0.1-8.8,0.6c-5.6,0.5-13.7,1.4-23.2,2.9c-9.6,1.5-20.7,3.7-32.3,6.9
		c-5.8,1.6-11.8,3.5-17.7,5.8c-1.5,0.6-2.9,1.2-4.4,1.8s-2.9,1.2-4.4,1.9c-2.9,1.3-5.8,2.8-8.7,4.2c-2.8,1.5-5.7,3-8.5,4.5
		c-2.8,1.6-5.6,3.2-8.4,4.7c-2.7,1.6-5.4,3.2-8.1,4.8s-5.3,3.2-7.9,4.8c-2.5,1.6-5,3.2-7.5,4.7c-2.5,1.6-4.9,3.1-7.2,4.6
		c-4.6,3-9,5.9-13,8.6c-8,5.4-14.7,10-19.3,13.2s-7.2,5.1-7.2,5.1S1012.122,707.641,1016.421,704.241z"/>
	<path id="XMLID_547_" fill="#414042" d="M1022.921,707.141c2.4-0.8,5.2-1.8,8.5-2.9c3.2-1.1,6.9-2.3,11-3.6c4-1.3,8.4-2.6,13.1-4
		c2.3-0.7,4.7-1.4,7.2-2.1c2.5-0.7,5-1.4,7.6-2.1c2.5-0.6,5.2-1.3,7.8-2c2.7-0.6,5.4-1.2,8.1-1.9c2.7-0.6,5.4-1.2,8.2-1.8
		c2.8-0.5,5.6-1.1,8.4-1.6c2.8-0.4,5.6-1,8.4-1.3c2.8-0.4,5.6-0.6,8.4-0.8c5.6-0.4,11.1-0.5,16.4-0.3c10.6,0.3,20.5,1.4,28.9,2.7
		s15.4,2.8,20.2,3.9c4.9,1.1,7.6,1.9,7.6,1.9s-2.7-0.7-7.6-1.7c-4.8-1-11.8-2.3-20.2-3.5s-18.3-2.1-28.9-2.4
		c-5.3-0.2-10.8-0.1-16.3,0.3c-1.4,0.2-2.8,0.2-4.2,0.4c-1.4,0.2-2.8,0.3-4.2,0.5c-2.8,0.3-5.6,0.9-8.4,1.3
		c-2.8,0.5-5.5,1.1-8.3,1.6c-2.7,0.6-5.5,1.2-8.2,1.8c-2.8,0.6-5.4,1.3-8.1,1.9c-2.6,0.7-5.2,1.3-7.8,2s-5.1,1.3-7.6,2
		c-2.4,0.7-4.9,1.3-7.2,2c-4.7,1.4-9.1,2.7-13.2,3.9c-8.1,2.4-14.9,4.6-19.6,6.1c-4.7,1.6-7.4,2.5-7.4,2.5
		S1018.221,709.041,1022.921,707.141z"/>
	<path id="XMLID_545_" fill="#414042" d="M963.822,719.241c-4-0.2-9.8-0.5-16.8-0.8c-3.5-0.1-7.3-0.2-11.3-0.3c-2,0-4-0.1-6.1-0.1
		s-4.2,0-6.4,0c-2.1,0-4.4,0-6.6,0c-2.2,0-4.5,0.1-6.8,0.1c-2.3,0.1-4.6,0.2-6.9,0.3c-2.3,0.2-4.6,0.3-6.9,0.5s-4.6,0.4-6.9,0.7
		s-4.5,0.7-6.8,1.1c-4.5,0.8-8.8,1.9-13,3.1c-8.3,2.4-16,5.2-22.4,7.9c-6.4,2.6-11.7,5.1-15.3,6.9c-3.7,1.8-5.7,2.9-5.7,2.9
		s2-1.2,5.6-3.1c3.6-1.9,8.8-4.5,15.2-7.3s14-5.8,22.4-8.2c4.2-1.2,8.6-2.3,13.1-3.2c2.3-0.4,4.6-0.8,6.9-1.1c2.4-0.3,4.7-0.5,7-0.7
		c2.4-0.1,4.7-0.3,7-0.4s4.6-0.2,6.9-0.3c2.3,0,4.6-0.1,6.8-0.1s4.4,0,6.6,0c2.2,0,4.3,0.1,6.4,0.1c2.1,0.1,4.2,0.1,6.2,0.2
		c4,0.1,7.8,0.3,11.3,0.5c6.9,0.4,12.7,0.9,16.8,1.2c4.1,0.4,6.4,0.6,6.4,0.6S968.221,719.641,963.822,719.241z"/>
	<path id="XMLID_543_" fill="#414042" d="M1021.721,714.941c2.1-0.3,4.6-0.7,7.5-1.2c2.9-0.4,6.2-0.9,9.8-1.4s7.5-1,11.6-1.5
		c2-0.2,4.1-0.5,6.3-0.7c2.1-0.2,4.3-0.4,6.6-0.6c2.3-0.1,4.6-0.3,6.9-0.5c2.3-0.1,4.6-0.3,7-0.4c2.4-0.1,4.8-0.2,7.2-0.3
		c2.4,0,4.8-0.1,7.2,0c4.8,0,9.7,0.3,14.4,0.9c4.8,0.6,9.4,1.4,13.8,2.4c8.8,2,16.9,4.5,23.7,6.9c6.9,2.4,12.4,4.7,16.3,6.4
		c3.8,1.7,6,2.8,6,2.8s-2.2-1-6.1-2.6s-9.6-3.8-16.4-6.1s-14.9-4.7-23.7-6.6c-4.4-0.9-9-1.7-13.7-2.3s-9.5-0.9-14.3-0.9
		c-2.4-0.1-4.8,0-7.2,0c-2.3,0-4.7,0.1-7.1,0.2c-2.3,0.1-4.7,0.3-7,0.4c-2.4,0.2-4.6,0.3-6.9,0.5c-4.5,0.4-8.9,0.8-13,1.2
		s-8,0.9-11.6,1.3c-7.2,0.9-13.1,1.7-17.3,2.3s-6.6,1-6.6,1S1017.521,715.741,1021.721,714.941z"/>
</g>
<g id="top_x5F_forest">
	<path id="XMLID_30_" fill="#1E542A" d="M0,0v1080h1920V0H0z M572.109,129.437l140.651-14.836l-175.326,50.777L572.109,129.437z
		 M365.877,200.014l11.198,4.057l2.517-28.359l2.202-3.901l38.3-26.339l14.761-1.557l78.744,32.831l-185.788,90.717L365.877,200.014
		z M192.049,209.168l56.226,6.303l46-41.4l8.636,3.129l-31.536,79.371l-5.716,27.074l-81.25,13.702L192.049,209.168z
		 M84.775,567.071l-3.333,2.312l5.874-37.764l4.433,43.164L84.775,567.071z M198.307,657.732l-13.682-5.254l-21.85-105.407
		l18.706-215.918l77.76-17.108l-40.965,194.026L198.307,657.732z M1760.356,603.191l-25.381-7.82l-89.1,84.3l-44.1,13.3l-23,88.2
		l-38.803,12.672l-20.197-21.072l-40.3,10l-40.3-40.2l-94,36.9l-80.5-36.9l-57.1,28.5h-60.5l-53.7,57.1l-63.8-42.8l-102.6-11.4
		l-43.4,32.3l-75.6-35.2l-90.6,60.4l-65.5-70.5l-70.5,6.7l-35.2-35.2l-141.433,67.6h-13.067l-32.7-63.6l-103.498,12.136
		l13.798-213.736l44.495-232.824l71.705-15.776l176.3-85.6l276.252-80.385l0.248,0.385l7.744-2.71l85.587-24.904l46.49-4.52
		l16.279,43.834h71.992l-8.292,20.1l52.254,7.112l11.646,16.988l22.799-12.3h0.001l59.4,31.9l43.2-44.9l51.9,66.3l75.1-41.5
		l19.6,39.5l77-0.7l8.967-24.238l78.134,43.038l57.8,19.8l104.3,86.9l45.5,138.9L1760.356,603.191z"/>
	<path id="XMLID_15_" fill="#496B44" d="M478.575,120.971c-11.8,1.6-27.8-13.2-29.9-25.2c-3.1-17.5,18.9-27.8,32.9-35.3
		c21.7-11.6,24.9,3.5,30.9,25.6c6,22.1-1.8,16.8-15.5,29.9"/>
	<path id="XMLID_14_" fill="#496B44" d="M754.775,81.371c-18.7,4.1-46.1-22.7-50.3-40.1c33.1,5.3,60.1,0.3,93.3-1.8
		c1.3,10.8,3,25.1-4.4,33.5"/>
	<path id="XMLID_13_" fill="#496B44" d="M1016.175,112.271c-4.2-13.7-5.9-29.1-4.8-43.5c14.3-2,65.6,28.8,45.1,40.2"/>
	<path id="XMLID_12_" fill="#496B44" d="M1306.575,181.071c-15.6-2.2-20.4-41.3-25-56.2c8.9-6.8,35.6-10.8,45.1-2.6
		c11.5,9.8,1.4,32.9,6.8,45.4"/>
	<path id="XMLID_11_" fill="#496B44" d="M1383.775,112.271c-15.1-2.8-11.9-18.2-11.6-30c10.3-2,20,0.7,25,9.8"/>
	<path id="XMLID_10_" fill="#496B44" d="M1279.775,73.671c-16.4-10,2.2-26.8,16.8-21.4c14.8,5.5,10.1,22.3,10.1,36.6"/>
	<path id="XMLID_9_" fill="#496B44" d="M248.375,563.571c-0.1,30.5-5,59.9-5,90.6c0,18.6-1.2,34-8,50.5c-1.8-8.9-2.3-17.7-2.1-26.9"
		/>
	<path id="XMLID_8_" fill="#496B44" d="M151.775,392.171c0,12.2,8,98.6-11.5,93.8c-0.3-2.8-0.9-7-0.3-9.8"/>
	<path id="XMLID_7_" fill="#496B44" d="M1763.675,321.871c-3.3,24.2,16.8,60.3,23.7,84.2c6,20.6,17.6,51.9,15.4,73.3
		c-7-0.9-11.8-5.1-15.4-10.2"/>
	<path id="XMLID_6_" fill="#496B44" d="M1715.975,779.171c-20-9.1-51.6-98.2-18.1-99.1c16.1-0.4,36.1,37.2,44.7,50.3
		c1.1-18.4-5.2-33,13.7-36.8c12.6-2.5,20.3,4.2,26.9,13.4"/>
	<path id="XMLID_5_" fill="#496B44" d="M1251.375,835.371c-3.1,1.7-8.4,1.9-11.9,3.8c-6.3-13.8,6.3-32.1,15.7-42.5
		c11.2-12.5,11-14.2,25.4-2.9c18.3,14.5,34.1,19.9,26.3,46.6"/>
	<path id="XMLID_4_" fill="#496B44" d="M521.075,809.471c-1.5-7.1,9-32.1,18.5-28.7c4.3,1.6,6.9,18.6,11.7,23.7"/>
	<path id="XMLID_3_" fill="#496B44" d="M614.875,799.271c23.4-22.6,41.5,5.9,45.3,28.5"/>
	<path id="XMLID_2_" fill="#496B44" d="M84.375,684.571c22.4-5.3,45.9-16.7,53.8,10.6c3.6,12.2-3.6,25.5,1.6,36.4"/>
</g>
</svg>
