<?xml version="1.0" encoding="utf-8"?>
<!-- Generator: Adobe Illustrator 19.0.0, SVG Export Plug-In . SVG Version: 6.00 Build 0)  -->
<svg version="1.1" id="Layer_1" xmlns="http://www.w3.org/2000/svg" xmlns:xlink="http://www.w3.org/1999/xlink" x="0px" y="0px"
	 viewBox="0 0 1920 1080" enable-background="new 0 0 1920 1080" xml:space="preserve">
<g id="bottom_x5F_forest_flip">
	<rect id="XMLID_455_" x="35.646" y="43.071" fill="#A4D7F4" width="1806.4" height="976.5"/>
	<path id="XMLID_454_" fill="#8CC640" d="M1084.146,797.871c22.4-36.7,24.7-82.2,20.4-124.9c-3.8-38.1-12.2-75.9-25.1-112
		c-1.1-3.1-2.3-6.2-4.3-8.7c-4.7-5.8-12.9-7.2-20.4-8.1c-32.8-3.7-65.9-4.8-98.8-3c-3.3-14.3-11.6-27.3-23.2-36.3
		c-2.4-1.8-5.2-3.5-8.1-3.2c-4.6,0.6-7.1,5.7-7.4,10.3c-0.3,4.6,0.8,9.3-0.3,13.7c-6.8-10.4-21.2-11.9-33.6-11.5
		c-13,0.5-25.9,1.9-38.7,4.2c-14.2,2.6-111.7,26-104.8-9c0.9-4.6,4.7-8.2,7.5-12c12-16.2,8.6-38.7,4.6-58.5
		c-15.5-3.6-23,22.6-38.6,12c-13.9-9.5-17.5-29.3-30.9-39.5c-10-7.6-23.7-8.3-34.5-14.8c-8.6-5.2-14.8-13.6-21.6-21
		s-15.4-14.3-25.5-14.7c-15.2-0.7-12.7,11.6-20.6,18c-8.3,6.8-24.9-0.2-31.6-6c-18-15.6-21.8-32.4-28.4-54.4
		c-3.8-12.6-10-25.3-21.2-32.2c-9.2-5.7-20.5-6.6-30.9-9.6c-35.6-10.2-56.4-51.8-95-52.2c-6.3,0-12.9,0-18.1,3.5
		c-6.1,4-8.5,12.8-5.4,19.4c14.4,31.1-27.5,30.8-49.1,28.6c-3-0.3-6.2-0.8-8.7-2.5c-5.3-3.6-6-11-7.7-17.2
		c-5.1-18.6-22.3-30.6-36.9-43.3c-8.8-7.6-20.9-19.6-22.7-31.7c-1.3-8.5,5.1-17.3-6.3-21.5c-13-4.8-27.9-11.3-39.3-2
		c-9.1,7.4-19.5,16.6-28,25.3c-18.7,19-32.3,42.7-42.1,67.3c-15.7,39.4-22.5,81.7-33.3,122.8c-9.7,37.2-22.7,73.5-30.7,111.1
		c-19.8,92.5-7.9,192,37.2,275.2s124.3,148.3,215.9,171.7c96.4,24.6,197.7,3.7,297.2,1.3c48.4-1.2,96.9,1.2,145.2-3.7
		c47.8-4.8,94.7-14.9,141.4-25.5c42.9-9.7,84.5-19.7,124.1-39.5C1036.746,848.271,1066.146,827.471,1084.146,797.871z"/>
	<path id="XMLID_171_" fill="#02A64F" d="M309.346,771.371c-12,1.1-37.4,5.9-36.2,21.9c2.4,31.3,20.4,59.5,42.6,81.6
		c20.4,20.3,47.9,33.6,67.1,54.7c18,19.7,38.3,23.2,64.7,26.9c345.2,48.8,698.3,41.5,1041.2-21.7c37.7-6.9,75.7-14.7,110.2-31.2
		c67.6-32.3,116.3-96.2,144.7-165.6s120.373-88.688,128.873-163.188c4.1-35.9-73.673-127.912-75.773-163.912
		c-0.3-4.6-0.8-9.5-3.9-12.8c-3.5-3.7-9.1-4.3-14.1-4.5c-21.5-0.9-43.1,0.9-64.6,0.2c-14.9-0.4-30.1-1.4-43.9-7.1
		c-11.4-4.6-21.6-12.4-33.6-14.8c-5.3-1.1-10.7-1.1-16-0.9c-24.3,0.8-48.5,5-71.7,12.4c-2.4,0.7-4.8,1.6-6.5,3.3
		c-3,3-3.1,7.9-2.8,12.2c0.3,3.7,0.8,7.4,2.6,10.6c1.9,3.3,5.3,5.8,7.1,9.2c4.4,8.4-1.8,15.5-4.5,23s-4.6,15.8-6.2,23.6
		c-2,9.7,0.4,19.6,0.4,29.5c0,0.4,0,0.9-0.3,1.2c-0.5,0.5-1.3,0.3-2,0.1c-3.9-1.3-8.1-1.5-12.2-1.7c-11.5-0.5-21.1-1.1-31.9-4.5
		c-11.3-3.5-25-4.9-36.7-3c-15.4,2.5-29.5,12.2-37.3,25.7c-3.5,6.1-6.2,13.2-12.3,16.8c-4.5,2.7-10.1,2.7-15.4,2.7
		c-9,0-18.1-0.1-26.7-2.5c-13.7-3.7-28-13.2-40.8-7.1c-13.9,6.5-15.2,26.4-26.7,36.5c-6.8,5.9-16.6,7.8-23.4,13.8
		c-5.1,4.5-8.1,10.9-10.5,17.3c-5.1,13.3-8.7,27.3-10.6,41.4c-0.6,4.7-40.6-6.7-45.7-7c-20.5-1.3-41.1,5-60.7-4.3
		c-7.8-3.7-14.4-9.5-20.9-15.2c-8.2-7.2-16.4-14.4-24.6-21.6c-5-4.5-11.4-9.3-17.9-7.5c-6.2,1.7-9.4,8.6-10.8,14.9
		s-2.2,13.2-6.6,17.9c-10.1-10.5-23.4-18-37.6-21.2c-8.4-1.9-19.1-1.3-23.1,6.3c-2.2,4.1-1.5,9.3-3.6,13.6
		c-3.3,6.9-12.8,8.8-20.1,6.5c-7.4-2.3-13.2-7.8-19.3-12.5c-12.7-9.9-27.3-17.5-42.7-22.1c-2.1,4.9-4.1,9.7-6.2,14.5
		c-24.2-4.2-51.6-2.3-69.2,14.8c-10.1,9.8-16,23.8-27.5,32c-9,6.3-21,8.3-31.6,5.2c-8.3-2.5-15.5-7.8-23.7-10.8
		c-19.5-7.1-37.8,13.4-58.5,13c-15.1-0.3-30.2-7.7-44.8-3.7c-15.6,4.3-25.1,20.7-28,36.6c-3,15.9-1.1,32.4-2.8,48.5
		c-10.9,7.1-24.8-2.2-34.4-10.9c-9.6-8.8-23.7-17.9-34.4-10.4c-5.2,3.6-7.4,10.1-9.4,16.1c-6.2,18.7-15.6,39.4-34.5,45.1
		c-7.3,2.2-15.2,1.7-22.8,1.3c-15.8-1-31.5-1.9-47.3-2.8c-7.7-0.5-15.9-0.8-22.6,3c-6.8,3.9-11,11.4-18,14.7
		c-11.4,5.3-24.2-2.6-35.6-7.9C348.346,768.771,329.346,769.571,309.346,771.371z"/>
</g>
<g id="chipmunk">
	<polygon id="XMLID_599_" fill="#A07630" points="884.848,831.454 884.848,801.854 909.248,732.154 898.848,715.354 
		896.448,664.154 925.248,623.354 950.848,613.754 947.648,607.354 946.448,597.754 950.848,580.154 936.448,540.954 
		939.648,523.354 950.848,523.354 992.448,543.354 994.848,548.154 1045.648,545.754 1062.048,532.954 1081.048,524.254 
		1087.848,525.354 1097.248,536.954 1082.048,579.354 1090.048,592.954 1090.048,600.154 1086.848,608.154 1107.648,612.954 
		1138.148,648.954 1142.948,677.354 1142.948,710.554 1111.648,738.554 1123.748,758.554 1139.748,792.454 1131.348,837.054 	"/>
	<polygon id="XMLID_598_" fill="#C1B49A" points="919.848,630.954 959.648,640.154 986.848,656.954 996.448,677.354 
		1008.048,684.954 1026.848,684.954 1046.048,664.154 1046.048,656.954 1072.448,638.554 1109.248,628.154 1122.748,630.754 
		1138.148,648.954 1145.048,680.154 1142.948,710.554 1111.648,738.554 1072.448,726.554 1059.648,752.154 1097.648,781.054 
		1100.848,813.054 1112.448,836.454 895.248,831.454 905.648,787.454 939.648,737.754 909.248,732.154 898.848,715.354 
		896.448,664.154 	"/>
	<path id="XMLID_597_" fill="#C1B49A" d="M951.848,615.754c-1.5-2.7-2.9-5.6-4-8.5c-1.1-3-2-6-2.2-9.3c0-0.9,0-1.6,0.1-2.4
		c0-0.8,0.2-1.6,0.3-2.4c0.3-1.6,0.7-3.2,1.2-4.7s1-3,1.6-4.5c0.3-0.7,0.6-1.5,1-2.2c0.3-0.7,0.7-1.4,1.1-2.2l0.1,1.5
		c-0.7-1-1.4-1.9-2-2.9s-1.2-2-1.8-3s-1.1-2-1.6-3.1c-0.5-1-1-2.1-1.5-3.2c-0.2-0.5-0.4-1.1-0.6-1.7c-0.2-0.6-0.4-1.1-0.6-1.7
		c-0.4-1.1-0.7-2.3-0.8-3.6c-0.2-1.3-0.3-2.2-0.5-3.3s-0.4-2.2-0.6-3.2c-0.9-4.4-2.2-8.7-3.1-13.2c-0.5-2.2-0.9-4.5-1.3-6.9
		c-0.1-1.2-0.3-2.4-0.3-3.7c0-0.6,0-1.3,0.2-2c0.1-0.7,0.3-1.5,0.8-2.3l0.1-0.2l0.2-0.2c1.1-1.1,2.5-2.1,4-2.7s3.1-0.9,4.6-1
		c3.1-0.1,6,0.6,8.7,1.7s5.2,2.5,7.5,4.1s4.5,3.5,6.5,5.5c1,1,1.9,2.1,2.8,3.3c0.2,0.3,0.4,0.6,0.6,0.9s0.3,0.6,0.5,0.9
		c0.4,0.7,0.6,1.4,0.9,2.1c1,2.7,1.4,5.5,1.7,8.3c0.2,2.8,0.3,5.5,0.3,8.3c-0.1,2.8-0.3,5.5-0.6,8.2c-0.1-2.7-0.2-5.5-0.4-8.2
		c-0.3-2.7-0.6-5.4-1.1-8.1c-0.5-2.6-1.1-5.3-2.2-7.6c-0.2-0.6-0.6-1.2-0.8-1.7c-0.1-0.2-0.3-0.5-0.5-0.8c-0.1-0.2-0.4-0.5-0.5-0.7
		c-0.8-1-1.7-2-2.6-2.9c-1.9-1.8-4-3.4-6.2-4.9c-2.2-1.4-4.5-2.7-6.9-3.5c-2.4-0.9-4.9-1.4-7.3-1.3c-2.4,0.2-4.5,1.1-6.1,2.7
		l0.3-0.3c-0.2,0.3-0.4,1.3-0.3,2.3c0,1,0.1,2.1,0.3,3.1c0.3,2.1,0.8,4.3,1.3,6.5c1,4.4,2.1,8.8,3.1,13.3c0.2,1.1,0.5,2.3,0.6,3.4
		c0.2,1.1,0.3,2.5,0.4,3.4c0,0.5,0.2,1,0.3,1.5s0.2,1,0.4,1.5c0.1,0.5,0.3,1,0.5,1.5s0.3,1,0.5,1.5c0.4,1,0.8,2,1.2,3s0.9,2,1.4,3
		s1,2,1.6,2.9c0.5,1,1.1,1.9,1.7,2.8l0.5,0.8l-0.4,0.7c-0.4,0.6-0.7,1.3-1.1,2s-0.7,1.4-1,2.1c-0.7,1.4-1.3,2.8-1.8,4.2
		s-1,2.9-1.4,4.3c-0.2,0.7-0.4,1.5-0.5,2.2s-0.2,1.6-0.2,2.2c0,0.7,0,1.5,0.1,2.3s0.2,1.5,0.3,2.3s0.3,1.5,0.5,2.3s0.4,1.5,0.6,2.3
		C949.548,609.954,950.548,612.854,951.848,615.754z"/>
	<path id="XMLID_595_" fill="#C1B49A" d="M1059.648,553.754c-0.1-2.2,0-4.3,0.3-6.5s0.7-4.3,1.5-6.4c0.4-1,0.9-2.1,1.7-3
		c0.8-1,1.6-1.6,2.4-2.4c1.6-1.5,3.1-3,4.8-4.4c1.7-1.4,3.4-2.8,5.2-4.1c1.9-1.3,3.8-2.5,6.3-3.1c0.6-0.1,1.3-0.3,2.1-0.2
		c0.4,0,0.8,0.1,1.2,0.2c0.2,0.1,0.4,0.1,0.6,0.2l0.4,0.1c1,0.4,2.1,0.8,3.1,1.3c2,1,4.1,2.3,5.7,4.2c1.7,1.8,2.8,4.4,3.1,6.8
		c0.3,2.5,0.1,4.8-0.4,7.1c-0.5,2.2-1.2,4.4-1.9,6.4c-0.8,2.1-1.6,4.1-2.4,6.1c-0.9,2-1.7,4-2.6,5.9c-0.9,2-1.8,3.9-2.6,5.8
		c-0.8,2-1.6,3.9-2.4,5.9s-1.5,4-2.2,6l-0.4-1.4c0.6,0.7,1.1,1.3,1.7,2c0.5,0.7,1,1.3,1.4,2c0.9,1.4,1.7,2.8,2.4,4.3
		c0.3,0.8,0.7,1.5,1,2.3s0.6,1.5,0.8,2.3l0.4,1.2l0.1,0.3l0.1,0.3l0.1,0.6c0.2,0.9,0.2,1.7,0.2,2.6c-0.1,3.4-1.4,6.5-2.9,9.3
		c-1.6,2.8-3.4,5.5-5.6,7.9c1.9-2.5,3.6-5.3,5-8.2c1.3-2.9,2.3-6,2.2-9c0-0.8-0.1-1.5-0.3-2.2l-0.2-0.6l-0.1-0.3l-0.1-0.3l-0.4-1.1
		c-0.3-0.7-0.6-1.4-1-2.1c-0.3-0.7-0.7-1.4-1.1-2.1s-0.8-1.3-1.2-2c-0.4-0.6-0.9-1.3-1.3-1.9c-0.5-0.6-1-1.2-1.5-1.8
		s-1.1-1.2-1.6-1.6l-0.6-0.5l0.2-0.8c0.5-2.1,1.2-4.2,1.8-6.3c0.6-2.1,1.3-4.1,2.1-6.2c0.8-2.1,1.6-4.1,2.5-6l2.5-5.9
		c1.6-3.9,3.1-7.9,4-11.9c0.4-2,0.6-3.9,0.4-5.7c-0.1-0.9-0.3-1.8-0.7-2.6c-0.3-0.8-0.8-1.6-1.4-2.2c-1.2-1.4-2.8-2.5-4.5-3.4
		c-0.9-0.5-1.7-0.9-2.8-1.3l-0.4-0.2c0,0-0.1,0-0.2,0s-0.3-0.1-0.4-0.1c-0.3,0-0.7,0-1.1,0.1c-1.7,0.4-3.6,1.3-5.3,2.4
		c-1.8,1.1-3.5,2.3-5.2,3.6s-3.4,2.6-5.1,3.9l-1.3,1c-0.2,0.2-0.4,0.3-0.6,0.5c-0.2,0.1-0.3,0.3-0.5,0.5c-0.7,0.7-1.2,1.5-1.7,2.4
		c-0.9,1.8-1.6,3.9-2.1,5.9C1060.348,549.454,1059.948,551.554,1059.648,553.754z"/>
	<path id="XMLID_593_" fill="none" stroke="#C1B49A" stroke-width="4" stroke-miterlimit="10" d="M1025.248,664.154l17.6-42.4
		l6.4-22.4c0,0,4.4-8,10.4-7.2s17.4,26.9,12.8,32.4c-12.4,14.8-18,3.6-18,3.6"/>
	<path id="XMLID_592_" fill="none" stroke="#C1B49A" stroke-width="4" stroke-miterlimit="10" d="M1004.448,664.154l-9.6-19.2
		l-6.4-29.6c0,0-13.2-23.2-16.8-23.2s-12,16.3-12,24c-0.1,15.6,16.5,13.7,16.5,13.7"/>
	<path id="XMLID_591_" fill="#231F20" d="M1052.448,631.754l-2.8-7.2c0,0,2.8-2.8,2.8-6s0-14.4,0-14.4s0.8-5.6,4-8.8s11.2,0,11.2,0
		l-4,4.8l4,6.8l2.8,6.6c0,0,2.8,9.6,0,12.7c-2.8,3.1-10.4,3.5-10.4,3.5l-5.6-1.6L1052.448,631.754z"/>
	<path id="XMLID_590_" fill="#231F20" d="M974.848,631.754l4.8-7.2l-2.4-6.4v-10c0,0-0.6-11.4-4.4-12.8c-3.8-1.4-8.4,2-8.4,2
		l4.4,3.2l-5,7.3l-2.4,10.6c0,0,0.2,9.4,1.8,9.8c1.6,0.4,7.3,1.8,7.3,1.8l4.3-3L974.848,631.754L974.848,631.754z"/>
	<path id="XMLID_589_" fill="#FFFFFF" d="M968.648,611.054c0,0-0.4-0.6-0.6-1.5c-0.1-0.4-0.1-0.9-0.1-1.3c0-0.5,0.1-1,0.2-1.4
		c0.2-0.5,0.4-0.9,0.6-1.3c0.1-0.2,0.3-0.4,0.4-0.6s0.3-0.3,0.5-0.5c0.6-0.6,1.3-0.9,1.3-0.9l0.2,0.1c0,0-0.1,0.5-0.3,1.2
		s-0.5,1.6-0.8,2.6c-0.3,0.9-0.6,1.8-0.8,2.5s-0.4,1.1-0.4,1.1L968.648,611.054z"/>
	<path id="XMLID_587_" fill="#FFFFFF" d="M1059.348,602.554c0,0,0.7,0,1.5,0.4c0.4,0.2,0.8,0.4,1.2,0.7c0.4,0.3,0.7,0.6,1,1
		s0.5,0.8,0.7,1.3c0.1,0.2,0.1,0.5,0.2,0.7s0.1,0.4,0.1,0.6c0.1,0.8,0,1.6,0,1.6l-0.2,0.1c0,0-0.3-0.4-0.8-0.9
		c-0.5-0.6-1.1-1.3-1.7-2.1s-1.2-1.6-1.6-2.2c-0.4-0.6-0.7-1-0.7-1L1059.348,602.554z"/>
	<polygon id="XMLID_585_" fill="#C1B49A" stroke="#C1B49A" stroke-miterlimit="10" points="1003.248,661.754 996.448,666.154 
		993.348,670.754 996.448,677.354 1008.048,684.954 1026.848,684.954 1037.548,673.354 1034.448,664.154 1026.248,661.754 	"/>
	<polygon id="XMLID_584_" fill="#CB9798" stroke="#C1B49A" stroke-miterlimit="10" points="1000.448,664.154 995.148,668.054 
		1000.448,677.354 1010.448,682.554 1020.048,682.554 1029.648,677.354 1031.648,673.354 1031.648,665.754 1028.048,673.354 
		1019.648,679.354 1017.248,673.354 1013.448,673.354 1010.848,677.354 1004.448,675.754 1000.448,670.154 	"/>
	
		<linearGradient id="XMLID_16_" gradientUnits="userSpaceOnUse" x1="1014.448" y1="700.9799" x2="1014.4481" y2="686.5743" gradientTransform="matrix(1 0 0 1 0 2)">
		<stop  offset="0" style="stop-color:#C1B49A"/>
		<stop  offset="0.1701" style="stop-color:#BEB096"/>
		<stop  offset="0.3428" style="stop-color:#B5A58A"/>
		<stop  offset="0.5168" style="stop-color:#A79275"/>
		<stop  offset="0.6916" style="stop-color:#927859"/>
		<stop  offset="0.8653" style="stop-color:#785735"/>
		<stop  offset="1" style="stop-color:#603813"/>
	</linearGradient>
	<path id="XMLID_583_" fill="url(#XMLID_16_)" d="M989.248,690.154c0,0,6,3.2,11.2,4.4s15-6,15-6s4.6,5.9,9.8,6.1
		c5.2,0.3,14.4-3.1,14.4-3.1l-5.6,6.9l-19.6,4.4l-14-4L989.248,690.154z"/>
	<polygon id="XMLID_582_" fill="#C1A799" points="930.448,792.654 957.848,803.454 978.448,792.654 987.648,779.854 
		991.548,770.654 1009.648,765.054 1021.648,772.654 1040.848,799.454 1064.848,803.454 1080.448,790.654 1074.248,773.054 
		1039.248,744.154 1018.848,737.354 1000.848,737.354 978.448,748.154 941.248,770.454 	"/>
	<polygon id="XMLID_581_" fill="#D7CAB6" points="944.548,756.354 958.648,753.354 969.148,727.654 984.748,720.754 
		1000.848,730.354 1011.548,738.554 1006.948,740.354 1011.548,742.954 1000.848,746.854 1007.848,753.354 990.048,756.354 
		997.348,760.254 986.748,762.554 978.048,783.154 958.348,796.254 926.148,782.054 	"/>
	<polygon id="XMLID_580_" fill="#D7CAB6" points="1014.948,734.154 1024.648,723.754 1040.348,720.754 1048.248,727.454 
		1061.748,748.754 1076.248,762.954 1082.748,775.154 1063.448,796.254 1029.048,767.154 1027.248,760.954 1019.948,758.554 
		1011.548,758.554 1014.548,753.354 1007.848,753.354 1011.548,749.154 1005.748,747.254 1014.548,739.154 1009.948,737.354 	"/>
	<path id="XMLID_579_" fill="#231F20" d="M1034.248,664.154c0,0,1.4-1.5,3.9-4.1c1.3-1.3,2.9-2.8,4.7-4.5c1.8-1.7,3.9-3.6,6.3-5.7
		c1.2-1,2.4-2.1,3.7-3.1c1.3-1.1,2.7-2.1,4.1-3.2c1.4-1.1,2.9-2.1,4.4-3.2c1.5-1.1,3.1-2.1,4.8-3.2c1.7-1,3.3-2.1,5.1-3
		c0.9-0.5,1.8-1,2.7-1.4c0.9-0.4,1.8-0.9,2.8-1.3l1.4-0.7l1.4-0.6c1-0.4,1.9-0.8,2.9-1.2c1.9-0.7,3.9-1.4,5.9-2
		c4-1.2,8-2.2,12.1-2.8c4-0.6,8.1-0.9,12-0.8c3.9,0,7.7,0.5,11.2,1.2s6.7,2.1,9.5,3.4c2.8,1.4,5.3,2.8,7.5,4c2.2,1.3,4,2.4,5.6,3.4
		c3.1,1.9,4.7,3.1,4.7,3.1s-1.7-1.1-4.8-3c-1.6-0.9-3.4-2-5.7-3.2c-2.2-1.2-4.7-2.5-7.5-3.9c-2.8-1.3-5.9-2.6-9.4-3.2
		c-3.5-0.7-7.2-1-11-1.1c-3.9,0-7.8,0.3-11.8,0.9c-4,0.6-8,1.6-11.9,2.8c-2,0.6-3.9,1.3-5.8,2c-1,0.4-1.9,0.8-2.9,1.1l-1.4,0.6
		l-1.4,0.6c-0.9,0.4-1.8,0.9-2.7,1.3c-0.9,0.5-1.8,0.9-2.6,1.4c-1.8,0.9-3.4,2-5.1,3c-1.6,1-3.2,2.1-4.8,3.1c-1.5,1.1-3,2.1-4.4,3.2
		c-1.4,1.1-2.8,2.1-4.1,3.1c-1.3,1-2.6,2-3.8,3c-2.4,2-4.5,3.8-6.4,5.5s-3.5,3.2-4.8,4.4
		C1035.748,662.654,1034.248,664.154,1034.248,664.154z"/>
	<path id="XMLID_577_" fill="#231F20" d="M1035.248,665.654c0,0,1.6-1.3,4.6-3.4c1.5-1,3.3-2.3,5.4-3.7s4.5-2.9,7.2-4.5
		c1.3-0.8,2.7-1.6,4.2-2.4c1.4-0.8,3-1.6,4.6-2.5s3.2-1.6,4.9-2.5c1.7-0.8,3.4-1.6,5.2-2.3c1.8-0.7,3.6-1.5,5.5-2.1
		c0.9-0.3,1.9-0.7,2.9-1s2-0.6,2.9-0.8l1.5-0.4l1.5-0.3c1-0.2,2-0.5,3-0.7c2-0.4,4.1-0.8,6.1-1c4.1-0.5,8.3-0.8,12.4-0.8
		c4.1,0.1,8.1,0.5,12,1.2c3.8,0.7,7.5,1.8,10.8,3.1c3.4,1.3,6.2,3.1,8.8,4.9c2.5,1.8,4.7,3.6,6.7,5.2c1.9,1.6,3.6,3.1,4.9,4.3
		c2.7,2.4,4.2,3.9,4.2,3.9s-1.5-1.4-4.3-3.7c-1.4-1.2-3.1-2.6-5-4.1c-2-1.6-4.2-3.3-6.8-5.1c-2.5-1.7-5.4-3.5-8.7-4.7
		c-3.3-1.2-6.9-2.2-10.7-2.9c-3.8-0.7-7.8-1-11.8-1.1c-4,0-8.2,0.3-12.2,0.8c-2,0.2-4.1,0.6-6.1,1c-1,0.2-2,0.4-3,0.7l-1.5,0.3
		l-1.5,0.4c-1,0.3-1.9,0.5-2.9,0.8s-1.9,0.6-2.8,1c-1.9,0.6-3.7,1.4-5.5,2.1s-3.5,1.5-5.2,2.3s-3.3,1.5-4.9,2.4
		c-1.6,0.8-3.1,1.6-4.6,2.4s-2.9,1.6-4.2,2.4c-2.7,1.5-5.1,3-7.3,4.3c-2.1,1.3-4,2.5-5.5,3.5
		C1036.948,664.454,1035.248,665.654,1035.248,665.654z"/>
	<path id="XMLID_575_" fill="#231F20" d="M995.148,667.054c0,0-1.4-1.5-4.1-4c-1.3-1.2-2.9-2.7-4.8-4.4s-4-3.5-6.4-5.5
		c-1.2-1-2.4-2-3.8-3c-1.3-1-2.7-2.1-4.1-3.1c-1.4-1.1-2.9-2.1-4.4-3.2c-1.5-1-3.1-2.1-4.8-3.1s-3.3-2.1-5.1-3
		c-0.9-0.5-1.8-0.9-2.6-1.4c-0.9-0.4-1.8-0.9-2.7-1.3l-1.4-0.6l-1.4-0.6c-1-0.4-1.9-0.8-2.9-1.1c-1.9-0.7-3.8-1.4-5.8-2
		c-3.9-1.2-7.9-2.2-11.9-2.8s-8-0.9-11.8-0.9c-3.9,0-7.6,0.4-11,1.1c-3.5,0.6-6.6,1.9-9.4,3.2s-5.3,2.6-7.5,3.9
		c-2.2,1.2-4.1,2.3-5.7,3.2c-3.1,1.9-4.8,3-4.8,3s1.7-1.2,4.7-3.1c1.5-1,3.4-2.1,5.6-3.4s4.7-2.7,7.5-4c2.8-1.4,5.9-2.7,9.5-3.4
		c3.5-0.7,7.3-1.2,11.2-1.2c3.9-0.1,7.9,0.2,12,0.8c4,0.6,8.1,1.6,12.1,2.8c2,0.6,3.9,1.3,5.9,2c1,0.4,1.9,0.8,2.9,1.2l1.4,0.6
		l1.4,0.7c0.9,0.4,1.8,0.9,2.8,1.3c0.9,0.5,1.8,1,2.7,1.4c1.8,0.9,3.4,2,5.1,3c1.6,1.1,3.2,2.1,4.8,3.2c1.5,1.1,3,2.1,4.4,3.2
		c1.4,1.1,2.8,2.1,4.1,3.2c1.3,1,2.6,2.1,3.7,3.1c2.4,2,4.5,3.9,6.3,5.7c1.8,1.7,3.4,3.3,4.7,4.5
		C993.748,665.454,995.148,667.054,995.148,667.054z"/>
	<path id="XMLID_573_" fill="#231F20" d="M994.148,668.554c0,0-1.7-1.2-4.7-3.2c-1.5-1-3.3-2.2-5.5-3.5c-2.1-1.3-4.6-2.8-7.3-4.3
		c-1.3-0.8-2.7-1.6-4.2-2.4s-3-1.6-4.6-2.4s-3.2-1.6-4.9-2.4c-1.7-0.8-3.4-1.5-5.2-2.3c-1.8-0.7-3.6-1.5-5.5-2.1
		c-0.9-0.3-1.9-0.6-2.8-1c-1-0.3-1.9-0.5-2.9-0.8l-1.5-0.4l-1.5-0.3c-1-0.2-2-0.5-3-0.7c-2-0.4-4-0.7-6.1-1
		c-4.1-0.5-8.2-0.9-12.2-0.8c-4,0-8,0.4-11.8,1.1s-7.4,1.7-10.7,2.9s-6.2,3-8.7,4.7c-2.5,1.8-4.8,3.5-6.8,5.1s-3.7,3-5,4.1
		c-2.8,2.3-4.3,3.7-4.3,3.7s1.5-1.5,4.2-3.9c1.3-1.2,3-2.7,4.9-4.3s4.1-3.4,6.7-5.2c2.5-1.8,5.4-3.7,8.8-4.9c3.3-1.3,7-2.4,10.8-3.1
		s7.9-1.1,12-1.2c4.1-0.1,8.3,0.2,12.4,0.8c2.1,0.3,4.1,0.7,6.1,1c1,0.2,2,0.4,3,0.7l1.5,0.3l1.5,0.4c1,0.3,2,0.6,2.9,0.8
		c1,0.3,1.9,0.7,2.9,1c1.9,0.6,3.7,1.4,5.5,2.1c1.8,0.8,3.5,1.5,5.2,2.3s3.3,1.6,4.9,2.5c1.6,0.8,3.1,1.6,4.6,2.5
		c1.5,0.8,2.9,1.6,4.2,2.4c2.7,1.6,5.1,3.1,7.2,4.5c2.1,1.4,3.9,2.6,5.4,3.7C992.548,667.254,994.148,668.554,994.148,668.554z"/>
</g>
<g id="top_x5F_forest">
	<path id="XMLID_30_" fill="#1E542A" d="M0,0v1080h1920V0H0z M572.109,129.437l140.651-14.836l-175.326,50.777L572.109,129.437z
		 M365.877,200.014l11.198,4.057l2.517-28.359l2.202-3.901l38.3-26.339l14.761-1.557l78.744,32.831l-185.788,90.717L365.877,200.014
		z M192.049,209.168l56.226,6.303l46-41.4l8.636,3.129l-31.536,79.371l-5.716,27.074l-81.25,13.702L192.049,209.168z
		 M84.775,567.071l-3.333,2.312l5.874-37.764l4.433,43.164L84.775,567.071z M198.307,657.732l-13.682-5.254l-21.85-105.407
		l18.706-215.918l77.76-17.108l-40.965,194.026L198.307,657.732z M1760.356,603.191l-25.381-7.82l-89.1,84.3l-44.1,13.3l-23,88.2
		l-38.803,12.672l-20.197-21.072l-40.3,10l-40.3-40.2l-94,36.9l-80.5-36.9l-57.1,28.5h-60.5l-53.7,57.1l-63.8-42.8l-102.6-11.4
		l-43.4,32.3l-75.6-35.2l-90.6,60.4l-65.5-70.5l-70.5,6.7l-35.2-35.2l-141.433,67.6h-13.067l-32.7-63.6l-103.498,12.136
		l13.798-213.736l44.495-232.824l71.705-15.776l176.3-85.6l276.252-80.385l0.248,0.385l7.744-2.71l85.587-24.904l46.49-4.52
		l16.279,43.834h71.992l-8.292,20.1l52.254,7.112l11.646,16.988l22.799-12.3h0.001l59.4,31.9l43.2-44.9l51.9,66.3l75.1-41.5
		l19.6,39.5l77-0.7l8.967-24.238l78.134,43.038l57.8,19.8l104.3,86.9l45.5,138.9L1760.356,603.191z"/>
	<path id="XMLID_15_" fill="#496B44" d="M478.575,120.971c-11.8,1.6-27.8-13.2-29.9-25.2c-3.1-17.5,18.9-27.8,32.9-35.3
		c21.7-11.6,24.9,3.5,30.9,25.6c6,22.1-1.8,16.8-15.5,29.9"/>
	<path id="XMLID_14_" fill="#496B44" d="M754.775,81.371c-18.7,4.1-46.1-22.7-50.3-40.1c33.1,5.3,60.1,0.3,93.3-1.8
		c1.3,10.8,3,25.1-4.4,33.5"/>
	<path id="XMLID_13_" fill="#496B44" d="M1016.175,112.271c-4.2-13.7-5.9-29.1-4.8-43.5c14.3-2,65.6,28.8,45.1,40.2"/>
	<path id="XMLID_12_" fill="#496B44" d="M1306.575,181.071c-15.6-2.2-20.4-41.3-25-56.2c8.9-6.8,35.6-10.8,45.1-2.6
		c11.5,9.8,1.4,32.9,6.8,45.4"/>
	<path id="XMLID_11_" fill="#496B44" d="M1383.775,112.271c-15.1-2.8-11.9-18.2-11.6-30c10.3-2,20,0.7,25,9.8"/>
	<path id="XMLID_10_" fill="#496B44" d="M1279.775,73.671c-16.4-10,2.2-26.8,16.8-21.4c14.8,5.5,10.1,22.3,10.1,36.6"/>
	<path id="XMLID_9_" fill="#496B44" d="M248.375,563.571c-0.1,30.5-5,59.9-5,90.6c0,18.6-1.2,34-8,50.5c-1.8-8.9-2.3-17.7-2.1-26.9"
		/>
	<path id="XMLID_8_" fill="#496B44" d="M151.775,392.171c0,12.2,8,98.6-11.5,93.8c-0.3-2.8-0.9-7-0.3-9.8"/>
	<path id="XMLID_7_" fill="#496B44" d="M1763.675,321.871c-3.3,24.2,16.8,60.3,23.7,84.2c6,20.6,17.6,51.9,15.4,73.3
		c-7-0.9-11.8-5.1-15.4-10.2"/>
	<path id="XMLID_6_" fill="#496B44" d="M1715.975,779.171c-20-9.1-51.6-98.2-18.1-99.1c16.1-0.4,36.1,37.2,44.7,50.3
		c1.1-18.4-5.2-33,13.7-36.8c12.6-2.5,20.3,4.2,26.9,13.4"/>
	<path id="XMLID_5_" fill="#496B44" d="M1251.375,835.371c-3.1,1.7-8.4,1.9-11.9,3.8c-6.3-13.8,6.3-32.1,15.7-42.5
		c11.2-12.5,11-14.2,25.4-2.9c18.3,14.5,34.1,19.9,26.3,46.6"/>
	<path id="XMLID_4_" fill="#496B44" d="M521.075,809.471c-1.5-7.1,9-32.1,18.5-28.7c4.3,1.6,6.9,18.6,11.7,23.7"/>
	<path id="XMLID_3_" fill="#496B44" d="M614.875,799.271c23.4-22.6,41.5,5.9,45.3,28.5"/>
	<path id="XMLID_2_" fill="#496B44" d="M84.375,684.571c22.4-5.3,45.9-16.7,53.8,10.6c3.6,12.2-3.6,25.5,1.6,36.4"/>
</g>
</svg>
