<?xml version="1.0" encoding="utf-8"?>
<!-- Generator: Adobe Illustrator 19.0.0, SVG Export Plug-In . SVG Version: 6.00 Build 0)  -->
<svg version="1.1" id="Layer_1" xmlns="http://www.w3.org/2000/svg" xmlns:xlink="http://www.w3.org/1999/xlink" x="0px" y="0px"
	 viewBox="0 0 1920 1080" enable-background="new 0 0 1920 1080" xml:space="preserve">
<g id="bottom_x5F_forest_flip">
	<rect id="XMLID_455_" x="35.646" y="43.071" fill="#A4D7F4" width="1806.4" height="976.5"/>
	<path id="XMLID_454_" fill="#8CC640" d="M1084.146,797.871c22.4-36.7,24.7-82.2,20.4-124.9c-3.8-38.1-12.2-75.9-25.1-112
		c-1.1-3.1-2.3-6.2-4.3-8.7c-4.7-5.8-12.9-7.2-20.4-8.1c-32.8-3.7-65.9-4.8-98.8-3c-3.3-14.3-11.6-27.3-23.2-36.3
		c-2.4-1.8-5.2-3.5-8.1-3.2c-4.6,0.6-7.1,5.7-7.4,10.3c-0.3,4.6,0.8,9.3-0.3,13.7c-6.8-10.4-21.2-11.9-33.6-11.5
		c-13,0.5-25.9,1.9-38.7,4.2c-14.2,2.6-111.7,26-104.8-9c0.9-4.6,4.7-8.2,7.5-12c12-16.2,8.6-38.7,4.6-58.5
		c-15.5-3.6-23,22.6-38.6,12c-13.9-9.5-17.5-29.3-30.9-39.5c-10-7.6-23.7-8.3-34.5-14.8c-8.6-5.2-14.8-13.6-21.6-21
		s-15.4-14.3-25.5-14.7c-15.2-0.7-12.7,11.6-20.6,18c-8.3,6.8-24.9-0.2-31.6-6c-18-15.6-21.8-32.4-28.4-54.4
		c-3.8-12.6-10-25.3-21.2-32.2c-9.2-5.7-20.5-6.6-30.9-9.6c-35.6-10.2-56.4-51.8-95-52.2c-6.3,0-12.9,0-18.1,3.5
		c-6.1,4-8.5,12.8-5.4,19.4c14.4,31.1-27.5,30.8-49.1,28.6c-3-0.3-6.2-0.8-8.7-2.5c-5.3-3.6-6-11-7.7-17.2
		c-5.1-18.6-22.3-30.6-36.9-43.3c-8.8-7.6-20.9-19.6-22.7-31.7c-1.3-8.5,5.1-17.3-6.3-21.5c-13-4.8-27.9-11.3-39.3-2
		c-9.1,7.4-19.5,16.6-28,25.3c-18.7,19-32.3,42.7-42.1,67.3c-15.7,39.4-22.5,81.7-33.3,122.8c-9.7,37.2-22.7,73.5-30.7,111.1
		c-19.8,92.5-7.9,192,37.2,275.2s124.3,148.3,215.9,171.7c96.4,24.6,197.7,3.7,297.2,1.3c48.4-1.2,96.9,1.2,145.2-3.7
		c47.8-4.8,94.7-14.9,141.4-25.5c42.9-9.7,84.5-19.7,124.1-39.5C1036.746,848.271,1066.146,827.471,1084.146,797.871z"/>
	<path id="XMLID_171_" fill="#02A64F" d="M309.346,771.371c-12,1.1-37.4,5.9-36.2,21.9c2.4,31.3,20.4,59.5,42.6,81.6
		c20.4,20.3,47.9,33.6,67.1,54.7c18,19.7,38.3,23.2,64.7,26.9c345.2,48.8,698.3,41.5,1041.2-21.7c37.7-6.9,75.7-14.7,110.2-31.2
		c67.6-32.3,116.3-96.2,144.7-165.6s120.373-88.688,128.873-163.188c4.1-35.9-73.673-127.912-75.773-163.912
		c-0.3-4.6-0.8-9.5-3.9-12.8c-3.5-3.7-9.1-4.3-14.1-4.5c-21.5-0.9-43.1,0.9-64.6,0.2c-14.9-0.4-30.1-1.4-43.9-7.1
		c-11.4-4.6-21.6-12.4-33.6-14.8c-5.3-1.1-10.7-1.1-16-0.9c-24.3,0.8-48.5,5-71.7,12.4c-2.4,0.7-4.8,1.6-6.5,3.3
		c-3,3-3.1,7.9-2.8,12.2c0.3,3.7,0.8,7.4,2.6,10.6c1.9,3.3,5.3,5.8,7.1,9.2c4.4,8.4-1.8,15.5-4.5,23s-4.6,15.8-6.2,23.6
		c-2,9.7,0.4,19.6,0.4,29.5c0,0.4,0,0.9-0.3,1.2c-0.5,0.5-1.3,0.3-2,0.1c-3.9-1.3-8.1-1.5-12.2-1.7c-11.5-0.5-21.1-1.1-31.9-4.5
		c-11.3-3.5-25-4.9-36.7-3c-15.4,2.5-29.5,12.2-37.3,25.7c-3.5,6.1-6.2,13.2-12.3,16.8c-4.5,2.7-10.1,2.7-15.4,2.7
		c-9,0-18.1-0.1-26.7-2.5c-13.7-3.7-28-13.2-40.8-7.1c-13.9,6.5-15.2,26.4-26.7,36.5c-6.8,5.9-16.6,7.8-23.4,13.8
		c-5.1,4.5-8.1,10.9-10.5,17.3c-5.1,13.3-8.7,27.3-10.6,41.4c-0.6,4.7-40.6-6.7-45.7-7c-20.5-1.3-41.1,5-60.7-4.3
		c-7.8-3.7-14.4-9.5-20.9-15.2c-8.2-7.2-16.4-14.4-24.6-21.6c-5-4.5-11.4-9.3-17.9-7.5c-6.2,1.7-9.4,8.6-10.8,14.9
		s-2.2,13.2-6.6,17.9c-10.1-10.5-23.4-18-37.6-21.2c-8.4-1.9-19.1-1.3-23.1,6.3c-2.2,4.1-1.5,9.3-3.6,13.6
		c-3.3,6.9-12.8,8.8-20.1,6.5c-7.4-2.3-13.2-7.8-19.3-12.5c-12.7-9.9-27.3-17.5-42.7-22.1c-2.1,4.9-4.1,9.7-6.2,14.5
		c-24.2-4.2-51.6-2.3-69.2,14.8c-10.1,9.8-16,23.8-27.5,32c-9,6.3-21,8.3-31.6,5.2c-8.3-2.5-15.5-7.8-23.7-10.8
		c-19.5-7.1-37.8,13.4-58.5,13c-15.1-0.3-30.2-7.7-44.8-3.7c-15.6,4.3-25.1,20.7-28,36.6c-3,15.9-1.1,32.4-2.8,48.5
		c-10.9,7.1-24.8-2.2-34.4-10.9c-9.6-8.8-23.7-17.9-34.4-10.4c-5.2,3.6-7.4,10.1-9.4,16.1c-6.2,18.7-15.6,39.4-34.5,45.1
		c-7.3,2.2-15.2,1.7-22.8,1.3c-15.8-1-31.5-1.9-47.3-2.8c-7.7-0.5-15.9-0.8-22.6,3c-6.8,3.9-11,11.4-18,14.7
		c-11.4,5.3-24.2-2.6-35.6-7.9C348.346,768.771,329.346,769.571,309.346,771.371z"/>
</g>
<g id="raccoon">
	<path id="XMLID_541_" fill="#877969" d="M1171.558,451.634c0,0,28.5,46.8,28.5,75.3c0,28.5-17.6,95.3-17.6,95.3l17.6,21.7
		l-34.809,195.589l-235.941,68.089c0,0-154.15-231.878-154.15-266.978s18.4-39.3,18.4-39.3s-28.4-19.2-18.4-71.1
		s23.4-56.9,23.4-56.9l-10-33.5c0,0-18.4-58.5,3.3-93.7c21.7-35.1,40.1-11.7,40.1-11.7l53.5,15.1l165.6-3.3l103.7-43.5
		c0,0,23.4-3.3,31.8,10c8.4,13.4,10,48.5,3.3,63.6C1183.259,391.434,1171.558,451.634,1171.558,451.634z"/>
	<polygon id="XMLID_540_" fill="#B2A496" points="1044.458,532.534 1019.859,548.134 1021.558,555.934 992.058,560.334 
		994.259,546.434 977.558,530.234 900.558,588.834 940.159,637.334 1067.859,632.334 1099.659,578.734 	"/>
	<polygon id="XMLID_539_" fill="#594F45" points="1047.859,464.034 1034.359,501.834 1041.159,532.534 1091.259,587.134 
		1044.458,632.334 982.558,632.334 947.458,632.334 910.659,593.834 982.558,532.534 972.558,483.434 960.759,471.734 
		888.859,480.034 840.359,532.534 818.659,600.534 893.859,644.034 982.558,662.434 1002.659,652.334 1022.659,662.434 
		1069.558,640.634 1126.359,623.934 1184.958,588.834 1195.659,563.234 1158.159,525.234 1099.659,464.034 	"/>
	<path id="XMLID_538_" fill="#B2A496" d="M1044.458,470.034c0,0,16.7-35.1,45.2-33.5s53.5,33.5,53.5,33.5l41.8,33.5v51.8l-13.4,11.7
		l-43.5-34.5l5-30.8l-45.2-21.7L1044.458,470.034z"/>
	<polygon id="XMLID_537_" fill="#B2A496" points="960.759,471.734 945.759,488.434 920.659,488.434 903.958,501.834 
		888.859,501.834 845.359,567.034 801.859,578.734 801.859,532.534 872.159,453.334 922.359,444.934 	"/>
	<path id="XMLID_536_" fill="#594F45" d="M1155.359,436.534l19.5-46.2c0,0,16.7-65.2-3.3-70.7c-20.1-5.5-88.7,49.3-88.7,49.3
		L1155.359,436.534z"/>
	<path id="XMLID_535_" fill="#594F45" d="M881.359,381.434l-47.7-28.4c0,0-19.6-7.5-31.8,6.7c-15.6,18.2,0,58.5,0,58.5l23.4,33.5
		L881.359,381.434z"/>
	<polygon id="XMLID_534_" fill="#594F45" points="814.659,458.034 798.558,473.434 785.759,440.734 782.259,408.134 	"/>
	<polygon id="XMLID_533_" fill="#594F45" points="1028.859,555.934 990.359,555.934 973.058,581.034 975.859,598.834 
		989.259,614.434 1015.458,614.434 1038.259,600.534 1038.259,575.434 	"/>
	<path id="XMLID_532_" fill="#594F45" d="M1044.458,614.434l-29,5.6l-3.3-8.9h-5v8.9l-34.1-4.5c0,0,25.6,13.4,39,11.7
		C1025.458,625.534,1044.458,614.434,1044.458,614.434z"/>
	<path id="XMLID_531_" d="M955.558,523.734c0,0-8.6-24.4-23-24.4s-29.5,7.6-29.5,7.6l5,1.3c0,0-6.5,17.3-0.7,22.5
		s19.4,13.6,30.2,7.5C948.458,532.134,955.558,523.734,955.558,523.734z"/>
	<path id="XMLID_530_" fill="#FFFFFF" d="M925.859,512.234c0,4,4.2,7.2,9.4,7.2s9.4-3.2,9.4-7.2s-4.2-7.2-9.4-7.2
		S925.859,508.234,925.859,512.234z"/>
	<polygon id="XMLID_529_" fill="#B2A496" points="1182.458,622.234 1132.159,662.434 1051.159,680.834 1067.859,712.534 
		1041.159,952.734 1172.458,842.734 1199.958,644.034 	"/>
	<path id="XMLID_528_" fill="#B2A496" d="M793.558,601.334l25.1,36l82,41.8l48.9,13.4l-32.2,26.8h-45.8l62.6,18.4l5.9,195.1
		l-141.5-170c0,0-22.6-48-23.4-122.1C774.359,566.534,793.558,601.334,793.558,601.334z"/>
	<path id="XMLID_527_" d="M1046.859,515.534c0,0,8.6-24.4,23-24.4s29.5,7.6,29.5,7.6l-5,1.3c0,0,6.5,17.3,0.7,22.5
		s-19.4,13.6-30.2,7.5C1054.058,523.934,1046.859,515.534,1046.859,515.534z"/>
	<ellipse id="XMLID_526_" fill="#FFFFFF" cx="1078.859" cy="502.334" rx="9.1" ry="7.3"/>
	<g id="XMLID_554_">
		<path id="XMLID_525_" fill="#B2A496" d="M942.359,586.534c0,0-3.5-1-9.5-2.7c-6.1-1.7-14.8-3.9-25.3-6.3
			c-10.5-2.4-22.9-4.9-36.2-6.8c-6.7-0.9-13.6-1.7-20.6-2c-3.5-0.2-7.1-0.2-10.6-0.1c-3.5,0.2-7.2,0.3-10.7,0.5
			c-7.1,0.4-14.3,1.2-21.3,2.3s-13.8,2.4-20.3,4c-6.5,1.7-12.8,3.5-18.6,5.5s-11.2,4.3-16.1,6.6c-9.7,4.6-17.4,9.4-22.5,13.1
			c-2.5,1.9-4.5,3.4-5.7,4.5c-1.3,1.1-1.9,1.7-1.9,1.7s2.4-2.7,7.4-6.6c5-3.9,12.5-9,22.2-13.8s21.6-9.4,34.7-12.8
			c6.6-1.7,13.4-3.1,20.5-4.2c7-1.1,14.2-1.9,21.4-2.4c3.6-0.3,7.2-0.3,10.8-0.5c3.6-0.1,7.2,0,10.8,0.2c7.1,0.4,14.1,1.2,20.8,2.2
			s13.1,2.2,19.2,3.5s11.8,2.6,17,3.9c10.5,2.6,19.1,5.2,25.1,7.1C938.958,585.334,942.359,586.534,942.359,586.534z"/>
	</g>
	<g id="XMLID_552_">
		<path id="XMLID_524_" fill="#B2A496" d="M925.359,594.534c0,0-3.6-0.5-9.8-1.1c-6.3-0.7-15.2-1.5-26-2.3
			c-10.8-0.7-23.3-1.2-36.8-1c-6.7,0.1-13.7,0.5-20.7,1.2c-3.5,0.4-7,0.9-10.5,1.5c-3.5,0.7-7.1,1.4-10.5,2.2
			c-7,1.5-13.9,3.4-20.6,5.6c-6.7,2.1-13.3,4.5-19.4,7.2c-6.2,2.7-12,5.5-17.5,8.4c-5.4,2.9-10.4,6-14.8,9
			c-8.9,6.1-15.7,12-20.1,16.5c-2.2,2.2-3.9,4.1-5,5.4s-1.6,2-1.6,2s2-3,6.3-7.7c4.3-4.6,10.9-10.8,19.7-17.1s19.8-12.7,32.2-18.1
			c6.2-2.7,12.8-5.2,19.5-7.4c6.8-2.2,13.7-4.2,20.8-5.8c1.8-0.4,3.5-0.8,5.3-1.1s3.5-0.7,5.3-1c3.6-0.6,7.1-1.1,10.7-1.5
			c7.1-0.8,14.1-1,20.9-1.1c6.8-0.1,13.3,0.1,19.5,0.4s12,0.7,17.4,1.2c10.8,0.9,19.7,2.1,25.9,3
			C921.759,593.934,925.359,594.534,925.359,594.534z"/>
	</g>
	<g id="XMLID_550_">
		<path id="XMLID_523_" fill="#B2A496" d="M933.259,597.234c0,0-3.5-1-9.5-2.7c-6.1-1.7-14.8-3.9-25.3-6.3
			c-10.5-2.4-22.9-4.9-36.2-6.8c-6.7-0.9-13.6-1.7-20.6-2c-3.5-0.2-7.1-0.2-10.6-0.1c-3.5,0.2-7.2,0.3-10.7,0.5
			c-7.1,0.4-14.3,1.2-21.3,2.3s-13.8,2.4-20.3,4c-6.5,1.7-12.8,3.5-18.6,5.5s-11.2,4.3-16.1,6.6c-9.7,4.6-17.4,9.4-22.5,13.1
			c-2.5,1.9-4.5,3.4-5.7,4.5c-1.3,1.1-1.9,1.7-1.9,1.7s2.4-2.7,7.4-6.6c5-3.9,12.5-9,22.2-13.8s21.6-9.4,34.7-12.8
			c6.6-1.7,13.4-3.1,20.5-4.2c7-1.1,14.2-1.9,21.4-2.4c3.6-0.3,7.2-0.3,10.8-0.5c3.6-0.1,7.2,0,10.8,0.2c7.1,0.4,14.1,1.2,20.8,2.2
			s13.1,2.2,19.2,3.5s11.8,2.6,17,3.9c10.5,2.6,19.1,5.2,25.1,7.1C929.859,596.034,933.259,597.234,933.259,597.234z"/>
	</g>
	<g id="XMLID_548_">
		<path id="XMLID_522_" fill="#B2A496" d="M1241.359,567.234c0,0-3-0.9-8.2-2.3c-5.3-1.4-12.8-3.3-21.9-5.4
			c-9.1-2.1-19.8-4.2-31.3-5.8c-5.8-0.8-11.7-1.5-17.8-1.8c-3-0.2-6.1-0.2-9.2-0.1c-3.1,0.1-6.2,0.2-9.3,0.5
			c-6.2,0.4-12.3,1-18.4,1.9c-6,0.9-11.9,2.1-17.6,3.5c-5.6,1.4-11,3-16,4.8s-9.7,3.7-13.9,5.7c-8.4,4-15,8-19.4,11.3
			c-4.4,3.2-6.6,5.4-6.6,5.4s2.1-2.3,6.4-5.7s10.8-7.8,19.2-12c8.4-4.2,18.6-8.2,30-11.1c5.7-1.5,11.6-2.7,17.7-3.6
			c6.1-1,12.3-1.7,18.5-2.1c3.1-0.3,6.2-0.3,9.3-0.4c3.1,0,6.2,0,9.3,0.2c6.2,0.3,12.2,1.1,18,1.9s11.4,1.9,16.6,3
			s10.2,2.3,14.7,3.4c9.1,2.3,16.5,4.5,21.7,6.1C1238.458,566.134,1241.359,567.234,1241.359,567.234z"/>
	</g>
	<g id="XMLID_546_">
		<path id="XMLID_521_" fill="#B2A496" d="M1243.659,609.234c0,0-2.8-1.4-7.7-3.7c-4.9-2.3-12-5.5-20.6-9.1s-18.8-7.5-29.8-11.1
			c-5.5-1.8-11.3-3.4-17.3-4.7c-3-0.7-6-1.2-9-1.7c-3-0.4-6.2-0.8-9.2-1.1c-6.1-0.7-12.3-1.1-18.4-1.2c-6.1-0.1-12.1,0-17.9,0.4
			c-5.8,0.5-11.4,1.1-16.6,2c-5.3,0.9-10.2,2-14.6,3.2c-9,2.5-16.2,5.4-21.1,7.8c-4.9,2.4-7.4,4.2-7.4,4.2s2.5-1.9,7.3-4.5
			s11.9-5.9,20.9-8.5c9-2.7,19.8-4.9,31.4-5.9c5.8-0.5,11.9-0.7,18.1-0.6c6.2,0.1,12.4,0.4,18.6,1.1c3.1,0.3,6.2,0.8,9.3,1.2
			c3.1,0.5,6.2,1.1,9.2,1.8c6,1.4,11.8,3.1,17.4,4.9s10.9,3.8,15.8,5.8c5,2,9.6,4,13.9,5.9c8.6,3.8,15.5,7.3,20.4,9.7
			C1240.958,607.634,1243.659,609.234,1243.659,609.234z"/>
	</g>
	<g id="XMLID_544_">
		<path id="XMLID_120_" fill="#B2A496" d="M1245.859,642.334c0,0-2.5-1.9-6.9-5.1s-10.8-7.7-18.5-12.8c-7.8-5.2-17-10.9-27.2-16.6
			c-5.1-2.8-10.4-5.5-16-8c-2.8-1.2-5.6-2.3-8.5-3.4c-2.9-0.9-5.9-2-8.8-2.8c-5.9-1.9-11.9-3.4-17.9-4.7s-11.9-2.3-17.6-3
			c-5.8-0.7-11.4-1.1-16.7-1.2c-5.3-0.1-10.4,0-15,0.4c-9.3,0.7-16.9,2.2-22.2,3.6c-5.3,1.4-8.1,2.7-8.1,2.7s2.8-1.4,8-3.1
			c5.2-1.6,12.8-3.5,22.2-4.4c9.3-0.9,20.3-1,32,0.3c5.8,0.6,11.8,1.6,17.8,2.9s12.1,2.8,18.1,4.6c3,0.9,5.9,1.9,8.9,2.9
			c2.9,1.1,5.8,2.2,8.6,3.5c5.6,2.5,11,5.3,16.1,8.2c5.1,2.8,9.9,5.8,14.4,8.7s8.7,5.7,12.5,8.4c7.7,5.3,13.8,10.1,18.1,13.5
			C1243.458,640.334,1245.859,642.334,1245.859,642.334z"/>
	</g>
</g>
<g id="top_x5F_forest">
	<path id="XMLID_30_" fill="#1E542A" d="M0,0v1080h1920V0H0z M572.109,129.437l140.651-14.836l-175.326,50.777L572.109,129.437z
		 M365.877,200.014l11.198,4.057l2.517-28.359l2.202-3.901l38.3-26.339l14.761-1.557l78.744,32.831l-185.788,90.717L365.877,200.014
		z M192.049,209.168l56.226,6.303l46-41.4l8.636,3.129l-31.536,79.371l-5.716,27.074l-81.25,13.702L192.049,209.168z
		 M84.775,567.071l-3.333,2.312l5.874-37.764l4.433,43.164L84.775,567.071z M198.307,657.732l-13.682-5.254l-21.85-105.407
		l18.706-215.918l77.76-17.108l-40.965,194.026L198.307,657.732z M1760.356,603.191l-25.381-7.82l-89.1,84.3l-44.1,13.3l-23,88.2
		l-38.803,12.672l-20.197-21.072l-40.3,10l-40.3-40.2l-94,36.9l-80.5-36.9l-57.1,28.5h-60.5l-53.7,57.1l-63.8-42.8l-102.6-11.4
		l-43.4,32.3l-75.6-35.2l-90.6,60.4l-65.5-70.5l-70.5,6.7l-35.2-35.2l-141.433,67.6h-13.067l-32.7-63.6l-103.498,12.136
		l13.798-213.736l44.495-232.824l71.705-15.776l176.3-85.6l276.252-80.385l0.248,0.385l7.744-2.71l85.587-24.904l46.49-4.52
		l16.279,43.834h71.992l-8.292,20.1l52.254,7.112l11.646,16.988l22.799-12.3h0.001l59.4,31.9l43.2-44.9l51.9,66.3l75.1-41.5
		l19.6,39.5l77-0.7l8.967-24.238l78.134,43.038l57.8,19.8l104.3,86.9l45.5,138.9L1760.356,603.191z"/>
	<path id="XMLID_15_" fill="#496B44" d="M478.575,120.971c-11.8,1.6-27.8-13.2-29.9-25.2c-3.1-17.5,18.9-27.8,32.9-35.3
		c21.7-11.6,24.9,3.5,30.9,25.6c6,22.1-1.8,16.8-15.5,29.9"/>
	<path id="XMLID_14_" fill="#496B44" d="M754.775,81.371c-18.7,4.1-46.1-22.7-50.3-40.1c33.1,5.3,60.1,0.3,93.3-1.8
		c1.3,10.8,3,25.1-4.4,33.5"/>
	<path id="XMLID_13_" fill="#496B44" d="M1016.175,112.271c-4.2-13.7-5.9-29.1-4.8-43.5c14.3-2,65.6,28.8,45.1,40.2"/>
	<path id="XMLID_12_" fill="#496B44" d="M1306.575,181.071c-15.6-2.2-20.4-41.3-25-56.2c8.9-6.8,35.6-10.8,45.1-2.6
		c11.5,9.8,1.4,32.9,6.8,45.4"/>
	<path id="XMLID_11_" fill="#496B44" d="M1383.775,112.271c-15.1-2.8-11.9-18.2-11.6-30c10.3-2,20,0.7,25,9.8"/>
	<path id="XMLID_10_" fill="#496B44" d="M1279.775,73.671c-16.4-10,2.2-26.8,16.8-21.4c14.8,5.5,10.1,22.3,10.1,36.6"/>
	<path id="XMLID_9_" fill="#496B44" d="M248.375,563.571c-0.1,30.5-5,59.9-5,90.6c0,18.6-1.2,34-8,50.5c-1.8-8.9-2.3-17.7-2.1-26.9"
		/>
	<path id="XMLID_8_" fill="#496B44" d="M151.775,392.171c0,12.2,8,98.6-11.5,93.8c-0.3-2.8-0.9-7-0.3-9.8"/>
	<path id="XMLID_7_" fill="#496B44" d="M1763.675,321.871c-3.3,24.2,16.8,60.3,23.7,84.2c6,20.6,17.6,51.9,15.4,73.3
		c-7-0.9-11.8-5.1-15.4-10.2"/>
	<path id="XMLID_6_" fill="#496B44" d="M1715.975,779.171c-20-9.1-51.6-98.2-18.1-99.1c16.1-0.4,36.1,37.2,44.7,50.3
		c1.1-18.4-5.2-33,13.7-36.8c12.6-2.5,20.3,4.2,26.9,13.4"/>
	<path id="XMLID_5_" fill="#496B44" d="M1251.375,835.371c-3.1,1.7-8.4,1.9-11.9,3.8c-6.3-13.8,6.3-32.1,15.7-42.5
		c11.2-12.5,11-14.2,25.4-2.9c18.3,14.5,34.1,19.9,26.3,46.6"/>
	<path id="XMLID_4_" fill="#496B44" d="M521.075,809.471c-1.5-7.1,9-32.1,18.5-28.7c4.3,1.6,6.9,18.6,11.7,23.7"/>
	<path id="XMLID_3_" fill="#496B44" d="M614.875,799.271c23.4-22.6,41.5,5.9,45.3,28.5"/>
	<path id="XMLID_2_" fill="#496B44" d="M84.375,684.571c22.4-5.3,45.9-16.7,53.8,10.6c3.6,12.2-3.6,25.5,1.6,36.4"/>
</g>
</svg>
