<?xml version="1.0" encoding="utf-8"?>
<!-- Generator: Adobe Illustrator 19.0.0, SVG Export Plug-In . SVG Version: 6.00 Build 0)  -->
<svg version="1.1" id="Layer_3" xmlns="http://www.w3.org/2000/svg" xmlns:xlink="http://www.w3.org/1999/xlink" x="0px" y="0px"
	 viewBox="0 0 107 107" style="enable-background:new 0 0 107 107;" xml:space="preserve">
<style type="text/css">
	.st0{fill:#E88134;}
	.st1{fill:url(#SVGID_1_);}
	.st2{fill:#FFFFFF;}
	.st3{fill:#1C1C1C;}
</style>
<polygon class="st0" points="47,160.2 19.5,156.7 8.1,98.9 10.7,87.7 9.7,72.7 13.5,51.4 20.9,41.7 40.5,26.2 41.2,24.8 46.8,26.2 
	51.5,26.5 51.5,26.5 56.2,26.4 66.7,24.6 65,26.7 82.1,41.9 89.5,51.6 93.3,72.9 92.3,87.9 94.9,99.1 83.5,156.9 56,160.4 "/>
<linearGradient id="SVGID_1_" gradientUnits="userSpaceOnUse" x1="50.8477" y1="27.1138" x2="52.0678" y2="161.6412">
	<stop  offset="0" style="stop-color:#FFFFFF;stop-opacity:0"/>
	<stop  offset="1" style="stop-color:#09447F;stop-opacity:0.3"/>
</linearGradient>
<polygon class="st1" points="47,160.2 19.5,156.7 8.1,98.9 10.7,87.7 9.7,72.7 13.5,51.4 20.9,41.7 40.5,26.2 41.2,24.8 46.8,26.2 
	51.5,26.5 51.5,26.5 56.2,26.4 66.7,24.6 65,26.7 82.1,41.9 89.5,51.6 93.3,72.9 92.3,87.9 94.9,99.1 83.5,156.9 56,160.4 "/>
<polygon class="st2" points="31.7,93.7 30.3,101.6 29.7,113 31.3,126.4 36.3,156.4 66.7,158.7 72.9,157.8 76.1,128.4 79.1,110.7 
	75.2,99.1 72.2,91.9 "/>
<polygon class="st2" points="62.7,31.8 63.9,35 69.7,43.3 77.7,49.1 84.2,51.2 88.7,44.5 88.2,37.3 88.2,35.4 89.5,31.1 90.3,26 
	89.3,19.9 89.1,14.8 85.6,13.2 81.2,13.7 79.1,14.6 66.2,26.2 "/>
<polygon class="st2" points="20.9,47.9 16,32.9 16.2,26.2 19.4,13.9 22.2,11.6 25.5,10.9 28.9,12.8 30.8,14.2 35,17.8 41.2,24.8 
	41.9,26.6 43.7,32.6 42.4,38.9 35.4,44.9 25.7,49.5 "/>
<polygon class="st3" points="62.9,67.8 63.9,63.2 66.6,60.9 72.2,62 70.1,65.5 67.3,67.8 "/>
<polygon class="st3" points="45.4,68.1 44.9,63.2 41.9,60.6 35.2,61.1 37.1,65.1 41.7,67.4 "/>
<polygon class="st3" points="62.7,31.8 65.7,25 79.2,13.2 84.2,11.8 87.2,12.7 89.1,14.8 90,23.2 88,15.6 86.3,13.9 84.2,13.9 
	80.1,14.6 66.2,26.2 "/>
<polygon class="st3" points="44,33.3 41.9,26.6 33.4,16.5 25.2,11.6 23.1,11.8 18.5,14.9 20.9,11.1 23.6,9.8 27.1,10.5 33.6,14.9 
	42.8,26 "/>
<polygon class="st2" points="55.5,96.5 52.5,96.7 51.1,95.4 48.2,96.5 43.3,96.7 38,95.6 31.7,93.7 27.5,88.7 24.8,82.4 26.9,77.5 
	30.3,74.6 34.5,73.2 39.1,74.3 43.1,78 45.1,81.2 46,84.7 48.4,82.4 50.5,81.9 55.8,82 56,82 61.3,81.9 63.4,82.4 65.9,84.7 
	66.7,81.2 68.7,78 72.7,74.3 77.3,73.2 81.5,74.6 84.9,77.5 87,82.4 84.3,88.7 80.1,93.7 73.8,95.6 68.5,96.7 63.6,96.5 60.7,95.4 
	59.3,96.7 56.3,96.5 "/>
<polygon class="st3" points="50.9,87 54.1,89.3 56.3,91.4 58.5,89.2 61.5,88 61.5,85 59.5,82.2 53.7,82.2 50.9,84.5 "/>
<ellipse class="st2" cx="40.9" cy="62.7" rx="1.3" ry="1.2"/>
<ellipse class="st2" cx="67.3" cy="63.2" rx="1.2" ry="1.1"/>
</svg>
