<?xml version="1.0" encoding="utf-8"?>
<!-- Generator: Adobe Illustrator 19.0.0, SVG Export Plug-In . SVG Version: 6.00 Build 0)  -->
<svg version="1.1" id="Layer_1" xmlns="http://www.w3.org/2000/svg" xmlns:xlink="http://www.w3.org/1999/xlink" x="0px" y="0px"
	 viewBox="0 0 1920 1080" enable-background="new 0 0 1920 1080" xml:space="preserve">
<path fill="#C3AE9B" d="M959.997,905.028c30.879,0,56-25.121,56-56s-25.121-56-56-56c-30.878,0-56,25.121-56,56
	S929.119,905.028,959.997,905.028z M959.997,798.028c28.121,0,51,22.879,51,51s-22.879,51-51,51c-28.122,0-51-22.879-51-51
	S931.875,798.028,959.997,798.028z"/>
<path fill="#C3AE9B" d="M1881.597,843.628c-5.1-13.9-18.8-22.2-32.7-25.6c-14.3-3.4-29.5-0.9-42.1,6.7
	c-6.933,4.184-13.033,9.876-17.618,16.57c-7.895-5.646-16.99-9.822-26.182-12.87c-22.9-7.6-47.5-9.6-71.4-10
	c-19.6-0.3-39.4,0.6-58.9,2.6c-32.7,3.4-65.4,6.8-98,10.3c-50.3,5.3-100.6,10.5-151,15.6c-51.9,5.2-103.7,10.4-155.6,15.1
	c-37.4,3.4-74.8,6.9-112.3,8.8c-17.3,0.9-35.1,1.4-52.3-1.1c-11.3-1.6-26.1-5-31.5-16.4c-4.2-8.8-2.1-24.4,10.6-22.8
	c9.6,1.3,14.1,10.1,8.3,18c-2,2.7,2.3,5.2,4.2,2.6c5.3-7.3,4.6-16.3-2.8-21.8c-6.4-4.7-16.2-5.6-22.2,0.3
	c-7.4,7.2-6.3,21.1-0.8,29.1c6.7,9.9,19.4,13.6,30.5,15.5c32.3,5.4,66.9,1.3,99.3-1.3c46.1-3.6,92.1-8,138.1-12.4
	c53-5.1,106-10.5,158.9-16c44.1-4.6,88.3-9.2,132.4-13.8c31.6-3.3,63.1-7.2,94.9-7.3c24.6-0.1,49.8,1.4,73.5,8.4
	c10.3,3.042,20.799,7.424,29.613,13.797c-1.817,3.291-3.287,6.77-4.313,10.403c-3.6,12.5-1.1,25,4.6,36.4
	c4.587,9.098,10.7,17.291,17.107,25.175c-3.141,10.449-6.896,20.746-8.007,31.725c-0.435,4.443-0.203,9.118,0.743,13.641
	c-2.115,0-4.208,0.147-6.242,0.459c-11.8,1.8-20.2,10.8-24.5,21.5c-3.8,9.3-3.1,19.4,6.7,24.5c8.3,4.4,17.8,1.4,22-7
	c1.4-2.6-3-5.1-4.4-2.2c-2.6,5.1-7.5,7.8-13.1,6c-5-1.6-8.9-6.1-8.7-11.5c0.5-13.1,12.6-25.9,25.5-26.4
	c1.419-0.059,2.837-0.041,4.246,0.037c2.778,7.862,7.967,14.713,15.854,18.263c4.821,2.184,9.555,1.953,13.626,0.112
	c1.531,3.935,2.099,8.443,1.375,13.488c-3,20.7-21.7,36.3-40.4,42.9c-11.7,4.1-24.5,5.6-36.8,7c-31.3,3.5-63,4.4-94.5,4.9
	c-41.6,0.7-83.1,0.3-124.7-0.5c-45.6-0.9-91.3-2.4-136.9-4.3c-44.3-1.8-88.5-3.9-132.7-6.3c-37.4-2-74.8-4.2-112.2-6.6
	c-24.6-1.6-49.2-3.2-73.7-5.1c-19.1-1.5-38.1-3.3-57.2-4c-12.4-0.4-24.9-0.5-37.3,0.9c-7.551,0.821-15.504,2.049-22.647,5.005
	c-7.596-2.971-16.375-4.19-22.953-4.905c-25.2-2.7-50.9-0.4-76.1,1.6c-23.2,1.9-46.4,3.6-69.6,5.1c-34.8,2.3-69.7,4.4-104.5,6.4
	c-43.1,2.4-86.1,4.6-129.2,6.5c-45.8,2-91.6,3.7-137.4,4.9c-43.1,1.1-86.2,1.8-129.3,1.6c-34.4-0.2-68.9-0.8-103.2-3.4
	c-29.5-2.3-63.9-4-84.8-27.8c-8.561-9.671-15.037-24.932-10.634-37.42c4.419,2.047,9.625,2.193,14.834-0.48
	c7.454-3.832,12.231-10.42,14.817-17.94c1.976-0.093,3.92-0.046,5.784,0.14c7,0.7,13.1,4.5,17.3,10.1c3.4,4.5,7.2,11.5,6.8,17.3
	c-0.3,4.9-4.1,9-8.7,10.4c-5.7,1.8-10.5-0.8-13.1-6c-1.6-2.9-6-0.4-4.5,2.5c4.4,8.7,14.4,11.5,22.8,6.5c9.3-5.5,9.5-15.3,5.7-24.3
	c-4.4-10.8-13-19.8-25-21.3c-1.851-0.238-3.767-0.343-5.712-0.323c1.144-5.402,1.3-11.059,0.612-16.377
	c-1.296-10.119-4.722-19.667-7.65-29.348c14.472-17.845,28.777-38.957,21.35-62.652c-1.036-3.285-2.4-6.406-4.032-9.353
	c0.439-0.319,0.879-0.638,1.332-0.947c18.9-13,43-17.5,65.5-19.7c36.3-3.5,72.6-0.5,108.7,3.3c39.6,4.1,79.2,8.3,118.8,12.4
	c52.3,5.4,104.6,10.8,156.9,16c49.2,4.9,98.4,9.6,147.7,13.8c29.6,2.5,59.6,5.7,89.4,5.8c13.3,0,26.7,0,39.9-2.4
	c11.1-2,23.6-6,29.9-16.1c5.1-8.1,5.9-21.9-1.8-28.8c-6.2-5.5-16-4.3-22.2,0.6c-7.1,5.5-7.5,14.4-2.3,21.4c1.4,2.8,5.7,0.3,3.8-2.3
	c-6-8.2-0.9-17.3,9-18.1c12.6-1,14,15.2,9.5,23.7c-6,11.2-21.2,14.3-32.7,15.8c-11.7,1.5-23.6,1.5-35.4,1.4
	c-31.4-0.3-62.9-3.7-94.2-6.4c-49.8-4.3-99.6-9.1-149.4-14.1c-52.4-5.2-104.7-10.6-157.1-16c-38.4-4-76.8-8.1-115.2-12.1
	c-37.7-3.9-75.8-6.7-113.5-1.6c-20.514,2.767-42.201,7.829-59.262,20.099c-13.084-19.074-38.271-29.063-61.038-22.899
	c-13.9,3.7-27.1,12.2-31.8,26.3c-3.9,11.6-3.1,25.8,3,36.5c5.4,9.5,17.1,15.2,28,12.9c9.1-1.9,16.3-10.1,17.3-19.3
	c1-9.4-5.4-16.4-14.5-17.7c-3.1-0.4-4.5,4.4-1.3,4.8c10.8,1.5,13.9,11.8,7.8,20.4c-7.1,10-22.4,8.9-30.2,0.1
	c-8.6-9.8-9.2-26.4-4.6-38c6-15.4,25.4-23,40.9-22.9c16.852,0.114,33.169,9.374,42.434,22.916
	c-15.66,13.181-22.366,32.361-20.334,52.684c0.676,6.806,2.303,13.343,4.179,19.81c-7.748,9.188-15.926,18.113-22.279,27.89
	c-5.3,8-9.9,17.8-7.4,27.7c1.174,4.617,3.653,8.617,6.921,11.428c-3.523,9.063-2.542,19.771,1.679,29.172
	c8.8,19.6,28.6,32.6,49.1,37.3c25.2,5.9,51.8,7,77.6,8.1c38.2,1.8,76.5,1.9,114.7,1.6c45.1-0.3,90.2-1.4,135.3-2.9
	c46.3-1.5,92.6-3.5,138.8-5.7c41.2-2,82.4-4.3,123.7-6.7c30.6-1.8,61.2-3.8,91.8-6c33.5-2.4,67.1-6.7,100.8-5.7
	c10.759,0.288,21.885,1.045,32.23,4.206c-5.248,3.391-9.467,8.665-9.83,15.094c-0.395,6.325,4.484,10.889,9.618,13.794
	c-6.576,1.887-13.544,2.887-20.318,2.806c-2.8,0-5.9,0-8.5-1.1c-1.7-0.7-1.8-0.6-0.7-2.1c1.9-2.6-2.4-5.1-4.3-2.5
	c-9.1,12.2,19.8,10.6,24.4,10c4.341-0.603,10.637-1.757,16.511-3.894c5.181,1.883,10.678,3.01,16.089,3.694c6.4,0.8,14,1.6,20.2-0.7
	c4.2-1.5,6.5-5.4,3.5-9.4c-1.9-2.6-6.2-0.1-4.3,2.5c1.1,1.5,0.8,1.5-1,2.2c-2.8,1-6.1,1.1-9,1c-6.206,0-12.525-0.862-18.57-2.494
	c5.488-3.25,9.36-7.837,8.67-14.306c-0.732-6.746-4.681-11.435-10.039-14.744c22.962-6.941,49.194-4.652,72.74-3.156
	c15,1,30,2.4,45,3.5c27.1,2,54.2,3.8,81.3,5.5c39.1,2.4,78.3,4.7,117.4,6.7c45.4,2.4,90.9,4.4,136.3,6.1
	c46.1,1.7,92.1,3.1,138.2,3.8c40.4,0.6,80.9,0.8,121.4-0.4c29.3-0.8,58.9-2,88-6.3c16.7-2.5,32.8-7,46.2-17.8
	c13.4-10.8,24.6-28.6,21-46.5c-0.346-1.711-0.845-3.339-1.474-4.887c3.5-3.082,6.065-7.498,7.073-12.413c2-9.8-2.9-19.4-8.2-27.4
	c-6.488-9.642-14.271-18.393-21.675-27.346c1.943-6.694,3.599-13.467,4.175-20.554c0.9-10.6-0.3-21.4-4.6-31.2
	c-3.635-8.222-9.182-14.962-15.843-20.476c1.084-1.603,2.261-3.151,3.543-4.624c10-11.5,25-18.5,40.3-18.2c15.6,0.3,34.4,8.3,40,24
	c4.1,11.7,3.3,28.3-5.7,37.7c-8.1,8.5-23.3,8.9-30-1.4c-5.6-8.6-2.3-18.3,8.2-19.8c3.2-0.4,1.8-5.3-1.3-4.8
	c-23,3.2-15.6,33.9,3.6,37.1c11,1.9,22.5-4.3,27.6-14C1885.097,869.428,1885.797,855.228,1881.597,843.628z M114.997,971.228
	c-3.5,6.2-10.7,13.5-18.5,12c-0.788-0.15-1.543-0.394-2.262-0.717c1.028-1.715,2.298-3.354,3.862-4.883
	c4.626-4.563,11.261-7.433,18.046-8.674C115.792,969.72,115.419,970.481,114.997,971.228z M111.997,899.228
	c-2.422-19.463,3.128-37.796,17.573-50.461c5.007,9.306,6.781,20.194,3.527,31.361c-3.496,12.048-10.499,22.31-18.399,32.073
	C113.539,907.946,112.562,903.642,111.997,899.228z M85.297,968.828c-0.6-4.9,1-9.8,3.1-14.1c5.4-11.3,14.2-20.8,22.2-30.3
	c0.588-0.705,1.181-1.418,1.776-2.135c2.136,7.014,4.343,14.008,5.724,21.235c1.286,6.716,1.591,13.634-0.084,20.138
	c-7.019,0.865-14.034,3.277-19.516,7.062c-3.561,2.475-6.303,5.468-8.31,8.794C87.465,976.603,85.725,972.495,85.297,968.828z
	 M971.197,1052.528c0.427,5.806-5.775,9.273-10.835,11.348c-5.34-2.12-12.371-5.848-11.364-12.347
	c0.93-5.795,5.599-9.535,10.779-11.967C965.349,1042.095,970.654,1046.163,971.197,1052.528z M1822.097,983.428
	c-7.8,0.4-14.5-7-17.7-13.3c-0.178-0.349-0.336-0.702-0.499-1.054c9.049,1.746,17.126,6.396,21.635,13.532
	C1824.459,983.064,1823.312,983.355,1822.097,983.428z M1810.297,925.328c7.9,9.4,16.7,18.9,21.8,30.2c2,4.5,3.4,9.5,2.5,14.5
	c-0.589,3.264-2.216,6.749-4.622,9.353c-5.854-9.256-16.897-14.779-28.1-16.102c-1.672-6.923-1.073-14.248,0.422-21.351
	c1.382-6.695,3.436-13.184,5.428-19.686C1808.582,923.273,1809.44,924.302,1810.297,925.328z M1804.497,867.328
	c4.5,10.5,5,22.3,3.4,33.4c-0.543,3.758-1.377,7.443-2.348,11.092c-7.812-9.812-15.455-20.542-18.752-32.692
	c-2.821-10.393-1.171-21.113,3.708-30.367C1796.419,853.793,1801.318,859.898,1804.497,867.328z"/>
</svg>
