<?xml version="1.0" encoding="utf-8"?>
<!-- Generator: Adobe Illustrator 19.0.0, SVG Export Plug-In . SVG Version: 6.00 Build 0)  -->
<svg version="1.1" id="Layer_3" xmlns="http://www.w3.org/2000/svg" xmlns:xlink="http://www.w3.org/1999/xlink" x="0px" y="0px"
	 viewBox="-202 203 107 107" style="enable-background:new -202 203 107 107;" xml:space="preserve">
<style type="text/css">
	.st0{fill:#AA8B6A;}
	.st1{fill:#A28961;}
	.st2{fill:#826C4A;}
	.st3{fill:#A08153;}
	.st4{fill:#231F20;}
	.st5{fill:#D9BE91;}
	.st6{fill:#FFFFFF;}
</style>
<g>
	<polygon class="st0" points="-149.1,323.7 -187.4,319.9 -187.2,316.8 -186.7,313.8 -185.4,308.2 -184.9,301.6 -184.1,293.4 
		-183.2,289.3 -182.1,286.6 -179.7,282.9 -177.8,280.1 -175.6,277.7 -174.7,275.3 -173.8,269.3 -171.9,264.2 -170.4,261.3 
		-168.7,259.2 -168.9,255.5 -168.9,252 -169.2,247.8 -170.4,239.8 -167,242.6 -157.7,235.9 -154.9,237.2 -150.3,238.2 -147.9,238.2 
		-143.3,237.2 -140.5,235.9 -131.2,242.6 -127.8,239.8 -129,247.8 -129.3,252 -129.3,255.5 -129.5,259.2 -127.8,261.3 -126.3,264.2 
		-124.4,269.3 -123.5,275.3 -122.6,277.7 -120.5,280.1 -118.5,282.9 -116.2,286.6 -115,289.3 -114.1,293.4 -113.3,301.6 
		-112.8,308.2 -111.6,313.8 -111,316.8 -110.8,319.9 	"/>
	<polygon class="st1" points="-154.8,287.5 -152.6,290 -150.6,291 -149.4,291.2 -147.9,290.9 -145.7,290.3 -143.7,287.8 
		-149.1,284.9 	"/>
	<polygon class="st2" points="-109.6,198.5 -110,201.8 -110.4,207.9 -113.1,217.2 -115.8,224.3 -118.4,228.1 -120.2,231.5 
		-122.1,234.3 -124.8,235.3 -126.4,236.4 -133.1,249.8 -141.1,244.5 -139.8,232.2 -131,212.7 -117,201.8 -113.2,198 	"/>
	<polyline class="st3" points="-143,240.6 -142,235.4 -142.5,227.7 -136.7,216.5 -132.3,209 -127.7,205 -118.2,197.6 -115.8,196 
		-112.6,196.5 -110.6,196.9 -109.8,199.2 -112.1,199.4 -114.4,201.3 -120.6,205 -124.5,208.6 -127.3,213.6 -128.9,222.1 -129,228.1 
		-132.3,235.1 -137.3,244 	"/>
	<polygon class="st2" points="-186.6,197.2 -186.5,200.4 -186.6,206.6 -184.7,216 -182.6,223.4 -180.3,227.3 -178.8,230.9 
		-177.1,233.8 -174.5,235.1 -172.9,236.3 -167.4,250.2 -159,245.6 -159.3,233.2 -166.5,213 -179.5,201 -183,196.9 	"/>
	<polyline class="st3" points="-156.8,241.8 -157.4,236.5 -156.2,228.9 -161.1,217.3 -164.8,209.5 -169.1,205.1 -177.9,196.9 
		-180.2,195.1 -183.5,195.4 -185.5,195.6 -186.5,197.8 -184.2,198.2 -182,200.3 -176.2,204.5 -172.6,208.4 -170.2,213.6 
		-169.4,222.2 -169.7,228.2 -167,235.4 -162.7,244.8 	"/>
	<g>
		<polyline class="st1" points="-149,287.1 -151.9,287.9 -156,289.1 -159.9,289.1 -162.3,288.1 -166.8,284.5 -170.8,280.1 
			-173.1,277.9 -173.4,275.1 -173.3,270.8 -172.2,266.9 -170.2,262.5 -169,261.3 -167,258.9 -167.7,252.9 -167.4,248.8 
			-165.5,245.5 -160.5,240.7 -156,239.5 -149,239.5 -142.1,239.5 -137.6,240.7 -132.6,245.5 -130.7,248.8 -130.4,252.9 
			-131.1,258.9 -129.1,261.3 -127.9,262.5 -125.9,266.9 -124.8,270.8 -124.7,275.1 -125,277.9 -127.3,280.1 -131.3,284.5 
			-135.8,288.1 -138.2,289.1 -142,289.1 -146.2,287.9 -149,287.1 		"/>
	</g>
	<polygon class="st4" points="-167.8,252.2 -165.6,252.9 -163.5,256.7 -163.1,259.8 -166.1,260.1 -167.6,259.1 -168.2,256.3 
		-168.3,254.4 	"/>
	<g>
		<polygon class="st5" points="-149,267.7 -151.9,268.8 -154.9,270.4 -155.7,272.5 -158.9,272 -163.3,273.6 -165.1,275.3 
			-165.9,278.1 -166.8,281.9 -165.9,283.2 -164.1,286.4 -161.6,287.9 -159.9,289.1 -157,289.2 -154.7,288.5 -149.2,287.1 
			-148.9,287.1 -143.4,288.5 -141.1,289.2 -138.2,289.1 -136.5,287.9 -134,286.4 -132.2,283.2 -131.3,281.9 -132.2,278.1 
			-133,275.3 -134.8,273.6 -139.2,272 -142.4,272.5 -143.2,270.4 -146.2,268.8 -149.1,267.7 		"/>
	</g>
	<polygon class="st4" points="-154.9,277.7 -149.5,281.8 -149.2,287.1 -148.2,287.7 -147.7,281.9 -144.1,279.2 -142.7,277.2 
		-143.8,276.6 -148.3,280.4 -154.1,277.5 	"/>
	<polygon class="st4" points="-130.5,252.2 -132.7,252.9 -134.8,256.7 -135.2,259.8 -132.2,260.1 -130.6,259.1 -130,256.3 
		-129.9,254.4 	"/>
	<ellipse class="st6" cx="-131.3" cy="256" rx="0.8" ry="0.9"/>
	<ellipse class="st6" cx="-167.3" cy="255.5" rx="0.5" ry="0.6"/>
</g>
</svg>
