<?xml version="1.0" encoding="utf-8"?>
<!-- Generator: Adobe Illustrator 19.0.0, SVG Export Plug-In . SVG Version: 6.00 Build 0)  -->
<svg version="1.1" id="Layer_3" xmlns="http://www.w3.org/2000/svg" xmlns:xlink="http://www.w3.org/1999/xlink" x="0px" y="0px"
	 viewBox="-202 203 107 107" style="enable-background:new -202 203 107 107;" xml:space="preserve">
<style type="text/css">
	.st0{fill:#8A5D3B;}
	.st1{fill:#5A4A42;}
	.st2{fill:#A87C4F;}
	.st3{fill:#C1B49A;}
	.st4{fill:#F6921E;stroke:#231F20;stroke-width:2;stroke-miterlimit:10;}
	.st5{fill:#C3996B;}
	.st6{fill:#231F20;}
	.st7{fill:#D0C97C;}
</style>
<g>
	<polygon class="st0" points="-95.4,224.2 -141.9,156.2 -279.4,88.2 -352.9,63.7 -420.1,70 -425.7,89.8 -406.7,104.8 -382.2,118.8 
		-381.4,126.2 -324.4,131.7 -326.8,144 -260.5,195.8 -240.6,224.2 -211.8,236.1 -195.9,236.1 -190.4,250.1 -164.1,268.1 -147,305.2 
		-129.1,298.6 -107,271.9 	"/>
	<path class="st1" d="M-179.3,283.6c0,0-6.7-8.3-5.5-13.1c1.2-4.7,2.7-10.3,2.7-10.3h4.8l3.6,6.3l7.1,5.3l-11.1,5.3L-179.3,283.6z"
		/>
	<path class="st2" d="M-179.7,253.9v-14.2c0,0,22.5-25.3,38.8-26.1c16.2-0.8,103.2,2.8,113.9,40.3c10.7,37.6,20.2,63.7,22.1,70.8
		c2,7.1,30.8,23.7,30.8,23.7l3.6,8.3l108,50.6v8.3l9.9,9.9l-2,9.1l-29.3,9.1l-16.2-9.9l2.4,9.9L54,446.5l-26.5-21L22,439.8
		l-66.8-5.9l-5.5-15.8l-4.7,14.1l-53.8-10.2l5.1-11l-11.9,0.4l-4.7-16.6l14.6-11.1l13.1-8.3l7.5-4.7l-4.3-24.1l-16.2-13l-27.3-32.4
		v-7.5l-10.3-7.9l-9.5-13.6h-7.1L-179.7,253.9z"/>
	<polygon class="st3" points="-166.7,271.9 -150.9,263.4 -166.7,256.3 -169,260.2 -177.3,260.2 -173.8,266.5 	"/>
	<path class="st4" d="M-154.4,249.1c0,0-3.2,2.8,0,5.5c3.2,2.8,7.5,1.6,7.5,1.6s8.3-1.6,8.7-7.1c0.4-5.5-6.3-5.5-6.3-5.5l-6.3,3.2
		L-154.4,249.1z"/>
	<polygon class="st0" points="-129.5,305.2 -133.5,320.3 -138.2,358.7 -158.8,352.1 -169,340.9 -172.6,341.7 -182.2,339.7 
		-193.6,343.3 -203.4,343.3 -203.4,349.6 -203.4,352.4 -195.1,354.5 -195.9,358.7 -192.4,361.1 -186.8,356.3 -179.7,357.1 
		-177.3,354.5 -179.7,358.7 -191.2,363.4 -189.6,367.8 -179.7,371.7 -164.1,359.9 -161.1,360.3 -124.4,380.4 -121.2,366.6 
		-104.6,377.3 -101,359.5 -90,340.1 	"/>
	<polygon class="st5" points="-73.7,316.4 -86.8,350 -86.8,368.6 -97.9,374.9 -120.4,362.2 -138.2,362.6 -150.9,363.8 -150.9,368.6 
		-155.8,369.8 -155.8,376.9 -153.6,380.4 -150.9,377.7 -147,384 -133.8,380 -141.4,393.5 -136.2,398.6 -130.3,395.5 -120,378.1 
		-117.2,375.7 -95.1,387.2 -65.8,380.8 -39.7,354.3 -35,323.5 -58.3,310.4 	"/>
	<path class="st1" d="M-202.3,343.3l1.8,2.8l-3,2c0,0-4.3,0.4-5.1,2.5c-0.8,2.1-1.8,4.8-1.8,4.8l-1.1,0.9c0,0-1.2-5.7,0.8-8.7
		c2-3,4.6-4.2,4.6-4.2H-202.3z"/>
	<polygon class="st1" points="-184.5,368.3 -179.7,369.4 -180.9,372.8 -184.5,376.1 -189.2,376.1 -190.4,373.7 -185.8,372.2 	"/>
	<path class="st1" d="M-148.7,364.6l2,2.5l-8.3,2.4l1.7,0.9l-0.7,3l-3.2,1.4l-2.9,5.5l-0.5,6.3l-2,1.1l-1.6-3.8
		c0,0-3.2-7.2,2.9-12.8c6.1-5.5,7.9-6.6,7.9-6.6H-148.7z"/>
	<path class="st1" d="M-146.7,376.2l1.3,1l-0.6,3.2l-5.6,1.8l-3,2.9v1.7h-1.8V384c0,0,0.7-4.8,3.2-5.5
		C-150.9,377.7-146.7,376.2-146.7,376.2z"/>
	<path class="st1" d="M-137.5,397.3l4.4-1.2v2.5c0,0-7,10.8-12.3,10.8c-5.3,0-6.9-2.2-7.1-3.7c-0.3-1.4-1.3-5.7-1.3-5.7l1.1-1.4
		l1.8,2.2c0,0,0.5,4,3.4,4.2c2.9,0.3,7-2.3,7-2.3L-137.5,397.3z"/>
	<path class="st1" d="M-187.4,345.9v3.3l-3,1.8h-1.7l-0.9,2.9l0.9,2.3l-0.9,0.6l1.6,2l-1.6,1.1c0,0-3.3-0.8-4.1-2.5
		c-0.8-1.7,0-2.2,0-2.2s-1.1,2-0.4,4.1c0.7,2.1,1.1,3.7,1.1,3.7l-0.8,1.2l-3.3-3.3l-0.5,2l-0.7,3l-1.8-1.2c0,0-3.4-10.8,2.4-14.9
		c5.8-4.1,8.6-3.8,8.6-3.8H-187.4z"/>
	<ellipse class="st6" cx="-147" cy="250.1" rx="5.1" ry="4.5"/>
	<path class="st5" d="M33.8,341.2l-9.5-3.4h-7.4L-9.7,319l-2.4-17.3l-19.8-24.9l-23.3-37.2l20.2-7l98.1-56.2c0,0,22.9-34.4,53-44.2
		c30.1-9.8,312.4-13.3,312.4-13.3l19.8,13.3l-5.5,10.5l-44.3,11.2l17.4,2.8l4,22.5l-13.4,27.4l-3.2,13.6l-19.8,11.7l-16.6,4.2v25.6
		l-77.5,32H264l-80.7,12.6l-11.1,14l-17.4-4.2l-22.9,18.9l-77.5,19.4"/>
	<polygon class="st7" points="-181.4,260.8 -177.3,252.6 -167.3,246.5 -159.3,260.8 -173.3,260.8 	"/>
</g>
</svg>
