<?xml version="1.0" encoding="utf-8"?>
<!-- Generator: Adobe Illustrator 19.0.0, SVG Export Plug-In . SVG Version: 6.00 Build 0)  -->
<svg version="1.1" id="Layer_3" xmlns="http://www.w3.org/2000/svg" xmlns:xlink="http://www.w3.org/1999/xlink" x="0px" y="0px"
	 viewBox="-202 203 107 107" style="enable-background:new -202 203 107 107;" xml:space="preserve">
<style type="text/css">
	.st0{fill:#58403C;}
	.st1{fill:#9E5A2D;}
	.st2{fill:#3D322E;}
	.st3{fill:#6F524A;}
	.st4{fill:#231F20;}
	.st5{fill:#775C56;}
	.st6{fill:#FFFFFF;}
</style>
<g>
	<g>
		<polyline class="st0" points="-142.3,394.5 -105,390 -103,373.1 -102.9,361.2 -102.5,353.5 -104.3,344.5 -107.9,334.9 -144,329.8 
			-153,329.8 -189.1,334.9 -192.7,344.5 -194.5,353.5 -194.1,361.2 -194,373.1 -192,390 -154.7,394.5 		"/>
	</g>
	<g>
		<polyline class="st1" points="-146.9,294.4 -139.8,284.3 -117.2,278.3 -116.6,283.2 -116.6,287 -114.4,299.3 -111.9,315.5 
			-107.8,334.2 -107.5,340.8 -108.5,352.4 -110.3,358.9 -117.9,360.9 -123.9,363 -128.3,366.7 -131.9,374.9 -138,383.8 -140.5,386 
			-147.6,387.7 -149.4,387.7 -156.5,386 -159,383.8 -165.1,374.9 -168.7,366.7 -173.1,363 -179.1,360.9 -186.7,358.9 -188.5,352.4 
			-189.5,340.8 -189.2,334.2 -185.1,315.5 -182.6,299.3 -180.4,287 -180.4,283.2 -179.8,278.3 -157.2,284.3 -150.1,294.4 		"/>
	</g>
	<g>
		<polyline class="st2" points="-148.5,295.5 -145.5,294.5 -143.2,293.3 -141.6,291.3 -140.7,289.7 -148.5,290.9 -148.5,290.9 
			-156.3,289.7 -155.4,291.3 -153.8,293.3 -151.5,294.5 -148.5,295.5 		"/>
	</g>
	<g>
		<polyline class="st3" points="-148.5,229.9 -141.1,229.4 -125.7,227.1 -115.4,222.2 -111.2,222.6 -108.7,224.5 -106.1,229.7 
			-105,236.7 -105.1,241.8 -104.2,243.7 -104,246.4 -105.1,249.3 -107.2,253.3 -107.4,258.7 -108.5,261.9 -110,264.7 -113.2,272.7 
			-114.4,276.8 -118.3,281.1 -123,283.2 -126.9,285 -131.2,285.2 -134.1,285.5 -135.4,287.7 -137.1,290.5 -139.1,291.2 
			-141.6,291.8 -148.5,292.5 -155.4,291.8 -157.9,291.2 -159.9,290.5 -161.6,287.7 -162.9,285.5 -165.8,285.2 -170.1,285 
			-174,283.2 -178.7,281.1 -182.6,276.8 -183.8,272.7 -187,264.7 -188.5,261.9 -189.6,258.7 -189.8,253.3 -191.9,249.3 -193,246.4 
			-192.8,243.7 -191.9,241.8 -192,236.7 -190.9,229.7 -188.3,224.5 -185.8,222.6 -181.6,222.2 -171.3,227.1 -155.9,229.4 
			-148.5,229.9 		"/>
	</g>
	<polygon class="st4" points="-159.8,270.7 -159.8,268.6 -160.9,266.5 -162,264.8 -164.4,263.9 -166.5,264.1 -168.3,265.7 
		-168.3,268.7 -167.7,270.5 -166.1,272.6 -163.8,272.9 -161.5,271.9 	"/>
	<polygon class="st5" points="-161.1,240.3 -161.5,239 -167,231.9 -170.2,227.2 -173.3,224.7 -176.2,222.5 -180.5,221.5 
		-183.8,222.1 -181,222.9 -179.1,223.8 -176.5,225.3 -170.8,230.6 -169.7,232.2 -165.5,237.2 	"/>
	<polygon class="st4" points="-137.2,270.7 -137.2,268.6 -136.1,266.5 -135,264.8 -132.9,264 -130.5,264.1 -128.7,265.7 
		-128.7,268.7 -129.3,270.5 -130.9,272.6 -133.2,272.9 -135.5,271.9 	"/>
	<g>
		<polyline class="st4" points="-148.5,290.7 -146.8,290.4 -145.1,289 -143.6,287.2 -143.6,284.4 -145.8,282 -147.9,280.7 
			-148.5,280.5 -149.1,280.7 -151.2,282 -153.4,284.4 -153.4,287.2 -151.9,289 -150.2,290.4 -148.5,290.7 		"/>
	</g>
	<polygon class="st5" points="-135.9,240.3 -135.5,239 -130,231.9 -126.8,227.2 -123.7,224.7 -120.8,222.5 -116.5,221.5 
		-113.2,222.1 -116,222.9 -117.9,223.8 -120.5,225.3 -126.2,230.6 -127.3,232.2 -131.5,237.2 	"/>
	<ellipse class="st6" cx="-166.9" cy="266.6" rx="0.5" ry="0.8"/>
	<ellipse class="st6" cx="-134.8" cy="266.4" rx="0.4" ry="0.7"/>
</g>
</svg>
