<?xml version="1.0" encoding="utf-8"?>
<!-- Generator: Adobe Illustrator 19.0.0, SVG Export Plug-In . SVG Version: 6.00 Build 0)  -->
<svg version="1.1" id="Layer_1" xmlns="http://www.w3.org/2000/svg" xmlns:xlink="http://www.w3.org/1999/xlink" x="0px" y="0px"
	 viewBox="0 0 1920 1080" enable-background="new 0 0 1920 1080" xml:space="preserve">
<g id="bottom_x5F_river">
	<path id="XMLID_413_" fill="#93D2BE" d="M863.478,0c-130.034,0-390.32,0-390.32,0s-8.966,0.122-13.45,0H169.63v314.168h1701.215V0
		H863.478z"/>
	<path id="XMLID_412_" fill="#4A5C2A" d="M1838.476,0l-155.868,72.116l-293.917,169.811l-290.614,69.257l-523.3-14.807L183,171.501
		l273.08-69.704l-44.086-23.086l149.217-18.138l-24.87-49.47L520.084,0c-11.697-0.148-23.391,0.221-35.083,0l-18.746,24.295
		L445.358,0c-30.898-1.01-61.818,1.425-92.744,0H124.862v289.781l461.219,173.142l231.741-40.507l367.143,15.144l253.206,25.363
		L1920,516.092V0H1838.476z"/>
	<path id="XMLID_187_" fill="#8CAE57" d="M735.341,299.787l52.705-0.439l118.341-36.024c0,0,104-1.556,113.044,0
		c9.043,1.558,133.391-19.868,133.391-19.868s24.87,19.423,38.436,19.868c13.565,0.446,112.803-30.153,112.803-30.153l81.631-50.566
		h54.264v-42.25l-54.264-23.897l154.841-9.503H1917l-209.994,126.216l-133.203,83.09h-296.631l-110.783,34.232H806.343
		l-173.522-23.371l-162.783,4.47l-316.605-61.063l48.581-79.931l498.798,82.311L735.341,299.787z"/>
	<polygon id="XMLID_186_" fill="#1E7A9E" points="124.862,775.665 814.43,421.692 1424.867,430.794 1510.779,699.327 861.908,1080 
		124.862,1080 	"/>
	<path id="XMLID_184_" fill="#6E5333" d="M63.155,260.529l168.035,51.218l71.093,35.46l79.709,17.728
		c0,0,19.388,10.344,25.852,22.901c6.463,12.559,120.641,0,120.641,0l43.086,23.648l69.139,31.134l53.656,85.821L63.155,664.363
		V260.529z"/>
	<path id="XMLID_183_" fill="#33291E" d="M817.801,548.993l16.353,22.787l-16.353,24.859l-49.059,10.358h-28.617l-30.66,12.431
		h-75.63c0,0-8.178,45.576-16.354,45.576c-8.175,0-91.982,24.86-118.555,33.146c-26.573,8.287-63.366,18.646-71.543,18.646
		c-8.175,0-65.411,0-65.411,0l-14.308,42.087c0,0-55.19-3.489-67.454,0c-12.264,3.49-32.704,61.495-38.837,63.566
		c-6.133,2.073-89.939,16.574-89.939,16.574l-26.573,16.572v-190.59l457.871-138.8l106.293-43.506L817.801,548.993z"/>
	<path id="XMLID_182_" fill="#332B21" d="M1563.809,617.539l-7.923-27.441l4.513-21.941c0,0-48.093-157.189-47.229-163.589
		c0.863-6.399-10.983-84.994-10.983-84.994l-17.485-60.564l-4.354-47.951l-0.848-26.411l-8.195-28.389l0.651-49.397l-9.068-54.877
		l17.517-5.057l4.395,15.219l20.763,71.919l2.383,83.377l13.113,45.423l8.656,48.762l18.964,70.387c0,0,5.197,41.474,7.395,49.083
		c2.196,7.608,26.665,73.59,26.665,73.59l5.052,31.576l12.023,13.472l10.513,36.413l-10.645-8.694l3.136,10.862l-15.014,4.334
		l3.39,16.983l-13.399-14.093l8.169,32.99l-14.645-13.16L1563.809,617.539z"/>
	<path id="XMLID_181_" fill="#9F7C4B" d="M124.862,737.514l34.749-31.076l14.308,15.536l49.058-15.536l32.705-14.501l14.308,10.357
		l22.485-10.357l24.529-37.29c0,0,24.528,14.502,34.75,14.502c10.219,0,30.66-12.431,36.793-14.502c6.132-2.071,34.749,0,34.749,0
		l14.308-14.501h10.221l14.309-39.362c0,0,30.66-16.572,36.793-16.572c6.132,0,28.616,0,28.616,0l14.309-20.716l22.486-26.932
		l36.792,18.645l40.881-18.645l30.661-24.861l32.705,16.574v18.644l32.705,8.287l49.057,18.644l30.662-24.859l16.353-14.502
		l-38.838-43.506l-57.233-39.359l-55.189-26.932l-40.882,29.003l-59.279-8.286l-14.308,16.572l-12.265,38.285h-28.617
		l-14.308-23.783l-24.528,12.431l-13.459,11.353l-27.423-34.141l-51.102,2.071l-24.528-43.504h-24.529
		c0,0-22.484,37.289-24.528,43.504c-2.046,6.215-47.014,32.069-47.014,32.069h-30.661c0,0-16.353,38.366-18.396,46.653
		c-2.045,8.287-51.102,34.182-51.102,34.182h-30.661l-20.441,48.685L124.862,737.514L124.862,737.514z"/>
	<polygon id="XMLID_180_" fill="#33291E" points="749.725,456.753 828.337,456.753 852.9,449.04 894.094,448.948 964.795,437.264 
		1061.279,448.948 1131.273,447.007 1185.557,447.007 1375.129,428.836 1332.942,412.237 1314.13,410.223 1041.333,410.223 
		852.9,410.223 659.13,433.488 	"/>
	<path id="XMLID_410_" fill="#6E5333" d="M1768.521,421.484l-88.171-23.648l-120.757,31.738L1382.161,1080H1920V351.296
		c0,0-117.567,43.338-131.129,46.54C1775.305,401.037,1768.521,421.484,1768.521,421.484z"/>
	<path id="XMLID_179_" fill="#9F7C4B" d="M597.386,1080l63.304-51.592h45.217l18.087-51.219l36.174-39.398l61.045,11.82v-29.548
		l49.74-21.671l22.609,17.73l15.826-41.369l69.051-19.699l57.558,11.82l27.131-33.339h67.826l29.392-45.459h49.74l45.218-9.85
		l15.825-43.338h42.957l51.998-27.578v-11.82h-99.478l13.566-27.579h61.043c0,0,11.306-11.819,24.868-13.789
		c13.567-1.97,47.479,13.789,47.479,13.789l-13.566-35.459h-70.084l-4.522-29.549l42.956-9.85l45.217-34.474l-20.347-28.564h-94.958
		l45.219-17.73h-88.174l15.825-17.728h15.825l20.35-12.845h-97.218l18.086-10.795h22.608l11.306-11.82l76.869-15.758h-180.87
		l42.956-13.79h47.479l9.042-19.699c0,0,20.35-19.699,29.392-19.699c9.044,0,36.176-5.91,47.479,0
		c11.306,5.91,54.26,19.699,54.26,19.699s56.523,7.879,63.308,0c6.781-7.879,51.999-22.326,51.999-22.326s42.958-4.594,49.738,0
		c6.785,4.596,27.132,36.116,27.132,36.116l63.304-13.79l58.784,104.406c0,0,49.737-7.88,58.783-7.88
		c9.042,0,106.261,52.202,106.261,52.202l-13.565,54.173L1868,663.973l-83.654,43.339l20.351,59.097l81.391,37.429v57.129
		l-183.131-15.761l-61.045-31.519l-81.39,35.459l-16.863,57.127l-87.138,15.761l18.085,47.277l69.053,37.428l89.209,39.398
		l-9.041,33.863"/>
	<path id="XMLID_178_" fill="#9F7C4B" d="M707.208,410.223l65.637-6.344l42.195,3.171c0,0,25.785,0.431,32.817,0
		c7.033-0.431,46.883-12.762,46.883-12.762l51.571,7.967c0,0,4.885-10.708,20.024-7.967c15.14,2.739,51.349,15.935,51.349,15.935
		l27.083-16.383c0,0,46.882,0.922,53.914,0c7.033-0.921,28.13,8.192,28.13,8.192l46.883-8.258l42.195,8.224h32.817h30.476
		l-39.852,15.584h-56.259l-14.065,9.591l-53.916,4.706l-21.097-19.052l-21.098,14.346h-39.851l-32.384,10.751L951,427.172h-39.85
		h-49.229l-46.881-5.48l-28.131,5.48h-22.433l-14.448,10.751l-52.195-6.045L707.208,410.223z"/>
	<polygon id="XMLID_177_" fill="#332B21" points="1497.334,815.32 1521.859,823.199 1521.859,838.959 1542.867,815.32 
		1542.867,838.959 1542.867,846.838 1574.91,815.32 1599.362,799.56 1599.362,823.199 1618.757,836.988 1618.757,811.379 
		1633.935,799.56 1652.485,811.379 1642.365,703.033 1674.592,553.111 1674.592,488.312 1691.272,391.786 1691.272,307.081 
		1723.314,66.669 1679.468,66.669 1638.994,336.629 1618.757,446.944 1599.362,543.469 1569.852,667.576 1554.673,731.598 
		1531.063,770.012 1521.859,791.68 	"/>
	<polygon id="XMLID_414_" fill="#332B21" points="1838.608,206.703 1827.303,130.666 1827.303,0 1774.992,0 1761.739,126.726 
		1788.871,288.258 1788.871,361.146 1804.696,421.484 1788.871,472.447 1804.696,472.447 1823.914,452.618 1823.914,501.01 
		1845.391,461.309 1849.914,483.753 1861.216,461.309 1886.087,472.447 1849.545,376.961 	"/>
	<polygon id="XMLID_415_" fill="#332B21" points="1602.187,0 1554.543,0 1616.941,42.019 1628.588,63.957 1723.263,87.321 
		1727.76,64.957 1647.563,42.019 	"/>
	<path id="XMLID_416_" fill="#332B21" d="M460.87,0h-2.961l-15.826,43.989L446.052,0c-4.781-0.155-9.562,0.177-14.344,0
		l-4.322,43.003l-7.913,144.789l-37.305,44.45l-13.566,48.136l-6.783,69.932l-48.608,84.707h23.739l24.869-13.533l20.349-62.308
		l7.913-72.887l16.956-54.046l20.349-27.706l12.436-31.518v-14.774l3.391-94.556L463.561,10.5L469.164,0
		C466.399-0.064,463.635,0.074,460.87,0z"/>
	<polygon id="XMLID_173_" fill="#332B21" points="210.589,451.533 224.153,463.351 246.762,451.533 255.805,451.533 
		269.372,437.742 258.067,205.292 294.242,94.933 294.242,59.518 353.023,16.099 303.285,37.848 312.328,16.099 291.98,16.099 
		281.806,53.608 271.633,108.766 255.805,148.164 262.588,16.099 244.501,16.099 237.719,35.879 210.589,16.099 199.284,16.099 
		233.198,49.668 235.458,138.315 228.675,239.725 228.675,301.777 228.675,388.496 	"/>
	<polygon id="XMLID_418_" fill="#332B21" points="1634.384,0 1616.945,170.621 1601.842,280.935 1583.14,336.094 1583.14,470.048 
		1595.097,470.048 1614.089,476.814 1611.337,440.672 1601.842,393.223 1630.514,294.725 1630.514,247.878 1647.219,0 	"/>
	<path id="XMLID_419_" fill="#332B21" d="M1570.41,0c0.232,41.43,0.262,90.181-0.61,93.237
		c-1.686,5.91-15.177,124.105-15.177,130.446c0,6.341-6.746,58.666-6.746,58.666l-10.119,92.586v97.513l32.042,18.503l20.238-7.197
		l5.059-37.9l-10.117-24.368V319.737l10.117-96.055l6.745-171.814V0H1570.41z"/>
</g>
<g id="fox">
	<polygon id="XMLID_646_" fill="#E88134" points="624.636,939.704 496.236,923.304 443.036,653.504 455.136,601.204 
		450.536,531.104 468.236,431.704 502.836,386.404 594.336,314.004 597.536,307.504 623.736,314.004 645.636,315.404 
		645.636,315.404 667.636,315.004 716.636,306.604 708.736,316.404 788.536,387.304 823.036,432.604 840.836,532.104 
		836.136,602.104 848.336,654.404 795.036,924.304 666.636,940.604 	"/>
	
		<linearGradient id="XMLID_16_" gradientUnits="userSpaceOnUse" x1="642.6418" y1="193.6885" x2="648.3384" y2="-434.3999" gradientTransform="matrix(1 0 0 -1 0 512)">
		<stop  offset="0" style="stop-color:#FFFFFF;stop-opacity:0"/>
		<stop  offset="1" style="stop-color:#09447F;stop-opacity:0.3"/>
	</linearGradient>
	<polygon id="XMLID_645_" fill="url(#XMLID_16_)" points="624.636,939.704 496.236,923.304 443.036,653.504 455.136,601.204 
		450.536,531.104 468.236,431.704 502.836,386.404 594.336,314.004 597.536,307.504 623.736,314.004 645.636,315.404 
		645.636,315.404 667.636,315.004 716.636,306.604 708.736,316.404 788.536,387.304 823.036,432.604 840.836,532.104 
		836.136,602.104 848.336,654.404 795.036,924.304 666.636,940.604 	"/>
	<polygon id="XMLID_644_" fill="#FFFFFF" points="553.236,629.204 546.636,666.104 543.836,719.304 551.336,781.904 
		574.736,921.904 716.636,932.704 745.536,928.504 760.536,791.204 774.536,708.604 756.336,654.404 742.336,620.804 	"/>
	<polygon id="XMLID_643_" fill="#FFFFFF" points="697.936,340.204 703.536,355.104 730.636,393.904 767.936,421.004 
		798.336,430.804 819.336,399.504 817.036,365.904 817.036,357.004 823.036,336.904 826.836,313.104 822.136,284.604 
		821.236,260.804 804.836,253.304 784.336,255.704 774.536,259.904 714.336,314.004 	"/>
	<polygon id="XMLID_642_" fill="#FFFFFF" points="502.836,415.404 479.936,345.304 480.836,314.004 495.836,256.604 
		508.836,245.904 524.236,242.604 540.136,251.504 549.036,258.004 568.636,274.804 597.536,307.504 600.836,315.904 
		609.236,343.904 603.136,373.304 570.536,401.304 525.236,422.804 	"/>
	<polygon id="XMLID_641_" fill="#1C1C1C" points="698.836,508.304 703.536,486.804 716.136,476.104 742.336,481.204 
		732.536,497.504 719.436,508.304 	"/>
	<polygon id="XMLID_640_" fill="#1C1C1C" points="617.136,509.704 614.836,486.804 600.836,474.704 569.536,477.004 
		578.436,495.704 599.936,506.404 	"/>
	<polygon id="XMLID_639_" fill="#1C1C1C" points="697.936,340.204 711.936,308.404 775.036,253.304 798.336,246.804 
		812.336,251.004 821.236,260.804 825.436,300.004 816.036,264.604 808.136,256.604 798.336,256.604 779.236,259.904 
		714.336,314.004 	"/>
	<polygon id="XMLID_638_" fill="#1C1C1C" points="610.636,347.204 600.836,315.904 561.136,268.804 522.836,245.904 
		513.036,246.804 491.636,261.304 502.836,243.504 515.436,237.504 531.736,240.704 562.136,261.304 605.036,313.104 	"/>
	<polygon id="XMLID_637_" fill="#FFFFFF" points="664.336,642.304 650.336,643.204 643.836,637.104 630.236,642.304 
		607.336,643.204 582.636,638.104 553.236,629.204 533.636,605.804 521.036,576.404 530.836,553.604 546.636,540.004 
		566.336,533.504 587.736,538.604 606.436,555.904 615.736,570.804 619.936,587.204 631.136,576.404 641.036,574.104 
		665.736,574.604 666.636,574.604 691.436,574.104 701.236,576.404 712.936,587.204 716.636,570.804 725.936,555.904 
		744.636,538.604 766.136,533.504 785.736,540.004 801.636,553.604 811.436,576.404 798.836,605.804 779.236,629.204 
		749.736,638.104 725.036,643.204 702.136,642.304 688.636,637.104 682.036,643.204 668.036,642.304 	"/>
	<polygon id="XMLID_636_" fill="#1C1C1C" points="642.836,597.904 657.836,608.604 668.036,618.504 678.336,608.204 
		692.336,602.604 692.336,588.604 683.036,575.504 655.936,575.504 642.836,586.204 	"/>
	<ellipse id="XMLID_635_" fill="#FFFFFF" cx="596.136" cy="484.504" rx="6.1" ry="5.6"/>
	<ellipse id="XMLID_634_" fill="#FFFFFF" cx="719.436" cy="486.804" rx="5.6" ry="5.1"/>
</g>
<g id="top_x5F_forest">
	<path id="XMLID_30_" fill="#1E542A" d="M0,0v1080h1920V0H0z M572.109,129.437l140.651-14.836l-175.326,50.777L572.109,129.437z
		 M365.877,200.014l11.198,4.057l2.517-28.359l2.202-3.901l38.3-26.339l14.761-1.557l78.744,32.831l-185.788,90.717L365.877,200.014
		z M192.049,209.168l56.226,6.303l46-41.4l8.636,3.129l-31.536,79.371l-5.716,27.074l-81.25,13.702L192.049,209.168z
		 M84.775,567.071l-3.333,2.312l5.874-37.764l4.433,43.164L84.775,567.071z M198.307,657.732l-13.682-5.254l-21.85-105.407
		l18.706-215.918l77.76-17.108l-40.965,194.026L198.307,657.732z M1760.356,603.191l-25.381-7.82l-89.1,84.3l-44.1,13.3l-23,88.2
		l-38.803,12.672l-20.197-21.072l-40.3,10l-40.3-40.2l-94,36.9l-80.5-36.9l-57.1,28.5h-60.5l-53.7,57.1l-63.8-42.8l-102.6-11.4
		l-43.4,32.3l-75.6-35.2l-90.6,60.4l-65.5-70.5l-70.5,6.7l-35.2-35.2l-141.433,67.6h-13.067l-32.7-63.6l-103.498,12.136
		l13.798-213.736l44.495-232.824l71.705-15.776l176.3-85.6l276.252-80.385l0.248,0.385l7.744-2.71l85.587-24.904l46.49-4.52
		l16.279,43.834h71.992l-8.292,20.1l52.254,7.112l11.646,16.988l22.799-12.3h0.001l59.4,31.9l43.2-44.9l51.9,66.3l75.1-41.5
		l19.6,39.5l77-0.7l8.967-24.238l78.134,43.038l57.8,19.8l104.3,86.9l45.5,138.9L1760.356,603.191z"/>
	<path id="XMLID_15_" fill="#496B44" d="M478.575,120.971c-11.8,1.6-27.8-13.2-29.9-25.2c-3.1-17.5,18.9-27.8,32.9-35.3
		c21.7-11.6,24.9,3.5,30.9,25.6c6,22.1-1.8,16.8-15.5,29.9"/>
	<path id="XMLID_14_" fill="#496B44" d="M754.775,81.371c-18.7,4.1-46.1-22.7-50.3-40.1c33.1,5.3,60.1,0.3,93.3-1.8
		c1.3,10.8,3,25.1-4.4,33.5"/>
	<path id="XMLID_13_" fill="#496B44" d="M1016.175,112.271c-4.2-13.7-5.9-29.1-4.8-43.5c14.3-2,65.6,28.8,45.1,40.2"/>
	<path id="XMLID_12_" fill="#496B44" d="M1306.575,181.071c-15.6-2.2-20.4-41.3-25-56.2c8.9-6.8,35.6-10.8,45.1-2.6
		c11.5,9.8,1.4,32.9,6.8,45.4"/>
	<path id="XMLID_11_" fill="#496B44" d="M1383.775,112.271c-15.1-2.8-11.9-18.2-11.6-30c10.3-2,20,0.7,25,9.8"/>
	<path id="XMLID_10_" fill="#496B44" d="M1279.775,73.671c-16.4-10,2.2-26.8,16.8-21.4c14.8,5.5,10.1,22.3,10.1,36.6"/>
	<path id="XMLID_9_" fill="#496B44" d="M248.375,563.571c-0.1,30.5-5,59.9-5,90.6c0,18.6-1.2,34-8,50.5c-1.8-8.9-2.3-17.7-2.1-26.9"
		/>
	<path id="XMLID_8_" fill="#496B44" d="M151.775,392.171c0,12.2,8,98.6-11.5,93.8c-0.3-2.8-0.9-7-0.3-9.8"/>
	<path id="XMLID_7_" fill="#496B44" d="M1763.675,321.871c-3.3,24.2,16.8,60.3,23.7,84.2c6,20.6,17.6,51.9,15.4,73.3
		c-7-0.9-11.8-5.1-15.4-10.2"/>
	<path id="XMLID_6_" fill="#496B44" d="M1715.975,779.171c-20-9.1-51.6-98.2-18.1-99.1c16.1-0.4,36.1,37.2,44.7,50.3
		c1.1-18.4-5.2-33,13.7-36.8c12.6-2.5,20.3,4.2,26.9,13.4"/>
	<path id="XMLID_5_" fill="#496B44" d="M1251.375,835.371c-3.1,1.7-8.4,1.9-11.9,3.8c-6.3-13.8,6.3-32.1,15.7-42.5
		c11.2-12.5,11-14.2,25.4-2.9c18.3,14.5,34.1,19.9,26.3,46.6"/>
	<path id="XMLID_4_" fill="#496B44" d="M521.075,809.471c-1.5-7.1,9-32.1,18.5-28.7c4.3,1.6,6.9,18.6,11.7,23.7"/>
	<path id="XMLID_3_" fill="#496B44" d="M614.875,799.271c23.4-22.6,41.5,5.9,45.3,28.5"/>
	<path id="XMLID_2_" fill="#496B44" d="M84.375,684.571c22.4-5.3,45.9-16.7,53.8,10.6c3.6,12.2-3.6,25.5,1.6,36.4"/>
</g>
</svg>
