<?xml version="1.0" encoding="utf-8"?>
<!-- Generator: Adobe Illustrator 19.0.0, SVG Export Plug-In . SVG Version: 6.00 Build 0)  -->
<svg version="1.1" id="Layer_3" xmlns="http://www.w3.org/2000/svg" xmlns:xlink="http://www.w3.org/1999/xlink" x="0px" y="0px"
	 viewBox="-906 487 107 107" enable-background="new -906 487 107 107" xml:space="preserve">
<path id="XMLID_499_" fill="#A7A9AC" d="M-826.339,532.674c0,0,4.278-3.027,5.265-5.627c0.987-2.599,12.241-21.652-1.645-32.543
	c-15.992-12.57-22.77,7.733-24.317,11.846c-1.843,4.903-7.437,5.462-7.437,5.462L-826.339,532.674z"/>
<path id="XMLID_497_" fill="#A7A9AC" d="M-871.255,537.808c0,0-8.358,1.152-12.603,0c-4.245-1.152-10.069-7.075-11.517-10.299
	c-1.448-3.225-2.172-17.637,0-21.948s10.793-6.12,16.913-5.396s10.431,9.345,9.904,13.425c-0.526,4.08-1.974,4.903-1.25,9.213
	c0.724,4.311,1.382,5.923,1.382,5.923L-871.255,537.808z"/>
<path id="XMLID_483_" fill="#BCBEC0" d="M-904.127,602.071c0,0,13.623-45.442,15.893-53.866c2.27-8.457,15.202-34.123,35.669-37.051
	c20.434-2.896,36.623,28.298,43.435,34.452c6.811,6.153,3.554,56.465,3.554,56.465H-904.127z"/>
<polygon id="XMLID_480_" fill="#939598" points="-886.654,602.401 -884.055,591.97 -877.737,584.632 -873.031,587.758 
	-863.917,582.888 -862.337,576.076 -856.645,572.029 -854.21,565.053 -851.742,560.183 -841.41,556.531 -835.684,559.196 
	-828.971,566.666 -830.255,576.076 -823.081,582.23 -818.606,572.029 -808.175,583.875 -805.576,602.401 "/>
<path id="XMLID_476_" fill="#A7A9AC" d="M-829.004,527.739v-6.285l-12.932-10.628l-9.444-0.132l-14.709,1.843l-3.883,1.119
	l-9.904,21.191l0.658,1.349l-2.896,9.246v8.16l4.343,4.936l10.76-3.422l8.062-5.791v-6.844c0,0-0.79-7.239-0.197-7.601
	c0.625-0.362,2.501-3.916,2.501-3.916l5.66,1.974l3.916-5.265l5.66,3.521l3.389,9.082l9.049,5.199l2.632-5.989l-3.488-6.844v-3.554"
	/>
<path id="XMLID_422_" fill="#A7A9AC" d="M-858.915,516.913l-13.787,7.14l-4.607-17.242l4.541-0.592c0,0,4.113,5.66,6.713,6.943
	c2.599,1.283,7.14,0,7.14,0V516.913z"/>
<path id="XMLID_407_" fill="#E6E7E8" d="M-827.622,531.358c0,0,6.778-7.14,7.766-9.74c0.954-2.599,8.095-14.577-4.87-26.587
	c-12.965-12.01-20.434,6.976-17.177,16.453c1.349,3.949,4.87,11.747,4.87,11.747L-827.622,531.358z"/>
<path id="XMLID_406_" fill="#E6E7E8" d="M-872.406,536.097c0,0-7.535,1.053-11.352,0c-3.817-1.053-9.082-6.351-10.365-9.279
	c-1.283-2.929-1.941-15.893,0-19.776c1.941-3.883,9.707-5.528,15.235-4.87s9.411,8.424,8.917,12.109
	c-0.461,3.685-1.777,4.442-1.119,8.325c0.658,3.883,1.25,5.331,1.25,5.331L-872.406,536.097z"/>
<polygon id="XMLID_405_" fill="#ECABBF" points="-837.527,571.206 -839.962,571.206 -842.66,572.029 -846.28,567.982 
	-845.292,565.053 -841.41,566.369 -839.139,565.053 -836.54,566.369 "/>
<path id="XMLID_404_" d="M-829.103,542.085c0.066-0.296,0.263-2.007,0-2.929c-0.263-0.921-1.843-2.896-3.455-3.554
	s-3.554-0.329-3.554-0.329l-0.428,3.784l2.007,3.356l1.25,0.856l3.883,0.987C-829.399,544.257-829.136,542.349-829.103,542.085z"/>
<path id="XMLID_403_" d="M-864.805,541.427c-0.625,0.197-2.336,1.02-3.192,3.126c-0.855,2.139,0.494,4.771,0.494,4.771v0.856
	l1.086,0.592l3.126-0.526l4.146-2.632l-0.329-2.764l-0.494-2.435l-2.369-1.876C-862.337,540.539-864.18,541.23-864.805,541.427z"/>
<path id="XMLID_402_" fill="#FFFFFF" d="M-830.321,539.914c0.263,0.757-0.329,1.217-0.329,1.217l-3.06-0.823
	c0,0,0.987-0.197,0.954-0.856c-0.033-0.658-2.007-0.559-2.007-0.559l-0.921-1.481c0,0,2.698-0.165,3.554,0.296
	s0.724,1.218,0.724,1.218S-830.584,539.157-830.321,539.914z"/>
<path id="XMLID_401_" fill="#FFFFFF" d="M-862.798,544.52c-0.428,0.033-1.119,0.033-1.119,0.033s-0.362,0.625-0.559,1.086
	c-0.197,0.461-2.007,0.165-2.336,0s-0.132-0.461,0.395-1.349c0.526-0.888,3.784-1.941,3.784-1.941l1.777,1.349
	C-860.857,543.698-862.403,544.52-862.798,544.52z"/>
<polygon id="XMLID_400_" fill="#E6E7E8" points="-829.827,563.934 -829.827,568.541 -831.209,572.029 -847.069,576.076 
	-855.197,573.181 -856.645,568.541 -853.255,567.488 -845.292,573.181 -840.587,573.181 -836.54,571.042 -832.986,565.053 "/>
<path id="XMLID_399_" fill="#414042" d="M-851.972,559.591c-1.119-0.888-2.665-2.139-4.574-3.62
	c-0.954-0.757-2.007-1.547-3.093-2.369c-1.086-0.823-2.27-1.678-3.488-2.567c-1.25-0.888-2.501-1.777-3.817-2.665
	c-0.658-0.461-1.349-0.888-2.007-1.316c-0.658-0.428-1.349-0.823-2.04-1.25c-0.691-0.395-1.382-0.79-2.073-1.185
	c-0.724-0.362-1.415-0.724-2.139-1.053c-1.415-0.658-2.863-1.218-4.278-1.711c-2.83-0.954-5.528-1.678-7.897-2.172
	c-2.369-0.494-4.344-0.823-5.726-1.02c-1.415-0.197-2.205-0.263-2.205-0.263s0.823,0.033,2.205,0.197
	c1.382,0.165,3.389,0.428,5.758,0.888c2.369,0.494,5.1,1.119,7.963,2.106c1.415,0.494,2.863,1.053,4.311,1.711
	c0.724,0.296,1.448,0.691,2.139,1.053c0.724,0.362,1.415,0.79,2.106,1.185c0.691,0.428,1.382,0.856,2.04,1.283
	c0.691,0.428,1.349,0.856,2.007,1.316c1.283,0.888,2.567,1.777,3.784,2.665s2.369,1.744,3.455,2.6s2.106,1.645,3.06,2.402
	c1.876,1.514,3.389,2.797,4.475,3.718c1.086,0.921,1.678,1.448,1.678,1.448S-850.952,560.479-851.972,559.591z"/>
<path id="XMLID_398_" fill="#414042" d="M-854.21,561.796c-1.612-0.757-3.916-1.81-6.68-3.027c-1.382-0.625-2.863-1.25-4.475-1.941
	c-0.79-0.329-1.612-0.658-2.468-1.02s-1.711-0.691-2.599-1.053c-0.888-0.362-1.777-0.691-2.698-1.053
	c-0.921-0.329-1.843-0.658-2.764-1.02c-0.921-0.329-1.876-0.658-2.83-0.987c-0.987-0.296-1.941-0.625-2.896-0.921
	c-0.954-0.263-1.909-0.592-2.896-0.823c-0.461-0.132-0.954-0.263-1.448-0.362c-0.461-0.099-0.954-0.197-1.448-0.296
	c-1.941-0.362-3.883-0.625-5.758-0.823c-3.751-0.362-7.305-0.461-10.332-0.395c-3.027,0.066-5.528,0.197-7.305,0.362
	c-1.777,0.164-2.764,0.296-2.764,0.296s1.02-0.132,2.764-0.329c1.744-0.197,4.278-0.395,7.305-0.494
	c3.027-0.099,6.581-0.066,10.365,0.296c1.876,0.197,3.817,0.461,5.791,0.823c0.494,0.099,0.987,0.165,1.481,0.296
	c0.494,0.132,0.987,0.23,1.481,0.362c0.987,0.23,1.941,0.559,2.929,0.823c0.987,0.296,1.941,0.625,2.896,0.921
	c0.954,0.329,1.876,0.658,2.83,0.987c0.921,0.362,1.843,0.724,2.764,1.053c0.921,0.362,1.81,0.691,2.698,1.053
	c0.856,0.362,1.711,0.691,2.567,1.053s1.678,0.724,2.468,1.053c1.579,0.691,3.093,1.382,4.475,2.007
	c1.382,0.625,2.632,1.217,3.751,1.744c1.086,0.526,2.073,0.987,2.863,1.382c1.612,0.79,2.501,1.25,2.501,1.25
	S-852.565,562.585-854.21,561.796z"/>
<path id="XMLID_397_" fill="#414042" d="M-855.032,564.033c-1.481-0.395-3.587-0.954-6.12-1.612
	c-1.283-0.329-2.665-0.658-4.113-1.02c-0.724-0.164-1.481-0.362-2.238-0.526c-0.757-0.165-1.547-0.362-2.336-0.526
	c-0.79-0.165-1.612-0.329-2.435-0.494s-1.645-0.329-2.501-0.494c-0.856-0.132-1.711-0.296-2.567-0.428s-1.711-0.263-2.567-0.362
	c-0.888-0.099-1.744-0.23-2.6-0.296c-0.856-0.066-1.711-0.099-2.567-0.132c-1.711-0.066-3.422,0-5.034,0.099
	c-3.258,0.197-6.285,0.658-8.852,1.119c-2.567,0.494-4.705,0.954-6.186,1.349c-1.481,0.362-2.303,0.625-2.303,0.625
	s0.823-0.263,2.303-0.691c1.481-0.428,3.587-0.987,6.153-1.481c2.567-0.494,5.594-0.987,8.852-1.218
	c1.645-0.099,3.356-0.164,5.067-0.132c0.856,0.033,1.744,0.066,2.6,0.132c0.856,0.066,1.744,0.197,2.599,0.296
	c0.888,0.132,1.744,0.263,2.6,0.395c0.856,0.165,1.711,0.296,2.567,0.461c0.823,0.164,1.678,0.329,2.501,0.494
	c0.823,0.197,1.645,0.362,2.435,0.526c0.79,0.165,1.579,0.362,2.336,0.526c0.757,0.197,1.514,0.395,2.238,0.559
	c1.448,0.362,2.83,0.724,4.08,1.053c1.283,0.329,2.435,0.658,3.455,0.954c1.02,0.296,1.909,0.559,2.632,0.79
	c1.481,0.461,2.303,0.724,2.303,0.724S-853.552,564.494-855.032,564.033z"/>
<path id="XMLID_396_" fill="#414042" d="M-838.317,558.933c0.263-0.296,0.658-0.757,1.119-1.382
	c0.494-0.592,1.053-1.349,1.678-2.205c0.625-0.856,1.316-1.81,2.139-2.863c0.79-1.053,1.711-2.139,2.731-3.258
	c1.02-1.119,2.139-2.238,3.356-3.356c0.625-0.559,1.25-1.119,1.876-1.678c0.625-0.559,1.283-1.119,1.941-1.678
	c0.658-0.559,1.316-1.119,2.007-1.678c0.691-0.526,1.349-1.086,2.04-1.645c0.691-0.559,1.382-1.119,2.073-1.645
	c0.691-0.559,1.382-1.053,2.106-1.547c1.415-0.987,2.896-1.843,4.343-2.632c2.896-1.579,5.726-2.764,8.193-3.718
	c2.435-0.921,4.541-1.579,6.022-2.007c1.481-0.428,2.336-0.625,2.336-0.625s-0.856,0.23-2.303,0.691
	c-1.481,0.461-3.554,1.185-5.989,2.139c-2.435,0.954-5.232,2.205-8.128,3.784c-1.448,0.79-2.896,1.645-4.311,2.632
	c-0.724,0.494-1.415,1.02-2.106,1.547c-0.658,0.559-1.349,1.086-2.04,1.645c-0.691,0.526-1.382,1.086-2.04,1.645
	c-0.691,0.526-1.349,1.086-2.007,1.645c-0.658,0.559-1.316,1.119-1.941,1.678c-0.658,0.559-1.283,1.119-1.876,1.678
	c-1.218,1.086-2.336,2.205-3.389,3.291c-1.02,1.086-1.941,2.172-2.764,3.192c-0.823,1.02-1.547,1.974-2.205,2.83
	c-0.658,0.856-1.217,1.579-1.711,2.172c-0.494,0.625-0.888,1.053-1.152,1.382c-0.263,0.329-0.395,0.494-0.395,0.494
	S-838.58,559.295-838.317,558.933z"/>
<path id="XMLID_395_" fill="#414042" d="M-836.309,560.808c0.757-0.559,1.678-1.217,2.731-1.974
	c1.053-0.757,2.238-1.612,3.554-2.501c1.316-0.888,2.764-1.843,4.278-2.863c0.757-0.526,1.547-1.02,2.336-1.547
	c0.79-0.526,1.612-1.053,2.468-1.579s1.711-1.053,2.599-1.579c0.856-0.526,1.777-1.053,2.665-1.579
	c0.921-0.527,1.843-1.02,2.764-1.547c0.954-0.494,1.876-0.987,2.83-1.481c0.954-0.461,1.908-0.954,2.863-1.382
	c0.461-0.23,0.954-0.428,1.448-0.625c0.494-0.23,0.987-0.395,1.481-0.592c1.974-0.724,3.949-1.349,5.857-1.876
	c3.85-1.053,7.502-1.711,10.661-2.172c3.159-0.461,5.824-0.691,7.667-0.823c1.876-0.099,2.929-0.132,2.929-0.132
	s-1.053,0.033-2.896,0.197c-1.843,0.164-4.508,0.461-7.634,0.954c-3.159,0.494-6.811,1.218-10.628,2.271
	c-1.908,0.526-3.883,1.152-5.824,1.908c-0.494,0.197-0.954,0.395-1.448,0.592c-0.494,0.197-0.954,0.395-1.448,0.625
	c-0.954,0.428-1.908,0.921-2.863,1.382c-0.921,0.494-1.876,0.987-2.797,1.481c-0.921,0.526-1.843,1.053-2.764,1.547
	c-0.888,0.526-1.777,1.053-2.665,1.579c-0.888,0.526-1.744,1.053-2.6,1.579c-0.823,0.526-1.645,1.053-2.468,1.547
	c-0.823,0.526-1.612,1.02-2.369,1.514c-1.514,0.987-2.961,1.941-4.278,2.83c-2.632,1.777-4.837,3.291-6.351,4.344
	c-1.514,1.053-2.369,1.678-2.369,1.678S-837.724,561.927-836.309,560.808z"/>
<path id="XMLID_394_" fill="#414042" d="M-834.171,561.763c0.79-0.263,1.711-0.592,2.797-0.954c1.053-0.362,2.27-0.757,3.62-1.185
	c1.316-0.428,2.764-0.855,4.311-1.316c0.757-0.23,1.547-0.461,2.369-0.691c0.823-0.23,1.645-0.461,2.501-0.691
	c0.823-0.197,1.711-0.428,2.567-0.658c0.888-0.197,1.777-0.395,2.665-0.625c0.888-0.197,1.777-0.395,2.698-0.592
	c0.921-0.164,1.843-0.362,2.764-0.526c0.921-0.132,1.843-0.329,2.764-0.428c0.921-0.132,1.843-0.197,2.764-0.263
	c1.843-0.132,3.652-0.164,5.396-0.099c3.488,0.099,6.746,0.461,9.51,0.888c2.764,0.428,5.067,0.921,6.647,1.283
	c1.612,0.362,2.501,0.625,2.501,0.625s-0.888-0.23-2.501-0.559c-1.579-0.329-3.883-0.757-6.647-1.152
	c-2.764-0.395-6.022-0.691-9.51-0.79c-1.744-0.066-3.554-0.033-5.364,0.099c-0.461,0.066-0.921,0.066-1.382,0.132
	c-0.461,0.066-0.921,0.099-1.382,0.165c-0.921,0.099-1.843,0.296-2.764,0.428c-0.921,0.165-1.81,0.362-2.731,0.526
	c-0.888,0.197-1.81,0.395-2.698,0.592c-0.921,0.197-1.777,0.428-2.665,0.625c-0.856,0.23-1.711,0.428-2.567,0.658
	c-0.856,0.23-1.678,0.428-2.501,0.658c-0.79,0.23-1.612,0.428-2.369,0.658c-1.547,0.461-2.994,0.888-4.344,1.283
	c-2.665,0.79-4.903,1.514-6.449,2.007c-1.547,0.526-2.435,0.823-2.435,0.823S-835.717,562.388-834.171,561.763z"/>
<path id="XMLID_391_" fill="#414042" d="M-853.617,565.744c-1.316-0.066-3.225-0.165-5.528-0.263
	c-1.152-0.033-2.402-0.066-3.718-0.099c-0.658,0-1.316-0.033-2.007-0.033c-0.691,0-1.382,0-2.106,0c-0.691,0-1.448,0-2.172,0
	c-0.724,0-1.481,0.033-2.238,0.033c-0.757,0.033-1.514,0.066-2.271,0.099c-0.757,0.066-1.514,0.099-2.27,0.164
	c-0.757,0.066-1.514,0.132-2.27,0.23c-0.757,0.099-1.481,0.23-2.238,0.362c-1.481,0.263-2.896,0.625-4.278,1.02
	c-2.731,0.79-5.265,1.711-7.371,2.599c-2.106,0.856-3.85,1.678-5.035,2.271c-1.217,0.592-1.876,0.954-1.876,0.954
	s0.658-0.395,1.843-1.02s2.896-1.481,5.002-2.402s4.607-1.909,7.371-2.698c1.382-0.395,2.83-0.757,4.311-1.053
	c0.757-0.132,1.514-0.263,2.27-0.362c0.79-0.099,1.547-0.164,2.303-0.23c0.79-0.033,1.547-0.099,2.303-0.132s1.514-0.066,2.27-0.099
	c0.757,0,1.514-0.033,2.238-0.033c0.724,0,1.448,0,2.172,0c0.724,0,1.415,0.033,2.106,0.033c0.691,0.033,1.382,0.033,2.04,0.066
	c1.316,0.033,2.567,0.099,3.718,0.165c2.271,0.132,4.179,0.296,5.528,0.395c1.349,0.132,2.106,0.197,2.106,0.197
	S-852.17,565.876-853.617,565.744z"/>
<path id="XMLID_382_" fill="#414042" d="M-834.565,564.329c0.691-0.099,1.514-0.23,2.468-0.395c0.954-0.132,2.04-0.296,3.225-0.461
	c1.185-0.165,2.468-0.329,3.817-0.494c0.658-0.066,1.349-0.165,2.073-0.23c0.691-0.066,1.415-0.132,2.172-0.197
	c0.757-0.033,1.514-0.099,2.27-0.164c0.757-0.033,1.514-0.099,2.303-0.132s1.579-0.066,2.369-0.099c0.79,0,1.579-0.033,2.369,0
	c1.579,0,3.192,0.099,4.738,0.296c1.579,0.197,3.093,0.461,4.541,0.79c2.896,0.658,5.561,1.481,7.798,2.27
	c2.27,0.79,4.08,1.547,5.364,2.106c1.25,0.559,1.974,0.921,1.974,0.921s-0.724-0.329-2.007-0.856
	c-1.283-0.526-3.159-1.25-5.396-2.007c-2.238-0.757-4.903-1.547-7.799-2.172c-1.448-0.296-2.961-0.559-4.508-0.757
	c-1.547-0.197-3.126-0.296-4.705-0.296c-0.79-0.033-1.579,0-2.369,0c-0.757,0-1.547,0.033-2.336,0.066
	c-0.757,0.033-1.547,0.099-2.303,0.132c-0.79,0.066-1.514,0.099-2.27,0.164c-1.481,0.132-2.929,0.263-4.278,0.395
	c-1.349,0.132-2.632,0.296-3.817,0.428c-2.369,0.296-4.311,0.559-5.693,0.757s-2.172,0.329-2.172,0.329
	S-835.947,564.593-834.565,564.329z"/>
</svg>
