<?xml version="1.0" encoding="utf-8"?>
<!-- Generator: Adobe Illustrator 19.0.0, SVG Export Plug-In . SVG Version: 6.00 Build 0)  -->
<svg version="1.1" id="Layer_3" xmlns="http://www.w3.org/2000/svg" xmlns:xlink="http://www.w3.org/1999/xlink" x="0px" y="0px"
	 viewBox="-202 203 107 107" style="enable-background:new -202 203 107 107;" xml:space="preserve">
<style type="text/css">
	.st0{fill:#C3AE9B;}
</style>
<path class="st0" d="M-116.3,217.4C-116.3,217.4-116.4,217.4-116.3,217.4c0-0.1,0-0.2-0.1-0.2c0-0.1-0.1-0.2-0.1-0.3c0,0,0,0,0-0.1
	c0,0,0-0.1-0.1-0.1c0-0.1-0.1-0.2-0.1-0.3c0-0.1-0.1-0.1-0.1-0.2c-0.1-0.1-0.1-0.1-0.2-0.2c0,0-0.1-0.1-0.1-0.1
	c-0.1-0.1-0.2-0.1-0.2-0.2c0,0-0.1-0.1-0.1-0.1c-0.3-0.2-0.5-0.3-0.8-0.3c0,0-0.1,0-0.2,0c-0.1,0-0.2,0-0.3,0
	c-43.9-0.7-56.8,14.1-60.7,23c-4.6,10.8-1.1,24.3,9.3,35.5c-2.7,8.6-3.6,16.5-2.6,22.6c0.2,1.2,1.3,2.1,2.5,2.1c0.1,0,0.3,0,0.4,0
	c1.4-0.2,2.3-1.5,2-2.9c-0.8-4.9-0.2-11.1,1.7-18c2.7,1.8,5.5,2.8,8.5,2.8c2.7,0,5.5-0.7,8.3-2.2
	C-131.1,268.8-114,230.7-116.3,217.4z M-174.8,240.3c5.1-11.8,21.2-18.7,45.8-19.8c-18.8,11.7-32.4,30.6-39.2,47.9
	C-175.9,259.2-178.4,248.7-174.8,240.3z M-151.4,273.7c-4.9,2.5-9.1,2.1-13-1.2c6.7-18.5,22-39.8,43.2-50.7
	C-122.3,235.1-136.3,265.9-151.4,273.7z"/>
</svg>
