<?xml version="1.0" encoding="utf-8"?>
<!-- Generator: Adobe Illustrator 19.0.0, SVG Export Plug-In . SVG Version: 6.00 Build 0)  -->
<svg version="1.1" id="Layer_3" xmlns="http://www.w3.org/2000/svg" xmlns:xlink="http://www.w3.org/1999/xlink" x="0px" y="0px"
	 viewBox="-202 203 107 107" style="enable-background:new -202 203 107 107;" xml:space="preserve">
<style type="text/css">
	.st0{fill:#877969;}
	.st1{fill:#B2A496;}
	.st2{fill:#594F45;}
	.st3{fill:#FFFFFF;}
</style>
<g>
	<path class="st0" d="M-115,247.4c0,0,5.6,9.2,5.6,14.7c0,5.6-3.4,18.7-3.4,18.7l3.4,4.3l-5.3,30.5l-73.3-7.3c0,0-4.6-17-4.6-23.9
		c0-6.9,3.6-7.7,3.6-7.7s-5.6-3.8-3.6-13.9c2-10.2,4.6-11.1,4.6-11.1l-2-6.6c0,0-3.6-11.5,0.7-18.4c4.3-6.9,7.9-2.3,7.9-2.3
		l10.5,2.9l32.4-0.7l20.3-8.5c0,0,4.6-0.7,6.2,2c1.6,2.6,2,9.5,0.7,12.5C-112.7,235.6-115,247.4-115,247.4z"/>
	<polygon class="st1" points="-139.9,263.2 -144.7,266.2 -144.4,267.8 -150.2,268.7 -149.8,265.9 -153,262.8 -168.1,274.2 
		-160.4,283.7 -135.3,282.7 -129.1,272.3 	"/>
	<polygon class="st2" points="-139.3,249.8 -141.9,257.2 -140.6,263.2 -130.8,273.9 -139.9,282.7 -152.1,282.7 -158.9,282.7 
		-166.1,275.2 -152.1,263.2 -154,253.6 -156.3,251.3 -170.4,252.9 -179.9,263.2 -184.2,276.5 -169.4,285.1 -152.1,288.6 
		-148.1,286.7 -144.2,288.6 -135,284.4 -123.9,281.1 -112.4,274.2 -110.3,269.2 -117.6,261.8 -129.1,249.8 	"/>
	<path class="st1" d="M-139.9,251c0,0,3.3-6.9,8.8-6.6c5.6,0.3,10.5,6.6,10.5,6.6l8.2,6.6v10.2l-2.6,2.3l-8.5-6.7l1-6l-8.8-4.2
		L-139.9,251z"/>
	<polygon class="st1" points="-156.3,251.3 -159.3,254.6 -164.2,254.6 -167.5,257.2 -170.4,257.2 -178.9,270 -187.4,272.3 
		-187.4,263.2 -173.7,247.7 -163.9,246 	"/>
	<path class="st2" d="M-118.2,244.4l3.8-9.1c0,0,3.3-12.8-0.7-13.8c-3.9-1.1-17.4,9.7-17.4,9.7L-118.2,244.4z"/>
	<path class="st2" d="M-171.9,233.6l-9.3-5.6c0,0-3.9-1.5-6.2,1.3c-3.1,3.6,0,11.5,0,11.5l4.6,6.6L-171.9,233.6z"/>
	<polygon class="st2" points="-184.9,248.6 -188.1,251.6 -190.6,245.2 -191.3,238.8 	"/>
	<polygon class="st2" points="-143,267.8 -150.5,267.8 -153.9,272.7 -153.4,276.2 -150.7,279.3 -145.6,279.3 -141.1,276.5 
		-141.1,271.6 	"/>
	<path class="st2" d="M-139.9,279.3l-5.7,1.1l-0.7-1.8h-1v1.8l-6.7-0.9c0,0,5,2.6,7.6,2.3C-143.6,281.4-139.9,279.3-139.9,279.3z"/>
	<path d="M-157.3,261.5c0,0-1.7-4.8-4.5-4.8c-2.8,0-5.8,1.5-5.8,1.5l1,0.3c0,0-1.3,3.4-0.1,4.4c1.1,1,3.8,2.7,5.9,1.5
		C-158.7,263.1-157.3,261.5-157.3,261.5z"/>
	<path class="st3" d="M-163.2,259.2c0,0.8,0.8,1.4,1.9,1.4c1,0,1.9-0.6,1.9-1.4s-0.8-1.4-1.9-1.4
		C-162.3,257.8-163.2,258.4-163.2,259.2z"/>
	<polygon class="st1" points="-112.9,280.8 -122.7,288.6 -138.6,292.2 -135.3,298.5 -139.5,320.8 -112.9,308.3 -109.5,285.1 	"/>
	<path class="st1" d="M-189.1,276.7l4.9,7l16.1,8.2l9.6,2.6l-6.3,5.2h-9l12.3,3.6l4.2,13.3h-28.9c0,0-6.3-17.7-6.5-32.3
		C-192.9,269.9-189.1,276.7-189.1,276.7z"/>
	<path d="M-139.5,259.9c0,0,1.7-4.8,4.5-4.8c2.8,0,5.8,1.5,5.8,1.5l-1,0.3c0,0,1.3,3.4,0.1,4.4c-1.1,1-3.8,2.7-5.9,1.5
		C-138,261.5-139.5,259.9-139.5,259.9z"/>
	<ellipse class="st3" cx="-133.2" cy="257.3" rx="1.8" ry="1.4"/>
	<g>
		<path class="st1" d="M-159.9,273.8c0,0-0.7-0.2-1.9-0.5c-1.2-0.3-2.9-0.8-5-1.2c-2.1-0.5-4.5-1-7.1-1.3c-1.3-0.2-2.7-0.3-4-0.4
			c-0.7,0-1.4,0-2.1,0c-0.7,0-1.4,0.1-2.1,0.1c-1.4,0.1-2.8,0.2-4.2,0.5c-1.4,0.2-2.7,0.5-4,0.8c-1.3,0.3-2.5,0.7-3.6,1.1
			c-1.1,0.4-2.2,0.8-3.2,1.3c-1,0.5-1.8,0.9-2.5,1.4c-0.7,0.4-1.4,0.8-1.9,1.2c-0.5,0.4-0.9,0.7-1.1,0.9c-0.2,0.2-0.4,0.3-0.4,0.3
			s0.5-0.5,1.5-1.3c1-0.8,2.4-1.8,4.4-2.7c1.9-0.9,4.2-1.8,6.8-2.5c1.3-0.3,2.6-0.6,4-0.8c1.4-0.2,2.8-0.4,4.2-0.5
			c0.3,0,0.7-0.1,1.1-0.1c0.3,0,0.7,0,1.1,0c0.7,0,1.4,0,2.1,0c1.4,0.1,2.8,0.2,4.1,0.4s2.6,0.4,3.8,0.7c1.2,0.2,2.3,0.5,3.3,0.8
			c2.1,0.5,3.7,1,4.9,1.4C-160.6,273.6-159.9,273.8-159.9,273.8z"/>
	</g>
	<g>
		<path class="st1" d="M-163.3,275.4c0,0-0.7-0.1-1.9-0.2c-1.2-0.1-3-0.3-5.1-0.5c-2.1-0.1-4.6-0.2-7.2-0.2c-1.3,0-2.7,0.1-4.1,0.2
			c-0.7,0.1-1.4,0.2-2.1,0.3c-0.7,0.1-1.4,0.3-2.1,0.4c-1.4,0.3-2.7,0.7-4,1.1c-1.3,0.4-2.6,0.9-3.8,1.4s-2.4,1.1-3.4,1.6
			c-1.1,0.6-2,1.2-2.9,1.8c-0.9,0.6-1.6,1.2-2.3,1.7c-0.7,0.6-1.2,1.1-1.6,1.5c-0.4,0.4-0.8,0.8-1,1.1c-0.2,0.3-0.3,0.4-0.3,0.4
			s0.4-0.6,1.2-1.5s2.1-2.1,3.9-3.3c1.7-1.2,3.9-2.5,6.3-3.5c1.2-0.5,2.5-1,3.8-1.4c1.3-0.4,2.7-0.8,4.1-1.1c0.3-0.1,0.7-0.2,1-0.2
			c0.3-0.1,0.7-0.1,1-0.2c0.7-0.1,1.4-0.2,2.1-0.3c1.4-0.2,2.8-0.2,4.1-0.2c1.3,0,2.6,0,3.8,0.1c1.2,0.1,2.4,0.1,3.4,0.2
			c2.1,0.2,3.9,0.4,5.1,0.6C-164,275.2-163.3,275.4-163.3,275.4z"/>
	</g>
	<g>
		<path class="st1" d="M-161.7,275.9c0,0-0.7-0.2-1.9-0.5c-1.2-0.3-2.9-0.8-5-1.2c-2.1-0.5-4.5-1-7.1-1.3c-1.3-0.2-2.7-0.3-4-0.4
			c-0.7,0-1.4,0-2.1,0c-0.7,0-1.4,0.1-2.1,0.1c-1.4,0.1-2.8,0.2-4.2,0.5c-1.4,0.2-2.7,0.5-4,0.8s-2.5,0.7-3.6,1.1
			c-1.1,0.4-2.2,0.8-3.2,1.3c-1,0.5-1.8,0.9-2.5,1.4c-0.7,0.4-1.4,0.8-1.9,1.2c-0.5,0.4-0.9,0.7-1.1,0.9c-0.2,0.2-0.4,0.3-0.4,0.3
			s0.5-0.5,1.5-1.3s2.4-1.8,4.4-2.7c1.9-0.9,4.2-1.8,6.8-2.5c1.3-0.3,2.6-0.6,4-0.8c1.4-0.2,2.8-0.4,4.2-0.5c0.3,0,0.7-0.1,1.1-0.1
			c0.3,0,0.7,0,1.1,0c0.7,0,1.4,0,2.1,0c1.4,0.1,2.8,0.2,4.1,0.4c1.3,0.2,2.6,0.4,3.8,0.7c1.2,0.2,2.3,0.5,3.3,0.8
			c2.1,0.5,3.7,1,4.9,1.4C-162.4,275.6-161.7,275.9-161.7,275.9z"/>
	</g>
	<g>
		<path class="st1" d="M-101.3,270c0,0-0.6-0.2-1.6-0.5c-1-0.3-2.5-0.7-4.3-1.1c-1.8-0.4-3.9-0.8-6.1-1.1c-1.1-0.2-2.3-0.3-3.5-0.3
			c-0.6,0-1.2,0-1.8,0c-0.6,0-1.2,0-1.8,0.1c-1.2,0.1-2.4,0.2-3.6,0.4c-1.2,0.2-2.3,0.4-3.4,0.7c-1.1,0.3-2.2,0.6-3.1,0.9
			c-1,0.3-1.9,0.7-2.7,1.1c-1.6,0.8-2.9,1.6-3.8,2.2c-0.4,0.3-0.8,0.6-1,0.8c-0.2,0.2-0.3,0.3-0.3,0.3s0.4-0.5,1.2-1.1
			c0.8-0.7,2.1-1.5,3.8-2.3s3.6-1.6,5.9-2.2c1.1-0.3,2.3-0.5,3.5-0.7c1.2-0.2,2.4-0.3,3.6-0.4c0.6-0.1,1.2-0.1,1.8-0.1
			c0.6,0,1.2,0,1.8,0c1.2,0.1,2.4,0.2,3.5,0.4c1.1,0.2,2.2,0.4,3.2,0.6c1,0.2,2,0.5,2.9,0.7c1.8,0.5,3.2,0.9,4.3,1.2
			C-101.9,269.8-101.3,270-101.3,270z"/>
	</g>
	<g>
		<path class="st1" d="M-100.9,278.2c0,0-0.6-0.3-1.5-0.7c-1-0.5-2.4-1.1-4-1.8c-1.7-0.7-3.7-1.5-5.8-2.2c-1.1-0.3-2.2-0.7-3.4-0.9
			c-0.6-0.1-1.2-0.2-1.8-0.3c-0.6-0.1-1.2-0.2-1.8-0.2c-1.2-0.1-2.4-0.2-3.6-0.2c-1.2,0-2.4,0-3.5,0.1c-1.1,0.1-2.2,0.2-3.3,0.4
			c-1,0.2-2,0.4-2.9,0.6c-1.8,0.5-3.2,1.1-4.1,1.5c-0.5,0.2-0.8,0.4-1.1,0.6c-0.2,0.2-0.4,0.2-0.4,0.2s0.5-0.4,1.4-0.9
			c0.9-0.5,2.3-1.1,4.1-1.7c1.8-0.5,3.9-1,6.2-1.1c1.1-0.1,2.3-0.1,3.5-0.1c1.2,0,2.4,0.1,3.6,0.2c0.6,0.1,1.2,0.2,1.8,0.2
			c0.6,0.1,1.2,0.2,1.8,0.3c1.2,0.3,2.3,0.6,3.4,1c1.1,0.3,2.1,0.7,3.1,1.1c1,0.4,1.9,0.8,2.7,1.1c1.7,0.7,3,1.4,4,1.9
			C-101.4,277.9-100.9,278.2-100.9,278.2z"/>
	</g>
	<g>
		<path class="st1" d="M-100.5,284.7c0,0-0.5-0.4-1.4-1c-0.9-0.6-2.1-1.5-3.6-2.5c-1.5-1-3.3-2.2-5.3-3.2c-1-0.6-2-1.1-3.1-1.6
			c-0.6-0.2-1.1-0.5-1.7-0.7c-0.6-0.2-1.1-0.4-1.7-0.6c-1.2-0.4-2.3-0.7-3.5-0.9c-1.2-0.3-2.3-0.5-3.5-0.6c-1.1-0.1-2.2-0.2-3.3-0.2
			c-1,0-2,0-2.9,0.1c-1.8,0.1-3.3,0.4-4.3,0.7c-0.5,0.1-0.9,0.3-1.2,0.4c-0.3,0.1-0.4,0.2-0.4,0.2s0.5-0.3,1.6-0.6
			c1-0.3,2.5-0.7,4.3-0.8s4-0.2,6.3,0.1c1.1,0.1,2.3,0.3,3.5,0.6c1.2,0.2,2.4,0.6,3.5,0.9c0.6,0.2,1.2,0.4,1.7,0.6
			c0.6,0.2,1.1,0.4,1.7,0.7c1.1,0.5,2.2,1,3.2,1.6c1,0.6,1.9,1.1,2.8,1.7c0.9,0.6,1.7,1.1,2.5,1.6c1.5,1,2.7,2,3.6,2.6
			C-100.9,284.3-100.5,284.7-100.5,284.7z"/>
	</g>
</g>
</svg>
