<?xml version="1.0" encoding="utf-8"?>
<!-- Generator: Adobe Illustrator 19.0.0, SVG Export Plug-In . SVG Version: 6.00 Build 0)  -->
<svg version="1.1" id="Layer_3" xmlns="http://www.w3.org/2000/svg" xmlns:xlink="http://www.w3.org/1999/xlink" x="0px" y="0px"
	 viewBox="-202 203 107 107" style="enable-background:new -202 203 107 107;" xml:space="preserve">
<style type="text/css">
	.st0{fill:#C3996B;}
	.st1{fill:#A87C4F;}
	.st2{fill:#716558;}
	.st3{fill:#C1B49A;}
	.st4{fill:#9A8479;}
	.st5{fill:#231F20;}
	.st6{fill:#FFFFFF;}
	.st7{fill:#8A5D3B;}
	.st8{fill:#3B2314;}
	.st9{fill:url(#SVGID_1_);}
	.st10{fill:#9F917C;}
</style>
<g>
	<polygon class="st0" points="-117.7,238.1 -117.3,236.6 -117.5,233.7 -118.5,228.8 -118.5,222.9 -120.6,218.1 -124.8,220.3 
		-127.6,227.7 	"/>
	<polygon class="st1" points="-189.1,365.6 -197.8,368.1 -214.8,361.2 -208.3,358.9 -219.2,350.7 -207.6,350.7 -223.9,336 
		-217.4,336 -225.7,328.5 -214.1,328.5 -225.7,314 -215.6,310.7 -224.3,303.1 -211.2,301.3 -219.6,291.4 -211.6,291.4 -219.2,278.4 
		-211.2,278.4 -213.4,269.5 -200.7,273.4 -209.8,258 -193.4,267 -195.6,260.2 -187.2,258 -195.3,240.5 -218.9,220.7 -211.6,218.8 
		-221.8,213.4 -209.4,210.7 -215.2,206.5 -204.7,204.7 -209,194.9 -187.6,204.3 -187.6,194.9 -166.9,201.8 -164,194.9 -148.8,208.7 
		-141.6,199.2 -139.7,218.1 -136.7,215.6 -139.7,226.5 	"/>
	<polygon class="st0" points="-161.5,239.5 -163.8,236.6 -165.1,229.9 -163.1,224.1 -163.1,220.6 -159.1,214.7 -153.8,221.2 
		-153.8,223.6 -151.4,226.6 	"/>
	<path class="st2" d="M-194.2,372.9l1.8-9.8l-5.4-15.2c0,0,4-29.4,6.2-40.3c2.2-10.9,18.5-23.3,18.5-23.3l4,2.5l-14.7,41.6l7.1-4.5
		l6.9,8.5l8.4,26.4L-194.2,372.9z"/>
	<path class="st3" d="M-149.1,225.6l-7.6,3.5l-4.5,9.1l-1.6,8.5l1.3,4.3l-5.3,9.3l-5.6,15.1l-0.5,8.9l-9.4,33.6l-1.3,10.5l6.3-2
		l5.1,6.3l5.3,26.1l71.4-1.1l1.6-23.6l-5.8-12.9l1.3-20l-6.9-12.2c0,0,0.9-3.5,1.6-4.7c0.7-1.3,0-2.4,0-2.4l-9.8-18.2v-8.4l-4-17.4
		l-4.5-7.4l-4.3-2.9L-149.1,225.6z"/>
	<polygon class="st4" points="-117.3,236.6 -122.2,230.6 -126.6,227.7 -149.1,225.6 -156.8,229 -161.3,238.1 -161.8,240.7 
		-162.9,246.6 -160,245.7 -159.2,243.9 -157.1,240.1 -157.1,238.3 -155.5,236.1 -153.7,237 -150.2,242.1 -154.5,253.3 -158.4,255 
		-159.6,253.3 -159.6,249.5 -160,245.7 -162.9,246.6 -161.6,251 -166.9,260.3 -164,268.4 -161.5,269.5 -161.5,261 -156.9,259.5 
		-153.7,263.3 -150.9,262.4 -150.9,260.1 -148.9,255.2 -144.8,252.2 -143.5,249.3 -140.9,248.1 -138.9,250.3 -135.5,250.1 
		-133.7,248.1 -130.4,249.3 -126.2,254.6 -124.6,258.6 -123.5,256.1 -116.6,261.5 -114,259.9 -114,254.2 -115.7,251.7 -117.7,255.7 
		-121.5,251.4 -123.5,242.8 -121.3,237 -117.7,238.1 	"/>
	<path class="st5" d="M-117.6,241l-0.2,1.2c0,0,1.9,1,2.4,3.5s-1.1,5.1-1.1,5.1s1.2-0.2,0.8,0.9c-0.2,0.8-1.7,0.4-2.6,0.3
		c-0.9-0.2-3.3-1.6-3.3-1.6s0.4-4.3,0.8-5c0.3-0.7,2.4-4.9,2.4-4.9L-117.6,241z"/>
	<path class="st5" d="M-153,246.3c0.2,1.5,0.2,3.7-0.5,4.1c-0.7,0.4-1.2-0.2-1.2-0.2s-2.5,0.9-3.5,0.9c-0.9,0-1.5-1-1.5-1.7
		s0.5-0.5,0.5-0.5s-1.1,0.1-0.9-3.2c0.2-3.3,2.9-5.6,2.9-5.6l0.9-0.5C-156.2,239.5-153.1,244.8-153,246.3z"/>
	<path class="st6" d="M-116.5,243.5c1.4,1.2,0.7,2.9,0.7,2.9h-1.5l-0.5-1.8h-1.5l1-1.9C-118.5,242.6-117.9,242.3-116.5,243.5z"/>
	<path class="st6" d="M-154.8,244.5h-1.6l0.4-0.9l-2,0.4l0.1-1.4c0,0-0.3-0.2,0-0.8c0.3-0.6,1.5-1,1.5-1s1.1,0.2,1.6,1.8
		C-154.3,244.2-154.8,244.5-154.8,244.5L-154.8,244.5z"/>
	<polygon class="st7" points="-135.4,252.6 -135.7,255.1 -134.5,256.5 -132,257.1 -131.3,256.6 -131.3,254.6 -130.4,257.3 
		-133.7,261.9 -136.6,263.1 -137.4,267 -138.2,262.7 -141.5,260.2 -142.9,256.4 -142.1,255.2 -141.6,257.6 -141.2,256.1 
		-138.6,256.1 -137.8,254.6 -138.5,253.2 -138.9,250.3 -137.2,249.1 -135.5,250.1 	"/>
	<polygon class="st8" points="-133.3,260.2 -136.7,262.3 -138.2,261.4 -140.5,260.4 -141.6,258.4 -140.5,258 -136.7,259.8 
		-132.6,258.4 	"/>
	
		<linearGradient id="SVGID_1_" gradientUnits="userSpaceOnUse" x1="-158.5958" y1="238.2477" x2="-158.5958" y2="242.944" gradientTransform="matrix(-1 0 0 -1 -297 514)">
		<stop  offset="0" style="stop-color:#FAC3B5"/>
		<stop  offset="4.465705e-002" style="stop-color:#ECB9AB"/>
		<stop  offset="0.2042" style="stop-color:#C0978B"/>
		<stop  offset="0.3653" style="stop-color:#9B7B71"/>
		<stop  offset="0.5257" style="stop-color:#7F665C"/>
		<stop  offset="0.6854" style="stop-color:#6A564E"/>
		<stop  offset="0.8439" style="stop-color:#5E4D45"/>
		<stop  offset="1" style="stop-color:#5A4A42"/>
	</linearGradient>
	<path class="st9" d="M-131,274.7l-3.8,0.5l-3.4,0.5l-2.3-0.6l-3.9-0.8l-4.4-2.3c0,0,2.8,0.7,4.8,0.6c2-0.1,7-1.6,7-1.6
		s3,1.5,4.5,1.9c1.4,0.4,4.6-0.8,4.6-0.8L-131,274.7z"/>
	<path class="st10" d="M-121.6,269.9v5.2l-5.6,9l-13.3,5.7l-9.3-4.5l-8-10.9l0.8-5.7l2.8-1.7c0,0,0.1,4.8,0.4,6
		c0.3,1.2,6.9,7.7,9.2,8.4c2.3,0.6,7.4,0.5,11.2,0C-129.7,280.8-121.6,269.9-121.6,269.9L-121.6,269.9z"/>
	<polygon class="st1" points="-97.4,300.8 -99,315.1 -100.7,317.5 -108.6,318.8 -115.3,314.6 -120.1,314.7 -125.1,318.3 
		-129.9,317.8 -130,315.7 -134.4,318.8 -137,316.2 -135.6,314.4 -137.5,313.5 -136.7,310.5 -134.4,308.5 -132.4,305 -117.3,297.8 
		-104.4,296.1 	"/>
	<path class="st1" d="M-132.9,302.5l2.4,7.4l-4.3,4.7l-3.1-0.4l-1.1-3.1l-1.5,0.7l-7.8-3.1l-6.3,5.3l-12.7,4.3l-10.1-0.4l-2.2-3.9
		l3.5-13.3c0,0,8.1-9.3,8.2-9.3c0.1,0,14.5,0,14.5,0l6.5,2.6l9.9,3.3l2.4,4.1L-132.9,302.5z"/>
	<polygon class="st7" points="-160.9,237.5 -163.8,234.8 -163.8,229 -162.2,225.6 -161.5,221.8 -161.5,218.8 -158.2,221 -158.2,225 
		-156.8,229 	"/>
	<g>
		<path class="st5" d="M-147.2,258.8c0,0-4.7,0.2-9.5,0.3c-4.7,0.1-9.4,0.2-9.4,0.2v0c0,0,0.3,0,0.8-0.1c0.5,0,1.3-0.1,2.1-0.2
			c0.9-0.1,1.9-0.1,3-0.2c1.1-0.1,2.3-0.1,3.5-0.1c1.2,0,2.4,0,3.5,0c1.1,0,2.1,0,3,0c0.9,0,1.6,0.1,2.1,0.1
			C-147.6,258.8-147.2,258.8-147.2,258.8L-147.2,258.8z"/>
	</g>
	<g>
		<path class="st5" d="M-148.4,260.1c0,0-4.7,0.6-9.3,1.1c-4.7,0.5-9.4,1.1-9.4,1.1v0c0,0,0.3,0,0.8-0.1c0.5-0.1,1.2-0.2,2.1-0.3
			c0.9-0.1,1.9-0.3,3-0.4c1.1-0.1,2.3-0.3,3.4-0.4c1.2-0.1,2.3-0.2,3.4-0.3c1.1-0.1,2.1-0.2,3-0.2c0.9-0.1,1.6-0.1,2.1-0.1
			C-148.7,260.1-148.4,260.1-148.4,260.1L-148.4,260.1z"/>
	</g>
	<g>
		<path class="st5" d="M-111.8,263.5c0,0-4.7-0.6-9.4-1.3c-4.7-0.6-9.3-1.3-9.3-1.3v0c0,0,0.3,0,0.8,0.1c0.5,0.1,1.3,0.1,2.1,0.2
			c0.9,0.1,1.9,0.2,3,0.3c1.1,0.1,2.3,0.3,3.4,0.4c1.2,0.2,2.3,0.3,3.4,0.5c1.1,0.2,2.1,0.4,3,0.5c0.9,0.2,1.6,0.3,2.1,0.4
			C-112,263.5-111.8,263.5-111.8,263.5L-111.8,263.5z"/>
	</g>
	<g>
		<path class="st5" d="M-110,260.3c0,0-4.7-0.1-9.5-0.1c-4.7-0.1-9.4-0.2-9.4-0.2v0c0,0,0.3,0,0.8,0c0.5,0,1.3-0.1,2.1-0.1
			s1.9,0,3,0c1.1,0,2.3,0,3.5,0c1.2,0,2.4,0.1,3.5,0.1c1.1,0,2.1,0.1,3,0.1c0.9,0,1.6,0.1,2.1,0.1C-110.3,260.3-110,260.3-110,260.3
			L-110,260.3z"/>
	</g>
</g>
</svg>
