<?xml version="1.0" encoding="utf-8"?>
<!-- Generator: Adobe Illustrator 19.0.0, SVG Export Plug-In . SVG Version: 6.00 Build 0)  -->
<svg version="1.1" id="Layer_3" xmlns="http://www.w3.org/2000/svg" xmlns:xlink="http://www.w3.org/1999/xlink" x="0px" y="0px"
	 viewBox="-202 203 107 107" style="enable-background:new -202 203 107 107;" xml:space="preserve">
<style type="text/css">
	.st0{fill:#84898C;}
	.st1{fill:#8C9196;}
	.st2{fill:#A4976D;}
	.st3{fill:#BEC1C6;}
	.st4{fill:#5C5650;}
	.st5{fill:#FFFFFF;}
	.st6{fill:#A84354;}
	.st7{fill:#7C7671;}
	.st8{fill:#1A180C;}
	.st9{fill:#5B554F;}
	.st10{fill:#231F20;}
	.st11{fill:#927C4A;}
</style>
<g>
	<polyline class="st0" points="-99.3,296.1 -82.2,299.3 -71.5,301.7 -63.4,311.7 -56.2,323.4 -59.5,329.2 -103.3,327.4 
		-115.8,323.2 	"/>
	<polygon class="st1" points="-103.3,291.3 -95.2,296.3 -90.3,300.9 -87.9,305.1 -86.8,313.1 -84.7,318.8 -83.8,324 -107.9,320.6 	
		"/>
	<polyline class="st2" points="-185.8,277.4 -188,281.6 -188.5,283.8 -187.8,286.8 -186.7,288.7 -188,291.9 -188.5,295.9 
		-187.4,297.1 -185,298.1 -183.7,302.3 -183.4,306.9 -184.6,312.3 -185,315.7 -185,319.7 -182.1,324.2 -172.7,332.2 -113.1,329.4 
		-107.2,317.8 -104.2,312.1 -100.6,304.3 -100.6,298.5 -103.5,288.3 -105.9,284.2 -107.9,281 -110.7,279.3 	"/>
	<polygon class="st3" points="-150.7,305.8 -146.9,305.4 -139.7,303.6 -136.6,301.7 -135.2,299.3 -133.5,300.8 -132.6,299.2 
		-131.5,297 -129.8,296.3 -127.4,294.8 -126.8,293.1 -123.9,292.6 -122.7,291.1 -120.4,290.5 -119.1,290.5 -118,288.5 -114.6,286.4 
		-111.7,284 -112.2,281 -110.7,279.3 -110.4,275.5 -110,273.8 -108.5,271 -111.1,267 -116.1,264 -122.2,260.2 -146.5,263.5 
		-150.7,263.5 -174.9,260.2 -181.1,264 -186,267 -188.7,271 -187.2,273.8 -186.7,275.5 -186.4,279.3 -184.9,281 -185.4,284 
		-182.6,286.4 -179.2,288.5 -178.1,290.5 -176.7,290.5 -174.4,291.1 -173.3,292.6 -170.4,293.1 -169.8,294.8 -167.3,296.3 
		-165.6,297 -164.5,299.2 -164.1,301.8 -163.3,303.3 -160.7,302.1 -157.2,304.1 	"/>
	<polygon class="st4" points="-146.5,293 -144.9,292.8 -143.1,292.6 -141.4,291.7 -140.5,291.1 -140.4,289.5 -140.4,288.3 
		-141.1,286.6 -141.3,285.7 -142.9,285.2 -146,285.4 -151.2,285.4 -154.3,285.2 -155.9,285.7 -156,286.6 -156.7,288.3 -156.8,289.5 
		-156.6,291.1 -155.7,291.7 -154.1,292.6 -152.3,292.8 -150.7,293 	"/>
	<polyline class="st5" points="-158.8,285.5 -158.4,290.6 -157.6,292.5 -156.9,292.1 -156.2,290.2 -155.5,285.7 	"/>
	<polyline class="st5" points="-138.3,285.5 -138.8,290.6 -139.5,292.5 -140.2,292.1 -140.9,290.2 -141.7,285.7 	"/>
	<polyline class="st6" points="-146.5,287.7 -144,287.4 -142.7,287.3 -141.7,286.5 -146,286.2 -146.5,286.3 -150.7,286.3 
		-151.2,286.2 -155.5,286.5 -154.4,287.3 -153.2,287.4 -150.7,287.7 	"/>
	<polyline class="st7" points="-146.5,239.5 -137.3,244.9 -110,262.9 -108.2,263.1 -112.2,257.2 -113.9,254.4 -113.6,251 
		-113.3,248.9 -113.1,246.4 -118.2,237.8 -126.8,231.3 -133.7,228.9 -140,228 -146.5,227.8 -150.7,227.8 -157.1,228 -163.5,228.9 
		-170.4,231.3 -179,237.8 -184,246.4 -183.8,248.9 -183.5,251 -183.2,254.4 -184.9,257.2 -189,263.1 -187.2,262.9 -159.9,244.9 
		-150.7,239.5 	"/>
	<path class="st0" d="M-150.7,238.1"/>
	<path class="st0" d="M-146.5,238.1"/>
	<polyline class="st0" points="-146.5,238.1 -141.5,239.2 -138.2,240.3 -135.1,241.6 -129,244.3 -124.4,247.5 -120.3,251 
		-117,254.7 -111,260.1 -109.1,264.6 -108.4,268 -117.1,267.2 -118.5,266.3 -120.7,265.5 -123,266.5 -128.2,269.4 -132,272.1 
		-134.7,274.4 -135.4,275.5 -143.6,271.9 -146.5,267.4 -150.7,267.4 -153.6,271.9 -161.8,275.5 -162.5,274.4 -165.1,272.1 
		-169,269.4 -174.1,266.5 -176.4,265.5 -178.7,266.3 -180.1,267.2 -188.8,268 -188.1,264.6 -186.1,260.1 -180.2,254.7 -176.8,251 
		-172.8,247.5 -168.1,244.3 -162.1,241.6 -158.9,240.3 -155.6,239.2 -150.7,238.1 	"/>
	<polygon class="st8" points="-157.2,232.3 -159.8,234.4 -162.6,235.8 -166.8,238.2 -170.1,240 -186.6,230.6 -187.3,229.1 
		-185.8,222.9 -184.7,220.5 -182.4,218.5 -180.8,218 -176.6,218.9 -173.8,220.9 -170,223.9 -166.6,226.1 -163.5,228.9 -159,231.1 
		-157.6,231.5 	"/>
	<polygon class="st3" points="-167.3,230.9 -167.5,234.5 -167.8,238 -168.6,240.6 -169.8,241.5 -175.5,245.9 -178.9,249 
		-180.9,249.2 -183.7,247.4 -185.3,244.6 -186.8,236.7 -188,230.6 -186.7,227.8 -184.5,221.7 -182.6,220.4 -180.6,220.7 -176.6,222 
		-171.7,226.5 	"/>
	<polyline class="st3" points="-146.5,286.3 -143.6,286.9 -141.2,286.5 -139,286.1 -136.8,284.5 -135.7,282 -135.1,279.6 
		-134.6,277.3 -134.7,274.4 -135.4,272.1 -136.9,269.3 -144.5,272.6 -152.7,272.6 -160.3,269.3 -161.8,272.1 -162.5,274.4 
		-162.6,277.3 -162.1,279.6 -161.5,282 -160.4,284.5 -158.1,286.1 -155.9,286.5 -153.6,286.9 -150.7,286.3 	"/>
	<polyline class="st9" points="-146.5,274.7 -143.7,274.6 -139.4,272.7 -137.3,270.4 -136,269 -135.1,267.6 -132.9,266.5 
		-130.6,265.2 -128.8,263.9 -127.7,262.5 -126.8,259.4 -126.8,257.1 -128.8,254.2 -131.7,253.3 -136,253.2 -138.6,253.6 
		-141.2,255.8 -141.4,258.5 -141.5,261 -141.5,262.8 -142.3,264 -144.1,264.4 -146.5,264.8 -150.7,264.8 -153.1,264.4 -154.9,264 
		-155.6,262.8 -155.6,261 -155.7,258.5 -155.9,255.8 -158.5,253.6 -161.2,253.2 -165.4,253.3 -168.3,254.2 -170.4,257.1 
		-170.4,259.4 -169.5,262.5 -168.3,263.9 -166.5,265.2 -164.3,266.5 -162.1,267.6 -161.2,269 -159.9,270.4 -157.7,272.7 
		-153.5,274.6 -150.7,274.7 	"/>
	<polygon points="-160.3,263.1 -161.5,262.1 -163.2,262.1 -164.7,261.8 -166.8,260.9 -167.6,260 -168.5,258.2 -169.3,257.2 
		-166.2,257.6 -164.9,257.6 -162.6,258.1 -161.4,259 -160.5,260.1 -160.1,261.9 	"/>
	<polygon class="st8" points="-139.9,232.3 -137.4,234.4 -134.6,235.8 -130.3,238.2 -127.1,240 -110.5,230.6 -109.9,229.1 
		-111.3,222.9 -112.4,220.5 -114.8,218.5 -116.4,218 -120.5,218.9 -123.3,220.9 -127.2,223.9 -130.5,226.1 -133.7,228.9 
		-138.1,231.1 -139.5,231.5 	"/>
	<path class="st3" d="M-150.7,286.3"/>
	<path class="st3" d="M-146.5,286"/>
	<polygon points="-136.9,263.1 -135.6,262.1 -134,262.1 -132.5,261.8 -130.4,260.9 -129.6,260 -128.6,258.2 -127.9,257.2 
		-131,257.6 -132.3,257.6 -134.6,258.1 -135.7,259 -136.7,260.1 -137.1,261.9 	"/>
	<polyline class="st10" points="-146.5,285 -144.7,284.8 -142.5,283.7 -140.7,281.5 -139.7,279.3 -140.5,276.1 -142,274.9 
		-143.5,274.3 -145.6,274 -146.5,274 -150.7,274 -151.6,274 -153.7,274.3 -155.2,274.9 -156.6,276.1 -157.4,279.3 -156.4,281.5 
		-154.7,283.7 -152.5,284.8 -150.7,285 	"/>
	<polygon class="st3" points="-129.8,230.9 -129.6,234.5 -129.3,238 -128.6,240.6 -127.4,241.5 -121.6,245.9 -118.3,249 
		-116.3,249.2 -113.4,247.4 -111.8,244.6 -110.3,236.7 -109.2,230.6 -110.4,227.8 -112.6,221.7 -114.6,220.4 -116.6,220.7 
		-120.5,222 -125.5,226.5 	"/>
	<path class="st11" d="M-162.9,259.2c0.3-0.3,0.8-0.1,0.8,0.2c0,0.4-0.5,2.4-2.4,1.8s-1.5-2.5-1.3-2.8c0.3-0.3,0.6,0,0.6,0.2
		c0,0.2-0.2,1.7,1.1,1.8C-162.7,260.5-163.2,259.6-162.9,259.2z"/>
	<ellipse class="st5" cx="-164.9" cy="258.9" rx="0.5" ry="0.5"/>
	<path class="st11" d="M-134.3,259.2c-0.3-0.3-0.8-0.1-0.8,0.2s0.5,2.4,2.4,1.8s1.5-2.5,1.3-2.8c-0.3-0.3-0.6,0-0.6,0.2
		c0,0.2,0.2,1.7-1.1,1.8C-134.5,260.5-134,259.6-134.3,259.2z"/>
	<ellipse class="st5" cx="-134" cy="259.4" rx="0.5" ry="0.5"/>
</g>
</svg>
